<svg width="58" height="44" viewBox="0 0 58 44" fill="none" xmlns="http://www.w3.org/2000/svg">
<circle cx="43" cy="15" r="15" fill="#CD3728" fill-opacity="0.3"/>
<mask id="path-2-inside-1_131_48" fill="white">
<rect x="38" y="19" width="12" height="25" rx="0.5"/>
</mask>
<rect x="38" y="19" width="12" height="25" rx="0.5" stroke="#0080B4" stroke-width="3" mask="url(#path-2-inside-1_131_48)"/>
<mask id="path-3-inside-2_131_48" fill="white">
<rect y="19" width="12" height="25" rx="0.5"/>
</mask>
<rect y="19" width="12" height="25" rx="0.5" stroke="#0080B4" stroke-width="3" mask="url(#path-3-inside-2_131_48)"/>
<mask id="path-4-inside-3_131_48" fill="white">
<rect x="21" y="31" width="8" height="13" rx="0.5"/>
</mask>
<rect x="21" y="31" width="8" height="13" rx="0.5" stroke="#0080B4" stroke-width="3" mask="url(#path-4-inside-3_131_48)"/>
<path fill-rule="evenodd" clip-rule="evenodd" d="M30.811 6.5H37.5V42.5H12.5V6.5H19.189C19.326 5.96784 19.5341 5.46426 19.8027 5H11.5C11.2239 5 11 5.22386 11 5.5V43.5C11 43.7761 11.2239 44 11.5 44H38.5C38.7761 44 39 43.7761 39 43.5V5.5C39 5.22386 38.7761 5 38.5 5H30.1973C30.4659 5.46426 30.674 5.96784 30.811 6.5Z" fill="#0080B4"/>
<circle cx="24.5" cy="7.5" r="5.75" stroke="#0080B4" stroke-width="1.5"/>
<line x1="24.75" y1="4" x2="24.75" y2="11" stroke="#0080B4" stroke-width="1.5"/>
<line x1="21.0001" y1="7.25" x2="28.5001" y2="7.25115" stroke="#0080B4" stroke-width="1.5"/>
<rect x="4.75" y="30.75" width="3.5" height="11.5" stroke="#0080B4" stroke-width="1.5"/>
<rect x="41.75" y="30.75" width="3.5" height="11.5" stroke="#0080B4" stroke-width="1.5"/>
<rect x="26.75" y="16.75" width="5.5" height="3.5" stroke="#0080B4" stroke-width="1.5"/>
<rect x="17.75" y="16.75" width="5.5" height="3.5" stroke="#0080B4" stroke-width="1.5"/>
<rect x="26.75" y="23.75" width="5.5" height="3.5" stroke="#0080B4" stroke-width="1.5"/>
<rect x="17.75" y="23.75" width="5.5" height="3.5" stroke="#0080B4" stroke-width="1.5"/>
</svg>
