<svg width="57" height="41" viewBox="0 0 57 41" fill="none" xmlns="http://www.w3.org/2000/svg">
<circle cx="42" cy="15" r="15" fill="#CD3728" fill-opacity="0.3"/>
<path d="M1 1L8.95065 4.02958C9.22374 4.13364 9.43764 4.35195 9.53611 4.6271L17.5282 26.9597C17.642 27.278 17.4062 27.6129 17.0682 27.6129V27.6129C16.857 27.6129 16.6698 27.7485 16.604 27.9492L15.0493 32.6883C14.8372 33.335 15.319 34 15.9995 34H45" stroke="#0080B4" stroke-width="1.5"/>
<path d="M17 9H49.623C50.3026 9 50.7842 9.6632 50.574 10.3094L45.0429 27.3094C44.9089 27.7212 44.525 28 44.0919 28H16.5" stroke="#0080B4" stroke-width="1.5"/>
<path d="M20 15H49" stroke="#0080B4" stroke-width="1.5"/>
<path d="M22 22H47" stroke="#0080B4" stroke-width="1.5"/>
<circle cx="23.5" cy="37.5" r="2.75" stroke="#0080B4" stroke-width="1.5"/>
<circle cx="37.5" cy="37.5" r="2.75" stroke="#0080B4" stroke-width="1.5"/>
</svg>
