<svg width="57" height="42" viewBox="0 0 57 42" fill="none" xmlns="http://www.w3.org/2000/svg">
<circle cx="42" cy="15" r="15" fill="#CD3728" fill-opacity="0.3"/>
<line x1="11" y1="10.25" x2="29" y2="10.25" stroke="#0080B4" stroke-width="1.5"/>
<line x1="11" y1="14.25" x2="23" y2="14.25" stroke="#0080B4" stroke-width="1.5"/>
<line x1="11" y1="19.25" x2="21" y2="19.25" stroke="#0080B4" stroke-width="1.5"/>
<line x1="11" y1="23.25" x2="21" y2="23.25" stroke="#0080B4" stroke-width="1.5"/>
<line x1="11" y1="28.25" x2="23" y2="28.25" stroke="#0080B4" stroke-width="1.5"/>
<path fill-rule="evenodd" clip-rule="evenodd" d="M10.5169 2.9303C9.40914 2.9303 6.99875 3.5909 6.45605 6.3044L6.44148 6.37722V6.45149V33.9676H1.09487H0.468935L0.356965 34.5835C0.160412 35.6645 0.0858724 37.3116 0.584487 38.6748C0.838496 39.3693 1.25894 40.0365 1.93447 40.4897C2.60862 40.9419 3.45661 41.1271 4.46529 41.01H26.9715C28.8797 41.911 30.4787 41.7282 31.6931 41.0184C32.891 40.3182 33.6225 39.1609 33.9429 38.3064L33.9907 38.1791V38.043V30.7362C33.5658 30.8032 33.1302 30.838 32.6864 30.838C32.621 30.838 32.5557 30.8372 32.4907 30.8357V37.8997C32.2352 38.5071 31.7095 39.2714 30.9362 39.7233C30.181 40.1648 29.1005 40.3629 27.5931 39.6447C26.9518 38.9457 25.8453 37.0959 26.2211 34.8409L26.3667 33.9676H25.4813H7.94148V6.5296C8.31153 4.86616 9.78721 4.4303 10.5169 4.4303C14.1177 4.4303 20.6284 4.45306 26.2404 4.47583C28.7731 4.48611 31.1223 4.49638 32.9378 4.50456C32.8011 4.65167 32.6828 4.80766 32.5895 4.97091L32.4907 5.14384V5.34301L32.4907 9.22268V14.2131C32.5557 14.2116 32.621 14.2108 32.6864 14.2108C33.1302 14.2108 33.5658 14.2456 33.9907 14.3125V9.97268L39.3373 9.97267L39.5644 9.97267L39.7533 9.84671L39.3373 9.22267C39.7533 9.84671 39.7538 9.84638 39.7543 9.84604L39.7554 9.84534L39.7576 9.84385L39.7625 9.84052L39.7741 9.83242C39.7827 9.82637 39.7929 9.81904 39.8044 9.81038C39.8276 9.79308 39.8566 9.77041 39.8899 9.74217C39.9565 9.68583 40.0416 9.60647 40.1335 9.5024C40.3172 9.29414 40.531 8.98316 40.6723 8.55922C40.965 7.68119 40.8963 6.4836 39.9804 4.95714C39.1246 3.53087 37.8148 3.02583 36.5695 3.02213L36.5695 3.02138L36.5689 3.02138L36.5663 3.02136L36.556 3.02132L36.5154 3.02112L36.3563 3.02036L35.7458 3.01747L33.5125 3.00715C31.6332 2.99861 29.0524 2.98723 26.2465 2.97584C20.6351 2.95307 14.1212 2.9303 10.5169 2.9303ZM36.0545 4.56045C36.2076 4.53735 36.3604 4.52379 36.5116 4.52112L36.5488 4.5213L36.559 4.52135L36.5616 4.52136L36.5623 4.52136L36.5623 4.52064C37.389 4.51941 38.1664 4.84918 38.6942 5.72888C39.441 6.97363 39.3723 7.71587 39.2493 8.08487C39.1916 8.25786 39.1103 8.38559 39.0402 8.47267L33.9907 8.47268L33.9907 5.57736C34.1197 5.42478 34.337 5.23716 34.6484 5.05599C35.0482 4.82338 35.5419 4.63783 36.0545 4.56045ZM24.6506 35.4676C24.5821 37.1009 25.0893 38.5071 25.665 39.51H4.42029H4.3736L4.32727 39.5158C3.58353 39.6088 3.09909 39.4647 2.77012 39.244C2.43186 39.0171 2.17336 38.6521 1.99321 38.1595C1.69787 37.3521 1.66165 36.3307 1.7472 35.4676H7.19148H24.6506Z" fill="#0080B4"/>
<circle cx="32.5" cy="22.5" r="7.75" stroke="#0080B4" stroke-width="1.5"/>
<path d="M33.74 20.62V20.76H34.9V21.58H33.68C33.6067 22.0267 33.4667 22.3833 33.26 22.65C33.06 22.91 32.7733 23.1 32.4 23.22C32.0267 23.3333 31.5433 23.39 30.95 23.39V24.02C30.95 24.3867 31.0267 24.6767 31.18 24.89C31.34 25.1033 31.6067 25.21 31.98 25.21C32.66 25.21 33 24.8267 33 24.06H34.05C34.0433 24.7333 33.86 25.2433 33.5 25.59C33.1467 25.93 32.6333 26.1 31.96 26.1C31.2867 26.1 30.77 25.9133 30.41 25.54C30.0567 25.1667 29.88 24.6433 29.88 23.97V22.6C30.62 22.6 31.1633 22.58 31.51 22.54C31.8567 22.4933 32.1133 22.4 32.28 22.26C32.4533 22.12 32.5667 21.8933 32.62 21.58H29.46V20.76H32.67V20.62V19.87H29.46V19.04H34.9V19.87H33.74V20.62Z" fill="#0080B4"/>
</svg>
