<svg width="697" height="543" viewBox="0 0 697 543" fill="none" xmlns="http://www.w3.org/2000/svg">
<path d="M456.02 342.481H331.806V392.951H456.02V342.481Z" fill="#283D70"/>
<path d="M495.072 407.789H292.754C292.754 399.594 299.395 392.959 307.578 392.959H480.247C488.431 392.959 495.072 399.603 495.072 407.789Z" fill="#304886"/>
<path d="M629.561 352.263H175.93C156.905 352.263 141.488 336.832 141.488 317.809V40.7376C141.488 21.7059 156.914 6.28354 175.93 6.28354H629.561C648.585 6.28354 664.002 21.7147 664.002 40.7376V317.809C664.002 336.841 648.585 352.263 629.561 352.263Z" fill="#3A4F92"/>
<path d="M620.27 339.753H185.22C166.195 339.753 150.778 324.321 150.778 305.298V53.2482C150.778 34.2165 166.204 18.7941 185.22 18.7941H620.27C639.295 18.7941 654.712 34.2252 654.712 53.2482V305.298C654.712 324.33 639.295 339.753 620.27 339.753Z" fill="#7F98EC"/>
<path d="M672.832 265.369H109V270.095H672.832V265.369Z" fill="white"/>
<path d="M418.058 265.369H108.938V270.095H418.058V265.369Z" fill="#DB7C4C"/>
<path d="M406.798 267.732C406.798 263.294 410.397 259.694 414.833 259.694C419.269 259.694 422.868 263.294 422.868 267.732C422.868 272.17 419.269 275.77 414.833 275.77C410.397 275.77 406.798 272.17 406.798 267.732Z" fill="#DB7C4C"/>
<path d="M408.119 182.828C424.198 171.234 427.837 148.797 416.248 132.713C404.659 116.629 382.23 112.988 366.152 124.581C350.073 136.175 346.434 158.612 358.023 174.696C369.612 190.78 392.041 194.421 408.119 182.828Z" fill="#DB7C4C"/>
<path d="M377.462 134.876V172.539C377.462 174.57 379.789 175.721 381.401 174.491L406.073 155.66C407.363 154.675 407.363 152.74 406.073 151.763L381.401 132.932C379.789 131.694 377.462 132.845 377.462 134.876Z" fill="white"/>
<path d="M407.521 323.877C418.769 323.877 427.888 314.755 427.888 303.502C427.888 292.25 418.769 283.128 407.521 283.128C396.273 283.128 387.154 292.25 387.154 303.502C387.154 314.755 396.273 323.877 407.521 323.877Z" fill="#DB7C4C"/>
<path d="M324.197 303.502C324.197 292.247 333.313 283.128 344.564 283.128C355.815 283.128 364.931 292.247 364.931 303.502C364.931 314.758 355.815 323.877 344.564 323.877C333.313 323.877 324.197 314.758 324.197 303.502Z" fill="#DB7C4C"/>
<path d="M450.966 303.502C450.966 292.247 460.082 283.128 471.333 283.128C482.584 283.128 491.7 292.247 491.7 303.502C491.7 314.758 482.584 323.877 471.333 323.877C460.082 323.877 450.966 314.758 450.966 303.502Z" fill="#DB7C4C"/>
<path d="M347.64 309.195V297.81C347.64 296.362 345.984 295.543 344.834 296.423L337.374 302.116C336.459 302.814 336.459 304.191 337.374 304.889L344.834 310.582C345.984 311.462 347.64 310.643 347.64 309.195Z" fill="white"/>
<path d="M467.828 297.958V309.039C467.828 310.547 469.554 311.401 470.748 310.486L478.007 304.941C478.966 304.209 478.966 302.779 478.007 302.047L470.748 296.502C469.554 295.604 467.828 296.458 467.828 297.958Z" fill="white"/>
<path d="M402.317 312.726C401.036 312.726 399.999 311.689 399.999 310.407V296.598C399.999 295.316 401.036 294.279 402.317 294.279C403.598 294.279 404.635 295.316 404.635 296.598V310.407C404.627 311.689 403.59 312.726 402.317 312.726Z" fill="white"/>
<path d="M413.577 312.726C412.296 312.726 411.259 311.689 411.259 310.407V296.598C411.259 295.316 412.296 294.279 413.577 294.279C414.858 294.279 415.895 295.316 415.895 296.598V310.407C415.895 311.689 414.858 312.726 413.577 312.726Z" fill="white"/>
<path d="M613.817 254.948C618.034 250.729 618.034 243.89 613.817 239.672C609.601 235.454 602.764 235.454 598.547 239.672C594.33 243.89 594.33 250.729 598.547 254.948C602.764 259.166 609.601 259.166 613.817 254.948Z" fill="#ECF2F9"/>
<path d="M625.536 235.71C624.647 235.71 623.767 235.388 623.069 234.734C617.396 229.39 611.531 226.783 605.631 227.018C596.445 227.367 589.892 234.455 589.822 234.533C588.489 235.998 586.214 236.111 584.741 234.786C583.268 233.452 583.146 231.194 584.471 229.712C584.811 229.329 593.02 220.34 605.256 219.826C613.187 219.494 620.838 222.746 627.993 229.494C629.44 230.854 629.51 233.138 628.142 234.586C627.444 235.327 626.486 235.71 625.536 235.71Z" fill="#ECF2F9"/>
<path d="M636.725 220.105C635.836 220.105 634.956 219.782 634.259 219.128C624.838 210.253 615.016 205.938 605.09 206.339C589.638 206.949 578.736 218.797 578.631 218.919C577.298 220.392 575.023 220.506 573.551 219.181C572.078 217.855 571.956 215.58 573.28 214.107C573.803 213.531 586.213 199.931 604.724 199.155C616.698 198.649 628.298 203.61 639.2 213.889C640.647 215.249 640.717 217.533 639.349 218.98C638.634 219.73 637.684 220.105 636.725 220.105Z" fill="#ECF2F9"/>
<path d="M648.517 204.909C647.628 204.909 646.748 204.586 646.051 203.933C632.682 191.335 618.703 185.223 604.515 185.808C582.466 186.697 566.989 203.558 566.832 203.723C565.498 205.197 563.224 205.319 561.751 203.985C560.278 202.66 560.156 200.384 561.481 198.911C562.187 198.126 579.033 179.661 604.14 178.615C620.376 177.935 636.133 184.692 650.983 198.693C652.43 200.053 652.5 202.337 651.131 203.784C650.434 204.534 649.476 204.909 648.517 204.909Z" fill="#ECF2F9"/>
<path d="M658.338 428.442H560.608C539.422 428.442 522.245 411.259 522.245 390.065V311.706C522.245 290.512 539.422 273.329 560.608 273.329H658.338C679.524 273.329 696.701 290.512 696.701 311.706V390.065C696.701 411.259 679.524 428.442 658.338 428.442Z" fill="#DB7C4C"/>
<path d="M651.967 418.329H566.988C548.564 418.329 533.627 403.386 533.627 384.956V316.815C533.627 298.385 548.564 283.442 566.988 283.442H651.967C670.391 283.442 685.328 298.385 685.328 316.815V384.956C685.32 403.386 670.391 418.329 651.967 418.329Z" fill="#E1954D"/>
<path d="M631.992 401.512H585.167C583.895 401.512 582.866 400.483 582.866 399.21C582.866 397.937 583.895 396.909 585.167 396.909H631.992C633.265 396.909 634.293 397.937 634.293 399.21C634.293 400.483 633.265 401.512 631.992 401.512Z" fill="#283D70"/>
<path d="M545.374 297.112C545.374 295.212 546.917 293.668 548.816 293.668C550.716 293.668 552.259 295.212 552.259 297.112C552.259 299.013 550.716 300.556 548.816 300.556C546.917 300.556 545.374 299.013 545.374 297.112Z" fill="#ECF2F9"/>
<path d="M560.564 297.112C560.564 295.212 562.107 293.668 564.007 293.668C565.907 293.668 567.449 295.212 567.449 297.112C567.449 299.013 565.907 300.556 564.007 300.556C562.098 300.556 560.564 299.013 560.564 297.112Z" fill="#283D70"/>
<path d="M576.966 297.112C576.966 295.212 578.508 293.668 580.408 293.668C582.308 293.668 583.851 295.212 583.851 297.112C583.851 299.013 582.308 300.556 580.408 300.556C578.508 300.556 576.966 299.013 576.966 297.112Z" fill="#7F98EC"/>
<path d="M212.542 490.228L203.949 460.725L239.393 457.849L242.347 492.259L231.75 498.972L212.542 490.228Z" fill="#EFBE9D"/>
<path d="M113.738 457.395L117.852 507.995L141.068 504.63L142.637 454.937L113.738 457.395Z" fill="#EFBE9D"/>
<path d="M141.145 494.639C141.145 494.639 125.562 507.22 116.882 497.978L115.157 502.895L108.333 537.533C107.888 539.773 109.126 542.118 111.366 542.79C113.083 543.304 114.904 542.807 116.08 541.543C122.373 534.778 145.389 509.783 144.918 506.662L144.204 498.336C144.055 496.601 142.853 495.145 141.145 494.639Z" fill="#FF725E"/>
<g opacity="0.6">
<g opacity="0.6">
<g opacity="0.6">
<g opacity="0.6">
<g opacity="0.6">
<g opacity="0.6">
<g opacity="0.6">
<g opacity="0.6">
<path opacity="0.6" d="M112.199 542.955L144.723 503.758L144.854 505.58C145.177 507.542 144.349 508.387 143.486 509.721C140.915 513.679 133.647 522.642 116.234 541.534C115.215 542.632 113.698 543.164 112.199 542.955Z" fill="white"/>
</g>
</g>
</g>
</g>
</g>
</g>
</g>
</g>
<g opacity="0.6">
<g opacity="0.6">
<g opacity="0.6">
<g opacity="0.6">
<g opacity="0.6">
<g opacity="0.6">
<g opacity="0.6">
<g opacity="0.6">
<g opacity="0.6">
<path opacity="0.6" d="M139.157 498.719C138.103 499.539 137.859 501.195 138.652 502.25C139.445 503.305 141.171 503.558 142.243 502.756C143.306 501.954 143.672 499.975 142.757 499.016C141.842 498.057 139.802 497.865 138.966 498.894" fill="white"/>
</g>
</g>
</g>
</g>
</g>
</g>
</g>
</g>
</g>
<path d="M120.963 523.47C120.719 523.609 119.569 521.421 116.858 520.401C114.183 519.294 111.786 520.07 111.716 519.808C111.673 519.704 112.204 519.329 113.224 519.12C114.235 518.902 115.743 518.936 117.224 519.521C118.706 520.113 119.813 521.107 120.379 521.953C120.963 522.79 121.076 523.426 120.963 523.47Z" fill="#263238"/>
<path d="M118.227 529.442C118.027 529.643 116.519 528.343 114.192 527.873C111.874 527.35 109.939 527.899 109.844 527.637C109.704 527.428 111.761 526.364 114.402 526.949C117.051 527.507 118.445 529.311 118.227 529.442Z" fill="#263238"/>
<path d="M126.294 515.676C126.102 515.894 123.784 513.889 120.237 512.834C116.708 511.726 113.623 512.093 113.588 511.805C113.501 511.578 116.734 510.75 120.525 511.927C124.333 513.069 126.503 515.545 126.294 515.676Z" fill="#263238"/>
<path d="M126.313 505.284C126.217 505.545 123.707 504.726 120.526 504.839C117.345 504.909 114.888 505.868 114.774 505.606C114.635 505.406 117.084 503.976 120.5 503.889C123.916 503.784 126.435 505.074 126.313 505.284Z" fill="#263238"/>
<path d="M118.719 504.883C118.666 504.874 118.631 504.29 118.849 503.253C119.067 502.224 119.555 500.733 120.662 499.147C121.228 498.406 121.847 497.429 123.137 497.002C123.782 496.784 124.68 496.993 125.133 497.612C125.586 498.223 125.664 498.937 125.603 499.617C125.237 502.329 122.544 504.709 119.363 504.761C116.174 504.761 113.524 502.704 112.548 500.219C112.348 499.583 112.243 498.815 112.67 498.127C113.089 497.429 114.021 497.237 114.631 497.412C115.912 497.743 116.653 498.563 117.359 499.19C118.736 500.542 119.529 501.884 119.974 502.834C120.418 503.793 120.531 504.369 120.479 504.386C120.313 504.482 119.616 502.163 116.888 499.67C116.2 499.086 115.407 498.362 114.474 498.179C114.021 498.083 113.603 498.222 113.402 498.562C113.193 498.894 113.219 499.434 113.402 499.94C114.23 501.971 116.662 503.846 119.355 503.811C122.039 503.793 124.409 501.701 124.723 499.522C124.793 498.998 124.706 498.449 124.453 498.109C124.2 497.769 123.782 497.638 123.355 497.76C122.457 498.005 121.786 498.841 121.228 499.539C119.006 502.494 118.91 504.953 118.719 504.883Z" fill="#263238"/>
<path d="M242.91 488.389L242.945 490.333C242.945 490.333 276.018 503.157 276.445 509.408L211.074 509.861L211.815 488.092C221.567 492.53 231.737 492.966 242.91 488.389Z" fill="#FF725E"/>
<g opacity="0.6">
<g opacity="0.6">
<g opacity="0.6">
<g opacity="0.6">
<g opacity="0.6">
<g opacity="0.6">
<g opacity="0.6">
<g opacity="0.6">
<g opacity="0.6">
<g opacity="0.6">
<g opacity="0.6">
<g opacity="0.6">
<g opacity="0.6">
<g opacity="0.6">
<path opacity="0.6" d="M218.478 495.005C217.214 495.363 216.351 496.793 216.656 498.065C216.961 499.338 218.408 500.236 219.672 499.905C220.944 499.574 222.033 497.891 221.589 496.653C221.144 495.415 219.393 494.465 218.242 495.093" fill="white"/>
</g>
</g>
</g>
</g>
</g>
</g>
</g>
</g>
</g>
</g>
</g>
</g>
</g>
</g>
<g opacity="0.6">
<g opacity="0.6">
<g opacity="0.6">
<g opacity="0.6">
<g opacity="0.6">
<g opacity="0.6">
<g opacity="0.6">
<g opacity="0.6">
<g opacity="0.6">
<g opacity="0.6">
<g opacity="0.6">
<g opacity="0.6">
<g opacity="0.6">
<path opacity="0.6" d="M211.074 509.853L211.249 504.622L273.831 506.104C273.831 506.104 276.75 507.351 276.436 509.399L211.074 509.853Z" fill="white"/>
</g>
</g>
</g>
</g>
</g>
</g>
</g>
</g>
</g>
</g>
</g>
</g>
</g>
<path d="M243.168 490.516C243.16 490.838 241.565 490.995 240.005 492.033C238.419 493.027 237.617 494.421 237.321 494.291C237.024 494.23 237.486 492.32 239.403 491.1C241.303 489.853 243.238 490.219 243.168 490.516Z" fill="#263238"/>
<path d="M250.039 493.305C250.117 493.61 248.731 494.168 247.659 495.528C246.544 496.854 246.282 498.318 245.96 498.301C245.664 498.353 245.428 496.487 246.797 494.822C248.156 493.14 250.03 493 250.039 493.305Z" fill="#263238"/>
<path d="M253.991 501.483C253.703 501.553 253.25 499.957 254.052 498.205C254.845 496.444 256.344 495.746 256.483 496.008C256.666 496.269 255.699 497.211 255.063 498.667C254.392 500.105 254.313 501.448 253.991 501.483Z" fill="#263238"/>
<path d="M165.524 74.0235C164.635 57.2673 163.746 40.511 162.857 23.746C162.64 19.6572 162.413 15.5161 161.158 11.6278C159.903 7.73076 157.472 4.0517 153.837 2.16859C150.212 0.285466 145.297 0.608038 142.499 3.59836L144.469 6.3097C142.848 37.0848 142.159 67.9034 142.403 98.722C142.421 101.024 142.499 103.5 143.85 105.365C146.116 108.504 150.726 108.469 154.578 108.12C157.881 107.824 161.629 107.266 163.476 104.511C164.243 103.369 164.557 101.991 164.81 100.649C166.457 91.9044 165.995 82.9073 165.524 74.0235Z" fill="#263238"/>
<path d="M149.575 9.2477C148.512 6.94611 146.734 4.84504 144.329 4.06913C141.923 3.29321 138.891 4.21733 137.845 6.51892L143.527 12.918C144.111 13.8422 144.895 14.6791 145.889 15.1237C146.882 15.5684 148.12 15.5771 149.026 14.9581C149.88 14.3653 150.316 13.2929 150.342 12.2555C150.351 11.2093 150.011 10.1893 149.575 9.2477Z" fill="#FF725E"/>
<path d="M159.127 35.9776C158.151 25.1235 152.417 14.5745 143.231 8.71594C134.046 2.85735 121.479 2.27323 112.284 8.11439C106.437 11.8283 102.236 17.7915 99.8221 24.2778C97.408 30.7728 98.4538 36.1432 98.5061 43.0741C98.5322 46.666 98.9941 56.3083 102.088 58.1217L150.412 66.7962C156.6 57.834 160.103 46.8317 159.127 35.9776Z" fill="#263238"/>
<path d="M157.419 27.6604C156.339 21.209 150.038 14.9407 145.131 10.6252C139.528 5.69073 138.743 5.9174 131.283 5.7256C123.414 5.52509 114.821 5.55996 108.685 10.4857C105.287 13.2145 103.073 17.1464 101.304 21.1393C97.2078 30.3456 97.8353 40.8597 99.0903 50.8681C100.345 60.8679 102.463 70.3096 110.646 76.1944L145.044 70.8676C152.635 68.0516 155.162 59.3858 157.306 51.5743C159.45 43.7541 158.762 35.6375 157.419 27.6604Z" fill="#263238"/>
<path d="M100.267 34.077C100.747 24.6178 110.821 15.0453 120.251 15.9346L150.866 21.3747L150.831 26.4661L151.18 90.0214C139.119 92.724 127.345 94.6333 115.902 95.6184L115.632 82.8725C115.632 82.8725 103.527 81.0155 100.842 65.2793C99.4916 57.4504 99.7269 44.5911 100.267 34.077Z" fill="#EFBE9D"/>
<path d="M105.998 46.6049C105.971 47.6685 106.86 48.5752 107.967 48.6188C109.083 48.6624 110.007 47.8429 110.024 46.7705C110.05 45.7069 109.17 44.8002 108.054 44.7567C106.948 44.7043 106.024 45.5326 105.998 46.6049Z" fill="#263238"/>
<path d="M103.668 40.7376C103.921 40.9991 105.437 39.8483 107.616 39.8222C109.786 39.7699 111.398 40.8684 111.633 40.5981C111.747 40.476 111.485 40.0053 110.788 39.5083C110.1 39.0114 108.923 38.5406 107.572 38.5581C106.221 38.5842 105.089 39.0986 104.435 39.613C103.764 40.136 103.546 40.6155 103.668 40.7376Z" fill="#263238"/>
<path d="M125.352 46.6049C125.326 47.6772 126.215 48.5752 127.322 48.6188C128.437 48.6624 129.361 47.8429 129.378 46.7705C129.405 45.7069 128.516 44.8002 127.409 44.7567C126.302 44.7043 125.378 45.5326 125.352 46.6049Z" fill="#263238"/>
<path d="M125.058 40.886C125.311 41.1476 126.827 39.9968 129.006 39.9706C131.176 39.9183 132.788 41.0168 133.023 40.7465C133.137 40.6245 132.875 40.1537 132.178 39.6568C131.489 39.1598 130.313 38.6891 128.962 38.7065C127.611 38.7326 126.478 39.247 125.825 39.7614C125.154 40.2845 124.927 40.764 125.058 40.886Z" fill="#263238"/>
<path d="M117.357 57.1103C117.365 56.9883 116.015 56.7703 113.818 56.5175C113.261 56.4652 112.738 56.3606 112.633 55.9857C112.494 55.5847 112.72 54.9831 112.982 54.338C113.487 52.9867 114.019 51.5743 114.577 50.0922C116.782 44.0418 118.376 39.0725 118.132 38.9853C117.888 38.8981 115.901 43.728 113.696 49.7784C113.165 51.2692 112.659 52.6902 112.171 54.0503C111.971 54.6867 111.614 55.4016 111.91 56.2298C112.067 56.6396 112.476 56.936 112.834 57.0319C113.191 57.1365 113.505 57.1365 113.775 57.1539C115.989 57.2411 117.357 57.2324 117.357 57.1103Z" fill="#263238"/>
<path d="M115.627 82.9075C115.627 82.9075 126.773 83.4218 137.196 76.9791C137.196 76.9791 132.011 88.0773 115.679 86.8306L115.627 82.9075Z" fill="#E7996E"/>
<path d="M118.335 62.3413C119.102 61.2952 120.47 60.711 121.83 60.8418C122.771 60.929 123.73 61.3736 124.314 62.1408C124.897 62.8993 125.028 63.9891 124.514 64.7301C123.939 65.567 122.71 65.7676 121.673 65.4886C120.627 65.2096 119.729 64.5296 118.875 63.867C118.64 63.6839 118.396 63.4834 118.248 63.2306C118.1 62.9778 118.065 62.6377 118.239 62.4198" fill="#E7996E"/>
<path d="M123.782 58.5403C123.425 58.5229 123.451 60.8855 121.455 62.5855C119.459 64.2943 116.941 64.0589 116.923 64.3902C116.888 64.5384 117.49 64.8436 118.553 64.861C119.599 64.8871 121.115 64.5297 122.335 63.4922C123.555 62.4461 124.07 61.0686 124.139 60.1009C124.209 59.107 123.939 58.5229 123.782 58.5403Z" fill="#263238"/>
<path d="M124.493 34.7483C124.711 35.3411 126.881 35.0273 129.434 35.3063C131.996 35.5329 134.062 36.2565 134.393 35.716C134.541 35.4632 134.175 34.9052 133.338 34.3473C132.51 33.7893 131.186 33.2575 129.652 33.1093C128.118 32.9611 126.715 33.2226 125.791 33.6062C124.867 33.9985 124.397 34.4693 124.493 34.7483Z" fill="#263238"/>
<path d="M103.66 33.2748C104.052 33.763 105.542 33.2312 107.337 33.1876C109.133 33.0743 110.667 33.4753 111.015 32.9609C111.163 32.7081 110.919 32.2199 110.248 31.7578C109.586 31.2958 108.479 30.9296 107.242 30.9819C106.004 31.0342 104.941 31.4963 104.313 32.0107C103.686 32.525 103.485 33.0307 103.66 33.2748Z" fill="#263238"/>
<path d="M110.847 11.5406C105.043 15.4725 101.034 21.9501 99.082 29.0467L100.041 34.8791C101.4 32.0544 101.566 29.0292 104.355 26.1348C106.228 24.1906 109.679 22.3598 113.348 21.427C123.85 18.7505 127.379 14.9407 132.025 8.07952C125.227 6.37076 116.651 7.60874 110.847 11.5406Z" fill="#263238"/>
<path d="M156.172 26.9456C153.243 16.4228 143.692 8.06208 132.877 6.56256L132.023 8.0708C129.364 11.1745 126.706 14.2868 124.048 17.3905C123.386 18.1664 122.698 19.0034 122.549 20.0059C122.349 21.3573 123.186 22.6737 124.249 23.5368C126.776 25.6117 130.323 25.7338 133.591 25.8209C136.859 25.9081 140.432 26.1784 142.812 28.4189C145.775 31.2088 145.714 35.9427 144.712 39.892C143.718 43.8413 143.326 50.1969 143.735 54.2508C144.101 57.8776 148.895 49.0635 152.05 50.8943C152.93 51.4087 150.559 65.6454 151.474 65.2095C152.372 64.7823 152.294 59.6473 152.59 58.6971C154.211 53.5359 155.832 48.3573 156.695 43.0218C157.54 37.6951 157.618 32.1503 156.172 26.9456Z" fill="#263238"/>
<path d="M147.226 54.3291C147.47 50.9029 151.252 48.6884 154.189 50.4757C155.801 51.4521 157.013 53.3788 156.777 57.0143C156.167 66.7176 146.555 64.1108 146.555 63.8319C146.555 63.6575 146.938 58.3394 147.226 54.3291Z" fill="#EFBE9D"/>
<path d="M149.746 60.3272C149.789 60.3011 149.911 60.458 150.181 60.6062C150.452 60.7544 150.922 60.8765 151.445 60.7195C152.491 60.4144 153.467 58.8451 153.633 57.0928C153.72 56.2122 153.589 55.3579 153.319 54.643C153.066 53.9107 152.648 53.3876 152.134 53.2568C151.628 53.0999 151.245 53.3876 151.105 53.6578C150.957 53.9194 151.009 54.1199 150.957 54.1286C150.931 54.1548 150.757 53.9542 150.861 53.5532C150.913 53.3614 151.044 53.1435 151.28 52.9691C151.524 52.7947 151.872 52.725 152.229 52.786C152.97 52.8906 153.598 53.623 153.894 54.4076C154.225 55.2009 154.391 56.1599 154.304 57.1538C154.112 59.1067 152.988 60.8677 151.558 61.1816C150.861 61.3124 150.312 61.0683 150.033 60.8241C149.754 60.5626 149.711 60.3446 149.746 60.3272Z" fill="#E7996E"/>
<path d="M149.682 14.2084C149.682 14.2084 151.242 15.9084 153.133 19.108C154.101 20.6947 155.059 22.6911 155.974 24.9666C156.881 27.2507 157.622 29.8574 158.136 32.6385C159.19 38.2269 158.755 43.4403 157.979 47.0583C157.909 47.5204 157.787 47.9389 157.674 48.3486C157.561 48.7497 157.456 49.1333 157.36 49.4907C157.186 50.2056 156.942 50.7984 156.768 51.2866C156.593 51.7487 156.454 52.1236 156.349 52.4026C156.253 52.6554 156.192 52.7862 156.184 52.7862C156.175 52.7862 156.21 52.6467 156.297 52.3851C156.393 52.0974 156.515 51.7225 156.663 51.2518C156.82 50.7636 157.046 50.1707 157.203 49.4471C157.29 49.0897 157.386 48.7148 157.491 48.305C157.595 47.904 157.709 47.4768 157.778 47.0235C158.502 43.4142 158.894 38.2443 157.848 32.6996C157.334 29.9359 156.602 27.3466 155.722 25.0712C154.824 22.8045 153.892 20.808 152.95 19.2213C152.724 18.8203 152.506 18.4367 152.297 18.0792C152.07 17.7305 151.861 17.3992 151.661 17.0941C151.46 16.7889 151.277 16.5012 151.103 16.231C150.929 15.9694 150.754 15.7428 150.597 15.5335C150.31 15.1325 150.074 14.8099 149.9 14.5658C149.752 14.3304 149.674 14.2084 149.682 14.2084Z" fill="#455A64"/>
<path d="M150.624 17.1552C150.633 17.1552 150.615 17.2598 150.572 17.4516C150.511 17.6434 150.415 17.9224 150.188 18.2362C149.753 18.8726 148.803 19.5178 147.53 19.9537C146.249 20.3722 144.707 20.7558 142.972 21.1394C141.238 21.5055 139.312 21.8281 137.273 21.9763C135.233 22.1245 133.264 22.0548 131.503 21.8106C129.743 21.5578 128.192 21.1481 126.928 20.6773C125.664 20.2065 124.706 19.7009 124.061 19.3173C123.738 19.1255 123.494 18.9598 123.338 18.8465C123.172 18.7331 123.094 18.6721 123.102 18.6634C123.12 18.6372 123.468 18.8639 124.122 19.2126C124.775 19.5614 125.752 20.0409 127.007 20.4768C128.261 20.9214 129.804 21.305 131.547 21.5404C133.29 21.7671 135.233 21.8281 137.255 21.6799C141.308 21.3835 144.916 20.4855 147.469 19.7619C148.733 19.3608 149.657 18.7593 150.101 18.1752C150.546 17.5823 150.58 17.1377 150.624 17.1552Z" fill="#455A64"/>
<path d="M148.871 13.8073C148.88 13.816 148.827 13.8858 148.714 14.0078C148.601 14.1212 148.444 14.313 148.209 14.5222C147.755 14.9581 147.032 15.5248 146.056 16.1002C144.121 17.2597 141.045 18.21 137.585 18.2361C134.134 18.2536 131.075 17.5474 128.896 17.0156C127.807 16.7453 126.935 16.5012 126.334 16.3269C125.733 16.1525 125.402 16.0479 125.41 16.0217C125.419 16.0043 125.759 16.074 126.369 16.2135C127.031 16.3617 127.903 16.571 128.957 16.8151C131.136 17.2946 134.186 17.9572 137.594 17.9397C141.001 17.9223 144.025 17.0156 145.96 15.9171C147.904 14.8361 148.827 13.7463 148.871 13.8073Z" fill="#455A64"/>
<path d="M146.883 12.735C146.892 12.7524 146.648 12.8396 146.195 12.9704C145.751 13.1099 145.088 13.2755 144.269 13.4499C142.631 13.7986 140.33 14.1038 137.768 14.095C135.205 14.0776 132.905 13.7463 131.275 13.3802C130.456 13.1971 129.802 13.0227 129.358 12.8832C128.913 12.7437 128.669 12.6565 128.678 12.6391C128.687 12.6217 128.939 12.6653 129.393 12.7699C129.846 12.8832 130.508 13.0227 131.319 13.1796C132.948 13.4935 135.232 13.7899 137.768 13.8073C140.304 13.8161 142.587 13.5458 144.225 13.2494C145.045 13.1012 145.707 12.9704 146.16 12.8658C146.622 12.7612 146.883 12.7176 146.883 12.735Z" fill="#455A64"/>
<path d="M133.942 4.46148C133.959 4.47019 133.872 4.7143 133.707 5.15021C133.541 5.59484 133.262 6.21382 132.887 6.96358C132.138 8.47182 130.909 10.4683 129.227 12.4124C127.537 14.3566 125.741 15.8648 124.364 16.8238C123.676 17.3033 123.101 17.6695 122.691 17.8961C122.281 18.1315 122.055 18.2449 122.037 18.2274C122.029 18.21 122.238 18.0531 122.63 17.8002C123.022 17.5474 123.58 17.1551 124.242 16.6582C125.584 15.6643 127.336 14.1473 129.009 12.2293C130.674 10.3026 131.911 8.34105 132.704 6.8764C133.105 6.14408 133.41 5.53381 133.602 5.11534C133.803 4.68815 133.916 4.45276 133.942 4.46148Z" fill="#455A64"/>
<path d="M99.4647 25.2978C99.456 25.289 99.517 25.2019 99.6303 25.0449C99.7523 24.888 99.9179 24.6526 100.162 24.3649C100.632 23.7808 101.338 22.9526 102.28 22.0023C103.221 21.0433 104.415 19.971 105.879 18.9597C106.611 18.4627 107.413 17.9745 108.276 17.5299C109.147 17.094 110.071 16.7104 111.047 16.3965C114.969 15.1237 118.76 14.9842 121.418 15.2632C122.751 15.3939 123.823 15.5945 124.555 15.7688C124.921 15.8473 125.2 15.9345 125.392 15.9868C125.583 16.0391 125.679 16.074 125.679 16.0827C125.671 16.1088 125.27 16.0129 124.538 15.8734C123.806 15.734 122.734 15.5683 121.409 15.4637C118.76 15.2457 115.021 15.4114 111.143 16.6668C107.256 17.8961 104.319 20.2935 102.428 22.1418C101.469 23.0746 100.746 23.8767 100.249 24.4347C100.022 24.6962 99.8307 24.9054 99.6826 25.0798C99.5518 25.2367 99.4734 25.3065 99.4647 25.2978Z" fill="#455A64"/>
<path d="M106.748 14.871C106.74 14.8536 107.001 14.6792 107.489 14.3828C107.733 14.2259 108.029 14.0515 108.395 13.8684C108.761 13.6853 109.162 13.4587 109.633 13.2581C110.104 13.0489 110.618 12.8222 111.184 12.6217C111.742 12.3951 112.361 12.2207 113.014 12.0202C114.322 11.6627 115.786 11.3663 117.346 11.2007C118.906 11.0525 120.405 11.0612 121.755 11.1658C122.426 11.2355 123.071 11.2878 123.664 11.4012C124.265 11.4884 124.806 11.6104 125.311 11.7238C125.817 11.8284 126.252 11.9679 126.644 12.0812C127.037 12.1858 127.368 12.3079 127.638 12.4125C128.178 12.613 128.466 12.7351 128.457 12.7525C128.448 12.7699 128.143 12.6915 127.603 12.5258C127.333 12.4386 127.002 12.3427 126.601 12.2468C126.209 12.1509 125.764 12.0202 125.268 11.933C124.771 11.8284 124.222 11.7238 123.629 11.6453C123.037 11.5494 122.4 11.5058 121.738 11.4448C120.396 11.3663 118.923 11.3663 117.381 11.5058C115.838 11.6627 114.391 11.9504 113.093 12.2904C112.448 12.4822 111.829 12.6479 111.271 12.8571C110.705 13.0402 110.191 13.2581 109.72 13.4499C109.241 13.633 108.84 13.851 108.474 14.0166C108.108 14.1823 107.794 14.3479 107.55 14.4874C107.045 14.749 106.757 14.8884 106.748 14.871Z" fill="#455A64"/>
<path d="M154.911 62.7685C155.085 62.6726 155.372 62.7772 155.704 63.1259C156.026 63.4747 156.401 64.0675 156.575 64.948C156.662 65.3927 156.688 65.907 156.593 66.465C156.514 67.0142 156.261 67.6681 155.86 68.2086C155.46 68.7579 154.911 69.2461 154.205 69.5774C153.499 69.8999 152.584 70.0569 151.686 69.804C150.797 69.5686 150.091 69.0107 149.638 68.4004C149.176 67.7901 148.915 67.1101 148.801 66.4388C148.592 65.0352 149.098 63.928 149.612 63.2218C150.143 62.507 150.727 62.1321 151.163 61.949C151.608 61.7746 151.913 61.7921 152.035 61.949C152.305 62.2803 151.764 63.0736 151.459 64.1983C151.311 64.7475 151.276 65.3839 151.459 65.8634C151.634 66.3952 152.096 66.8747 152.444 66.9358C152.618 66.9881 152.819 66.9794 153.054 66.9009C153.29 66.8224 153.542 66.6655 153.743 66.4737C154.135 66.1163 154.361 65.5757 154.475 65.0178C154.693 63.9019 154.527 62.9516 154.911 62.7685Z" fill="#FF725E"/>
<path d="M92.5693 139.296L99.8376 171.841L96.3952 193.68H176.329L171.1 91.7127L151.177 90.0214L102.487 98.2426L92.5693 139.296Z" fill="#FF725E"/>
<path d="M112.901 97.6498C112.901 97.6498 92.0807 95.7406 82.1631 109.908C76.0974 118.582 67.5742 138.494 67.5742 138.494L95.2878 143.272L112.901 97.6498Z" fill="#FF725E"/>
<g opacity="0.3">
<g opacity="0.3">
<g opacity="0.3">
<g opacity="0.3">
<g opacity="0.3">
<g opacity="0.3">
<g opacity="0.3">
<path opacity="0.3" d="M140.767 128.451C146.614 135.678 149.36 144.85 153.186 153.324C158.118 164.248 164.942 174.186 171.722 184.055C172.228 184.796 172.925 185.625 173.814 185.52C174.738 185.407 175.217 184.36 175.452 183.463C176.925 177.892 176.193 171.911 174.267 166.48C172.341 161.048 169.265 156.105 165.979 151.371C160.802 143.917 155.051 136.864 148.785 130.299C147.66 129.122 146.449 127.91 144.898 127.422C143.346 126.925 141.351 127.405 140.671 128.887" fill="black"/>
</g>
</g>
</g>
</g>
</g>
</g>
</g>
<g opacity="0.3">
<g opacity="0.3">
<g opacity="0.3">
<g opacity="0.3">
<g opacity="0.3">
<g opacity="0.3">
<g opacity="0.3">
<path opacity="0.3" d="M99.5616 166.183C100.912 160.865 102.263 155.538 103.614 150.22C103.884 149.157 104.163 148.076 104.712 147.125C105.401 145.931 106.481 145.024 107.536 144.135C108.843 143.036 110.194 141.921 111.824 141.424C113.148 141.023 114.612 141.049 115.85 140.43C117.549 139.575 118.473 137.718 119.162 135.94C119.693 134.58 120.146 132.967 119.371 131.738C118.63 130.561 117.07 130.238 115.684 130.195C109.305 130.003 102.987 133.891 100.276 139.68C98.1933 144.126 98.1933 149.226 98.2369 154.135C98.2717 158.511 98.3066 162.888 98.3415 167.264" fill="black"/>
</g>
</g>
</g>
</g>
</g>
</g>
</g>
<path d="M125.133 166.811C125.116 166.732 124.044 166.915 122.292 167.055C120.549 167.194 118.118 167.22 115.468 166.88C112.819 166.532 110.484 165.878 108.828 165.294C107.172 164.718 106.178 164.256 106.143 164.335C106.126 164.361 106.361 164.509 106.797 164.744C107.233 164.989 107.878 165.285 108.706 165.625C110.344 166.296 112.715 167.011 115.407 167.369C118.1 167.717 120.567 167.63 122.327 167.404C123.207 167.29 123.913 167.168 124.393 167.046C124.881 166.915 125.142 166.837 125.133 166.811Z" fill="#263238"/>
<path d="M160.006 168.241C159.971 168.11 148.659 171.336 134.75 175.442C120.833 179.548 109.59 182.983 109.625 183.114C109.66 183.244 120.972 180.019 134.89 175.913C148.79 171.798 160.041 168.363 160.006 168.241Z" fill="#263238"/>
<g opacity="0.3">
<g opacity="0.3">
<g opacity="0.3">
<g opacity="0.3">
<g opacity="0.3">
<g opacity="0.3">
<g opacity="0.3">
<path opacity="0.3" d="M107.332 164.875C108.535 168.302 111.785 170.638 115.393 171.083C119.001 171.519 122.784 169.758 124.771 166.724C118.914 167.447 112.796 167.098 107.332 164.875Z" fill="black"/>
</g>
</g>
</g>
</g>
</g>
</g>
</g>
<g opacity="0.3">
<g opacity="0.3">
<g opacity="0.3">
<g opacity="0.3">
<g opacity="0.3">
<g opacity="0.3">
<g opacity="0.3">
<path opacity="0.3" d="M112.66 182.111L112.956 182.224C120.094 183.497 126.778 182.181 133.62 179.792C140.461 177.403 146.832 173.855 153.15 170.298C139.659 174.239 126.16 178.171 112.66 182.111Z" fill="black"/>
</g>
</g>
</g>
</g>
</g>
</g>
</g>
<path d="M155.16 181.318C155.229 181.318 155.316 182.111 155.125 183.384C154.933 184.648 154.375 186.383 153.286 188.031C152.196 189.679 150.828 190.873 149.739 191.553C148.649 192.233 147.883 192.46 147.856 192.399C147.813 192.311 148.51 191.945 149.504 191.204C150.497 190.463 151.752 189.277 152.798 187.708C153.835 186.13 154.427 184.509 154.715 183.306C155.003 182.094 155.055 181.318 155.16 181.318Z" fill="#263238"/>
<path d="M159.286 186.244C159.347 186.278 159.085 186.95 158.405 187.883C157.726 188.815 156.567 189.957 155.024 190.838C153.473 191.71 151.895 192.111 150.745 192.215C149.595 192.32 148.889 192.198 148.889 192.128C148.871 191.937 151.756 192.032 154.728 190.324C157.726 188.658 159.138 186.13 159.286 186.244Z" fill="#263238"/>
<path d="M200.879 278.717C199.406 272.666 188.739 233.644 186.691 227.768L177.096 200.254L176.451 191.161L95.0096 193.68C95.0096 193.68 83.4187 207.96 79.1135 224.159C75.4184 238.047 73.5621 259.11 82.2945 313.895C88.0464 344.286 107.298 476.976 107.298 476.976H156.084L136.963 264.733L155.064 327.399L197.654 474.3L249.848 474.021L200.879 278.717Z" fill="#455A64"/>
<path d="M145.174 192.695C145.192 192.695 145.218 192.922 145.253 193.366C145.279 193.872 145.314 194.508 145.357 195.284C145.436 196.949 145.514 199.364 145.54 202.355C145.619 208.327 145.471 216.583 144.835 225.676C144.103 236.198 142.821 245.509 141.871 251.368L141.845 251.525H141.697C139.501 251.577 137.741 251.612 136.442 251.638C135.884 251.638 135.422 251.638 135.048 251.647C134.734 251.638 134.568 251.63 134.568 251.612C134.568 251.595 134.734 251.569 135.048 251.542C135.422 251.516 135.884 251.481 136.442 251.438C137.741 251.368 139.501 251.272 141.688 251.15L141.514 251.307C142.333 245.44 143.519 236.129 144.251 225.623C144.887 216.548 145.105 208.309 145.131 202.346C145.131 199.425 145.131 197.028 145.14 195.284C145.14 194.5 145.148 193.863 145.148 193.366C145.14 192.93 145.157 192.695 145.174 192.695Z" fill="#263238"/>
<path d="M135.545 196.243C135.58 196.287 135.379 196.444 135.144 196.81C134.9 197.167 134.665 197.76 134.647 198.527C134.647 199.277 134.9 200.227 135.641 200.855C136.355 201.5 137.575 201.579 138.586 201.064C139.597 200.559 140.26 199.539 140.164 198.571C140.094 197.603 139.484 196.827 138.883 196.383C138.264 195.938 137.636 195.781 137.209 195.755C136.774 195.729 136.53 195.799 136.512 195.738C136.503 195.711 136.73 195.563 137.201 195.52C137.671 195.467 138.386 195.572 139.118 196.025C139.824 196.479 140.591 197.324 140.713 198.519C140.861 199.722 140.042 201.003 138.848 201.588C137.671 202.198 136.155 202.093 135.275 201.256C134.386 200.445 134.168 199.33 134.22 198.493C134.29 197.629 134.63 196.993 134.952 196.653C135.275 196.322 135.527 196.226 135.545 196.243Z" fill="#263238"/>
<path d="M119.246 195.755C119.281 195.764 119.246 196.234 119.098 197.089C118.95 197.943 118.654 199.164 118.113 200.62C117.068 203.523 114.845 207.376 111.176 210.436C107.507 213.496 103.315 214.987 100.274 215.502C98.7488 215.772 97.4939 215.842 96.6224 215.833C95.7596 215.824 95.2803 215.772 95.2803 215.737C95.2803 215.615 97.1976 215.711 100.187 215.083C103.159 214.473 107.211 212.956 110.784 209.974C114.357 206.993 116.58 203.279 117.713 200.463C118.88 197.638 119.133 195.729 119.246 195.755Z" fill="#263238"/>
<path d="M182.907 217.498C182.89 217.533 182.454 217.367 181.696 217.01C180.938 216.635 179.875 216.033 178.655 215.144C176.188 213.4 173.243 210.401 170.34 206.871C167.404 203.375 164.815 200.114 163.255 197.525C162.462 196.243 161.904 195.153 161.565 194.395C161.216 193.628 161.068 193.183 161.103 193.174C161.198 193.131 161.957 194.822 163.613 197.307C165.242 199.8 167.865 202.991 170.802 206.496C173.696 210.018 176.546 213.008 178.907 214.822C181.252 216.635 182.951 217.402 182.907 217.498Z" fill="#263238"/>
<path d="M134.254 345.14C134.254 345.184 133.844 345.201 133.103 345.21C132.363 345.228 131.291 345.175 129.966 345.045C127.325 344.8 123.691 344.112 119.865 342.726C116.048 341.331 112.824 339.508 110.645 338C109.556 337.25 108.693 336.597 108.135 336.108C107.569 335.629 107.272 335.35 107.298 335.315C107.359 335.237 108.649 336.248 110.872 337.652C113.094 339.055 116.301 340.79 120.066 342.176C123.831 343.545 127.404 344.286 130.01 344.635C132.615 344.984 134.254 345.036 134.254 345.14Z" fill="#263238"/>
<path d="M200.182 337.373C200.252 337.416 199.616 338.663 198.465 340.607C197.315 342.551 195.624 345.184 193.594 347.974C191.563 350.764 189.585 353.187 188.086 354.887C186.595 356.587 185.602 357.573 185.541 357.52C185.471 357.459 186.351 356.378 187.763 354.617C189.166 352.856 191.084 350.406 193.106 347.625C195.127 344.844 196.862 342.263 198.099 340.38C199.345 338.497 200.104 337.329 200.182 337.373Z" fill="#263238"/>
<path d="M158.074 114.903C157.725 110.666 162.571 105.688 163.957 101.66C166.745 93.5347 166.458 90.0213 165.525 74.0235L151.355 70.9984C150.919 76.3339 151.686 74.2502 151.18 80.0216C150.675 85.793 149.211 91.5732 146.126 96.4815C143.921 99.9862 140.818 103.238 140.409 107.362C139.807 113.325 145.036 118.46 145.368 124.441C145.829 132.74 136.853 139.593 137.942 147.831C138.178 149.653 139.04 151.528 140.67 152.373C141.847 152.984 143.232 152.984 144.557 152.966C147.468 152.931 150.379 152.888 153.289 152.844C154.222 152.836 155.259 152.783 155.93 152.129C157.011 151.066 156.444 149.287 156.218 147.779C155.242 141.301 162.179 135.975 162.344 129.427C162.475 124.353 158.492 119.968 158.074 114.903Z" fill="#263238"/>
<path d="M148.948 135.059C148.948 135.059 173.368 189.443 187.556 191.108C194.71 191.945 199.068 188.039 200.602 180.62C202.136 173.201 197.02 124.58 197.02 124.58L172.461 131.406L174.317 140.822L159.615 126.167L148.948 135.059Z" fill="#EFBE9D"/>
<path d="M171.101 91.7126C171.101 91.7126 184.844 93.0378 189.96 104.293C195.076 115.548 202.161 128.25 202.161 128.25L171.937 135.059C171.937 135.059 167.711 112.322 167.388 104.293C167.04 95.505 166.133 91.4598 171.101 91.7126Z" fill="#FF725E"/>
<path d="M195.251 161.501C195.26 161.493 195.147 161.362 194.911 161.118C194.632 160.848 194.293 160.508 193.866 160.089C192.907 159.156 191.6 157.883 190.014 156.34C186.763 153.176 182.283 148.782 177.368 143.9C172.497 139.017 168.087 134.597 164.836 131.345C163.276 129.767 161.995 128.477 161.054 127.527C160.635 127.117 160.287 126.777 160.008 126.498C159.764 126.271 159.633 126.149 159.625 126.167C159.616 126.176 159.72 126.315 159.938 126.568C160.2 126.856 160.522 127.222 160.914 127.658C161.768 128.599 163.023 129.942 164.592 131.589C167.721 134.876 172.113 139.366 177.028 144.257C181.944 149.139 186.467 153.498 189.778 156.602C191.434 158.154 192.794 159.392 193.744 160.237C194.188 160.621 194.554 160.943 194.85 161.196C195.103 161.406 195.243 161.519 195.251 161.501Z" fill="#E7996E"/>
<path d="M127.371 92.8286L136.923 96.5512C136.923 96.5512 142.169 96.6035 142.849 98.2949C143.529 99.9862 144.2 101.686 144.2 101.686C144.2 101.686 147.415 102.497 148.095 104.293C148.775 106.089 154.361 118.286 154.361 118.286L159.608 126.167L148.941 135.059C148.941 135.059 146.736 132.182 144.54 130.657C142.335 129.131 133.193 121.459 133.027 119.367C132.862 117.274 127.911 105.54 127.859 104.293C127.807 103.046 127.676 100.326 128.914 101.006C130.151 101.686 131.842 105.069 131.842 105.069L130.657 100.492C130.657 100.492 129.925 100.065 128.914 98.8005C127.65 97.2138 127.476 95.4179 127.476 95.4179L127.371 92.8286Z" fill="#EFBE9D"/>
<path d="M147.434 120.421C147.46 120.395 147.112 119.898 146.45 119.018C145.726 118.076 144.776 116.838 143.635 115.365L143.582 115.295H143.486C142.38 115.286 141.16 115.278 139.844 115.26H139.713L139.643 115.391C139.268 116.097 138.702 116.856 137.926 117.187C137.56 117.353 137.081 117.326 136.602 117.353C136.131 117.361 135.634 117.361 135.172 117.309L135.355 117.658C135.565 117.239 135.782 116.803 136.009 116.35C136.819 114.72 137.604 113.15 138.336 111.677L138.127 111.808C140.541 111.79 142.72 111.764 144.558 111.756L144.48 111.738C145.918 112.409 147.121 112.967 148.044 113.403C148.89 113.787 149.369 113.979 149.386 113.953C149.404 113.918 148.959 113.665 148.132 113.229C147.225 112.758 146.049 112.157 144.637 111.424L144.602 111.407H144.558C142.72 111.389 140.541 111.372 138.127 111.355H137.987L137.926 111.485C137.186 112.959 136.401 114.519 135.582 116.15C135.355 116.594 135.138 117.039 134.928 117.457L134.771 117.771L135.111 117.806C135.643 117.867 136.131 117.867 136.628 117.85C136.872 117.832 137.116 117.823 137.36 117.806C137.604 117.789 137.891 117.736 138.118 117.632C139.077 117.196 139.634 116.376 140.053 115.583L139.852 115.714C141.16 115.705 142.388 115.687 143.495 115.679L143.347 115.609C144.532 117.048 145.526 118.242 146.284 119.166C146.999 119.986 147.408 120.448 147.434 120.421Z" fill="#E7996E"/>
<path d="M144.206 105.827C144.206 105.793 143.64 105.758 142.629 105.723C141.522 105.705 140.084 105.67 138.358 105.644L137.618 105.627L138.271 105.984C139.16 106.473 140.206 107.039 141.06 107.85C141.269 108.059 141.417 108.303 141.33 108.443C141.252 108.635 140.973 108.835 140.72 108.992C140.171 109.297 139.526 109.541 138.881 109.733L138.942 109.724C137.766 109.646 136.493 109.184 135.343 108.53C134.358 107.981 134.079 106.725 133.966 105.644C133.87 104.528 133.94 103.421 134.097 102.419L133.888 102.602C136.859 102.366 139.404 102.166 141.322 102.009C142.167 101.93 142.873 101.861 143.439 101.8C143.927 101.747 144.197 101.704 144.189 101.678C144.189 101.651 143.919 101.643 143.422 101.66C142.847 101.678 142.141 101.712 141.295 101.739C139.378 101.843 136.825 101.983 133.844 102.148L133.67 102.157L133.644 102.331C133.469 103.386 133.382 104.502 133.478 105.679C133.53 106.263 133.635 106.865 133.862 107.458C134.079 108.042 134.489 108.626 135.082 108.949C136.302 109.629 137.583 110.117 138.925 110.195H138.951L138.986 110.186C139.674 109.977 140.319 109.733 140.929 109.384C141.217 109.193 141.539 109.018 141.722 108.608C141.827 108.408 141.766 108.12 141.67 107.963C141.574 107.798 141.461 107.667 141.348 107.545C140.38 106.656 139.343 106.141 138.411 105.653L138.332 106.002C140.058 105.967 141.496 105.941 142.603 105.923C143.64 105.897 144.206 105.862 144.206 105.827Z" fill="#E7996E"/>
<path d="M159.618 126.167C159.627 126.167 159.601 126.114 159.548 126.027C159.479 125.914 159.4 125.783 159.304 125.626C159.06 125.251 158.729 124.728 158.311 124.074C157.405 122.697 156.115 120.718 154.485 118.225L154.494 118.242C153.474 115.932 152.263 113.194 150.903 110.099C150.215 108.547 149.491 106.908 148.724 105.191C148.524 104.746 148.367 104.354 148.123 103.857C147.862 103.404 147.469 103.046 147.06 102.75C146.223 102.157 145.273 101.765 144.262 101.477L144.411 101.608C144.123 100.884 143.827 100.134 143.53 99.3846C143.382 99.0098 143.225 98.6262 143.077 98.2426C142.877 97.7718 142.476 97.4928 142.092 97.2749C141.299 96.8738 140.436 96.682 139.574 96.5513C138.711 96.4205 137.831 96.342 136.933 96.3246L137.012 96.342C133.935 95.1389 130.745 93.8922 127.46 92.6106L127.111 92.4712L127.129 92.846C127.172 93.744 127.19 94.6333 127.259 95.5923C127.416 96.5513 127.756 97.4754 128.27 98.321C128.898 99.2626 129.595 100.056 130.536 100.719L130.423 100.57C130.824 102.131 131.225 103.657 131.608 105.147L132.061 104.982C131.669 104.223 131.251 103.491 130.798 102.785C130.318 102.096 129.874 101.381 129.116 100.867C128.933 100.753 128.654 100.614 128.331 100.727C128.035 100.849 127.904 101.111 127.826 101.32C127.669 101.756 127.643 102.166 127.617 102.575C127.599 102.985 127.599 103.386 127.617 103.787C127.626 103.988 127.626 104.18 127.652 104.389C127.687 104.616 127.739 104.825 127.8 105.008C128.785 108.024 129.935 110.797 130.92 113.491C131.417 114.833 131.905 116.132 132.323 117.414C132.515 118.05 132.741 118.695 132.828 119.297C132.942 120.038 133.386 120.57 133.752 121.084C135.364 123.072 137.125 124.632 138.711 126.062C140.306 127.483 141.796 128.704 143.121 129.741C143.774 130.264 144.437 130.718 145.003 131.136C145.57 131.572 146.049 132.008 146.476 132.418C147.321 133.237 147.923 133.917 148.332 134.379C148.524 134.597 148.672 134.772 148.794 134.911C148.899 135.033 148.951 135.085 148.96 135.085C148.968 135.077 148.925 135.016 148.829 134.885C148.716 134.737 148.576 134.554 148.402 134.327C148.019 133.847 147.426 133.141 146.598 132.304C146.18 131.886 145.7 131.433 145.134 130.979C144.55 130.535 143.931 130.09 143.278 129.558C141.97 128.503 140.506 127.265 138.929 125.835C137.369 124.397 135.617 122.81 134.057 120.866C133.7 120.369 133.299 119.846 133.221 119.271C133.125 118.582 132.907 117.963 132.715 117.3C132.297 116.01 131.826 114.702 131.329 113.351C130.362 110.666 129.203 107.85 128.253 104.895C128.192 104.703 128.148 104.528 128.122 104.363C128.096 104.188 128.105 103.97 128.087 103.779C128.079 103.386 128.07 102.994 128.087 102.602C128.122 101.887 128.279 100.78 128.872 101.268C129.473 101.669 129.952 102.375 130.406 103.046C130.85 103.735 131.268 104.459 131.643 105.191L132.645 107.153L132.096 105.025C131.713 103.543 131.312 102.009 130.911 100.448L130.885 100.361L130.798 100.3C130.005 99.7508 129.255 98.9139 128.706 98.0682C128.227 97.2923 127.904 96.403 127.756 95.5312C127.695 94.642 127.669 93.7091 127.626 92.8286L127.294 93.064C130.58 94.3456 133.778 95.5835 136.855 96.7779L136.89 96.7954H136.933C138.65 96.8651 140.437 97.0046 141.883 97.6846C142.223 97.8677 142.528 98.1031 142.659 98.4169C142.816 98.8005 142.964 99.1841 143.121 99.559C143.426 100.317 143.722 101.05 144.018 101.782L144.062 101.878L144.166 101.904C145.116 102.166 146.049 102.558 146.825 103.099C147.208 103.369 147.557 103.691 147.774 104.075C147.966 104.441 148.167 104.929 148.358 105.339C149.134 107.057 149.875 108.687 150.572 110.239C151.975 113.325 153.213 116.054 154.258 118.355L154.267 118.364L154.276 118.373C155.949 120.84 157.274 122.793 158.206 124.153C158.651 124.798 158.999 125.295 159.261 125.67C159.374 125.827 159.461 125.949 159.54 126.053C159.575 126.132 159.609 126.167 159.618 126.167Z" fill="#E7996E"/>
<path d="M174.02 140.543C174.151 140.517 173.715 137.169 173.044 133.063C172.373 128.956 171.719 125.644 171.589 125.661C171.458 125.678 171.894 129.035 172.565 133.141C173.236 137.247 173.881 140.56 174.02 140.543Z" fill="#263238"/>
<path d="M105.62 92.0439L108.6 129.654C108.705 130.997 109.864 131.999 111.206 131.912L132.166 130.552C133.543 130.465 134.58 129.253 134.449 127.875L131.024 90.2916C130.902 88.9664 129.752 87.9813 128.418 88.0597L107.912 89.3936C106.535 89.4895 105.507 90.6752 105.62 92.0439Z" fill="#263238"/>
<path d="M75.6316 139.924C75.6316 139.924 69.3743 182.233 69.6183 187.917C69.8623 193.602 76.2852 206.208 84.9392 207.446C93.5931 208.684 101.742 200.768 101.986 190.393C102.23 180.01 103.511 147.178 103.511 147.178L97.053 143.621L75.6316 139.924Z" fill="#EFBE9D"/>
<path d="M91.0313 142.417C91.0139 142.409 90.9355 142.557 90.8047 142.853C90.6566 143.193 90.4736 143.612 90.2557 144.126C89.7938 145.233 89.0879 146.829 88.1903 148.79C86.4124 152.714 83.7456 158.04 81.0004 164.021C78.2378 170.002 76.1462 175.607 75.0045 179.783C74.6908 180.812 74.4903 181.78 74.2899 182.608C74.0807 183.436 73.9413 184.169 73.8454 184.761C73.7496 185.311 73.6711 185.764 73.6101 186.13C73.5666 186.444 73.5491 186.61 73.5578 186.61C73.5753 186.61 73.6276 186.453 73.706 186.148C73.7932 185.782 73.8977 185.337 74.0285 184.796C74.1592 184.212 74.316 183.489 74.5513 182.669C74.7867 181.85 74.9958 180.899 75.3357 179.879C76.5558 175.756 78.691 170.193 81.4362 164.23C84.1814 158.258 86.8046 152.914 88.504 148.939C89.3581 146.96 90.0204 145.338 90.43 144.205C90.6217 143.682 90.7699 143.246 90.9006 142.897C90.9965 142.583 91.0488 142.426 91.0313 142.417Z" fill="#E7996E"/>
<path d="M111.264 104.956C111.264 104.956 104.78 108.94 102.872 109.986C100.954 111.023 101.207 118.756 101.207 118.756L90.3047 144.109L103.447 148.817C103.447 148.817 108.127 139.95 109.469 138.826C110.811 137.701 112.606 137.256 112.606 137.256C112.606 137.256 113.277 139.724 115.299 138.599C117.321 137.474 119.561 134.789 119.561 134.789C119.561 134.789 121.356 135.914 122.027 134.562C122.698 133.22 123.822 130.299 123.822 130.299C123.822 130.299 120.014 125.365 118.437 125.365C116.868 125.365 108.798 125.809 108.798 125.809C108.798 125.809 109.242 125.138 111.491 124.24C113.73 123.342 127.082 119.41 127.709 119.175C128.651 118.809 129.705 116.359 126.794 116.132C123.883 115.906 107.456 118.844 107.456 118.844C107.456 118.844 106.558 114.598 107.229 113.7C107.9 112.811 113.73 109.001 111.264 104.956Z" fill="#EFBE9D"/>
<path d="M119.58 134.589C119.624 134.589 119.728 133.891 119.528 132.74C119.406 132.174 119.153 131.476 118.543 130.927C117.916 130.351 116.974 130.238 116.138 130.195C114.412 130.081 112.835 130.195 111.719 130.36C110.595 130.517 109.924 130.709 109.933 130.779C109.95 130.927 112.704 130.465 116.103 130.691C116.948 130.735 117.741 130.84 118.247 131.276C118.77 131.712 119.04 132.322 119.188 132.836C119.467 133.882 119.493 134.606 119.58 134.589Z" fill="#E7996E"/>
<path d="M116.975 135.399C116.888 135.286 115.851 135.983 114.457 136.585C113.062 137.195 111.851 137.483 111.868 137.622C111.877 137.753 113.184 137.675 114.648 137.03C116.121 136.402 117.062 135.495 116.975 135.399Z" fill="#3C5CDC"/>
<path d="M108.209 118.756C108.191 118.634 106.954 118.861 105.891 119.907C104.81 120.936 104.54 122.165 104.662 122.183C104.793 122.235 105.246 121.189 106.231 120.256C107.198 119.306 108.252 118.896 108.209 118.756Z" fill="#E7996E"/>
<path d="M80.1377 99.4893L71.9544 85.0695C75.5711 79.1934 77.6627 72.2799 77.6627 64.8695C77.6627 43.5711 60.3983 26.3004 39.1077 26.3004C17.8171 26.3004 0.552734 43.5711 0.552734 64.8695C0.552734 86.1679 17.8171 103.439 39.1077 103.439C47.997 103.439 56.1803 100.422 62.7078 95.3656L62.6904 95.383L80.1377 99.4893Z" fill="white"/>
<path d="M80.1377 99.4892C79.1268 99.2626 73.7148 98.0333 62.6642 95.5225C62.5858 95.505 62.5335 95.4266 62.5509 95.3481C62.5596 95.3307 62.5683 95.3045 62.5771 95.2871L62.5858 95.2697L62.7949 95.4702C58.4374 98.8877 52.154 102.218 44.2756 103.29C42.3148 103.543 40.2668 103.7 38.1665 103.604C37.1119 103.543 36.04 103.517 34.9681 103.43C33.8961 103.264 32.8068 103.107 31.7087 102.942C27.3338 102.079 22.863 100.422 18.6972 97.8328C14.5315 95.2522 10.6708 91.7562 7.57696 87.4495C4.47444 83.1602 2.13011 78.0688 1.03203 72.5327C-0.0486245 67.0054 0.0385251 61.0771 1.49392 55.3406C2.95804 49.6215 5.68582 44.0418 9.77313 39.4474C13.9127 34.757 19.0197 30.9995 24.6583 28.82C30.2707 26.5881 36.2492 25.7425 41.9749 26.1609C47.6919 26.5707 53.1649 28.2184 57.8623 30.86C62.5683 33.4842 66.5424 36.9889 69.61 40.8946C72.6864 44.809 74.8477 49.1245 76.1898 53.4226C77.5232 57.738 77.8805 62.0187 77.8631 65.9854C77.6365 73.9712 74.961 80.5186 72.0938 85.1392V84.9997C77.192 94.1886 79.6584 98.6261 80.1377 99.4892C79.6409 98.6349 77.1049 94.2409 71.8323 85.1392C71.8062 85.0956 71.8062 85.0346 71.8323 84.9997C74.6385 80.3965 77.253 73.8841 77.4361 65.9854C77.4361 62.0622 77.0613 57.834 75.7279 53.5708C74.3858 49.325 72.2332 45.0706 69.1917 41.2172C66.1589 37.3637 62.2285 33.9201 57.5834 31.3395C52.947 28.7415 47.5525 27.1286 41.9139 26.7276C36.2753 26.3266 30.384 27.1635 24.8587 29.3605C19.3073 31.5139 14.2788 35.2104 10.2002 39.831C6.17385 44.3557 3.48093 49.8568 2.04296 55.48C0.613712 61.1294 0.517848 66.9706 1.58107 72.4194C2.65301 77.877 4.95376 82.8986 7.99528 87.1443C11.0368 91.3901 14.8365 94.8599 18.9413 97.4143C23.0547 99.9774 27.4558 101.634 31.7784 102.497C32.8678 102.663 33.9397 102.828 35.0029 102.994C36.0662 103.09 37.1294 103.116 38.1665 103.177C40.2493 103.29 42.2712 103.133 44.2146 102.898C52.0145 101.869 58.2544 98.6174 62.6119 95.2522C62.6729 95.1999 62.7688 95.2173 62.8124 95.2784C62.8559 95.3307 62.8559 95.4091 62.8124 95.4615L62.7949 95.4789L62.7165 95.2522C73.7322 97.9287 79.1268 99.2451 80.1377 99.4892Z" fill="#263238"/>
<path d="M18.4678 65.6628L24.0018 60.1181L34.6863 69.6208L55.6632 49.4296L60.805 54.9744L33.902 80.3093L18.4678 65.6628Z" fill="#FF725E"/>
</svg>
