<svg width="570" height="611" viewBox="0 0 570 611" fill="none" xmlns="http://www.w3.org/2000/svg">
<path d="M173.319 381.225H209.297V360.561C209.297 350.618 201.24 342.552 191.308 342.552C181.376 342.552 173.319 350.618 173.319 360.561V381.225Z" fill="#F0F0F0"/>
<path d="M191.522 376.708C199.904 376.708 206.698 369.906 206.698 361.515C206.698 353.124 199.904 346.322 191.522 346.322C183.14 346.322 176.346 353.124 176.346 361.515C176.346 369.906 183.14 376.708 191.522 376.708Z" fill="white"/>
<path d="M191.735 373.709C198.463 373.709 203.916 368.249 203.916 361.515C203.916 354.78 198.463 349.321 191.735 349.321C185.008 349.321 179.555 354.78 179.555 361.515C179.555 368.249 185.008 373.709 191.735 373.709Z" fill="#EBEBEB"/>
<path d="M190.311 361.797C190.311 362.522 190.897 363.11 191.622 363.11C192.346 363.11 192.933 362.522 192.933 361.797C192.933 361.072 192.346 360.484 191.622 360.484C190.897 360.484 190.311 361.064 190.311 361.797Z" fill="#FAFAFA"/>
<path d="M191.774 362.278L197.346 357.028L196.804 356.455L191.758 361.209L182.711 353.205L182.185 353.8L191.774 362.278Z" fill="#FAFAFA"/>
<path d="M87.2393 335.997H101.165L101.569 602.926C101.577 605.727 99.3056 607.993 96.5158 607.993C93.7488 607.993 91.5002 605.773 91.4621 603.003L87.2393 335.997Z" fill="#263238"/>
<path opacity="0.2" d="M87.2393 335.997H101.165L101.569 602.926C101.577 605.727 99.3056 607.993 96.5158 607.993C93.7488 607.993 91.5002 605.773 91.4621 603.003L87.2393 335.997Z" fill="white"/>
<path d="M11.1211 335.997H25.0473L25.4513 602.926C25.4589 605.727 23.1874 607.993 20.3976 607.993C17.6307 607.993 15.382 605.773 15.3439 603.003L11.1211 335.997Z" fill="#263238"/>
<path opacity="0.2" d="M11.1211 335.997H25.0473L25.4513 602.926C25.4589 605.727 23.1874 607.993 20.3976 607.993C17.6307 607.993 15.382 605.773 15.3439 603.003L11.1211 335.997Z" fill="white"/>
<path d="M418.336 335.997H432.262L432.666 602.926C432.674 605.727 430.402 607.993 427.612 607.993C424.845 607.993 422.597 605.773 422.559 603.003L418.336 335.997Z" fill="#263238"/>
<path opacity="0.2" d="M418.336 335.997H432.262L432.666 602.926C432.674 605.727 430.402 607.993 427.612 607.993C424.845 607.993 422.597 605.773 422.559 603.003L418.336 335.997Z" fill="white"/>
<path d="M342.21 335.997H356.136L356.54 602.926C356.548 605.727 354.276 607.993 351.486 607.993C348.72 607.993 346.471 605.773 346.433 603.003L342.21 335.997Z" fill="#263238"/>
<path opacity="0.2" d="M342.21 335.997H356.136L356.54 602.926C356.548 605.727 354.276 607.993 351.486 607.993C348.72 607.993 346.471 605.773 346.433 603.003L342.21 335.997Z" fill="white"/>
<path d="M11.6696 386.025L430.951 382.881V335.997H11.5781L11.6696 386.025Z" fill="#407BFF"/>
<path opacity="0.3" d="M87.2387 336.356L88.0162 385.43L11.6696 386.025L11.5781 335.997L87.2387 336.356Z" fill="black"/>
<path d="M447.286 324.741C447.278 318.423 444.931 313.31 442.042 313.295H5.24425C2.34772 313.31 0.00762246 318.431 0 324.741C0.00762246 331.06 2.35534 336.172 5.24425 336.188H442.034C444.931 336.172 447.271 331.052 447.286 324.741Z" fill="#263238"/>
<path opacity="0.1" d="M447.286 324.741C447.278 318.423 444.931 313.31 442.042 313.295H5.24425C2.34772 313.31 0.00762246 318.431 0 324.741C0.00762246 331.06 2.35534 336.172 5.24425 336.188H442.034C444.931 336.172 447.271 331.052 447.286 324.741Z" fill="white"/>
<path opacity="0.3" d="M112.744 324.741C112.736 318.423 110.388 313.31 107.5 313.295H5.24425C2.34772 313.31 0.00762246 318.431 0 324.741C0.00762246 331.06 2.35534 336.172 5.24425 336.188H107.492C110.388 336.172 112.736 331.052 112.744 324.741Z" fill="black"/>
<path d="M286.718 96.9508C283.928 96.9508 281.657 94.6768 281.657 91.8839V79.4073H279.21C275.628 79.4073 272.716 76.4923 272.716 72.9058V13.8578C272.731 10.2865 275.635 7.39436 279.187 7.39436C279.195 7.39436 279.21 7.39436 279.218 7.39436H371.259C374.826 7.39436 377.73 10.3017 377.73 13.873V72.9134C377.73 76.5 374.819 79.415 371.236 79.415H311.087L289.76 95.9283C288.883 96.5922 287.808 96.9508 286.718 96.9508ZM279.195 9.24868C276.649 9.24868 274.583 11.3167 274.568 13.8654V72.9134C274.568 75.4774 276.649 77.5683 279.218 77.5683H283.517V91.8915C283.517 93.6619 284.957 95.1041 286.726 95.1041C287.412 95.1041 288.09 94.8752 288.632 94.4555L310.455 77.5607H371.236C373.797 77.5607 375.886 75.4774 375.886 72.9058V13.873C375.886 11.3243 373.813 9.24868 371.267 9.24868H279.218C279.21 9.24868 279.203 9.24868 279.195 9.24868Z" fill="#407BFF"/>
<path d="M320.258 0.0152588H308.732V1.42698H320.258V0.0152588Z" fill="#407BFF"/>
<path d="M266.344 16.6507H264.934V9.69127C264.941 4.33436 269.278 0 274.622 0H300.332V1.41172H274.622C270.056 1.41172 266.351 5.11271 266.344 9.68363V16.6507Z" fill="#407BFF"/>
<path d="M304.418 48.4792C307.794 48.4792 310.531 45.7392 310.531 42.3593C310.531 38.9793 307.794 36.2393 304.418 36.2393C301.042 36.2393 298.305 38.9793 298.305 42.3593C298.305 45.7392 301.042 48.4792 304.418 48.4792Z" fill="#407BFF"/>
<path d="M331.127 42.3592C331.127 45.7397 328.39 48.4792 325.014 48.4792C321.637 48.4792 318.9 45.7397 318.9 42.3592C318.9 38.9787 321.637 36.2392 325.014 36.2392C328.39 36.2316 331.127 38.9787 331.127 42.3592Z" fill="#407BFF"/>
<path d="M345.609 48.4792C348.986 48.4792 351.723 45.7392 351.723 42.3592C351.723 38.9792 348.986 36.2392 345.609 36.2392C342.233 36.2392 339.496 38.9792 339.496 42.3592C339.496 45.7392 342.233 48.4792 345.609 48.4792Z" fill="#407BFF"/>
<path d="M121.754 191.254L129.102 190.918L139.422 305.008H131.617C127.722 304.634 126.807 300.269 125.732 292.005L118.514 212.361C116.822 193.459 120.046 191.254 121.754 191.254Z" fill="#407BFF"/>
<path opacity="0.3" d="M121.754 191.254L129.102 190.918L139.422 305.008H131.617C127.722 304.634 126.807 300.269 125.732 292.005L118.514 212.361C116.822 193.459 120.046 191.254 121.754 191.254Z" fill="black"/>
<path d="M133.477 305H287.908C289.615 305 290.85 303.398 290.667 301.429L281.01 194.489C280.827 192.513 279.295 190.918 277.587 190.918H123.156C121.449 190.918 120.214 192.52 120.397 194.489L130.055 301.429C130.237 303.398 131.77 305 133.477 305Z" fill="#407BFF"/>
<path d="M139.4 291.486H279.661L271.878 202.471H131.617L139.4 291.486Z" fill="#407BFF"/>
<path d="M141.328 298.453H279.546C283.464 298.453 286.368 295.271 286.025 291.348L278.296 202.883C277.953 198.961 274.492 195.779 270.574 195.779H132.356C128.438 195.779 125.534 198.961 125.877 202.883L133.606 291.341C133.949 295.271 137.402 298.453 141.328 298.453Z" fill="#263238"/>
<path d="M139.4 291.486H279.661L271.878 202.471H131.617L139.4 291.486Z" fill="#407BFF"/>
<path opacity="0.4" d="M139.4 291.486H279.661L271.878 202.471H131.617L139.4 291.486Z" fill="white"/>
<path opacity="0.1" d="M179.753 195.825L152.357 298.407H161.573L188.663 195.825H179.753Z" fill="white"/>
<path opacity="0.1" d="M193.976 195.825L166.581 298.407H184.86L211.958 195.825H193.976Z" fill="white"/>
<path d="M151.839 229.019C152.319 232.949 149.529 236.139 145.604 236.139C141.678 236.139 138.103 232.949 137.623 229.019C137.143 225.089 139.933 221.899 143.858 221.899C147.784 221.907 151.359 225.089 151.839 229.019Z" fill="#407BFF"/>
<path opacity="0.3" d="M151.839 229.019C152.319 232.949 149.529 236.139 145.604 236.139C141.678 236.139 138.103 232.949 137.623 229.019C137.143 225.089 139.933 221.899 143.858 221.899C147.784 221.907 151.359 225.089 151.839 229.019Z" fill="black"/>
<path d="M145.604 236.139C147.113 236.139 148.454 235.666 149.506 234.857L148.843 232.636C148.592 231.789 147.784 231.171 146.922 231.171H146.076L145.962 230.248C146.838 229.782 147.357 228.737 147.212 227.523C147.006 225.875 145.649 224.532 144.178 224.532C142.707 224.532 141.678 225.868 141.876 227.523C142.029 228.737 142.806 229.782 143.789 230.248L143.904 231.171H143.058C142.204 231.171 141.541 231.789 141.495 232.636L141.373 234.857C142.631 235.666 144.087 236.139 145.604 236.139Z" fill="white"/>
<path d="M156.901 227.668C166.215 227.668 175.537 227.668 184.852 227.668C186.14 227.668 185.896 225.669 184.608 225.669C175.286 225.669 165.971 225.669 156.649 225.669C155.376 225.669 155.612 227.668 156.901 227.668Z" fill="white"/>
<path d="M157.48 232.369C169.759 232.369 182.032 232.369 194.311 232.369C195.165 232.369 195.005 231.034 194.151 231.034C181.872 231.034 169.599 231.034 157.32 231.034C156.458 231.041 156.618 232.369 157.48 232.369Z" fill="white"/>
<path d="M201.241 231.705C201.347 232.575 200.73 233.277 199.868 233.277C199.007 233.277 198.214 232.575 198.108 231.705C198.001 230.835 198.618 230.133 199.48 230.133C200.341 230.133 201.134 230.835 201.241 231.705Z" fill="#263238"/>
<path opacity="0.5" d="M201.241 231.705C201.347 232.575 200.73 233.277 199.868 233.277C199.007 233.277 198.214 232.575 198.108 231.705C198.001 230.835 198.618 230.133 199.48 230.133C200.341 230.133 201.134 230.835 201.241 231.705Z" fill="white"/>
<path d="M131.617 202.471L132.311 210.438H272.579L271.878 202.471H131.617Z" fill="#407BFF"/>
<path d="M138.058 206.012C138.134 206.897 137.479 207.622 136.594 207.622C135.71 207.622 134.925 206.905 134.849 206.012C134.773 205.127 135.428 204.402 136.312 204.402C137.197 204.409 137.982 205.127 138.058 206.012Z" fill="white"/>
<path d="M142.288 206.012C142.365 206.897 141.709 207.622 140.825 207.622C139.941 207.622 139.155 206.905 139.079 206.012C139.003 205.127 139.659 204.402 140.543 204.402C141.427 204.409 142.212 205.127 142.288 206.012Z" fill="white"/>
<path d="M146.519 206.012C146.595 206.897 145.94 207.622 145.055 207.622C144.171 207.622 143.386 206.905 143.31 206.012C143.234 205.127 143.889 204.402 144.773 204.402C145.657 204.409 146.443 205.127 146.519 206.012Z" fill="white"/>
<path d="M291.483 314.02H130.108C129.346 314.02 128.729 313.402 128.729 312.639V306.702C128.729 305.939 129.346 305.321 130.108 305.321H291.483C292.246 305.321 292.863 305.939 292.863 306.702V312.639C292.863 313.402 292.246 314.02 291.483 314.02Z" fill="#407BFF"/>
<path opacity="0.3" d="M291.483 314.02H130.108C129.346 314.02 128.729 313.402 128.729 312.639V306.702C128.729 305.939 129.346 305.321 130.108 305.321H291.483C292.246 305.321 292.863 305.939 292.863 306.702V312.639C292.863 313.402 292.246 314.02 291.483 314.02Z" fill="black"/>
<path d="M351.205 314.02H193.946C192.421 314.02 191.187 312.784 191.187 311.258V305.321H353.964V311.258C353.964 312.776 352.729 314.02 351.205 314.02Z" fill="#407BFF"/>
<path opacity="0.4" d="M351.205 314.02H193.946C192.421 314.02 191.187 312.784 191.187 311.258V305.321H353.964V311.258C353.964 312.776 352.729 314.02 351.205 314.02Z" fill="white"/>
<path opacity="0.3" d="M264.545 305.542C264.545 307.946 266.489 309.892 268.89 309.892H288.8C291.201 309.892 293.144 307.946 293.144 305.542H264.545Z" fill="black"/>
<path d="M279.66 291.684H139.513L138.759 283.023H278.898L279.66 291.684Z" fill="#407BFF"/>
<path d="M260.879 287.899H163.517L163.448 287.129H260.81L260.879 287.899Z" fill="white"/>
<path d="M263.623 287.953C263.653 288.311 263.417 288.609 262.868 288.609C262.578 288.609 262.281 288.525 262.075 288.372L262.212 288.075C262.372 288.197 262.601 288.281 262.83 288.281C263.104 288.281 263.249 288.159 263.234 287.968C263.219 287.77 263.081 287.647 262.654 287.647H262.159L262.167 286.533H263.371L263.401 286.854H262.525V287.327H262.723C263.325 287.327 263.592 287.586 263.623 287.953Z" fill="white"/>
<path d="M263.767 287.243C263.752 287.098 263.851 286.999 263.988 286.999C264.118 286.999 264.24 287.098 264.247 287.243C264.263 287.38 264.164 287.487 264.026 287.487C263.897 287.487 263.782 287.388 263.767 287.243ZM263.866 288.357C263.851 288.212 263.95 288.113 264.087 288.113C264.217 288.113 264.339 288.212 264.346 288.357C264.362 288.494 264.263 288.601 264.125 288.601C263.996 288.601 263.882 288.502 263.866 288.357Z" fill="white"/>
<path d="M264.522 287.556C264.461 286.884 264.796 286.503 265.284 286.503C265.772 286.503 266.176 286.884 266.229 287.556C266.29 288.227 265.955 288.609 265.467 288.609C264.979 288.609 264.583 288.227 264.522 287.556ZM265.848 287.556C265.802 287.06 265.589 286.831 265.315 286.831C265.033 286.831 264.865 287.06 264.903 287.556C264.949 288.052 265.162 288.281 265.436 288.281C265.719 288.281 265.894 288.052 265.848 287.556Z" fill="white"/>
<path d="M266.489 287.556C266.428 286.884 266.763 286.503 267.251 286.503C267.739 286.503 268.143 286.884 268.196 287.556C268.257 288.227 267.922 288.609 267.434 288.609C266.946 288.609 266.55 288.227 266.489 287.556ZM267.815 287.556C267.769 287.06 267.556 286.831 267.281 286.831C267.007 286.831 266.832 287.06 266.87 287.556C266.915 288.052 267.129 288.281 267.403 288.281C267.685 288.281 267.861 288.052 267.815 287.556Z" fill="white"/>
<path d="M143.866 288.258L143.896 288.578H142.387L142.364 288.327L143.111 287.556C143.294 287.365 143.317 287.243 143.309 287.129C143.294 286.938 143.157 286.831 142.905 286.831C142.707 286.831 142.547 286.9 142.448 287.045L142.166 286.839C142.303 286.625 142.578 286.495 142.913 286.495C143.355 286.495 143.66 286.724 143.698 287.083C143.713 287.281 143.675 287.464 143.416 287.731L142.913 288.25H143.866V288.258Z" fill="white"/>
<path d="M143.98 287.243C143.965 287.098 144.064 286.999 144.201 286.999C144.331 286.999 144.453 287.098 144.46 287.243C144.476 287.38 144.376 287.487 144.239 287.487C144.11 287.487 143.995 287.388 143.98 287.243ZM144.079 288.357C144.064 288.212 144.163 288.113 144.3 288.113C144.43 288.113 144.552 288.212 144.559 288.357C144.575 288.495 144.476 288.601 144.338 288.601C144.209 288.601 144.094 288.502 144.079 288.357Z" fill="white"/>
<path d="M146.259 287.953C146.29 288.311 146.053 288.609 145.505 288.609C145.215 288.609 144.918 288.525 144.712 288.372L144.849 288.075C145.009 288.197 145.238 288.281 145.467 288.281C145.741 288.281 145.886 288.159 145.871 287.968C145.855 287.77 145.718 287.648 145.291 287.648H144.796L144.803 286.533H146.008L146.038 286.854H145.162V287.327H145.36C145.962 287.327 146.221 287.586 146.259 287.953Z" fill="white"/>
<path d="M146.443 287.556C146.382 286.884 146.717 286.503 147.205 286.503C147.693 286.503 148.097 286.884 148.15 287.556C148.211 288.227 147.876 288.609 147.388 288.609C146.9 288.609 146.496 288.227 146.443 287.556ZM147.769 287.556C147.723 287.06 147.51 286.831 147.235 286.831C146.961 286.831 146.786 287.06 146.824 287.556C146.87 288.052 147.083 288.281 147.357 288.281C147.639 288.281 147.815 288.052 147.769 287.556Z" fill="white"/>
<path d="M276.909 290.608H270.735L270.193 284.427H276.368L276.909 290.608ZM271.664 289.578H275.796L275.438 285.442H271.306L271.664 289.578Z" fill="white"/>
<path d="M205.768 286.449H150.108L150.299 288.586H205.958L205.768 286.449Z" fill="#263238"/>
<path d="M207.811 287.449C207.903 288.533 207.11 289.41 206.027 289.41C204.945 289.41 203.992 288.533 203.901 287.449C203.809 286.365 204.602 285.488 205.684 285.488C206.767 285.488 207.72 286.365 207.811 287.449Z" fill="#263238"/>
<path d="M207.811 287.449C207.903 288.533 207.11 289.41 206.027 289.41C204.945 289.41 203.992 288.533 203.901 287.449C203.809 286.365 204.602 285.488 205.684 285.488C206.767 285.488 207.72 286.365 207.811 287.449Z" fill="white"/>
<path d="M261.314 149.352C261.314 149.352 276.681 151.008 284.265 167.27C291.857 183.531 297.902 207.157 303.596 209.629C309.289 212.101 334.139 187.598 334.139 187.598C334.139 187.598 329.077 171.39 336.669 168.857C344.261 166.323 342.737 154.976 349.826 157.357C356.907 159.738 360.955 169.872 360.451 175.442C359.948 181.013 346.792 193.673 346.792 193.673C346.792 193.673 323.01 236.04 298.732 232.163C274.455 228.287 261.321 171.505 261.321 171.505C261.321 171.505 254.484 148.467 261.314 149.352Z" fill="#EEC8C0"/>
<path opacity="0.1" d="M268.052 192.375C273.372 206.752 277.77 217.145 287.893 226.364C276.924 208.744 278.121 177.19 278.121 177.19L268.052 192.375Z" fill="black"/>
<path d="M178.114 154.366C187.726 151.634 196.476 149.665 204.495 148.261L204.792 148.513L205.25 148.963L209.16 151.947L219.771 158.349L228.498 159.723L236.936 157.662L242.341 150.131L243.332 145.812L243.339 145.682C256.907 146.59 265.841 149.528 270.879 151.855C274.012 153.298 276.078 156.373 276.284 159.822C276.581 164.942 277.473 174.382 280.057 189.651C283.578 210.438 272.808 256.971 268.631 273.736C267.685 277.529 264.507 280.314 260.635 280.825C227.492 285.198 201.385 282.993 188.724 281.283C184.075 280.658 180.576 276.751 180.523 272.057C180.225 245.418 173.723 185.95 171.292 164.546C170.781 159.936 173.67 155.633 178.114 154.366Z" fill="#407BFF"/>
<path d="M178.114 154.366C187.726 151.634 196.476 149.665 204.495 148.261L204.792 148.513L205.25 148.963L209.16 151.947L219.771 158.349L228.498 159.723L236.936 157.662L242.341 150.131L243.332 145.812L243.339 145.682C256.907 146.59 265.841 149.528 270.879 151.855C274.012 153.298 276.078 156.373 276.284 159.822C276.581 164.942 277.473 174.382 280.057 189.651C283.578 210.438 272.808 256.971 268.631 273.736C267.685 277.529 264.507 280.314 260.635 280.825C227.492 285.198 201.385 282.993 188.724 281.283C184.075 280.658 180.576 276.751 180.523 272.057C180.225 245.418 173.723 185.95 171.292 164.546C170.781 159.936 173.67 155.633 178.114 154.366Z" fill="#263238"/>
<path d="M205.274 79.2165C201.805 89.2817 196.066 100.263 198.528 110.618C200.99 120.981 212.21 130.58 222.31 133.946C234.041 137.86 247.677 142.072 256.352 133.251C260.643 128.886 258.181 120.111 254.21 115.456C250.239 110.801 243.203 109.076 237.524 111.35C238.485 106.39 237.623 100.415 236.533 95.4857C235.062 88.801 231.48 82.3223 225.671 78.7053C219.871 75.1111 207.507 72.7455 205.274 79.2165Z" fill="#263238"/>
<path d="M208.97 147.506C215.837 140.287 213.086 107.848 213.086 107.848L233.171 121.515C233.171 121.515 234.368 141.576 239.162 145.445C240.283 146.353 241.944 145.583 243.286 145.674L242.066 150.772L238.331 157.121L233.171 160.783H225.571L218.742 158.83L210.936 153.381L204.579 148.253C206.058 148.002 207.979 148.551 208.97 147.506Z" fill="#EEC8C0"/>
<path opacity="0.1" d="M234.94 134.945C221.73 133.442 215.647 126.574 212.903 121.141L213.467 115.723L233.553 129.39L234.94 134.945Z" fill="black"/>
<path d="M205.22 94.9057C209.45 111.617 210.899 118.752 221.059 125.788C236.358 136.403 255.917 127.52 256.763 109.901C257.495 94.0282 250.421 69.2964 232.63 65.8167C219.931 63.1993 207.522 71.3796 204.907 84.0927C204.176 87.6793 204.282 91.3803 205.22 94.9057Z" fill="#EEC8C0"/>
<path d="M232.958 94.2189C233.232 95.5925 234.17 96.5693 235.062 96.409C235.946 96.2488 236.479 94.9744 236.228 93.6008C235.976 92.2273 235.016 91.2505 234.124 91.4108C233.24 91.5634 232.783 92.8988 232.958 94.2189Z" fill="#263238"/>
<path d="M248.485 91.2963C248.76 92.6928 249.697 93.6466 250.589 93.4864C251.473 93.3261 252.007 92.0518 251.755 90.6782C251.504 89.3047 250.543 88.3279 249.651 88.511C248.767 88.7018 248.234 89.9304 248.485 91.2963Z" fill="#263238"/>
<path d="M249.27 88.656L252.387 87.0764C252.387 87.0764 251.19 89.9914 249.27 88.656Z" fill="#263238"/>
<path d="M244.171 94.6997C246 97.6071 248.211 100.247 250.757 102.552C249.522 103.826 247.792 104.498 246.016 104.399L244.171 94.6997Z" fill="#ED893E"/>
<path d="M226.129 92.2807C226.487 92.2731 226.799 92.0365 226.898 91.6855C227.973 89.2055 230.039 87.2825 232.592 86.3896C233.027 86.2447 233.263 85.7715 233.118 85.3366C232.981 84.9092 232.516 84.6803 232.097 84.8253C232.089 84.8253 232.074 84.8329 232.067 84.8329C228.987 85.886 226.525 88.2287 225.313 91.2429C225.191 91.6702 225.443 92.1205 225.869 92.2426C225.953 92.2807 226.037 92.296 226.129 92.2807Z" fill="#263238"/>
<path d="M251.786 83.2457C252.083 83.2304 252.357 83.0702 252.502 82.8031C252.716 82.3987 252.571 81.9027 252.174 81.6814C249.865 80.3154 247.022 80.1857 244.598 81.3456C244.209 81.5364 244.049 82.0095 244.239 82.3987C244.247 82.4216 244.262 82.4368 244.27 82.4521C244.483 82.8489 244.971 82.9939 245.368 82.7878C245.375 82.7878 245.375 82.7878 245.375 82.7802C247.296 81.9408 249.499 82.0705 251.306 83.1312C251.45 83.2228 251.618 83.261 251.786 83.2457Z" fill="#263238"/>
<path d="M233.743 91.7008L236.861 90.1212C236.861 90.1212 235.664 92.9293 233.743 91.7008Z" fill="#263238"/>
<path d="M258.356 62.131C262.861 65.5191 265.056 71.1278 263.691 76.0345C263.051 78.3467 261.702 80.5062 261.603 82.9023C261.504 85.2984 263.371 88.1142 266.115 88.0837C262.327 88.5034 258.401 88.9155 254.689 87.9235C250.977 86.9314 247.532 84.1309 247.402 80.7733C247.349 79.5218 247.753 78.3085 247.821 77.0723C247.898 75.8285 247.555 74.432 246.396 73.6613C244.346 72.303 241.624 73.7605 239.147 74.0886C234.612 74.6838 230.13 70.4792 230.694 66.4958C231.25 62.5125 242.196 49.9673 258.356 62.131Z" fill="#263238"/>
<path d="M241.556 56.3849C247.616 59.7348 263.898 76.5457 220 73.7834C220 73.7834 220.084 101.255 206.287 104.986L170.172 99.0188C170.164 99.0264 184.525 24.8463 241.556 56.3849Z" fill="#263238"/>
<path d="M174.936 82.3452C171.467 92.4104 165.728 103.391 168.19 113.746C170.652 124.109 181.872 133.709 191.972 137.074C203.703 140.981 217.339 145.201 226.014 136.38C230.305 132.015 227.843 123.239 223.872 118.584C219.901 113.93 212.865 112.205 207.186 114.479C208.147 109.519 207.285 103.544 206.195 98.6143C204.724 91.9297 201.142 85.451 195.333 81.834C189.533 78.2322 177.169 75.8742 174.936 82.3452Z" fill="#263238"/>
<path d="M203.093 108.779C204.724 111.602 207.407 113.67 210.556 114.525C214.755 115.601 216.775 111.823 215.541 107.871C214.397 104.33 210.86 99.4996 206.676 100.102C203.65 100.629 201.63 103.513 202.156 106.543C202.308 107.344 202.621 108.107 203.093 108.779Z" fill="#EEC8C0"/>
<path d="M247.464 109.198C247.464 109.198 241.632 112.365 233.789 109.198C233.789 109.198 233.232 117.623 243.218 116.936C244.285 116.86 247.471 116.394 247.471 116.394C247.471 116.394 246.625 112.945 247.464 109.198Z" fill="#263238"/>
<path d="M234.231 112.091C233.713 110.526 233.789 109.191 233.789 109.191C238.652 111.152 242.738 110.679 245.147 110.038V112.8C245.139 112.8 238.538 113.968 234.231 112.091Z" fill="white"/>
<path d="M235.161 113.96C235.87 113.876 236.602 113.823 237.356 113.823C240.969 113.823 244.163 114.906 246.275 116.562C245.253 116.707 243.851 116.89 243.21 116.936C238.751 117.241 236.404 115.731 235.161 113.96Z" fill="#C13B37"/>
<path d="M247.143 145.682C247.143 145.682 242.44 144.095 240.557 145.682C240.557 145.682 240.9 157.891 231.06 159.433C221.219 160.974 206.088 147.612 206.088 147.612C206.088 147.612 203.253 146.674 199.487 148.643L238.202 190.88C253.729 174.527 247.143 145.682 247.143 145.682Z" fill="#407BFF"/>
<path d="M176.269 194.733C172.519 189.659 164.919 168.643 173.243 157.235C181.567 145.819 231.799 214.536 231.799 214.536C240.267 210.331 279.63 197.114 279.63 197.114C279.63 197.114 280.949 183.356 286.734 180.006C292.527 176.656 295.195 167.827 300.127 173.046C305.058 178.266 310.821 192.757 303.229 198.244C295.645 203.73 288.03 207.927 288.03 207.927C288.03 207.927 257.73 229.301 235.732 236.696C213.734 244.083 191.819 215.741 176.269 194.733Z" fill="#EEC8C0"/>
<path opacity="0.1" d="M176.269 194.733C172.519 189.659 164.919 168.643 173.243 157.235C181.567 145.819 231.799 214.536 231.799 214.536C240.267 210.331 279.63 197.114 279.63 197.114C279.63 197.114 280.949 183.356 286.734 180.006C292.527 176.656 295.195 167.827 300.127 173.046C305.058 178.266 310.821 192.757 303.229 198.244C295.645 203.73 288.03 207.927 288.03 207.927C288.03 207.927 257.73 229.301 235.732 236.696C213.734 244.083 191.819 215.741 176.269 194.733Z" fill="white"/>
<path opacity="0.1" d="M176.269 194.733C172.519 189.659 164.919 168.643 173.243 157.235C181.567 145.819 231.799 214.536 231.799 214.536C240.267 210.331 279.63 197.114 279.63 197.114C279.63 197.114 280.949 183.356 286.734 180.006C292.527 176.656 295.195 167.827 300.127 173.046C305.058 178.266 310.821 192.757 303.229 198.244C295.645 203.73 288.03 207.927 288.03 207.927C288.03 207.927 257.73 229.301 235.732 236.696C213.734 244.083 191.819 215.741 176.269 194.733Z" fill="white"/>
<path d="M271.002 285.03L268.631 273.736C268.631 273.736 207.072 280.123 180.821 274.263L177.383 285.03H271.002Z" fill="#263238"/>
<path d="M210.357 117.661C210.357 119.508 208.863 121.003 207.018 121.003C205.174 121.003 203.68 119.508 203.68 117.661C203.68 115.814 205.174 114.319 207.018 114.319C208.863 114.319 210.357 115.814 210.357 117.661Z" fill="white"/>
<path d="M418.389 146.437C416.507 150.466 414.09 154.221 411.209 157.609C413.412 159.898 417.497 159.044 417.497 159.044L418.389 146.437Z" fill="#A02724"/>
<path d="M464.886 167.415L452.576 176.587L435.776 189.087C436.66 191.017 437.178 193.085 437.315 195.207C437.834 199.884 438.375 203.349 427.963 206.065C425.706 206.569 423.953 208.347 423.473 210.613C423.031 213.368 424.662 216.726 434.221 218.511C443.474 220.03 452.98 218.55 461.334 214.291C465.419 212.315 465.458 209.881 463.811 205.73C458.857 193.932 461.547 179.014 464.886 167.415Z" fill="#FF8B7B"/>
<path d="M415.119 145.14C414.753 146.59 415.074 147.925 415.828 148.116C416.583 148.307 417.49 147.277 417.848 145.827C418.214 144.377 417.894 143.042 417.139 142.851C416.392 142.66 415.485 143.683 415.119 145.14Z" fill="#263238"/>
<path d="M426.05 142.958C425.73 142.958 425.417 142.79 425.25 142.492C423.748 139.859 420.821 138.12 417.795 138.051C417.284 138.036 416.88 137.616 416.888 137.105C416.895 136.601 417.307 136.197 417.81 136.197C417.818 136.197 417.825 136.197 417.833 136.197C421.492 136.281 425.036 138.387 426.85 141.569C427.102 142.011 426.949 142.576 426.507 142.836C426.37 142.919 426.21 142.958 426.05 142.958Z" fill="#263238"/>
<path d="M415.042 165.637C415.911 174.45 420.927 181.776 427.673 185.965C430.081 187.461 432.688 188.552 435.432 189.17C441.759 190.582 448.642 189.453 454.74 184.851C465.45 176.732 466.692 165.736 470.412 147.292C471.197 143.56 471.151 139.699 470.297 135.991C467.027 121.912 452.995 113.159 438.923 116.402C419.73 120.988 413.373 148.269 415.042 165.637Z" fill="#FF8B7B"/>
<path opacity="0.2" d="M427.673 185.965C430.082 187.461 432.688 188.552 435.432 189.17L435.768 189.094L434.586 185.355C434.594 185.355 433.016 188.102 427.673 185.965Z" fill="black"/>
<path d="M475.778 160.547C472.676 166.911 468.827 173.291 462.958 177.243C460.785 178.716 444.359 177.625 444.359 177.625C444.519 172.031 437.453 152.786 434.038 146.323C432.978 148.963 434.48 152.611 433.131 155.053C431.309 154.702 398.357 142.843 412.87 119.134C423.115 102.407 450.632 100.942 462.035 117.44C466.86 115.914 472.318 117.905 475.786 121.561C479.277 125.239 480.931 130.306 481.396 135.327C482.189 144.018 479.59 152.702 475.778 160.547Z" fill="#263238"/>
<path d="M445.312 151.069C444.969 155.289 443.078 159.242 440.014 162.157C436.043 165.858 431.088 161.92 430.471 156.609C429.922 151.848 432.239 144.873 437.057 143.209C441.882 141.546 445.708 145.842 445.312 151.069Z" fill="#FF8B7B"/>
<path d="M286.124 567.527L269.065 559.14L281.673 517.567L302.444 529.174L286.124 567.527Z" fill="#FF8B7B"/>
<path opacity="0.2" d="M306.927 517.742L285.073 505.121L276.406 535.095L296.133 544.39L306.927 517.742Z" fill="black"/>
<path d="M268.051 555.836L287.587 564.856C288.281 565.138 288.616 566.031 288.342 566.87L281.954 585.871C281.139 587.886 279.134 588.901 277.434 588.161C270.696 584.887 267.609 582.918 259.026 578.958C253.736 576.524 241.685 570.77 234.177 568.038C226.661 565.306 229.771 556.485 233.216 556.828C248.705 558.469 257.814 558.11 264.545 555.745C265.711 555.325 266.946 555.355 268.051 555.836Z" fill="#263238"/>
<path d="M257.997 557.126C259.559 557.736 261.183 558.179 262.837 558.454C263.005 558.492 263.18 558.423 263.264 558.27C263.378 558.148 263.424 557.973 263.378 557.805C262.99 557.171 259.437 551.692 256.96 551.609C256.381 551.57 255.824 551.853 255.519 552.341C254.94 553.028 254.772 553.974 255.077 554.814C255.733 555.92 256.77 556.744 257.997 557.126ZM262.075 557.416C258.69 556.599 256.396 555.63 255.931 554.462C255.763 553.913 255.908 553.318 256.305 552.898C256.449 552.654 256.709 552.501 256.991 552.494C258.309 552.532 260.588 555.248 262.075 557.416Z" fill="#407BFF"/>
<path d="M262.86 558.461C262.86 558.461 262.982 558.492 263.058 558.507C263.211 558.484 263.348 558.392 263.424 558.263C263.478 558.041 266.069 553.173 265.01 550.723C264.758 550.067 264.202 549.571 263.523 549.411C262.799 549.121 261.968 549.373 261.519 550.014C260.299 551.761 261.366 556.531 262.662 558.316C262.708 558.385 262.776 558.438 262.86 558.461ZM263.478 550.319C263.805 550.456 264.072 550.723 264.202 551.059C264.453 553.158 264.019 555.279 262.975 557.11C261.9 555.081 261.641 552.723 262.25 550.51C262.311 550.265 262.639 550.059 263.272 550.243L263.478 550.319Z" fill="#407BFF"/>
<path d="M415.973 352.587C415.973 352.587 315.501 335.287 302.871 390.299C293.106 428.819 288.38 444.493 275.979 529.914L302.497 535.912C302.497 535.912 345.251 448.416 347.744 411.207C377.738 416.274 445.952 430.506 460.495 405.103C467.767 392.183 472.63 378.043 474.841 363.384L415.973 352.587Z" fill="#407BFF"/>
<g opacity="0.3">
<path opacity="0.3" d="M415.973 352.587C415.973 352.587 315.501 335.287 302.871 390.299C293.106 428.819 288.38 444.493 275.979 529.914L302.497 535.912C302.497 535.912 345.251 448.416 347.744 411.207C377.738 416.274 445.952 430.506 460.495 405.103C467.767 392.183 472.63 378.043 474.841 363.384L415.973 352.587Z" fill="black"/>
</g>
<path d="M305.882 541.818L271.916 529.922L275.095 514.53L309.952 528.693L305.882 541.818Z" fill="#407BFF"/>
<path d="M215.8 561.376L197.887 551.425L215.693 516.964L237.775 525.961L215.8 561.376Z" fill="#FF8B7B"/>
<path opacity="0.2" d="M243.942 515.354L224.268 499.543L211.143 527.838L229.215 540.04L243.942 515.354Z" fill="black"/>
<path d="M199.716 547.061L217.644 558.957C218.292 559.339 218.483 560.27 218.079 561.063L208.871 578.866C207.758 580.736 205.616 581.43 204.053 580.438C197.894 576.172 195.143 573.761 187.269 568.526C182.413 565.306 171.383 557.79 164.371 553.944C157.358 550.098 161.779 541.856 165.133 542.719C180.187 546.702 189.25 547.74 196.263 546.435C197.49 546.198 198.702 546.412 199.716 547.061Z" fill="#263238"/>
<path d="M189.586 546.801C191.034 547.64 192.574 548.327 194.167 548.846C194.327 548.907 194.51 548.861 194.617 548.732C194.754 548.625 194.823 548.457 194.8 548.289C194.51 547.602 191.835 541.643 189.396 541.185C188.831 541.055 188.237 541.253 187.856 541.688C187.177 542.276 186.865 543.184 187.04 544.069C187.528 545.267 188.435 546.236 189.586 546.801ZM193.573 547.709C190.348 546.381 188.229 545.076 187.947 543.848C187.863 543.276 188.1 542.711 188.557 542.36C188.732 542.139 189.022 542.024 189.296 542.07C190.592 542.306 192.437 545.344 193.573 547.709Z" fill="#407BFF"/>
<path d="M194.19 548.861C194.19 548.861 194.304 548.907 194.373 548.938C194.525 548.938 194.677 548.869 194.777 548.747C194.86 548.541 198.169 544.123 197.498 541.536C197.353 540.849 196.873 540.277 196.225 540.01C195.554 539.613 194.693 539.735 194.159 540.3C192.688 541.841 193.016 546.717 194.022 548.678C194.045 548.762 194.113 548.823 194.19 548.861ZM196.042 540.918C196.347 541.108 196.568 541.414 196.644 541.765C196.575 543.878 195.821 545.908 194.51 547.557C193.755 545.389 193.862 543.016 194.799 540.918C194.898 540.689 195.257 540.536 195.851 540.803L196.042 540.918Z" fill="#407BFF"/>
<path d="M384.309 347.237C383.608 347.123 274.165 317.484 256.031 379.547C231.151 455.108 212.689 519.223 212.689 519.223L234.17 534.805C234.17 534.805 288.929 458.946 297.062 406.934C331.264 403.073 413 433.07 427.536 407.689C439.442 386.926 439.999 356.646 439.999 356.646L384.309 347.237Z" fill="#407BFF"/>
<path opacity="0.3" d="M384.309 347.237C383.608 347.123 274.165 317.484 256.031 379.547C231.151 455.108 212.689 519.223 212.689 519.223L234.17 534.805C234.17 534.805 288.929 458.946 297.062 406.934C331.264 403.073 413 433.07 427.536 407.689C439.442 386.926 439.999 356.646 439.999 356.646L384.309 347.237Z" fill="black"/>
<path d="M237.348 538.812L208.314 519.353L213.017 506.899L244.216 523.954L237.348 538.812Z" fill="#407BFF"/>
<path d="M486.092 220.48C484.179 227.935 481.999 235.208 479.568 242.526C477.136 249.844 474.361 257.131 471.114 264.427C467.806 272.05 463.705 279.307 458.88 286.068C456.037 290.028 452.637 293.561 448.788 296.56C446.41 298.384 443.795 299.865 441.006 300.963C439.405 301.574 437.751 302.024 436.066 302.306L434.717 302.52C434.008 302.574 433.238 302.642 432.552 302.627C431.386 302.612 430.235 302.474 429.092 302.238C427.399 301.894 425.753 301.368 424.183 300.673C422.94 300.132 421.728 299.514 420.562 298.827C418.595 297.606 416.705 296.263 414.906 294.805C411.674 292.272 399.936 273.69 391.597 260.802L401.536 252.492C412.307 262.267 423.245 272.309 434.206 280.879C437.027 282.878 425.151 274.866 427.796 276.56C428.977 277.308 430.212 277.971 431.493 278.544C432.537 279.032 433.574 279.269 433.284 279.086C433.055 279.017 432.819 278.979 432.583 278.979C432.316 278.956 432.049 278.963 431.79 279.002C431.79 279.002 431.988 278.918 432.179 278.803C432.796 278.445 433.375 278.025 433.909 277.544C435.769 275.804 437.415 273.843 438.803 271.706C442.301 266.197 445.251 260.359 447.622 254.277C450.313 247.814 452.523 241.236 454.65 234.46C456.776 227.684 458.758 220.801 460.542 213.811C462.326 206.828 488.006 213.025 486.092 220.48Z" fill="#407BFF"/>
<path opacity="0.6" d="M486.092 220.48C484.179 227.935 481.999 235.208 479.568 242.526C477.136 249.844 474.361 257.131 471.114 264.427C467.806 272.05 463.705 279.307 458.88 286.068C456.037 290.028 452.637 293.561 448.788 296.56C446.41 298.384 443.795 299.865 441.006 300.963C439.405 301.574 437.751 302.024 436.066 302.306L434.717 302.52C434.008 302.574 433.238 302.642 432.552 302.627C431.386 302.612 430.235 302.474 429.092 302.238C427.399 301.894 425.753 301.368 424.183 300.673C422.94 300.132 421.728 299.514 420.562 298.827C418.595 297.606 416.705 296.263 414.906 294.805C411.674 292.272 399.936 273.69 391.597 260.802L401.536 252.492C412.307 262.267 423.245 272.309 434.206 280.879C437.027 282.878 425.151 274.866 427.796 276.56C428.977 277.308 430.212 277.971 431.493 278.544C432.537 279.032 433.574 279.269 433.284 279.086C433.055 279.017 432.819 278.979 432.583 278.979C432.316 278.956 432.049 278.963 431.79 279.002C431.79 279.002 431.988 278.918 432.179 278.803C432.796 278.445 433.375 278.025 433.909 277.544C435.769 275.804 437.415 273.843 438.803 271.706C442.301 266.197 445.251 260.359 447.622 254.277C450.313 247.814 452.523 241.236 454.65 234.46C456.776 227.684 458.758 220.801 460.542 213.811C462.326 206.828 488.006 213.025 486.092 220.48Z" fill="white"/>
<path d="M402.291 253.606L392.786 233.437L374.743 243.754C374.743 243.754 386.421 262.473 392.984 260.626L402.291 253.606Z" fill="#FF8B7B"/>
<path d="M378.059 228.66L369.773 232.071C367.693 232.926 367.121 235.612 368.683 237.245L374.82 243.655L392.862 233.338L380.399 228.63C379.645 228.34 378.806 228.355 378.059 228.66Z" fill="#FF8B7B"/>
<path d="M309.853 290.738L290.416 288.365L283.952 308.8C283.952 308.8 306.187 309.342 309.891 303.344L309.853 290.738Z" fill="#FF8B7B"/>
<path d="M275.918 295.317L272.282 303.085C271.192 305.412 272.792 308.106 275.354 308.266L283.952 308.793L290.416 288.357L277.839 293.485C276.992 293.836 276.306 294.492 275.918 295.317Z" fill="#FF8B7B"/>
<path d="M492.273 219.412C491.397 214.894 484.689 209.392 480.123 208.622L477.112 208.11C471.845 207.218 465.221 206.538 458.727 206.21C446.371 205.508 433.977 205.501 421.621 206.195C415.904 206.714 410.309 207.653 405.842 208.515C405.789 208.53 405.728 208.538 405.675 208.553C400.461 209.675 396.688 214.207 396.528 219.549C396.108 233.537 395.026 261.962 392.526 289.998C390.574 311.876 386.26 333.204 384.316 348.039L474.864 363.331C480.969 346.138 483.081 330.602 488.729 298.644C492.106 279.444 495.886 238.001 492.273 219.412Z" fill="#407BFF"/>
<path opacity="0.6" d="M492.273 219.412C491.397 214.894 484.689 209.392 480.123 208.622L477.112 208.11C471.845 207.218 465.221 206.538 458.727 206.21C446.371 205.508 433.977 205.501 421.621 206.195C415.904 206.714 410.309 207.653 405.842 208.515C405.789 208.53 405.728 208.538 405.675 208.553C400.461 209.675 396.688 214.207 396.528 219.549C396.108 233.537 395.026 261.962 392.526 289.998C390.574 311.876 386.26 333.204 384.316 348.039L474.864 363.331C480.969 346.138 483.081 330.602 488.729 298.644C492.106 279.444 495.886 238.001 492.273 219.412Z" fill="white"/>
<path d="M405.447 210.804C412.802 214.017 416.141 222.617 412.871 229.95C405.447 246.578 393.068 272.92 387.732 282.146C385.712 285.419 383.692 288.67 381.406 291.936C380.262 293.577 378.997 295.202 377.64 296.873C376.901 297.72 376.306 298.499 375.437 299.376L374.195 300.673L373.493 301.391C371.519 303.23 369.164 304.603 366.587 305.427C365.231 305.87 363.851 306.221 362.448 306.481C360.162 306.854 357.852 307.038 355.535 307.045C351.533 307.083 324.024 309.518 310.036 304.611L309.305 289.471C323.284 290.585 347.707 283 350.855 282.664C352.12 282.512 353.37 282.26 354.597 281.909C354.994 281.802 355.382 281.642 355.741 281.428C355.87 281.421 355.733 281.276 355.169 281.665C354.963 281.795 354.773 281.947 354.605 282.123C354.605 282.123 354.75 281.924 354.811 281.856L355.382 281.161C355.756 280.757 356.198 280.093 356.633 279.559C357.471 278.406 358.325 277.163 359.171 275.812C360.855 273.179 362.479 270.264 364.08 267.311C367.289 261.397 370.239 255.132 373.128 248.806C375.178 244.319 381.215 230.683 386.337 218.473C389.47 211.025 398.053 207.576 405.447 210.804Z" fill="#407BFF"/>
<path opacity="0.2" d="M393.167 269.677C393.434 277.956 393.312 275.27 393.624 283.962C417.795 250.485 411.56 227.233 411.56 227.233L393.167 269.677Z" fill="black"/>
<path opacity="0.6" d="M405.447 210.804C412.802 214.017 416.141 222.617 412.871 229.95C405.447 246.578 393.068 272.92 387.732 282.146C385.712 285.419 383.692 288.67 381.406 291.936C380.262 293.577 378.997 295.202 377.64 296.873C376.901 297.72 376.306 298.499 375.437 299.376L374.195 300.673L373.493 301.391C371.519 303.23 369.164 304.603 366.587 305.427C365.231 305.87 363.851 306.221 362.448 306.481C360.162 306.854 357.852 307.038 355.535 307.045C351.533 307.083 324.024 309.518 310.036 304.611L309.305 289.471C323.284 290.585 347.707 283 350.855 282.664C352.12 282.512 353.37 282.26 354.597 281.909C354.994 281.802 355.382 281.642 355.741 281.428C355.87 281.421 355.733 281.276 355.169 281.665C354.963 281.795 354.773 281.947 354.605 282.123C354.605 282.123 354.75 281.924 354.811 281.856L355.382 281.161C355.756 280.757 356.198 280.093 356.633 279.559C357.471 278.406 358.325 277.163 359.171 275.812C360.855 273.179 362.479 270.264 364.08 267.311C367.289 261.397 370.239 255.132 373.128 248.806C375.178 244.319 381.215 230.683 386.337 218.473C389.47 211.025 398.053 207.576 405.447 210.804Z" fill="white"/>
<path d="M432.643 145.857C429.701 148.475 427.933 152.115 427.727 155.984C427.491 161.112 432.468 162.5 436.798 160.097C440.715 157.922 445.518 152.634 443.703 147.948C441.874 143.255 436.272 142.698 432.643 145.857Z" fill="#FAB27B"/>
<path d="M449.108 153.923C448.735 162.34 443.666 168.949 435.258 168.575C426.851 168.201 422.391 161.165 422.765 152.756C423.138 144.339 428.207 137.73 436.615 138.104C445.015 138.478 449.482 145.514 449.108 153.923Z" fill="#407BFF"/>
<path opacity="0.7" d="M449.108 153.923C448.735 162.34 443.666 168.949 435.258 168.575C426.851 168.201 422.391 161.165 422.765 152.756C423.138 144.339 428.207 137.73 436.615 138.104C445.015 138.478 449.482 145.514 449.108 153.923Z" fill="white"/>
<path d="M445.235 153.755C444.969 159.7 441.394 164.362 435.456 164.103C429.518 163.836 426.37 158.868 426.629 152.931C426.896 146.987 430.471 142.324 436.409 142.584C442.347 142.843 445.502 147.811 445.235 153.755Z" fill="#407BFF"/>
<path opacity="0.3" d="M445.235 153.755C444.969 159.7 441.394 164.362 435.456 164.103C429.518 163.836 426.37 158.868 426.629 152.931C426.896 146.987 430.471 142.324 436.409 142.584C442.347 142.843 445.502 147.811 445.235 153.755Z" fill="white"/>
<path d="M435.502 136.662C437.232 129.581 444.047 110.748 458.163 108.092C459.558 107.832 460.991 108.359 461.921 109.435L463.598 111.366C465.29 113.319 464.757 116.326 462.485 117.562C456.852 120.622 447.484 127.215 442.682 138.936C442.126 140.294 440.632 141.012 439.214 140.638L437.636 140.226C436.074 139.806 435.121 138.226 435.502 136.662Z" fill="#407BFF"/>
<path opacity="0.2" d="M435.502 136.662C437.232 129.581 444.047 110.748 458.163 108.092C459.558 107.832 460.991 108.359 461.921 109.435L463.598 111.366C465.29 113.319 464.757 116.326 462.485 117.562C456.852 120.622 447.484 127.215 442.682 138.936C442.126 140.294 440.632 141.012 439.214 140.638L437.636 140.226C436.074 139.806 435.121 138.226 435.502 136.662Z" fill="white"/>
<path d="M336.097 343.727H324.062V395.121H336.097V343.727Z" fill="#263238"/>
<path d="M336.097 343.727H324.062V395.121H336.097V343.727Z" fill="#263238"/>
<path d="M370.947 359.416C344.466 350.16 315.63 350.16 289.15 359.416C283.654 361.492 277.472 359.134 274.751 353.922C272.297 348.725 275.59 342.002 282.267 339.66C313.191 328.839 346.867 328.839 377.792 339.66C384.461 341.987 387.754 348.733 385.307 353.922C382.571 359.103 376.427 361.454 370.947 359.416Z" fill="#263238"/>
<path opacity="0.4" d="M370.947 359.416C344.466 350.16 315.63 350.16 289.15 359.416C283.654 361.492 277.472 359.134 274.751 353.922C272.297 348.725 275.59 342.002 282.267 339.66C313.191 328.839 346.867 328.839 377.792 339.66C384.461 341.987 387.754 348.733 385.307 353.922C382.571 359.103 376.427 361.454 370.947 359.416Z" fill="#263238"/>
<path d="M358.393 601.622C358.393 606.795 354.2 610.992 349.032 610.992C343.864 610.992 339.672 606.795 339.672 601.622C339.672 596.448 343.864 592.251 349.032 592.251C354.2 592.251 358.393 596.448 358.393 601.622Z" fill="#263238"/>
<path d="M495.909 601.622C495.909 606.795 500.102 610.992 505.27 610.992C510.438 610.992 514.63 606.795 514.63 601.622C514.63 596.448 510.438 592.251 505.27 592.251C500.102 592.251 495.909 596.448 495.909 601.622Z" fill="#263238"/>
<path d="M414.807 598.63C414.807 603.804 418.999 608.001 424.167 608.001C429.335 608.001 433.527 603.804 433.527 598.63C433.527 593.457 429.335 589.26 424.167 589.26C418.999 589.252 414.807 593.449 414.807 598.63Z" fill="#263238"/>
<path d="M525.675 589.038C525.241 591.221 523.282 592.77 521.064 592.709L423.42 591.373L331.981 593.441C329.763 593.502 327.804 591.953 327.392 589.771C326.897 587.291 328.513 584.917 330.967 584.421L380.902 574.715C386.093 573.746 391.329 573.25 396.612 573.25H450.274C455.533 573.25 460.793 573.746 465.961 574.715L522.077 583.712C524.532 584.185 526.148 586.558 525.675 589.038Z" fill="#263238"/>
<path d="M440.006 491.683H406.795V587.398H440.006V491.683Z" fill="#263238"/>
<path d="M435.25 431.04H411.574V492.148H435.25V431.04Z" fill="#263238"/>
<path opacity="0.2" d="M411.574 442.372L435.25 448.347V431.04H411.574V442.372Z" fill="black"/>
<path d="M413.892 387.559V430.773H287.847C279.294 430.796 272.358 423.844 272.335 415.29C272.335 412.489 273.09 409.765 274.507 407.361C281.764 395.098 294.905 387.567 309.144 387.567H413.892V387.559Z" fill="#407BFF"/>
<path opacity="0.2" d="M413.892 387.559V430.773H287.847C279.294 430.796 272.358 423.844 272.335 415.29C272.335 412.489 273.09 409.765 274.507 407.361C281.764 395.098 294.905 387.567 309.144 387.567H413.892V387.559Z" fill="white"/>
<path d="M439.252 227.539C438.947 228.943 438.741 230.339 438.642 231.766L424.792 430.079H405.667L419.517 231.766C419.525 231.621 419.54 231.453 419.57 231.308L439.252 227.539Z" fill="#407BFF"/>
<path opacity="0.2" d="M439.252 227.539C438.947 228.943 438.741 230.339 438.642 231.766L424.792 430.079H405.667L419.517 231.766C419.525 231.621 419.54 231.453 419.57 231.308L439.252 227.539Z" fill="white"/>
<path d="M527.169 430.803V431.032H523.952C525.057 431.032 526.102 430.948 527.169 430.803Z" fill="#263238"/>
<path d="M569.771 226.28L569.992 202.715C570.06 196.061 567.743 189.766 563.474 184.951L549.563 169.254L544.594 130C543.831 123.888 538.785 119.477 532.558 119.477H498.005C492.448 119.477 487.242 123.01 485.077 128.283L467.66 170.513L438.862 187.522C431.492 191.872 426.202 199.136 424.418 207.34L419.166 231.385L419.57 231.301L439.251 227.531C438.946 228.935 438.741 230.332 438.641 231.759L424.791 430.079H533.19C534.296 430.079 535.348 429.995 536.422 429.85H536.445C547.361 428.278 556.309 418.945 557.094 407.712L569.504 230.034C569.595 228.76 569.595 227.478 569.519 226.203L569.771 226.28ZM479.162 211.3L445.456 214.505L443.985 214.65L448.65 199.312L471.814 188.491L479.528 184.89L480.74 188.491L480.946 189.102L482.074 192.406L479.162 211.3ZM545.394 211.697H545.371L541.247 210.629C541.171 209.331 541.095 207.988 541.019 206.676C540.592 199.335 540.241 192.406 540.241 192.406L540.744 189.979L541.789 184.897L556.729 199.312L556.721 202.746L556.706 214.65L545.394 211.697Z" fill="#407BFF"/>
</svg>
