<svg width="193" height="354" viewBox="0 0 193 354" fill="none" xmlns="http://www.w3.org/2000/svg">
<path d="M192.232 34.2869V59.2116C192.232 60.227 191.402 61.0655 190.381 61.0655H190.227V343.638C190.227 348.93 185.803 353.223 180.349 353.223H12.7197C7.26618 353.223 2.84193 348.938 2.84193 343.638V127.547H2.6115C1.59761 127.547 0.768066 126.708 0.768066 125.693V100.768C0.768066 99.7527 1.59761 98.9218 2.6115 98.9218H2.84961V90.2982H2.6115C1.59761 90.2982 0.768066 89.4674 0.768066 88.4442V63.5272C0.768066 62.5041 1.59761 61.6733 2.6115 61.6733H2.84961V10.3545C2.84961 5.05418 7.26618 0.769287 12.7197 0.769287H180.342C185.795 0.769287 190.219 5.05418 190.219 10.3545V32.4483H190.373C191.402 32.4406 192.232 33.2714 192.232 34.2869Z" fill="#FCFFFD"/>
<path d="M3.61774 186.297H2.08155V128.262C0.898675 128.016 0 126.954 0 125.693V100.768C0 99.5065 0.890994 98.4526 2.08155 98.2064V91.0136C0.898675 90.7674 0 89.7058 0 88.4442V63.5272C0 62.2656 0.890994 61.204 2.08155 60.9578V10.3545C2.08155 4.64646 6.85143 0 12.7197 0H180.342C186.21 0 190.988 4.64646 190.988 10.3545V31.7482C192.14 32.0252 193 33.0637 193 34.2945V59.2192C193 60.4578 192.14 61.4963 190.988 61.7733V168.419H189.451V60.3039H190.373C190.972 60.3039 191.456 59.8193 191.456 59.2192V34.2945C191.456 33.7022 190.972 33.2175 190.373 33.2175H189.451V10.3545C189.451 5.49267 185.365 1.53856 180.342 1.53856H12.7197C7.70402 1.53856 3.61774 5.49267 3.61774 10.3545V62.4425H2.61153C2.0201 62.4425 1.5362 62.9272 1.5362 63.5272V88.4442C1.5362 89.0443 2.0201 89.5289 2.61153 89.5289H3.61774V99.6911H2.61153C2.0201 99.6911 1.5362 100.176 1.5362 100.768V125.693C1.5362 126.285 2.02778 126.777 2.61153 126.777H3.61774V186.297Z" fill="#3F3233"/>
<path d="M2.08153 282.98H3.61773V343.646C3.61773 348.507 7.70401 352.462 12.7274 352.462H180.349C185.373 352.462 189.459 348.507 189.459 343.646V216.86H190.995V343.646C190.995 349.354 186.218 354 180.349 354H12.7197C6.85142 354 2.07385 349.354 2.07385 343.646" fill="#8E6264"/>
<path d="M181.171 19.7397V331.637C181.171 336.591 177.185 340.607 172.269 340.607H21.0689C16.1454 340.607 12.1589 336.591 12.1589 331.629V19.732C12.1589 14.7779 16.1454 10.7622 21.0612 10.7622H65.2038C66.6171 10.7622 67.7615 11.9161 67.7615 13.3393L67.7539 17.5319C67.7539 19.3858 69.2593 20.909 71.1028 20.909H122.212C124.055 20.909 125.561 19.3858 125.561 17.5319L125.553 13.3393C125.553 11.9161 126.698 10.7622 128.111 10.7622H172.246C177.185 10.7622 181.171 14.7855 181.171 19.7397Z" fill="url(#paint0_linear_0_2783)"/>
<path d="M75.9265 12.3469C75.9265 13.2239 75.2199 13.9316 74.3442 13.9316C73.4686 13.9316 72.762 13.2239 72.762 12.3469C72.762 11.4699 73.4686 10.7622 74.3442 10.7622C75.2199 10.7622 75.9265 11.4776 75.9265 12.3469Z" fill="#593D3C"/>
<path d="M120.307 13.2239H84.0145C83.5306 13.2239 83.1389 12.8316 83.1389 12.347C83.1389 11.8623 83.5306 11.47 84.0145 11.47H120.307C120.791 11.47 121.183 11.8623 121.183 12.347C121.175 12.8316 120.783 13.2239 120.307 13.2239Z" fill="#593D3C"/>
<path d="M49.0277 254.894H144.041C148.781 254.894 152.66 251.009 152.66 246.262V234.415C152.66 229.669 148.781 225.784 144.041 225.784H49.0277C44.2886 225.784 40.4097 229.669 40.4097 234.415V246.262C40.402 251.009 44.2809 254.894 49.0277 254.894Z" fill="#EB7D66"/>
<path d="M144.042 255.663H63.7753V254.124H144.042C148.374 254.124 151.891 250.593 151.891 246.262V234.415H153.428V246.262C153.428 251.447 149.218 255.663 144.042 255.663Z" fill="#8E6264"/>
<path d="M49.0278 255.663C43.8508 255.663 39.6416 251.447 39.6416 246.262V234.415C39.6416 229.23 43.8508 225.015 49.0278 225.015H107.219V226.553H49.0278C44.6957 226.553 41.1778 230.084 41.1778 234.415V246.262C41.1778 250.601 44.7034 254.124 49.0278 254.124V255.663Z" fill="#8E6264"/>
<path d="M144.042 225.007H121.951V226.546H144.042V225.007Z" fill="#8E6264"/>
<path d="M77.6086 232.577H82.8471C84.6137 232.577 85.9425 232.9 86.8258 233.554C87.7091 234.208 88.1546 235.161 88.1546 236.415V237.946C88.1546 239.2 87.7091 240.154 86.8258 240.808C85.9425 241.462 84.6137 241.785 82.8471 241.785H81.1649V248.108H77.6086V232.577V232.577ZM82.8548 239.562C83.4385 239.562 83.8763 239.454 84.1682 239.231C84.4601 239.008 84.606 238.631 84.606 238.1V236.262C84.606 235.731 84.4601 235.354 84.1682 235.131C83.8763 234.908 83.4385 234.8 82.8548 234.8H81.1726V239.569H82.8548V239.562Z" fill="#FCFFFD"/>
<path d="M93.6542 232.577H98.4701L102.157 248.101H98.6007L97.9555 245.016V245.062H93.9153L93.2701 248.101H89.9673L93.6542 232.577ZM97.5331 242.954L95.9508 235.277H95.8893L94.3378 242.954H97.5331Z" fill="#FCFFFD"/>
<path d="M107.595 241.493L103.294 232.577H107.081L109.508 238.277H109.569L111.996 232.577H115.461L111.159 241.493V248.101H107.603V241.493H107.595Z" fill="#FCFFFD"/>
<path d="M92.2256 77.9897H37.5293V120.131H92.2256V77.9897Z" fill="#E9EFDF"/>
<path d="M155.54 77.9897H100.844V120.131H155.54V77.9897Z" fill="#E9EFDF"/>
<path d="M92.2256 128.416H37.5293V170.557H92.2256V128.416Z" fill="#E9EFDF"/>
<path d="M155.54 128.416H100.844V170.557H155.54V128.416Z" fill="#E9EFDF"/>
<path d="M126.306 161.403C124.685 161.11 123.456 160.449 122.604 159.418C121.751 158.38 121.329 157.056 121.329 155.449V153.787H125.676V155.702C125.676 157.172 126.467 157.903 128.057 157.903C129.647 157.903 130.438 157.141 130.438 155.625C130.438 154.687 130.162 153.841 129.601 153.079C129.04 152.318 128.011 151.433 126.506 150.425C124.639 149.148 123.326 147.956 122.573 146.848C121.82 145.74 121.444 144.486 121.444 143.094C121.444 141.532 121.859 140.24 122.681 139.232C123.502 138.224 124.708 137.555 126.298 137.247V135.047H130.062V137.247C131.683 137.54 132.904 138.194 133.741 139.217C134.578 140.24 134.993 141.555 134.993 143.171V143.894H130.646V142.917C130.646 141.425 129.878 140.678 128.349 140.678C126.813 140.678 126.053 141.401 126.053 142.848C126.053 143.717 126.329 144.517 126.89 145.248C127.45 145.986 128.48 146.871 129.985 147.902C131.852 149.202 133.165 150.41 133.918 151.533C134.671 152.656 135.047 153.933 135.047 155.379C135.047 157.018 134.625 158.356 133.772 159.403C132.919 160.449 131.69 161.118 130.07 161.41V163.941H126.306V161.403Z" fill="#EB7D66"/>
<path d="M74.5901 141.648H71.1106L71.0952 137.024H74.567L74.5901 141.648Z" fill="#EB7D66"/>
<path d="M75.4887 135.763H70.1658L70.1581 134.316H75.481L75.4887 135.763Z" fill="#EB7D66"/>
<path d="M75.0586 137.163H70.6036L70.5959 135.801H75.0509L75.0586 137.163Z" fill="#EB7D66"/>
<path d="M50.3489 145.886L50.3335 142.632L64.889 136.163L79.4137 142.632L79.4214 145.886H50.3489Z" fill="#EB7D66"/>
<path d="M52.73 161.934H61.3711L61.3864 164.657H52.7453L52.73 161.934Z" fill="#8E6264"/>
<path d="M77.3629 161.934L77.3706 164.657H68.7295L68.7141 161.934H77.3629Z" fill="#8E6264"/>
<path d="M64.9043 138.847L52.6301 144.179L52.7223 161.934H77.3552L77.2784 144.179L64.9043 138.847ZM59.5968 154.587H54.6118L54.5811 147.979H59.5661L59.5968 154.587ZM75.4042 154.587H70.427L70.3962 147.979H75.3735L75.4042 154.587Z" fill="white"/>
<path d="M68.7141 161.934L68.7295 164.657H61.3865L61.3711 161.934H68.7141Z" fill="#8E6264"/>
<path d="M68.6526 148.725L68.714 161.934H61.371L61.3096 148.725H68.6526Z" fill="#EB7D66"/>
<path d="M63.468 156.064H62.0701V155.541H63.468V156.064Z" fill="white"/>
<path d="M116.259 99.4449C115.338 98.7064 114.877 97.6448 114.877 96.2678V89.5597C114.877 88.1827 115.338 87.1211 116.259 86.3825C117.181 85.644 118.533 85.2748 120.315 85.2748C122.097 85.2748 123.449 85.644 124.37 86.3825C125.292 87.1211 125.753 88.1827 125.753 89.5597V96.2678C125.753 97.6448 125.292 98.7064 124.37 99.4449C123.449 100.183 122.097 100.553 120.315 100.553C118.533 100.553 117.181 100.183 116.259 99.4449ZM122.158 96.4524V89.3597C122.158 88.2365 121.544 87.6749 120.307 87.6749C119.078 87.6749 118.456 88.2365 118.456 89.3597V96.4524C118.456 97.5756 119.071 98.1372 120.307 98.1372C121.544 98.1372 122.158 97.5756 122.158 96.4524ZM133.349 85.644H136.944L123.042 112.469H119.447L133.349 85.644ZM132.013 111.746C131.091 111.007 130.63 109.946 130.63 108.569V101.86C130.63 100.483 131.091 99.4219 132.013 98.6833C132.935 97.9448 134.287 97.5756 136.069 97.5756C137.843 97.5756 139.202 97.9448 140.124 98.6833C141.046 99.4219 141.507 100.483 141.507 101.86V108.569C141.507 109.946 141.046 111.007 140.124 111.746C139.202 112.484 137.851 112.853 136.069 112.853C134.287 112.853 132.935 112.484 132.013 111.746ZM137.912 108.753V101.66C137.912 100.537 137.297 99.9757 136.069 99.9757C134.84 99.9757 134.225 100.537 134.225 101.66V108.753C134.225 109.876 134.84 110.438 136.069 110.438C137.297 110.438 137.912 109.876 137.912 108.753Z" fill="#EB7D66"/>
<path d="M81.3339 92.6368V93.3445H49.4962V92.6368L65.4189 83.7516L81.3339 92.6368Z" fill="#EB7D66"/>
<path d="M65.4112 91.4521C63.9211 91.4521 62.7075 90.329 62.7075 88.9519C62.7075 87.5749 63.9211 86.4518 65.4112 86.4518C66.9013 86.4518 68.1149 87.5749 68.1149 88.9519C68.1149 90.329 66.9013 91.4521 65.4112 91.4521ZM65.4112 87.298C64.4281 87.298 63.6292 88.0365 63.6292 88.9443C63.6292 89.852 64.4281 90.5905 65.4112 90.5905C66.3944 90.5905 67.1932 89.852 67.1932 88.9443C67.1932 88.0365 66.3944 87.298 65.4112 87.298Z" fill="white"/>
<path d="M57.5383 95.0293H53.5057V111.738H57.5383V95.0293Z" fill="white"/>
<path d="M67.4313 95.0293H63.3988V111.738H67.4313V95.0293Z" fill="white"/>
<path d="M77.3245 95.0293H73.292V111.738H77.3245V95.0293Z" fill="white"/>
<path d="M81.3339 93.2906H49.4962V94.36H81.3339V93.2906Z" fill="#C4D6AB"/>
<path d="M79.6671 94.4984H51.163V95.5677H79.6671V94.4984Z" fill="white"/>
<path d="M79.406 111.177H50.3489V112.246H79.406V111.177Z" fill="#8E6264"/>
<path d="M81.4338 113.3H48.321V114.369H81.4338V113.3Z" fill="#8E6264"/>
<defs>
<linearGradient id="paint0_linear_0_2783" x1="12.1551" y1="175.683" x2="181.173" y2="175.683" gradientUnits="userSpaceOnUse">
<stop stop-color="#1E2B5C"/>
<stop offset="1" stop-color="#738EBD"/>
</linearGradient>
</defs>
</svg>
