<svg width="57" height="57" viewBox="0 0 57 57" fill="none" xmlns="http://www.w3.org/2000/svg">
<rect x="4.86722" y="3.87937" width="4.23785" height="12.0352" stroke="#121A38" stroke-width="2"/>
<rect x="9.54559" y="5.43885" width="4.23785" height="8.91623" stroke="#121A38" stroke-width="2"/>
<path d="M13.224 5.9983C15.0434 5.47847 21.1773 3.97097 24.92 2.09962C28.6627 0.228262 32.7173 1.31989 34.2767 2.09962L49.8713 8.33749C50.911 10.1569 51.8986 13.7956 47.5322 13.7956L38.1754 11.4564" stroke="#121A38" stroke-width="2"/>
<path d="M23.3605 11.4564L33.497 8.33748C35.5763 8.33748 38.7992 9.4291 35.0565 13.7956L25.6997 16.9145C23.8803 19.5136 18.6821 20.8132 14.0037 14.5753" stroke="#121A38" stroke-width="2"/>
<rect x="56" y="48.1374" width="4.23785" height="12.0352" transform="rotate(-180 56 48.1374)" stroke="#121A38" stroke-width="2"/>
<rect x="51.3216" y="46.5779" width="4.23785" height="8.91623" transform="rotate(-180 51.3216 46.5779)" stroke="#121A38" stroke-width="2"/>
<path d="M47.6432 46.0185C45.8238 46.5383 39.69 48.0458 35.9473 49.9171C32.2045 51.7885 28.1499 50.6969 26.5905 49.9171L10.9959 43.6793C9.95623 41.8599 8.96857 38.2212 13.3351 38.2212L22.6918 40.5603" stroke="#121A38" stroke-width="2"/>
<path d="M37.5067 40.5604L27.3702 43.6793C25.2909 43.6793 22.0681 42.5877 25.8108 38.2212L35.1675 35.1023C36.9869 32.5031 42.1851 31.2036 46.8635 37.4414" stroke="#121A38" stroke-width="2"/>
<path d="M37 33.5116L26.3478 22L2 41.186L14.1739 55L21.7826 48.8605M15.6957 34.2791C16.9638 33.2558 19.8043 31.8233 21.0217 34.2791C22.2391 36.7349 21.529 37.6047 21.0217 37.7326L27.8696 37.2049" stroke="#121A38" stroke-width="2"/>
</svg>
