<svg width="279" height="271" viewBox="0 0 279 271" fill="none" xmlns="http://www.w3.org/2000/svg">
<g clip-path="url(#clip0_412_661)">
<path d="M278.986 175.145H278.334V174.978H278.985L278.986 175.145ZM278.986 171.071H278.334V167.163H278.985L278.986 171.071ZM278.986 163.256H278.334V159.351H278.985L278.986 163.256ZM278.986 155.441H278.334V151.533H278.985L278.986 155.441ZM278.986 147.626H278.334V143.718H278.985L278.986 147.626ZM278.336 139.811V135.903H278.986V139.811H278.336ZM278.986 131.996H278.334V128.088H278.985L278.986 131.996ZM278.986 124.181H278.334V120.273H278.985L278.986 124.181ZM278.986 116.366H278.334V112.458H278.985L278.986 116.366ZM278.986 108.551H278.334V104.64H278.985L278.986 108.551ZM278.986 100.736H278.334V96.8281H278.985L278.986 100.736Z" fill="#708FFF"/>
<path d="M63.2665 52.2394H62.616V48.3319H63.2665V52.2394ZM63.2665 44.4244H62.616V40.5169H63.2665V44.4244ZM63.2665 36.6094H62.616V32.7019H63.2665V36.6094ZM63.2665 28.7944H62.616V24.8869H63.2665V28.7944ZM63.2665 20.9794H62.616V17.0733H63.2665V20.9794ZM63.2665 13.1644H62.616V9.25685H63.2665V13.1644ZM63.2665 5.34934H62.616V3.33252H63.2665V5.34934Z" fill="#708FFF"/>
<path d="M223.993 31.3378H223.343V33.2915H223.993V31.3378Z" fill="#708FFF"/>
<path d="M223.992 155.604H223.343V151.781H223.992V155.604ZM223.992 147.959H223.343V144.136H223.992V147.959ZM223.992 140.314H223.343V136.491H223.992V140.314ZM223.992 132.67H223.343V128.842H223.992V132.67ZM223.992 125.026H223.343V121.203H223.992V125.026ZM223.992 117.381H223.343V113.558H223.992V117.381ZM223.992 109.736H223.343V105.922H223.992V109.736ZM223.992 102.092H223.343V98.27H223.992V102.092ZM223.992 94.4475H223.343V90.6251H223.992V94.4475ZM223.992 86.8027H223.343V82.9802H223.992V86.8027ZM223.992 79.1593H223.343V75.3368H223.992V79.1593ZM223.992 71.5144H223.343V67.692H223.992V71.5144ZM223.992 63.8695H223.343V60.05H223.992V63.8695ZM223.992 56.2261H223.343V52.4037H223.992V56.2261ZM223.992 48.5813H223.343V44.7588H223.992V48.5813ZM223.992 40.9364H223.343V37.114H223.992V40.9364Z" fill="#708FFF"/>
<path d="M223.993 161.704H221.717V161.054H223.343V159.425H223.993V161.704Z" fill="#708FFF"/>
<path d="M217.894 161.698H214.073V161.047H217.894V161.698ZM210.252 161.698H206.431V161.047H210.252V161.698ZM202.61 161.698H198.789V161.047H202.61V161.698Z" fill="#708FFF"/>
<path d="M194.967 161.054H193.016V161.705H194.967V161.054Z" fill="#708FFF"/>
<path d="M278.986 52.7557H278.336V54.7095H278.986V52.7557Z" fill="#708FFF"/>
<path d="M278.986 91.7326H278.334V88.0333H278.985L278.986 91.7326ZM278.986 84.3268H278.334V80.6275H278.985L278.986 84.3268ZM278.986 76.9225H278.334V73.2218H278.985L278.986 76.9225ZM278.986 69.5167H278.334V65.8174H278.985L278.986 69.5167ZM278.986 62.1123H278.334V58.4116H278.985L278.986 62.1123Z" fill="#708FFF"/>
<path d="M278.986 97.717H276.709V97.0658H278.336V95.4376H278.986V97.717Z" fill="#708FFF"/>
<path d="M272.84 97.717H268.971V97.0657H272.84V97.717ZM265.101 97.717H261.233V97.0657H265.101V97.717ZM257.364 97.717H253.494V97.0657H257.364V97.717ZM249.625 97.717H245.755V97.0657H249.625V97.717ZM241.886 97.717H238.018V97.0657H241.886V97.717ZM234.148 97.717H230.277V97.0657H234.147L234.148 97.717Z" fill="#708FFF"/>
<path d="M226.409 97.0657H224.458V97.717H226.409V97.0657Z" fill="#708FFF"/>
<path d="M305 84.9853H252.322V109.746H305V84.9853Z" fill="#708FFF"/>
<path d="M305 84.9853H252.322V85.6835H305V84.9853Z" fill="#91A9FF"/>
<path d="M303.01 107.753V86.9787H254.313V107.753H303.01Z" fill="#ABC2FE"/>
<path d="M254.313 92.2356C255.003 92.2356 255.686 92.0997 256.323 91.8355C256.96 91.5713 257.539 91.1841 258.026 90.6959C258.514 90.2078 258.901 89.6282 259.165 88.9904C259.428 88.3526 259.564 87.6691 259.564 86.9787H254.313V92.2356Z" fill="#708FFF"/>
<path d="M254.313 102.496C255.003 102.496 255.686 102.632 256.323 102.896C256.96 103.16 257.539 103.547 258.026 104.036C258.514 104.524 258.901 105.103 259.165 105.741C259.428 106.379 259.564 107.062 259.564 107.753H254.313V102.496Z" fill="#708FFF"/>
<path d="M278.661 105.425C283.107 105.425 286.711 101.817 286.711 97.3664C286.711 92.9159 283.107 89.3079 278.661 89.3079C274.215 89.3079 270.612 92.9159 270.612 97.3664C270.612 101.817 274.215 105.425 278.661 105.425Z" fill="#708FFF"/>
<path d="M282.152 99.6077C282.152 97.5542 280.528 97.0218 279.193 96.4937V94.0383C279.467 94.1068 279.716 94.2541 279.908 94.4622C280.061 94.6236 280.265 94.728 280.485 94.7584C280.706 94.7888 280.93 94.7433 281.121 94.6294C281.249 94.5542 281.358 94.4513 281.441 94.3283C281.524 94.2053 281.578 94.0653 281.599 93.9185C281.621 93.7718 281.61 93.6221 281.566 93.4803C281.522 93.3386 281.447 93.2085 281.347 93.0996C280.778 92.4997 280.014 92.1231 279.193 92.0376V91.3864C279.193 91.2116 279.124 91.0439 279 90.9202C278.877 90.7964 278.71 90.7267 278.535 90.7263C278.36 90.7267 278.193 90.7964 278.07 90.9202C277.946 91.0439 277.877 91.2116 277.877 91.3864V92.0523C276.471 92.3002 275.279 93.2829 275.279 94.9771C275.279 96.7988 276.598 97.497 277.877 98.0118V100.611C277.536 100.515 277.231 100.321 276.998 100.054C276.847 99.8753 276.639 99.7554 276.409 99.7144C276.179 99.6734 275.943 99.714 275.74 99.8292L275.669 99.8688C275.546 99.9394 275.44 100.036 275.358 100.151C275.276 100.266 275.219 100.398 275.193 100.537C275.166 100.677 275.169 100.82 275.203 100.958C275.236 101.095 275.299 101.224 275.386 101.336C275.972 102.047 276.825 102.509 277.877 102.644V103.344C277.877 103.518 277.946 103.686 278.07 103.809C278.193 103.933 278.361 104.002 278.535 104.002C278.709 104.002 278.877 103.933 279 103.809C279.124 103.686 279.193 103.518 279.193 103.344V102.663C280.892 102.458 282.152 101.385 282.152 99.6077ZM277.291 94.9917C277.288 94.8008 277.342 94.6132 277.447 94.4534C277.551 94.2936 277.701 94.1689 277.877 94.0955V95.8689C277.455 95.6004 277.291 95.3408 277.291 94.9917ZM279.196 100.651V98.5384C279.794 98.8171 280.129 99.1104 280.129 99.6224C280.126 100.077 279.849 100.502 279.193 100.651H279.196Z" fill="#E2EAFE"/>
<path d="M193.014 100.057C193.014 100.057 201.049 95.1472 200.468 84.8519C199.886 74.5565 190.896 77.3287 190.896 77.3287L193.014 100.057Z" fill="#FFB1D0"/>
<path d="M69.2752 175.145C77.5284 137.165 83.0915 127.311 85.2306 120.027C87.3697 112.743 105.346 70.3454 113.049 71.4073C120.753 72.4693 119.468 78.8248 116.472 91.2925C113.476 103.76 106.672 120.031 106.672 120.031L107.457 151.906L69.2752 175.145Z" fill="#FFB1D0"/>
<path d="M70.1264 172.122L107.048 135.278L106.672 120.024C106.672 120.024 109.032 114.378 111.584 107.191L106.672 76.2814C106.672 76.2814 103.775 115.445 102.516 124.201L88.832 130.724C88.832 130.724 79.6206 141.364 75.1929 151.659C73.7644 156.262 71.8948 165.088 70.1264 172.122Z" fill="#FE7592"/>
<path d="M193.728 156.737C193.728 156.737 201.514 148.215 204.11 139.429C206.706 130.643 207.911 127.164 202.812 123.264C199.725 120.904 188.861 141.364 188.861 141.364V161.502L193.728 156.737Z" fill="#FFB1D0"/>
<path d="M192.45 107.263C192.45 107.263 199.429 104.587 202.023 110.003C204.618 115.418 204.368 119.964 198.919 127.164C193.47 134.365 188.861 141.364 188.861 141.364L192.45 107.263Z" fill="#FFB1D0"/>
<path d="M200.467 123.984C200.467 123.984 194.874 128.864 194.409 135.614C193.945 142.364 196.241 153.691 196.241 153.691L185.563 166.371L189.986 108.848L192.45 107.263C192.45 107.263 192.778 124.298 194.176 124.942C195.574 125.586 200.467 123.984 200.467 123.984Z" fill="#FE7592"/>
<path d="M105.773 223.281L120.324 232.708C120.324 232.708 144.291 223.281 153.706 211.714C163.121 200.147 182.379 172.725 182.379 172.725L119.896 136.642L102.516 138.205L94.6457 179.58L105.773 223.281Z" fill="#FFB1D0"/>
<path d="M182.095 172.561L127.277 140.908L107.791 147.068L99.7034 153.019L97.0529 166.953L101.221 184.678L112.806 206.124C112.806 206.124 117.309 203.22 118.813 199.256L167.026 194.143C173.585 185.171 179.835 176.335 181.769 173.592L182.095 172.561Z" fill="#FE7592"/>
<path d="M67.6137 212.57L39.7978 262.041H110.485L120.325 232.708L106.673 212.57H67.6137Z" fill="#FFB1D0"/>
<path d="M122.232 10.1428V47.8391H101.968V10.1428C101.968 7.45276 103.036 4.8729 104.936 2.97076C106.836 1.06861 109.413 9.53674e-07 112.1 9.53674e-07C114.787 9.53674e-07 117.364 1.06861 119.264 2.97076C121.164 4.8729 122.232 7.45276 122.232 10.1428Z" fill="#ABC2FE"/>
<path d="M101.968 24.0934V37.6963C101.936 40.3654 100.855 42.9143 98.9581 44.7904C97.0615 46.6665 94.5026 47.7186 91.8363 47.7186C89.1699 47.7186 86.611 46.6665 84.7144 44.7904C82.8177 42.9143 81.7361 40.3654 81.704 37.6963V24.0934H101.968Z" fill="white"/>
<path d="M106.645 33.0143V47.8391H91.8355C94.5226 47.8387 97.0995 46.77 98.9997 44.868C100.9 42.966 101.968 40.3863 101.968 37.6963V33.0143H106.645Z" fill="#ABC2FE"/>
<path d="M186.071 26.4329H113.43C109.681 26.4329 106.642 29.4754 106.642 33.2285V186.23C106.642 189.983 109.681 193.026 113.43 193.026H186.071C189.82 193.026 192.859 189.983 192.859 186.23V33.2285C192.859 29.4754 189.82 26.4329 186.071 26.4329Z" stroke="#231F20" stroke-width="1.24" stroke-miterlimit="10"/>
<path d="M189.026 181.516V37.9427C189.026 36.8831 188.168 36.0242 187.11 36.0242L112.39 36.0242C111.332 36.0242 110.474 36.8831 110.474 37.9427L110.474 181.516C110.474 182.575 111.332 183.434 112.39 183.434H187.11C188.168 183.434 189.026 182.575 189.026 181.516Z" stroke="#231F20" stroke-width="1.24" stroke-miterlimit="10"/>
<path d="M186.071 26.4329H113.43C109.681 26.4329 106.642 29.4754 106.642 33.2285V186.23C106.642 189.983 109.681 193.026 113.43 193.026H186.071C189.82 193.026 192.859 189.983 192.859 186.23V33.2285C192.859 29.4754 189.82 26.4329 186.071 26.4329Z" fill="url(#paint0_linear_412_661)"/>
<path d="M189.026 181.516V37.9427C189.026 36.8831 188.168 36.0242 187.11 36.0242L112.39 36.0242C111.332 36.0242 110.474 36.8831 110.474 37.9427L110.474 181.516C110.474 182.575 111.332 183.434 112.39 183.434H187.11C188.168 183.434 189.026 182.575 189.026 181.516Z" fill="#D6E3FF"/>
<path d="M149.255 33.1302C150.442 33.1302 151.404 32.1668 151.404 30.9784C151.404 29.79 150.442 28.8267 149.255 28.8267C148.068 28.8267 147.105 29.79 147.105 30.9784C147.105 32.1668 148.068 33.1302 149.255 33.1302Z" stroke="#231F20" stroke-width="1.24" stroke-miterlimit="10"/>
<path d="M149.255 33.1302C150.442 33.1302 151.404 32.1668 151.404 30.9784C151.404 29.79 150.442 28.8267 149.255 28.8267C148.068 28.8267 147.105 29.79 147.105 30.9784C147.105 32.1668 148.068 33.1302 149.255 33.1302Z" fill="#221473"/>
<path opacity="0.2" d="M192.859 33.2285C192.858 31.7449 192.373 30.3023 191.477 29.1206C190.581 27.939 189.324 27.0831 187.897 26.6837L123.908 191.063L152.521 192.421L192.865 65.0635L192.859 33.2285Z" fill="white"/>
<path opacity="0.2" d="M173.229 26.4329H167.021L166.864 26.6661L106.641 181.353V186.224C106.64 187.247 106.871 188.256 107.315 189.177C107.759 190.098 108.406 190.907 109.206 191.543L120.646 192.423L173.229 26.4329Z" fill="white"/>
<path d="M177.1 152.272H122.4C117.195 152.272 112.976 156.496 112.976 161.706C112.976 166.916 117.195 171.14 122.4 171.14H177.1C182.304 171.14 186.524 166.916 186.524 161.706C186.524 156.496 182.304 152.272 177.1 152.272Z" fill="#FEAB00"/>
<path d="M128.425 160.561C128.425 162.132 127.226 163.232 125.701 163.232H124.689V165.523H122.736V157.896H125.698C127.226 157.884 128.425 158.99 128.425 160.561ZM126.475 160.561C126.48 160.457 126.464 160.352 126.428 160.254C126.391 160.155 126.335 160.066 126.263 159.99C126.19 159.914 126.103 159.854 126.006 159.814C125.91 159.773 125.806 159.753 125.701 159.755H124.689V161.378H125.701C125.806 161.378 125.91 161.357 126.007 161.316C126.104 161.274 126.191 161.213 126.264 161.137C126.336 161.06 126.392 160.97 126.428 160.871C126.465 160.772 126.48 160.666 126.475 160.561Z" fill="white"/>
<path d="M133.894 164.422H131.355L131.028 165.523H128.915L131.431 157.896H133.806L136.323 165.523H134.221L133.894 164.422ZM133.393 162.742L132.619 160.146L131.856 162.742H133.393Z" fill="white"/>
<path d="M140.903 162.59V165.523H138.953V162.612L136.382 157.889H138.58L139.931 160.714L141.292 157.889H143.489L140.903 162.59Z" fill="white"/>
<path d="M154.875 157.884V165.512H153.372L150.682 161.673V165.512H148.732V157.884H150.245L152.937 161.723V157.884H154.875Z" fill="white"/>
<path d="M156.881 161.707C156.876 160.914 157.107 160.138 157.543 159.476C157.98 158.815 158.603 158.298 159.333 157.992C160.063 157.685 160.868 157.603 161.645 157.755C162.422 157.907 163.137 158.286 163.699 158.845C164.26 159.404 164.643 160.117 164.799 160.895C164.955 161.672 164.877 162.478 164.575 163.211C164.273 163.943 163.76 164.57 163.102 165.011C162.444 165.451 161.67 165.686 160.878 165.686C160.353 165.693 159.832 165.595 159.345 165.397C158.859 165.2 158.417 164.907 158.044 164.537C157.672 164.166 157.378 163.725 157.178 163.239C156.978 162.753 156.877 162.232 156.881 161.707ZM162.938 161.707C162.936 161.299 162.814 160.901 162.586 160.563C162.359 160.226 162.037 159.963 161.66 159.808C161.283 159.653 160.87 159.613 160.47 159.694C160.071 159.775 159.705 159.972 159.418 160.26C159.131 160.549 158.935 160.917 158.857 161.317C158.778 161.716 158.819 162.131 158.975 162.507C159.132 162.883 159.396 163.205 159.734 163.431C160.073 163.657 160.471 163.778 160.878 163.778C161.151 163.786 161.423 163.738 161.678 163.637C161.932 163.535 162.163 163.383 162.356 163.189C162.549 162.995 162.7 162.763 162.8 162.508C162.9 162.253 162.947 161.981 162.938 161.707Z" fill="white"/>
<path d="M165.944 157.884H168.047L169.219 162.694L170.581 157.884H172.117L173.478 162.694L174.666 157.884H176.757L174.634 165.512H172.574L171.355 161.204L170.135 165.512H168.075L165.944 157.884Z" fill="white"/>
<path d="M164.262 124.832C172.277 116.809 172.277 103.8 164.262 95.7767C156.248 87.7533 143.254 87.7533 135.239 95.7767C127.225 103.8 127.225 116.809 135.239 124.832C143.254 132.855 156.248 132.855 164.262 124.832Z" fill="white"/>
<path d="M149.75 113.989C155.018 113.989 159.288 109.714 159.288 104.441C159.288 99.1671 155.018 94.892 149.75 94.892C144.482 94.892 140.212 99.1671 140.212 104.441C140.212 109.714 144.482 113.989 149.75 113.989Z" fill="#482AF6"/>
<path d="M149.75 130.85C154.662 130.857 159.412 129.094 163.131 125.882C162.117 123.148 160.291 120.789 157.899 119.124C155.507 117.458 152.664 116.566 149.75 116.566C146.836 116.566 143.992 117.458 141.6 119.124C139.208 120.789 137.383 123.148 136.369 125.882C140.088 129.094 144.838 130.857 149.75 130.85Z" fill="#482AF6"/>
<path d="M161.122 137.396H138.376C138.029 137.396 137.697 137.259 137.452 137.013C137.207 136.768 137.069 136.435 137.069 136.088C137.069 135.741 137.207 135.408 137.452 135.163C137.697 134.917 138.029 134.78 138.376 134.78H161.122C161.469 134.78 161.801 134.917 162.047 135.163C162.292 135.408 162.429 135.741 162.429 136.088C162.429 136.435 162.292 136.768 162.047 137.013C161.801 137.259 161.469 137.396 161.122 137.396Z" fill="white"/>
<path d="M156.597 142.923H142.903C142.557 142.923 142.224 142.785 141.979 142.539C141.734 142.293 141.596 141.96 141.596 141.613C141.597 141.266 141.735 140.934 141.98 140.689C142.225 140.443 142.557 140.305 142.903 140.305H156.597C156.943 140.305 157.275 140.443 157.52 140.689C157.765 140.934 157.903 141.266 157.903 141.613C157.903 141.96 157.766 142.293 157.521 142.539C157.276 142.785 156.943 142.923 156.597 142.923Z" fill="white"/>
<path d="M186.525 67.8782V67.8768C186.525 64.1423 183.501 61.1149 179.771 61.1149L120.76 61.1149C117.03 61.1149 114.006 64.1423 114.006 67.8768V67.8782C114.006 71.6127 117.03 74.6401 120.76 74.6401H179.771C183.501 74.6401 186.525 71.6127 186.525 67.8782Z" fill="#708FFF"/>
<path d="M179.769 71.931H120.759C119.685 71.931 118.654 71.5037 117.895 70.7431C117.135 69.9825 116.708 68.951 116.708 67.8753C116.708 66.7997 117.135 65.7682 117.895 65.0076C118.654 64.247 119.685 63.8197 120.759 63.8197H179.769C180.844 63.8197 181.874 64.247 182.634 65.0076C183.394 65.7682 183.821 66.7997 183.821 67.8753C183.821 68.951 183.394 69.9825 182.634 70.7431C181.874 71.5037 180.844 71.931 179.769 71.931Z" fill="#3955BF"/>
<path d="M122.232 1.06099e-07V10.1428C122.232 8.81077 121.97 7.49175 121.461 6.26109C120.952 5.03042 120.205 3.91221 119.265 2.97033C118.324 2.02844 117.207 1.28134 115.977 0.771681C114.748 0.262026 113.431 -0.000192564 112.1 1.06099e-07H122.232Z" fill="white"/>
<path d="M122.233 9.53674e-07V71.931H178.295V10.3261C178.295 7.58943 177.209 4.9648 175.276 3.02964C173.343 1.09449 170.722 0.00733307 167.988 0.00733307L122.233 9.53674e-07Z" fill="white"/>
<path d="M139.867 32.3704H128.954C128.682 32.3704 128.421 32.2622 128.228 32.0697C128.036 31.8771 127.928 31.616 127.928 31.3437C127.928 31.0713 128.036 30.8102 128.228 30.6176C128.421 30.4251 128.682 30.3169 128.954 30.3169H139.867C140.139 30.3169 140.4 30.4251 140.593 30.6176C140.785 30.8102 140.893 31.0713 140.893 31.3437C140.893 31.616 140.785 31.8771 140.593 32.0697C140.4 32.2622 140.139 32.3704 139.867 32.3704Z" fill="#7FA0FF"/>
<path d="M155.613 20.1404H144.698C144.426 20.1404 144.165 20.0322 143.973 19.8397C143.78 19.6471 143.672 19.386 143.672 19.1137C143.672 18.8413 143.78 18.5802 143.973 18.3876C144.165 18.1951 144.426 18.0869 144.698 18.0869H155.613C155.885 18.0869 156.146 18.1951 156.339 18.3876C156.531 18.5802 156.639 18.8413 156.639 19.1137C156.637 19.3854 156.528 19.6454 156.336 19.8376C156.145 20.0297 155.885 20.1385 155.613 20.1404Z" fill="#7FA0FF"/>
<path d="M171.358 32.3704H168.497C168.224 32.3704 167.964 32.2622 167.771 32.0697C167.579 31.8771 167.471 31.616 167.471 31.3437C167.471 31.0713 167.579 30.8102 167.771 30.6176C167.964 30.4251 168.224 30.3169 168.497 30.3169H171.358C171.63 30.3169 171.891 30.4251 172.083 30.6176C172.275 30.8102 172.384 31.0713 172.384 31.3437C172.384 31.616 172.275 31.8771 172.083 32.0697C171.891 32.2622 171.63 32.3704 171.358 32.3704Z" fill="#7FA0FF"/>
<path d="M134.876 36.4349H128.954C128.682 36.4349 128.421 36.3267 128.228 36.1341C128.036 35.9416 127.928 35.6804 127.928 35.4081C127.928 35.1358 128.036 34.8746 128.228 34.6821C128.421 34.4895 128.682 34.3814 128.954 34.3814H134.876C135.148 34.3814 135.409 34.4895 135.601 34.6821C135.793 34.8746 135.901 35.1358 135.901 35.4081C135.901 35.6804 135.793 35.9416 135.601 36.1341C135.409 36.3267 135.148 36.4349 134.876 36.4349Z" fill="#7FA0FF"/>
<path d="M145.924 36.4349H138.266C137.994 36.4349 137.733 36.3267 137.541 36.1341C137.349 35.9416 137.24 35.6804 137.24 35.4081C137.24 35.1358 137.349 34.8746 137.541 34.6821C137.733 34.4895 137.994 34.3814 138.266 34.3814H145.92C146.192 34.3814 146.453 34.4895 146.645 34.6821C146.838 34.8746 146.946 35.1358 146.946 35.4081C146.946 35.6797 146.838 35.9401 146.647 36.1326C146.455 36.325 146.196 36.4337 145.924 36.4349Z" fill="#7FA0FF"/>
<path d="M171.358 36.4349H168.497C168.224 36.4349 167.964 36.3267 167.771 36.1341C167.579 35.9416 167.471 35.6804 167.471 35.4081C167.471 35.1358 167.579 34.8746 167.771 34.6821C167.964 34.4895 168.224 34.3814 168.497 34.3814H171.358C171.63 34.3814 171.891 34.4895 172.083 34.6821C172.275 34.8746 172.384 35.1358 172.384 35.4081C172.384 35.6804 172.275 35.9416 172.083 36.1341C171.891 36.3267 171.63 36.4349 171.358 36.4349Z" fill="#7FA0FF"/>
<path d="M137.806 38.4341H128.954C128.384 38.4341 127.922 38.8964 127.922 39.4667C127.922 40.037 128.384 40.4993 128.954 40.4993H137.806C138.376 40.4993 138.837 40.037 138.837 39.4667C138.837 38.8964 138.376 38.4341 137.806 38.4341Z" fill="#7FA0FF"/>
<path d="M143.196 38.4341H141.199C140.63 38.4341 140.168 38.8964 140.168 39.4667C140.168 40.037 140.63 40.4993 141.199 40.4993H143.196C143.766 40.4993 144.228 40.037 144.228 39.4667C144.228 38.8964 143.766 38.4341 143.196 38.4341Z" fill="#7FA0FF"/>
<path d="M171.358 38.4341H168.496C167.927 38.4341 167.465 38.8964 167.465 39.4667C167.465 40.037 167.927 40.4993 168.496 40.4993H171.358C171.928 40.4993 172.389 40.037 172.389 39.4667C172.389 38.8964 171.928 38.4341 171.358 38.4341Z" fill="#7FA0FF"/>
<path d="M139.867 44.5638H128.954C128.682 44.5638 128.421 44.4556 128.228 44.263C128.036 44.0705 127.928 43.8093 127.928 43.537C127.928 43.2647 128.036 43.0035 128.228 42.811C128.421 42.6184 128.682 42.5103 128.954 42.5103H139.867C140.139 42.5103 140.4 42.6184 140.593 42.811C140.785 43.0035 140.893 43.2647 140.893 43.537C140.893 43.8093 140.785 44.0705 140.593 44.263C140.4 44.4556 140.139 44.5638 139.867 44.5638Z" fill="#7FA0FF"/>
<path d="M171.358 44.5638H168.497C168.224 44.5638 167.964 44.4556 167.771 44.263C167.579 44.0705 167.471 43.8093 167.471 43.537C167.471 43.2647 167.579 43.0035 167.771 42.811C167.964 42.6184 168.224 42.5103 168.497 42.5103H171.358C171.63 42.5103 171.891 42.6184 172.083 42.811C172.275 43.0035 172.384 43.2647 172.384 43.537C172.384 43.8093 172.275 44.0705 172.083 44.263C171.891 44.4556 171.63 44.5638 171.358 44.5638Z" fill="#7FA0FF"/>
<path d="M134.876 48.6282H128.954C128.682 48.6282 128.421 48.52 128.228 48.3275C128.036 48.1349 127.928 47.8738 127.928 47.6015C127.928 47.3292 128.036 47.068 128.228 46.8754C128.421 46.6829 128.682 46.5747 128.954 46.5747H134.876C135.148 46.5747 135.409 46.6829 135.601 46.8754C135.793 47.068 135.901 47.3292 135.901 47.6015C135.901 47.8738 135.793 48.1349 135.601 48.3275C135.409 48.52 135.148 48.6282 134.876 48.6282Z" fill="#7FA0FF"/>
<path d="M145.924 48.6282H138.266C137.994 48.6282 137.733 48.52 137.541 48.3275C137.349 48.1349 137.24 47.8738 137.24 47.6015C137.24 47.3292 137.349 47.068 137.541 46.8754C137.733 46.6829 137.994 46.5747 138.266 46.5747H145.92C146.192 46.5747 146.453 46.6829 146.645 46.8754C146.838 47.068 146.946 47.3292 146.946 47.6015C146.946 47.873 146.838 48.1335 146.647 48.3259C146.455 48.5184 146.196 48.627 145.924 48.6282Z" fill="#7FA0FF"/>
<path d="M171.358 48.6282H168.497C168.224 48.6282 167.964 48.52 167.771 48.3275C167.579 48.1349 167.471 47.8738 167.471 47.6015C167.471 47.3292 167.579 47.068 167.771 46.8754C167.964 46.6829 168.224 46.5747 168.497 46.5747H171.358C171.63 46.5747 171.891 46.6829 172.083 46.8754C172.275 47.068 172.384 47.3292 172.384 47.6015C172.384 47.8738 172.275 48.1349 172.083 48.3275C171.891 48.52 171.63 48.6282 171.358 48.6282Z" fill="#7FA0FF"/>
<path d="M137.805 62.3852H128.954C128.682 62.3852 128.421 62.277 128.228 62.0844C128.036 61.8919 127.928 61.6307 127.928 61.3584C127.928 61.0861 128.036 60.8249 128.228 60.6324C128.421 60.4398 128.682 60.3317 128.954 60.3317H137.805C138.077 60.3317 138.337 60.4398 138.53 60.6324C138.722 60.8249 138.83 61.0861 138.83 61.3584C138.83 61.6307 138.722 61.8919 138.53 62.0844C138.337 62.277 138.077 62.3852 137.805 62.3852Z" fill="#7FA0FF"/>
<path d="M143.196 62.3852H141.196C140.924 62.3852 140.664 62.277 140.471 62.0844C140.279 61.8919 140.171 61.6307 140.171 61.3584C140.171 61.0861 140.279 60.825 140.471 60.6324C140.664 60.4398 140.924 60.3317 141.196 60.3317H143.193C143.465 60.3336 143.725 60.4424 143.917 60.6345C144.108 60.8267 144.217 61.0867 144.219 61.3584C144.217 61.6296 144.109 61.8892 143.918 62.0813C143.726 62.2734 143.467 62.3825 143.196 62.3852Z" fill="#7FA0FF"/>
<path d="M172.606 61.9979C172.606 60.4211 171.359 60.0134 170.335 59.6085V57.7237C170.546 57.777 170.737 57.89 170.885 58.0493C171.002 58.173 171.159 58.2529 171.328 58.2761C171.497 58.2993 171.669 58.2643 171.815 58.177C171.913 58.1193 171.997 58.0404 172.06 57.946C172.124 57.8517 172.166 57.7443 172.182 57.6317C172.199 57.5191 172.19 57.4042 172.156 57.2955C172.123 57.1868 172.065 57.087 171.988 57.0035C171.552 56.543 170.966 56.2537 170.335 56.188V55.6893C170.335 55.6229 170.323 55.5571 170.297 55.4958C170.272 55.4344 170.235 55.3786 170.188 55.3316C170.141 55.2846 170.086 55.2473 170.025 55.2218C169.963 55.1964 169.898 55.1833 169.831 55.1833C169.765 55.1831 169.699 55.196 169.638 55.2214C169.576 55.2468 169.52 55.284 169.473 55.331C169.426 55.3781 169.389 55.4339 169.364 55.4954C169.339 55.5569 169.326 55.6228 169.326 55.6893V56.1997C168.247 56.3904 167.333 57.1443 167.333 58.4439C167.333 59.8418 168.34 60.3786 169.326 60.7732V62.7665C169.063 62.6932 168.828 62.5449 168.649 62.3397C168.533 62.2028 168.374 62.1107 168.197 62.0791C168.021 62.0475 167.839 62.0784 167.683 62.1666L167.629 62.1989C167.535 62.2529 167.453 62.3267 167.389 62.4153C167.326 62.5039 167.283 62.6052 167.262 62.7122C167.241 62.8192 167.244 62.9294 167.27 63.0353C167.296 63.1411 167.345 63.2401 167.412 63.3254C167.897 63.8952 168.582 64.2552 169.326 64.3301V64.867C169.326 64.9333 169.339 64.9991 169.364 65.0604C169.39 65.1217 169.427 65.1774 169.474 65.2243C169.521 65.2711 169.577 65.3083 169.638 65.3335C169.699 65.3588 169.765 65.3717 169.831 65.3715C169.897 65.3715 169.963 65.3585 170.024 65.3331C170.085 65.3078 170.141 65.2706 170.188 65.2237C170.234 65.1769 170.272 65.1213 170.297 65.06C170.322 64.9988 170.335 64.9332 170.335 64.867V64.3433C171.641 64.1849 172.606 63.3606 172.606 61.9979ZM168.876 58.4556C168.874 58.3091 168.915 58.1653 168.996 58.0427C169.076 57.92 169.191 57.8243 169.326 57.7677V59.1289C168.998 58.9235 168.876 58.7299 168.876 58.4556ZM170.341 62.7973V61.1765C170.8 61.3907 171.058 61.6166 171.058 62.0097C171.052 62.3573 170.839 62.6902 170.335 62.7973H170.341Z" fill="#7FA0FF"/>
<path d="M172.391 52.2013H127.922V52.7572H172.391V52.2013Z" fill="#7FA0FF"/>
<path d="M172.391 26.4065H127.922V26.9624H172.391V26.4065Z" fill="#7FA0FF"/>
<path d="M160.287 7.92795H140.024C138.47 7.92795 137.21 9.18948 137.21 10.7456C137.21 12.3018 138.47 13.5633 140.024 13.5633H160.287C161.842 13.5633 163.102 12.3018 163.102 10.7456C163.102 9.18948 161.842 7.92795 160.287 7.92795Z" fill="#7FA0FF"/>
<path d="M67.6137 212.57C67.6137 212.57 64.6834 183.436 71.5359 168.441C78.3884 153.446 86.5156 136.736 89.9381 133.308C93.3607 129.881 104.062 131.165 115.189 129.881C126.315 128.596 137.284 123.455 138.005 131.165C138.726 138.876 128.455 148.033 117.329 149.242C106.203 150.451 104.758 154.364 104.758 154.364L100.915 167.156C100.915 167.156 124.604 199.289 105.773 223.281L67.6137 212.57Z" fill="#FFB1D0"/>
<path d="M130.354 127.167C130.354 127.167 131.22 132.5 128.852 134.142C127.379 135.168 124.267 135.886 122.129 136.285C121.521 136.399 120.892 136.272 120.376 135.931C119.859 135.59 119.495 135.062 119.361 134.457C118.986 132.744 118.588 130.472 118.812 129.344L130.354 127.167Z" fill="#FFD4E5"/>
<path d="M123.634 272C123.153 267.23 119.432 241.321 94.8874 234.735C67.8232 227.471 39.5429 235.335 39.5429 235.335L29.952 240.536C28.7454 241.191 27.713 242.125 26.9412 243.261L7.40632 272H123.634Z" fill="#FFC31B"/>
<path d="M91.1835 241.761C112.805 250.361 121.659 268.128 123.379 272H124.039L131.31 255.865C131.31 255.865 130.53 238.486 101.174 221.396C71.8187 204.307 48.3265 217.582 48.3265 217.582L39.5356 235.344C39.5356 235.344 66.8357 232.077 91.1835 241.761Z" fill="#E6EEFF"/>
<path d="M56.4551 222.084C53.3197 221.362 48.4569 231.022 53.4325 231.746C58.4081 232.469 61.3458 223.209 56.4551 222.084Z" fill="#FFC31B"/>
<path d="M233.303 48.4346H214.033C211.961 48.4346 210.281 50.1164 210.281 52.191V71.4821C210.281 73.5568 211.961 75.2386 214.033 75.2386H233.303C235.375 75.2386 237.055 73.5568 237.055 71.4821V52.191C237.055 50.1164 235.375 48.4346 233.303 48.4346Z" fill="#FFD769"/>
<path d="M221.214 54.8459C220.014 54.8494 218.864 55.3282 218.016 56.1777C217.167 57.0272 216.689 58.1783 216.685 59.3797C216.693 59.5461 216.765 59.7031 216.885 59.8181C217.006 59.9331 217.166 59.9972 217.332 59.9972C217.499 59.9972 217.659 59.9331 217.779 59.8181C217.899 59.7031 217.971 59.5461 217.979 59.3797C217.98 58.521 218.321 57.6977 218.927 57.0905C219.534 56.4833 220.356 56.1418 221.214 56.1411C221.38 56.1331 221.537 56.0615 221.652 55.9409C221.767 55.8203 221.831 55.6601 221.831 55.4935C221.831 55.3269 221.767 55.1667 221.652 55.0461C221.537 54.9255 221.38 54.8538 221.214 54.8459Z" fill="white"/>
<path d="M232.859 68.8258L228.787 64.7511C228.727 64.6908 228.656 64.6429 228.578 64.6102C228.499 64.5776 228.415 64.5608 228.33 64.5608C228.245 64.5608 228.161 64.5776 228.083 64.6102C228.004 64.6429 227.933 64.6908 227.873 64.7511L227.683 64.9403L226.679 63.9355C227.853 62.5245 228.439 60.7147 228.314 58.8824C228.189 57.0502 227.363 55.3367 226.009 54.0984C224.654 52.8601 222.875 52.1924 221.041 52.2341C219.207 52.2758 217.459 53.0237 216.162 54.3223C214.865 55.6209 214.118 57.3701 214.076 59.2061C214.035 61.0421 214.702 62.8235 215.939 64.1797C217.176 65.5359 218.887 66.3625 220.717 66.4875C222.547 66.6125 224.355 66.0263 225.765 64.8508L226.768 65.8556L226.578 66.0462C226.457 66.1678 226.389 66.3323 226.389 66.5039C226.389 66.6754 226.457 66.84 226.578 66.9615L230.65 71.0377C230.893 71.28 231.222 71.416 231.565 71.416C231.907 71.416 232.237 71.28 232.48 71.0377L232.859 70.6578C233.101 70.4145 233.237 70.0851 233.237 69.7418C233.237 69.3984 233.101 69.0691 232.859 68.8258ZM215.392 59.3797C215.391 58.4223 215.625 57.4794 216.075 56.6343C216.524 55.7892 217.175 55.0679 217.969 54.5343C218.763 54.0006 219.676 53.671 220.627 53.5745C221.579 53.4781 222.539 53.6177 223.424 53.9811C224.309 54.3446 225.091 54.9206 225.7 55.6583C226.31 56.396 226.729 57.2727 226.919 58.2108C227.11 59.149 227.067 60.1198 226.794 61.0374C226.521 61.955 226.027 62.7912 225.355 63.472C225.346 63.4808 225.334 63.4867 225.325 63.4955C225.316 63.5043 225.311 63.516 225.302 63.5248C224.485 64.3335 223.448 64.8822 222.321 65.1018C221.193 65.3214 220.026 65.2021 218.967 64.7588C217.907 64.3156 217.002 63.5683 216.366 62.611C215.73 61.6538 215.391 60.5295 215.392 59.3797ZM231.948 69.7425L231.57 70.121L227.951 66.5039L228.14 66.3147L228.329 66.1254L231.943 69.7425H231.948Z" fill="white"/>
<path d="M288.296 125.435H269.026C266.954 125.435 265.274 127.117 265.274 129.191V148.482C265.274 150.557 266.954 152.239 269.026 152.239H288.296C290.368 152.239 292.048 150.557 292.048 148.482V129.191C292.048 127.117 290.368 125.435 288.296 125.435Z" fill="#FFD769"/>
<path d="M278.661 148.529C276.746 148.529 274.874 147.961 273.282 146.896C271.69 145.831 270.449 144.317 269.716 142.546C268.983 140.775 268.792 138.826 269.165 136.946C269.539 135.066 270.461 133.339 271.815 131.983C273.169 130.628 274.894 129.704 276.772 129.33C278.65 128.957 280.597 129.148 282.366 129.882C284.135 130.616 285.647 131.858 286.711 133.452C287.775 135.046 288.343 136.92 288.343 138.837C288.34 141.407 287.319 143.87 285.504 145.687C283.689 147.504 281.228 148.527 278.661 148.529ZM278.661 130.436C277.001 130.436 275.379 130.929 273.999 131.852C272.619 132.775 271.544 134.087 270.909 135.622C270.274 137.157 270.108 138.846 270.431 140.476C270.755 142.105 271.554 143.602 272.728 144.777C273.901 145.951 275.396 146.751 277.024 147.076C278.652 147.4 280.339 147.233 281.872 146.598C283.405 145.962 284.716 144.885 285.638 143.504C286.56 142.122 287.052 140.498 287.052 138.837C287.05 136.61 286.165 134.474 284.592 132.899C283.019 131.325 280.886 130.439 278.661 130.436Z" fill="white"/>
<path d="M278.661 136.252C278.278 136.253 277.903 136.139 277.585 135.926C277.266 135.713 277.017 135.411 276.87 135.056C276.724 134.702 276.685 134.312 276.76 133.936C276.834 133.56 277.019 133.214 277.289 132.943C277.56 132.671 277.905 132.486 278.281 132.411C278.657 132.337 279.046 132.375 279.4 132.522C279.755 132.668 280.057 132.917 280.27 133.236C280.483 133.555 280.597 133.93 280.597 134.313C280.596 134.827 280.392 135.32 280.029 135.683C279.666 136.047 279.174 136.251 278.661 136.252ZM278.661 133.666C278.533 133.666 278.408 133.704 278.302 133.775C278.195 133.846 278.112 133.946 278.063 134.065C278.014 134.183 278.001 134.313 278.026 134.438C278.05 134.564 278.112 134.679 278.202 134.77C278.292 134.861 278.408 134.922 278.533 134.947C278.658 134.973 278.788 134.96 278.906 134.911C279.025 134.862 279.126 134.779 279.197 134.673C279.268 134.566 279.306 134.441 279.306 134.313C279.305 134.142 279.237 133.978 279.117 133.857C278.996 133.736 278.832 133.667 278.661 133.666Z" fill="white"/>
<path d="M278.661 145.298C278.148 145.298 277.656 145.094 277.292 144.732C276.929 144.369 276.724 143.877 276.723 143.363V138.84C276.716 138.581 276.76 138.323 276.854 138.081C276.949 137.84 277.09 137.62 277.271 137.434C277.451 137.248 277.667 137.101 277.905 137C278.144 136.899 278.4 136.847 278.659 136.847C278.918 136.847 279.174 136.899 279.412 137C279.651 137.101 279.867 137.248 280.047 137.434C280.228 137.62 280.369 137.84 280.463 138.081C280.557 138.323 280.602 138.581 280.595 138.84V143.363C280.594 143.876 280.39 144.368 280.027 144.73C279.665 145.093 279.173 145.297 278.661 145.298ZM278.661 138.19C278.49 138.19 278.326 138.259 278.205 138.38C278.083 138.501 278.015 138.665 278.015 138.837V143.363C278.023 143.529 278.094 143.686 278.214 143.801C278.335 143.915 278.494 143.979 278.66 143.979C278.826 143.979 278.986 143.915 279.106 143.801C279.226 143.686 279.298 143.529 279.306 143.363V138.84C279.306 138.755 279.29 138.67 279.258 138.592C279.225 138.513 279.178 138.441 279.118 138.381C279.058 138.321 278.987 138.273 278.909 138.24C278.83 138.207 278.746 138.19 278.661 138.19Z" fill="white"/>
<path d="M233.303 83.9645H214.033C211.961 83.9645 210.281 85.6463 210.281 87.7209V107.012C210.281 109.087 211.961 110.768 214.033 110.768H233.303C235.375 110.768 237.055 109.087 237.055 107.012V87.7209C237.055 85.6463 235.375 83.9645 233.303 83.9645Z" fill="#ABC2FE"/>
<path d="M231.902 99.2894C231.902 99.0124 231.832 98.74 231.699 98.4972C231.566 98.2545 231.374 98.0492 231.14 97.9004C231.283 97.6497 231.356 97.366 231.355 97.0777C231.353 96.7894 231.276 96.5066 231.13 96.2577C230.985 96.0087 230.777 95.8024 230.527 95.6592C230.277 95.5161 229.994 95.4412 229.706 95.442H224.216V91.0417C224.215 90.6047 224.042 90.1858 223.733 89.8767C223.424 89.5677 223.006 89.3938 222.569 89.393H221.991C221.717 89.3909 221.452 89.4922 221.249 89.6768C221.047 89.8614 220.921 90.1157 220.898 90.389C220.835 91.0901 220.624 92.4234 219.916 93.4853C219.382 94.2979 218.922 95.157 218.542 96.0522C218.424 96.011 218.301 95.9897 218.177 95.9891H216.53C216.239 95.9895 215.96 96.1054 215.754 96.3113C215.549 96.5173 215.433 96.7965 215.433 97.0878V104.234C215.433 104.525 215.549 104.804 215.754 105.01C215.96 105.216 216.239 105.332 216.53 105.333H218.177C218.427 105.332 218.669 105.247 218.864 105.09C219.059 104.933 219.195 104.714 219.249 104.47C219.881 104.881 220.741 105.333 221.472 105.333H228.609C228.877 105.333 229.142 105.267 229.38 105.141C229.617 105.015 229.821 104.833 229.972 104.61C230.122 104.387 230.217 104.131 230.246 103.863C230.275 103.596 230.238 103.325 230.138 103.075C230.38 103.01 230.605 102.89 230.793 102.725C230.982 102.56 231.131 102.353 231.227 102.121C231.324 101.89 231.367 101.639 231.351 101.388C231.336 101.138 231.264 100.894 231.14 100.676C231.373 100.527 231.565 100.322 231.698 100.08C231.831 99.8377 231.902 99.5659 231.902 99.2894ZM218.177 104.237H216.53V97.0907H218.177V104.237ZM229.706 102.037H227.508C227.434 102.033 227.359 102.044 227.289 102.07C227.22 102.096 227.156 102.136 227.102 102.187C227.048 102.239 227.004 102.3 226.975 102.369C226.946 102.438 226.93 102.511 226.93 102.586C226.93 102.661 226.946 102.734 226.975 102.803C227.004 102.872 227.048 102.933 227.102 102.985C227.156 103.036 227.22 103.076 227.289 103.102C227.359 103.128 227.434 103.139 227.508 103.135H228.606C228.751 103.135 228.891 103.193 228.994 103.296C229.097 103.4 229.155 103.539 229.155 103.685C229.155 103.831 229.097 103.971 228.994 104.074C228.891 104.177 228.751 104.235 228.606 104.235H221.472C220.886 104.235 219.892 103.619 219.274 103.146V97.1846C219.675 96.1025 220.196 95.0692 220.829 94.1043C221.671 92.8385 221.917 91.3013 221.989 90.5019H222.568C222.713 90.5019 222.853 90.5597 222.956 90.6625C223.059 90.7653 223.117 90.9048 223.117 91.0505V95.9862C223.117 96.1321 223.175 96.272 223.278 96.3752C223.381 96.4783 223.521 96.5363 223.667 96.5363H229.705C229.779 96.5324 229.853 96.5438 229.923 96.5696C229.993 96.5955 230.057 96.6353 230.111 96.6867C230.165 96.7381 230.208 96.8 230.238 96.8685C230.267 96.9371 230.282 97.0109 230.282 97.0856C230.282 97.1602 230.267 97.234 230.238 97.3026C230.208 97.3712 230.165 97.433 230.111 97.4844C230.057 97.5358 229.993 97.5756 229.923 97.6015C229.853 97.6274 229.779 97.6387 229.705 97.6349H227.507C227.432 97.631 227.358 97.6424 227.288 97.6682C227.218 97.6941 227.154 97.7339 227.1 97.7853C227.046 97.8367 227.003 97.8986 226.974 97.9671C226.944 98.0357 226.929 98.1096 226.929 98.1842C226.929 98.2588 226.944 98.3327 226.974 98.4012C227.003 98.4698 227.046 98.5316 227.1 98.583C227.154 98.6344 227.218 98.6743 227.288 98.7001C227.358 98.726 227.432 98.7373 227.507 98.7335H230.251C230.397 98.7335 230.537 98.7914 230.64 98.8946C230.743 98.9978 230.8 99.1377 230.8 99.2835C230.8 99.4294 230.743 99.5693 230.64 99.6725C230.537 99.7756 230.397 99.8336 230.251 99.8336H227.507C227.432 99.8297 227.358 99.8411 227.288 99.8669C227.218 99.8928 227.154 99.9327 227.1 99.984C227.046 100.035 227.003 100.097 226.974 100.166C226.944 100.234 226.929 100.308 226.929 100.383C226.929 100.458 226.944 100.531 226.974 100.6C227.003 100.668 227.046 100.73 227.1 100.782C227.154 100.833 227.218 100.873 227.288 100.899C227.358 100.925 227.432 100.936 227.507 100.932H229.705C229.85 100.932 229.99 100.99 230.093 101.093C230.196 101.196 230.254 101.336 230.254 101.482C230.254 101.628 230.196 101.768 230.093 101.871C229.99 101.974 229.85 102.032 229.705 102.032L229.706 102.037Z" fill="white"/>
<path d="M227.208 26.4167H220.128C219.368 26.4167 218.751 27.034 218.751 27.7955V34.883C218.751 35.6445 219.368 36.2618 220.128 36.2618H227.208C227.968 36.2618 228.585 35.6445 228.585 34.883V27.7955C228.585 27.034 227.968 26.4167 227.208 26.4167Z" fill="#ABC2FE"/>
<path d="M282.201 163.857H275.121C274.361 163.857 273.744 164.474 273.744 165.236V172.323C273.744 173.085 274.361 173.702 275.121 173.702H282.201C282.961 173.702 283.578 173.085 283.578 172.323V165.236C283.578 164.474 282.961 163.857 282.201 163.857Z" fill="#ABC2FE"/>
<path d="M282.517 51.619H274.806C273.977 51.619 273.304 52.2921 273.304 53.1224V60.8421C273.304 61.6724 273.977 62.3456 274.806 62.3456H282.517C283.347 62.3456 284.019 61.6724 284.019 60.8421V53.1224C284.019 52.2921 283.347 51.619 282.517 51.619Z" fill="#FFD769"/>
<path d="M229.464 128.025H217.871C216.624 128.025 215.614 129.036 215.614 130.284V141.891C215.614 143.138 216.624 144.149 217.871 144.149H229.464C230.71 144.149 231.721 143.138 231.721 141.891V130.284C231.721 129.036 230.71 128.025 229.464 128.025Z" fill="#FFD769"/>
<path d="M66.481 3.00696H59.4014C58.6408 3.00696 58.0242 3.62426 58.0242 4.38573V11.4732C58.0242 12.2347 58.6408 12.852 59.4014 12.852H66.481C67.2416 12.852 67.8582 12.2347 67.8582 11.4732V4.38573C67.8582 3.62426 67.2416 3.00696 66.481 3.00696Z" fill="#FFD769"/>
<path d="M68.7375 26.2862H57.1437C55.8976 26.2862 54.8874 27.2975 54.8874 28.545V40.1517C54.8874 41.3992 55.8976 42.4105 57.1437 42.4105H68.7375C69.9836 42.4105 70.9938 41.3992 70.9938 40.1517V28.545C70.9938 27.2975 69.9836 26.2862 68.7375 26.2862Z" fill="#FFD769"/>
<path d="M61.9802 120.775H61.3297V116.867H61.9802V120.775ZM61.9802 112.96H61.3297V109.052H61.9802V112.96ZM61.9802 105.145H61.3297V101.236H61.9802V105.145ZM61.9802 97.3298H61.3297V93.4208H61.9802V97.3298ZM61.9802 89.5148H61.3297V85.6058H61.9802V89.5148ZM61.9802 81.6997H61.3297V77.7981H61.9802V81.6997ZM61.9802 73.8847H61.3297V69.9757H61.9802V73.8847ZM106.641 68.4576H102.738V67.8064H106.641V68.4576ZM98.8346 68.4576H94.9314V67.8064H98.8346V68.4576ZM91.0282 68.4576H87.1324V67.8064H91.0355L91.0282 68.4576ZM83.2219 68.4576H79.3187V67.8064H83.2219V68.4576ZM75.4156 68.4576H71.5124V67.8064H75.4112L75.4156 68.4576ZM67.6093 68.4576H63.7061V67.8064H67.6093V68.4576Z" fill="#708FFF"/>
<path d="M17.3737 159.848H16.7232V155.941H17.3737V159.848ZM17.3737 152.033H16.7232V148.126H17.3737V152.033ZM17.3737 144.218H16.7232V140.311H17.3737V144.218ZM17.3737 136.403H16.7232V132.496H17.3737V136.403ZM17.3737 128.588H16.7232V124.681H17.3737V128.588ZM17.3737 120.773H16.7232V116.866H17.3737V120.773ZM17.3737 112.958H16.7232V109.051H17.3737V112.958ZM17.3737 105.143H16.7232V101.236H17.3737V105.143ZM17.3737 97.3283H16.7232V93.4208H17.3737V97.3283ZM17.3737 89.5133H16.7232V85.6058H17.3737V89.5133ZM17.3737 81.6983H16.7232V77.7981H17.3737V81.6983ZM17.3737 73.8833H16.7232V69.9757H17.3737V73.8833ZM62.0359 68.4562H58.1327V67.8049H62.0359V68.4562ZM54.2296 68.4562H50.3264V67.8049H54.2296V68.4562ZM46.4232 68.4562H42.5201V67.8049H46.4232V68.4562ZM38.6169 68.4562H34.7138V67.8049H38.6169V68.4562ZM30.8106 68.4562H26.9148V67.8049H30.8179L30.8106 68.4562ZM23.0043 68.4562H19.1011V67.8049H23.0043V68.4562Z" fill="#708FFF"/>
<path d="M71.2897 100.587H52.0201C49.9478 100.587 48.2679 102.269 48.2679 104.344V123.635C48.2679 125.71 49.9478 127.391 52.0201 127.391H71.2897C73.362 127.391 75.042 125.71 75.042 123.635V104.344C75.042 102.269 73.362 100.587 71.2897 100.587Z" fill="#ABC2FE"/>
<path d="M61.6549 114.614C62.65 114.614 63.6228 114.319 64.4502 113.765C65.2776 113.212 65.9224 112.425 66.3032 111.505C66.684 110.585 66.7837 109.572 66.5896 108.595C66.3954 107.618 65.9162 106.72 65.2126 106.016C64.509 105.311 63.6125 104.832 62.6365 104.637C61.6605 104.443 60.6489 104.543 59.7295 104.924C58.8102 105.305 58.0244 105.951 57.4715 106.779C56.9187 107.607 56.6236 108.581 56.6236 109.577C56.6248 110.913 57.1552 112.193 58.0985 113.138C59.0418 114.082 60.3209 114.613 61.6549 114.614ZM61.6549 105.8C62.4014 105.8 63.1312 106.022 63.7519 106.437C64.3726 106.853 64.8564 107.443 65.142 108.133C65.4276 108.824 65.5022 109.584 65.3565 110.317C65.2108 111.05 64.8512 111.723 64.3232 112.251C63.7952 112.779 63.1226 113.139 62.3903 113.285C61.6581 113.431 60.8992 113.355 60.2096 113.069C59.5199 112.783 58.9306 112.299 58.5161 111.677C58.1015 111.055 57.8804 110.325 57.8807 109.577C57.883 108.577 58.2816 107.617 58.9891 106.91C59.6965 106.203 60.6552 105.806 61.6549 105.805V105.8Z" fill="white"/>
<path d="M61.4029 110.214H61.9055C61.957 110.211 62.0086 110.218 62.0572 110.236C62.1057 110.253 62.1502 110.28 62.1878 110.316C62.2254 110.351 62.2554 110.394 62.2759 110.441C62.2964 110.489 62.307 110.54 62.307 110.592C62.307 110.643 62.2964 110.694 62.2759 110.742C62.2554 110.789 62.2254 110.832 62.1878 110.867C62.1502 110.903 62.1057 110.93 62.0572 110.948C62.0086 110.965 61.957 110.973 61.9055 110.969H61.4029C61.3215 110.969 61.2424 110.942 61.1772 110.894C61.112 110.845 61.0643 110.776 61.041 110.698C60.9938 110.538 60.885 110.403 60.7386 110.323C60.5921 110.244 60.42 110.225 60.2601 110.273C60.1002 110.32 59.9656 110.429 59.8859 110.575C59.8062 110.722 59.788 110.894 59.8352 111.054C59.9179 111.332 60.0723 111.582 60.2828 111.78C60.4932 111.979 60.7523 112.118 61.0337 112.184C61.0337 112.199 61.0337 112.212 61.0337 112.225C61.0435 112.265 61.0557 112.304 61.0703 112.342C61.0857 112.381 61.1054 112.418 61.1289 112.452C61.1515 112.487 61.1781 112.519 61.2081 112.548C61.2362 112.577 61.2677 112.603 61.3018 112.625C61.3358 112.649 61.3722 112.668 61.4102 112.684C61.4484 112.7 61.4882 112.712 61.5289 112.719C61.5689 112.728 61.6096 112.732 61.6505 112.732C61.6924 112.732 61.7342 112.728 61.7751 112.719C61.8153 112.712 61.8546 112.7 61.8923 112.684C61.9299 112.668 61.9657 112.649 61.9992 112.625C62.0346 112.604 62.0671 112.577 62.0959 112.548C62.1246 112.518 62.1506 112.486 62.1736 112.452C62.1971 112.418 62.2168 112.381 62.2322 112.342C62.2483 112.305 62.2601 112.265 62.2674 112.225C62.2682 112.211 62.2682 112.198 62.2674 112.184C62.6565 112.092 62.9983 111.86 63.228 111.532C63.4578 111.205 63.5596 110.804 63.514 110.406C63.4685 110.009 63.2789 109.641 62.9811 109.374C62.6833 109.107 62.298 108.959 61.8981 108.957H61.3956C61.3441 108.96 61.2924 108.953 61.2439 108.935C61.1953 108.918 61.1509 108.89 61.1132 108.855C61.0756 108.82 61.0456 108.777 61.0251 108.729C61.0046 108.682 60.9941 108.631 60.9941 108.579C60.9941 108.528 61.0046 108.476 61.0251 108.429C61.0456 108.382 61.0756 108.339 61.1132 108.303C61.1509 108.268 61.1953 108.241 61.2439 108.223C61.2924 108.206 61.3441 108.198 61.3956 108.202H61.8981C61.9775 108.201 62.055 108.226 62.1194 108.272C62.1839 108.319 62.2321 108.384 62.2571 108.46C62.2824 108.539 62.3231 108.613 62.377 108.676C62.4309 108.74 62.4968 108.792 62.571 108.83C62.6452 108.867 62.7262 108.89 62.8092 108.896C62.8922 108.902 62.9756 108.892 63.0546 108.866C63.1336 108.84 63.2065 108.798 63.2692 108.743C63.332 108.688 63.3832 108.621 63.42 108.547C63.4567 108.472 63.4783 108.391 63.4834 108.307C63.4885 108.224 63.4771 108.141 63.4497 108.062C63.3615 107.796 63.2064 107.557 62.9993 107.369C62.7922 107.18 62.5402 107.048 62.2674 106.986C62.2674 106.972 62.2674 106.959 62.2674 106.945C62.2597 106.904 62.2479 106.865 62.2322 106.827C62.2161 106.79 62.1965 106.754 62.1736 106.72C62.151 106.685 62.125 106.653 62.0959 106.623C62.0667 106.594 62.0342 106.568 61.9992 106.546C61.9311 106.5 61.855 106.469 61.7751 106.452C61.6738 106.431 61.569 106.436 61.47 106.466C61.3711 106.496 61.2811 106.55 61.2081 106.623C61.1777 106.652 61.1511 106.685 61.1289 106.72C61.106 106.754 61.0864 106.79 61.0703 106.827C61.0561 106.866 61.0439 106.905 61.0337 106.945C61.0337 106.959 61.0337 106.972 61.0337 106.987C60.6446 107.079 60.3028 107.311 60.073 107.639C59.8433 107.966 59.7415 108.367 59.787 108.765C59.8325 109.162 60.0221 109.53 60.3199 109.797C60.6177 110.064 61.0031 110.212 61.4029 110.214Z" fill="white"/>
<path d="M70.2465 116.825C69.9883 116.652 69.6915 116.546 69.3824 116.516C69.0733 116.486 68.7617 116.533 68.4752 116.653L63.5127 118.721C63.5317 118.613 63.541 118.504 63.5406 118.394C63.5402 117.894 63.3414 117.414 62.9878 117.06C62.6343 116.706 62.1549 116.507 61.6549 116.506H58.6953C58.1664 116.172 56.5884 115.247 55.3665 115.247C53.8896 115.247 52.5534 116.543 52.4054 116.691C52.289 116.808 52.2232 116.966 52.2223 117.131V122.798C52.2223 122.964 52.2885 123.124 52.4064 123.242C52.5243 123.36 52.6841 123.427 52.8508 123.427H62.912C63.0232 123.427 63.1324 123.398 63.2285 123.342L70.7755 118.941C70.8705 118.886 70.9493 118.806 71.0041 118.711C71.0588 118.615 71.0876 118.507 71.0875 118.397C71.0879 118.086 71.0113 117.779 70.8646 117.505C70.7178 117.231 70.5055 116.997 70.2465 116.825ZM62.7421 122.174H53.4794V117.414C53.8823 117.068 54.6823 116.508 55.3665 116.508C56.2456 116.508 57.68 117.34 58.162 117.661C58.2652 117.73 58.3866 117.767 58.5107 117.766H61.6549C61.8166 117.774 61.969 117.844 62.0806 117.961C62.1923 118.079 62.2545 118.234 62.2545 118.396C62.2545 118.558 62.1923 118.714 62.0806 118.832C61.969 118.949 61.8166 119.019 61.6549 119.026H57.8807C57.714 119.026 57.5541 119.093 57.4362 119.211C57.3184 119.329 57.2522 119.489 57.2522 119.656C57.2522 119.823 57.3184 119.983 57.4362 120.101C57.5541 120.219 57.714 120.285 57.8807 120.285H62.912C62.995 120.285 63.0772 120.269 63.1538 120.236L68.9587 117.815C69.1002 117.756 69.2583 117.751 69.4034 117.8C69.5485 117.85 69.6706 117.95 69.7469 118.083L62.7421 122.174Z" fill="white"/>
<path d="M75.0476 79.9965C81.7335 73.3031 81.7335 62.4511 75.0476 55.7577C68.3618 49.0644 57.5218 49.0644 50.8359 55.7577C44.1501 62.4511 44.1501 73.3031 50.8359 79.9964C57.5218 86.6898 68.3618 86.6898 75.0476 79.9965Z" fill="#FFC31B"/>
<path d="M62.9413 52.2394C67.3518 52.2397 71.592 53.944 74.7782 56.9971C77.9644 60.0503 79.8507 64.2166 80.044 68.6278C80.0543 68.3784 80.0601 68.1276 80.0601 67.8768C80.081 65.6128 79.6537 63.367 78.8027 61.2693C77.9517 59.1716 76.6941 57.2634 75.1023 55.6551C73.5105 54.0467 71.6162 52.77 69.5288 51.8988C67.4413 51.0275 65.2022 50.5789 62.9406 50.5789C60.679 50.5789 58.4398 51.0275 56.3524 51.8988C54.265 52.77 52.3706 54.0467 50.7789 55.6551C49.1871 57.2634 47.9294 59.1716 47.0785 61.2693C46.2275 63.367 45.8001 65.6128 45.8211 67.8768C45.8211 68.1276 45.8211 68.3784 45.8386 68.6278C46.0315 64.2165 47.9177 60.0499 51.104 56.9967C54.2903 53.9436 58.5307 52.2394 62.9413 52.2394Z" fill="#FFDC7D"/>
<path d="M72.2649 77.2106C77.4139 72.0558 77.4139 63.6983 72.2649 58.5436C67.1159 53.3888 58.7677 53.3888 53.6187 58.5436C48.4697 63.6983 48.4697 72.0558 53.6187 77.2106C58.7677 82.3653 67.1159 82.3653 72.2649 77.2106Z" fill="#FFAD24"/>
<path d="M68.6715 71.5555C68.6715 68.1819 66.005 67.3121 63.8146 66.4452V62.416C64.2644 62.5288 64.6717 62.7704 64.9867 63.1112C65.2384 63.3756 65.5722 63.5468 65.9336 63.5966C66.295 63.6464 66.6627 63.572 66.9763 63.3855C67.1861 63.2624 67.3656 63.0937 67.5016 62.8918C67.6376 62.69 67.7266 62.4602 67.762 62.2193C67.7974 61.9784 67.7784 61.7327 67.7063 61.5002C67.6343 61.2677 67.511 61.0543 67.3456 60.8758C66.4139 59.8908 65.1608 59.2722 63.8131 59.1318V58.0626C63.8131 57.7759 63.6993 57.5009 63.4968 57.2982C63.2943 57.0954 63.0197 56.9815 62.7333 56.9815C62.4469 56.9815 62.1722 57.0954 61.9697 57.2982C61.7672 57.5009 61.6535 57.7759 61.6535 58.0626V59.1553C59.3458 59.5645 57.3913 61.1765 57.3913 63.9561C57.3913 66.9454 59.5466 68.0924 61.6535 68.9432V73.2071C61.0927 73.0494 60.5897 72.7319 60.2059 72.2933C59.9584 72.0005 59.6166 71.8034 59.2395 71.736C58.8623 71.6685 58.4735 71.7349 58.14 71.9237L58.0243 71.9911C57.8214 72.1063 57.646 72.2642 57.5101 72.4539C57.3742 72.6436 57.281 72.8606 57.2369 73.0899C57.1929 73.3191 57.1991 73.5552 57.2551 73.7818C57.3111 74.0085 57.4156 74.2202 57.5613 74.4025C58.5122 75.5759 59.9216 76.3093 61.6535 76.5484V77.6954C61.6535 77.9822 61.7672 78.2571 61.9697 78.4598C62.1722 78.6626 62.4469 78.7765 62.7333 78.7765C63.0197 78.7765 63.2943 78.6626 63.4968 78.4598C63.6993 78.2571 63.8131 77.9822 63.8131 77.6954V76.5792C66.6042 76.2316 68.6715 74.4715 68.6715 71.5555ZM60.6938 63.9796C60.6883 63.6667 60.7771 63.3595 60.9485 63.0978C61.1199 62.8362 61.3661 62.6323 61.6549 62.5128V65.4229C60.9531 64.9799 60.6938 64.5531 60.6938 63.9796ZM63.8146 73.2658V69.7998C64.7947 70.2574 65.3457 70.7385 65.3457 71.5804C65.3457 72.3256 64.89 73.0223 63.8146 73.2658Z" fill="#FFE08A"/>
<path d="M16.061 178.833C11.8633 177.376 8.39971 174.946 5.76537 171.608C3.71416 168.998 2.17135 165.846 1.19556 162.241C-0.426355 156.227 0.0644778 150.996 0.0864551 150.776L0.320875 148.399H2.89515C6.14632 148.399 9.11616 147.574 11.7271 145.948C13.6493 144.751 14.6808 143.523 14.7672 143.417L17.0719 141.119L19.3312 143.419C19.425 143.533 20.4564 144.755 22.3714 145.948C24.9808 147.574 27.9521 148.399 31.2018 148.399H33.7775L34.012 150.776C34.0339 150.996 34.5248 156.234 32.9014 162.241C31.9271 165.846 30.3901 168.998 28.3316 171.608C25.6943 174.946 22.2351 177.376 18.036 178.833L17.0485 179.175L16.061 178.833Z" fill="#ABC2FE"/>
<path d="M17.0485 144.958C17.0485 144.958 12.3307 151.015 2.89513 151.015C2.89513 151.015 0.943553 170.796 17.0485 176.38V144.958Z" fill="#708FFF"/>
<path d="M17.0485 144.958C17.0485 144.958 21.7663 151.015 31.2018 151.015C31.2018 151.015 33.1549 170.796 17.0485 176.38V144.958Z" fill="#7FA0FF"/>
<path d="M21.0513 63.7053H13.9717C13.211 63.7053 12.5944 64.3226 12.5944 65.084V72.1715C12.5944 72.933 13.211 73.5503 13.9717 73.5503H21.0513C21.8119 73.5503 22.4285 72.933 22.4285 72.1715V65.084C22.4285 64.3226 21.8119 63.7053 21.0513 63.7053Z" fill="#ABC2FE"/>
<path d="M27.1463 100.587H7.87664C5.80433 100.587 4.12439 102.269 4.12439 104.344V123.635C4.12439 125.71 5.80433 127.391 7.87664 127.391H27.1463C29.2186 127.391 30.8985 125.71 30.8985 123.635V104.344C30.8985 102.269 29.2186 100.587 27.1463 100.587Z" fill="#FFD769"/>
<path d="M26.3141 106.436H23.7999V105.176C23.7921 105.014 23.7224 104.861 23.6052 104.749C23.4881 104.638 23.3324 104.575 23.1706 104.575C23.0088 104.575 22.8531 104.638 22.736 104.749C22.6188 104.861 22.5491 105.014 22.5413 105.176V106.436H12.4801V105.176C12.4723 105.014 12.4026 104.861 12.2855 104.749C12.1683 104.638 12.0127 104.575 11.8509 104.575C11.689 104.575 11.5334 104.638 11.4162 104.749C11.2991 104.861 11.2294 105.014 11.2216 105.176V106.436H8.70738C8.54054 106.436 8.38052 106.502 8.26241 106.62C8.1443 106.738 8.07776 106.898 8.07737 107.065V122.803C8.07776 122.97 8.1443 123.13 8.26241 123.248C8.38052 123.366 8.54054 123.433 8.70738 123.433H26.3141C26.4809 123.433 26.6409 123.366 26.759 123.248C26.8771 123.13 26.9437 122.97 26.9441 122.803V107.065C26.9437 106.898 26.8771 106.738 26.759 106.62C26.6409 106.502 26.4809 106.436 26.3141 106.436ZM11.223 107.694V108.953C11.2189 109.038 11.2322 109.123 11.2619 109.203C11.2917 109.283 11.3374 109.356 11.3962 109.418C11.4551 109.48 11.5258 109.529 11.6042 109.563C11.6826 109.596 11.767 109.614 11.8523 109.614C11.9376 109.614 12.022 109.596 12.1004 109.563C12.1788 109.529 12.2496 109.48 12.3084 109.418C12.3673 109.356 12.413 109.283 12.4427 109.203C12.4725 109.123 12.4857 109.038 12.4816 108.953V107.694H22.5428V108.953C22.5387 109.038 22.5519 109.123 22.5817 109.203C22.6114 109.283 22.6571 109.356 22.716 109.418C22.7748 109.48 22.8456 109.529 22.924 109.563C23.0024 109.596 23.0868 109.614 23.1721 109.614C23.2573 109.614 23.3418 109.596 23.4202 109.563C23.4986 109.529 23.5693 109.48 23.6282 109.418C23.687 109.356 23.7327 109.283 23.7625 109.203C23.7922 109.123 23.8055 109.038 23.8013 108.953V107.694H25.687V110.876H9.333V107.694H11.223ZM9.333 122.174V112.134H25.6826V122.174H9.333Z" fill="white"/>
<path d="M16.2529 114.614H15.6243C15.4627 114.622 15.3103 114.692 15.1986 114.809C15.087 114.926 15.0247 115.082 15.0247 115.244C15.0247 115.406 15.087 115.562 15.1986 115.679C15.3103 115.797 15.4627 115.866 15.6243 115.874H16.2529C16.4145 115.866 16.567 115.797 16.6786 115.679C16.7903 115.562 16.8525 115.406 16.8525 115.244C16.8525 115.082 16.7903 114.926 16.6786 114.809C16.567 114.692 16.4145 114.622 16.2529 114.614Z" fill="white"/>
<path d="M13.1087 114.614H12.4801C12.3185 114.622 12.1661 114.692 12.0544 114.809C11.9428 114.926 11.8805 115.082 11.8805 115.244C11.8805 115.406 11.9428 115.562 12.0544 115.679C12.1661 115.797 12.3185 115.866 12.4801 115.874H13.1087C13.2703 115.866 13.4228 115.797 13.5344 115.679C13.646 115.562 13.7083 115.406 13.7083 115.244C13.7083 115.082 13.646 114.926 13.5344 114.809C13.4228 114.692 13.2703 114.622 13.1087 114.614Z" fill="white"/>
<path d="M22.5413 114.614H21.9128C21.7511 114.622 21.5987 114.692 21.487 114.809C21.3754 114.926 21.3131 115.082 21.3131 115.244C21.3131 115.406 21.3754 115.562 21.487 115.679C21.5987 115.797 21.7511 115.866 21.9128 115.874H22.5413C22.703 115.866 22.8554 115.797 22.967 115.679C23.0787 115.562 23.1409 115.406 23.1409 115.244C23.1409 115.082 23.0787 114.926 22.967 114.809C22.8554 114.692 22.703 114.622 22.5413 114.614Z" fill="white"/>
<path d="M19.3971 114.614H18.7686C18.6069 114.622 18.4545 114.692 18.3428 114.809C18.2312 114.926 18.1689 115.082 18.1689 115.244C18.1689 115.406 18.2312 115.562 18.3428 115.679C18.4545 115.797 18.6069 115.866 18.7686 115.874H19.3971C19.5587 115.866 19.7112 115.797 19.8228 115.679C19.9345 115.562 19.9967 115.406 19.9967 115.244C19.9967 115.082 19.9345 114.926 19.8228 114.809C19.7112 114.692 19.5587 114.622 19.3971 114.614Z" fill="white"/>
<path d="M16.2529 118.396H15.6243C15.4627 118.404 15.3103 118.473 15.1986 118.591C15.087 118.708 15.0247 118.864 15.0247 119.026C15.0247 119.188 15.087 119.343 15.1986 119.461C15.3103 119.578 15.4627 119.648 15.6243 119.656H16.2529C16.4145 119.648 16.567 119.578 16.6786 119.461C16.7903 119.343 16.8525 119.188 16.8525 119.026C16.8525 118.864 16.7903 118.708 16.6786 118.591C16.567 118.473 16.4145 118.404 16.2529 118.396Z" fill="white"/>
<path d="M13.1087 118.396H12.4801C12.3185 118.404 12.1661 118.473 12.0544 118.591C11.9428 118.708 11.8805 118.864 11.8805 119.026C11.8805 119.188 11.9428 119.343 12.0544 119.461C12.1661 119.578 12.3185 119.648 12.4801 119.656H13.1087C13.2703 119.648 13.4228 119.578 13.5344 119.461C13.646 119.343 13.7083 119.188 13.7083 119.026C13.7083 118.864 13.646 118.708 13.5344 118.591C13.4228 118.473 13.2703 118.404 13.1087 118.396Z" fill="white"/>
<path d="M22.5413 118.396H21.9128C21.7511 118.404 21.5987 118.473 21.487 118.591C21.3754 118.708 21.3131 118.864 21.3131 119.026C21.3131 119.188 21.3754 119.343 21.487 119.461C21.5987 119.578 21.7511 119.648 21.9128 119.656H22.5413C22.703 119.648 22.8554 119.578 22.967 119.461C23.0787 119.343 23.1409 119.188 23.1409 119.026C23.1409 118.864 23.0787 118.708 22.967 118.591C22.8554 118.473 22.703 118.404 22.5413 118.396Z" fill="white"/>
<path d="M19.3971 118.396H18.7686C18.6069 118.404 18.4545 118.473 18.3428 118.591C18.2312 118.708 18.1689 118.864 18.1689 119.026C18.1689 119.188 18.2312 119.343 18.3428 119.461C18.4545 119.578 18.6069 119.648 18.7686 119.656H19.3971C19.5587 119.648 19.7112 119.578 19.8228 119.461C19.9345 119.343 19.9967 119.188 19.9967 119.026C19.9967 118.864 19.9345 118.708 19.8228 118.591C19.7112 118.473 19.5587 118.404 19.3971 118.396Z" fill="white"/>
</g>
<defs>
<linearGradient id="paint0_linear_412_661" x1="129.761" y1="208.613" x2="168.173" y2="19.0188" gradientUnits="userSpaceOnUse">
<stop stop-color="#333366"/>
<stop offset="1" stop-color="#5959B3"/>
</linearGradient>
<clipPath id="clip0_412_661">
<rect width="305" height="272" fill="white"/>
</clipPath>
</defs>
</svg>
