<svg width="390" height="306" viewBox="0 0 390 306" fill="none" xmlns="http://www.w3.org/2000/svg">
<g clip-path="url(#clip0_412_786)">
<path d="M110.757 119.271L66.752 180.881L92.3102 180.881L92.3102 231.938C92.36 244.67 89.8015 257.277 84.7931 268.977C81.9228 275.659 78.1103 281.893 73.4723 287.488C70.6284 290.906 67.4279 294.009 63.9256 296.744C58.5029 301.118 52.2071 304.275 45.4635 306L176.066 306C169.322 304.275 163.027 301.118 157.604 296.744C154.106 294.009 150.911 290.906 148.072 287.488C143.435 281.895 139.627 275.66 136.766 268.977C131.758 257.277 129.2 244.67 129.249 231.938L129.249 180.881L154.808 180.881L110.757 119.271Z" fill="url(#paint0_linear_412_786)"/>
<path d="M277.818 119.271L233.812 180.881L259.371 180.881L259.371 231.938C259.42 244.67 256.862 257.277 251.854 268.977C248.992 275.657 245.19 281.891 240.563 287.488C237.723 290.905 234.528 294.007 231.031 296.744C225.599 301.129 219.286 304.287 212.524 306L343.126 306C336.383 304.275 330.087 301.118 324.664 296.744C321.165 294.005 317.965 290.903 315.118 287.488C310.49 281.891 306.688 275.657 303.827 268.977C298.819 257.277 296.26 244.67 296.31 231.938L296.31 180.881L321.868 180.881L277.818 119.271Z" fill="url(#paint1_linear_412_786)"/>
<path d="M193.446 -0.0150498L121.281 100.985L163.046 100.985L163.046 184.649C163.153 205.503 158.982 226.155 150.793 245.325C146.111 256.279 139.878 266.499 132.286 275.67C127.64 281.269 122.408 286.353 116.681 290.835C107.802 298.011 97.4845 303.183 86.4318 306L300.459 306C289.408 303.18 279.091 298.008 270.21 290.835C264.475 286.352 259.234 281.268 254.575 275.67C246.983 266.499 240.75 256.279 236.068 245.325C227.879 226.155 223.708 205.503 223.815 184.649L223.815 100.985L265.61 100.985L193.446 -0.0150498Z" fill="url(#paint2_linear_412_786)"/>
<path d="M22.1605 276.228C22.1605 271.032 17.9603 266.821 12.7791 266.821C7.59791 266.821 3.39773 271.032 3.39774 276.228C3.39774 281.423 7.59792 285.634 12.7791 285.634C17.9603 285.634 22.1605 281.423 22.1605 276.228Z" fill="url(#paint3_linear_412_786)"/>
<path d="M44.0353 245.174C45.3294 245.171 46.5953 245.553 47.6727 246.272C48.7502 246.99 49.5908 248.013 50.088 249.211C50.5853 250.409 50.717 251.728 50.4664 253.001C50.2157 254.274 49.594 255.444 48.68 256.363C47.766 257.281 46.6007 257.907 45.3317 258.162C44.0627 258.416 42.747 258.287 41.5511 257.791C40.3552 257.295 39.3329 256.455 38.6136 255.376C37.8944 254.297 37.5104 253.029 37.5104 251.731C37.5104 249.995 38.1974 248.329 39.4206 247.1C40.6438 245.87 42.3034 245.178 44.0353 245.174Z" fill="url(#paint4_linear_412_786)"/>
<path d="M59.6709 279.936C59.6709 276.156 56.615 273.092 52.8454 273.092C49.0757 273.092 46.0198 276.156 46.0198 279.936C46.0198 283.716 49.0757 286.78 52.8454 286.78C56.615 286.78 59.6709 283.716 59.6709 279.936Z" fill="url(#paint5_linear_412_786)"/>
<path d="M20.1759 244.043C20.7931 244.043 21.3965 244.226 21.9101 244.57C22.4237 244.913 22.8245 245.401 23.062 245.972C23.2996 246.543 23.3632 247.172 23.245 247.78C23.1267 248.387 22.8319 248.946 22.3976 249.385C21.9632 249.825 21.4088 250.126 20.8042 250.25C20.1996 250.375 19.5718 250.317 18.9999 250.084C18.428 249.852 17.9376 249.454 17.5904 248.943C17.2432 248.431 17.0548 247.828 17.0488 247.209C17.0448 246.795 17.1228 246.384 17.2782 246C17.4335 245.616 17.6633 245.267 17.954 244.972C18.2448 244.678 18.5909 244.444 18.9723 244.285C19.3536 244.125 19.7627 244.043 20.1759 244.043Z" fill="url(#paint6_linear_412_786)"/>
<path d="M344.915 267.123C344.915 261.927 340.715 257.716 335.534 257.716C330.353 257.716 326.153 261.927 326.153 267.123C326.153 272.318 330.353 276.529 335.534 276.529C340.715 276.529 344.915 272.318 344.915 267.123Z" fill="url(#paint7_linear_412_786)"/>
<path d="M368.218 271.961C369.007 271.961 369.778 272.196 370.433 272.636C371.089 273.075 371.6 273.7 371.901 274.431C372.202 275.162 372.28 275.966 372.125 276.741C371.97 277.516 371.589 278.228 371.03 278.786C370.472 279.344 369.76 279.724 368.986 279.876C368.213 280.029 367.411 279.947 366.683 279.643C365.956 279.338 365.334 278.824 364.899 278.165C364.463 277.506 364.231 276.732 364.234 275.941C364.234 275.417 364.338 274.899 364.538 274.415C364.738 273.931 365.032 273.492 365.402 273.122C365.772 272.752 366.212 272.459 366.695 272.26C367.178 272.061 367.696 271.96 368.218 271.961Z" fill="url(#paint8_linear_412_786)"/>
<path d="M368.203 292.478C368.203 287.757 364.387 283.931 359.679 283.931C354.971 283.931 351.155 287.757 351.155 292.478C351.155 297.199 354.971 301.025 359.679 301.025C364.387 301.025 368.203 297.199 368.203 292.478Z" fill="url(#paint9_linear_412_786)"/>
<path d="M390.935 242.053C390.935 239.381 388.775 237.214 386.109 237.214C383.444 237.214 381.283 239.381 381.283 242.053C381.283 244.726 383.444 246.892 386.109 246.892C388.775 246.892 390.935 244.726 390.935 242.053Z" fill="url(#paint10_linear_412_786)"/>
<path d="M341.503 218.401C341.503 217.144 340.486 216.125 339.233 216.125C337.979 216.125 336.962 217.144 336.962 218.401C336.962 219.658 337.979 220.678 339.233 220.678C340.486 220.678 341.503 219.658 341.503 218.401Z" fill="url(#paint11_linear_412_786)"/>
<path d="M362.821 207.005C364.341 207.005 365.827 207.457 367.091 208.304C368.355 209.151 369.339 210.355 369.92 211.764C370.501 213.172 370.653 214.722 370.355 216.216C370.057 217.711 369.324 219.084 368.248 220.16C367.172 221.237 365.802 221.969 364.311 222.265C362.819 222.56 361.274 222.406 359.871 221.82C358.467 221.235 357.268 220.245 356.426 218.977C355.584 217.708 355.136 216.217 355.139 214.693C355.143 212.653 355.954 210.697 357.394 209.256C358.834 207.814 360.786 207.005 362.821 207.005Z" fill="url(#paint12_linear_412_786)"/>
<path d="M356.281 171.685C356.281 170.112 355.009 168.836 353.44 168.836C351.871 168.836 350.598 170.112 350.598 171.685C350.598 173.259 351.871 174.534 353.44 174.534C355.009 174.534 356.281 173.259 356.281 171.685Z" fill="url(#paint13_linear_412_786)"/>
<path d="M315.929 193.905C316.381 193.893 316.825 194.016 317.207 194.259C317.588 194.502 317.888 194.853 318.069 195.268C318.25 195.682 318.304 196.142 318.223 196.587C318.143 197.033 317.931 197.444 317.616 197.768C317.301 198.093 316.897 198.316 316.455 198.408C316.013 198.501 315.554 198.46 315.135 198.289C314.717 198.119 314.359 197.828 314.107 197.452C313.854 197.076 313.72 196.634 313.719 196.181C313.719 195.588 313.95 195.018 314.363 194.593C314.776 194.168 315.338 193.921 315.929 193.905Z" fill="url(#paint14_linear_412_786)"/>
<path d="M71.6682 205.859C72.6782 205.871 73.6622 206.182 74.4967 206.753C75.3312 207.323 75.979 208.128 76.3587 209.067C76.7384 210.006 76.8331 211.036 76.631 212.028C76.4288 213.02 75.9388 213.931 75.2225 214.645C74.5062 215.359 73.5955 215.845 72.6046 216.042C71.6138 216.239 70.587 216.138 69.6532 215.751C68.7195 215.365 67.9202 214.711 67.3559 213.871C66.7916 213.031 66.4874 212.043 66.4814 211.03C66.4773 210.347 66.609 209.67 66.8686 209.039C67.1282 208.408 67.5106 207.835 67.9934 207.354C68.4763 206.873 69.0499 206.493 69.6808 206.236C70.3118 205.979 70.9874 205.851 71.6682 205.859Z" fill="url(#paint15_linear_412_786)"/>
<path d="M19.319 188.493C19.319 186.445 17.6632 184.785 15.6206 184.785C13.578 184.785 11.9221 186.445 11.9221 188.493C11.9221 190.541 13.578 192.202 15.6206 192.202C17.6632 192.202 19.319 190.541 19.319 188.493Z" fill="url(#paint16_linear_412_786)"/>
<path d="M36.9391 171.399C36.9391 169.983 35.7948 168.836 34.3833 168.836C32.9718 168.836 31.8275 169.983 31.8275 171.399C31.8275 172.814 32.9718 173.961 34.3833 173.961C35.7948 173.961 36.9391 172.814 36.9391 171.399Z" fill="url(#paint17_linear_412_786)"/>
<path d="M31.5418 208.151C32.9489 208.151 34.3244 208.569 35.4941 209.353C36.6639 210.137 37.5753 211.252 38.1131 212.556C38.6509 213.859 38.7908 215.294 38.5152 216.677C38.2396 218.061 37.5609 219.331 36.5648 220.328C35.5688 221.325 34.3003 222.003 32.9199 222.276C31.5395 222.549 30.1092 222.406 28.81 221.864C27.5109 221.322 26.4013 220.406 25.6218 219.231C24.8422 218.057 24.4276 216.677 24.4306 215.266C24.4306 214.33 24.6147 213.404 24.9722 212.539C25.3298 211.675 25.8538 210.89 26.5143 210.229C27.1749 209.568 27.9589 209.044 28.8216 208.688C29.6843 208.331 30.6087 208.149 31.5418 208.151Z" fill="url(#paint18_linear_412_786)"/>
<path d="M4.54034 219.547C4.54034 218.29 3.52395 217.271 2.27017 217.271C1.01639 217.271 -1.5445e-07 218.29 -9.94985e-08 219.547C-4.4547e-08 220.804 1.01639 221.823 2.27017 221.823C3.52395 221.823 4.54034 220.804 4.54034 219.547Z" fill="url(#paint19_linear_412_786)"/>
<path d="M57.3857 183.654C57.3857 180.507 54.8413 177.956 51.7027 177.956C48.5641 177.956 46.0198 180.507 46.0198 183.654C46.0198 186.801 48.5641 189.352 51.7027 189.352C54.8413 189.352 57.3857 186.801 57.3857 183.654Z" fill="url(#paint20_linear_412_786)"/>
<path d="M79.8318 237.199C80.0306 237.179 80.2316 237.2 80.4216 237.263C80.6116 237.325 80.7865 237.426 80.9349 237.561C81.0833 237.695 81.202 237.859 81.2832 238.042C81.3644 238.225 81.4064 238.423 81.4064 238.624C81.4064 238.824 81.3644 239.023 81.2832 239.206C81.202 239.389 81.0833 239.553 80.9349 239.687C80.7865 239.821 80.6116 239.923 80.4216 239.985C80.2316 240.047 80.0306 240.069 79.8318 240.048C79.4802 240.012 79.1545 239.846 78.9177 239.583C78.6809 239.32 78.5499 238.978 78.5499 238.624C78.5499 238.27 78.6809 237.928 78.9177 237.665C79.1545 237.401 79.4802 237.236 79.8318 237.199Z" fill="url(#paint21_linear_412_786)"/>
<path d="M307.706 234.923C308.102 234.92 308.491 235.036 308.822 235.255C309.153 235.474 309.412 235.787 309.565 236.154C309.718 236.521 309.759 236.925 309.683 237.315C309.606 237.706 309.415 238.064 309.135 238.346C308.854 238.627 308.496 238.818 308.107 238.895C307.718 238.972 307.315 238.931 306.949 238.777C306.583 238.624 306.271 238.364 306.052 238.032C305.833 237.7 305.718 237.311 305.721 236.913C305.725 236.386 305.935 235.883 306.307 235.51C306.678 235.138 307.181 234.927 307.706 234.923Z" fill="url(#paint22_linear_412_786)"/>
<path d="M247.178 130.381C247.178 127.708 245.017 125.542 242.352 125.542C239.687 125.542 237.526 127.708 237.526 130.381C237.526 133.053 239.687 135.219 242.352 135.219C245.017 135.219 247.178 133.053 247.178 130.381Z" fill="url(#paint23_linear_412_786)"/>
<path d="M142.329 204.156C143.174 204.153 144.001 204.401 144.705 204.87C145.409 205.339 145.959 206.006 146.285 206.788C146.61 207.57 146.697 208.431 146.534 209.263C146.371 210.094 145.965 210.859 145.369 211.459C144.772 212.059 144.011 212.468 143.183 212.635C142.354 212.801 141.495 212.717 140.714 212.394C139.933 212.07 139.265 211.521 138.795 210.817C138.325 210.113 138.074 209.284 138.074 208.437C138.072 207.875 138.181 207.319 138.394 206.8C138.607 206.28 138.92 205.808 139.315 205.411C139.711 205.013 140.18 204.697 140.697 204.482C141.215 204.267 141.769 204.156 142.329 204.156Z" fill="url(#paint24_linear_412_786)"/>
<path d="M146.028 131.798C146.028 130.54 145.011 129.521 143.757 129.521C142.504 129.521 141.487 130.54 141.487 131.798C141.487 133.055 142.504 134.074 143.757 134.074C145.011 134.074 146.028 133.055 146.028 131.798Z" fill="url(#paint25_linear_412_786)"/>
<path d="M125.581 115.849C125.581 114.591 124.565 113.572 123.311 113.572C122.057 113.572 121.041 114.591 121.041 115.849C121.041 117.106 122.057 118.125 123.311 118.125C124.565 118.125 125.581 117.106 125.581 115.849Z" fill="url(#paint26_linear_412_786)"/>
<path d="M335.534 188.78C335.927 188.78 336.31 188.896 336.637 189.115C336.963 189.334 337.217 189.644 337.368 190.008C337.518 190.372 337.557 190.772 337.48 191.158C337.404 191.544 337.215 191.898 336.937 192.177C336.66 192.455 336.306 192.644 335.921 192.721C335.536 192.798 335.137 192.758 334.775 192.608C334.412 192.457 334.102 192.202 333.884 191.875C333.666 191.548 333.55 191.163 333.55 190.769C333.553 190.243 333.764 189.739 334.135 189.367C334.506 188.994 335.009 188.784 335.534 188.78Z" fill="url(#paint27_linear_412_786)"/>
</g>
<defs>
<linearGradient id="paint0_linear_412_786" x1="110.757" y1="324.376" x2="110.757" y2="121.291" gradientUnits="userSpaceOnUse">
<stop stop-color="white"/>
<stop offset="0.2" stop-color="#A7A7A7"/>
<stop offset="0.72" stop-color="white"/>
</linearGradient>
<linearGradient id="paint1_linear_412_786" x1="26348.7" y1="2582.23" x2="26348.7" y2="-22574" gradientUnits="userSpaceOnUse">
<stop stop-color="white"/>
<stop offset="0.2" stop-color="#A7A7A7"/>
<stop offset="0.72" stop-color="white"/>
</linearGradient>
<linearGradient id="paint2_linear_412_786" x1="193.446" y1="421.803" x2="193.446" y2="4.68824" gradientUnits="userSpaceOnUse">
<stop stop-color="#EF9A11"/>
<stop offset="0.22" stop-color="#D45C00"/>
<stop offset="0.24" stop-color="#D65F01"/>
<stop offset="0.46" stop-color="#E37F0A"/>
<stop offset="0.64" stop-color="#EC930F"/>
<stop offset="0.76" stop-color="#EF9A11"/>
</linearGradient>
<linearGradient id="paint3_linear_412_786" x1="162.881" y1="216.402" x2="162.881" y2="-1319.5" gradientUnits="userSpaceOnUse">
<stop stop-color="white"/>
<stop offset="0.2" stop-color="#A7A7A7"/>
<stop offset="0.72" stop-color="white"/>
</linearGradient>
<linearGradient id="paint4_linear_412_786" x1="621.131" y1="209.895" x2="621.131" y2="-860.678" gradientUnits="userSpaceOnUse">
<stop stop-color="white"/>
<stop offset="0.2" stop-color="#A7A7A7"/>
<stop offset="0.72" stop-color="white"/>
</linearGradient>
<linearGradient id="paint5_linear_412_786" x1="525.856" y1="236.409" x2="525.856" y2="-881.061" gradientUnits="userSpaceOnUse">
<stop stop-color="white"/>
<stop offset="0.2" stop-color="#A7A7A7"/>
<stop offset="0.72" stop-color="white"/>
</linearGradient>
<linearGradient id="paint6_linear_412_786" x1="196.858" y1="227.237" x2="196.858" y2="-284.731" gradientUnits="userSpaceOnUse">
<stop stop-color="white"/>
<stop offset="0.2" stop-color="#A7A7A7"/>
<stop offset="0.72" stop-color="white"/>
</linearGradient>
<linearGradient id="paint7_linear_412_786" x1="4513.61" y1="207.297" x2="4513.61" y2="-1328.61" gradientUnits="userSpaceOnUse">
<stop stop-color="white"/>
<stop offset="0.2" stop-color="#A7A7A7"/>
<stop offset="0.72" stop-color="white"/>
</linearGradient>
<linearGradient id="paint8_linear_412_786" x1="2437.94" y1="250.469" x2="2437.94" y2="-401.72" gradientUnits="userSpaceOnUse">
<stop stop-color="white"/>
<stop offset="0.2" stop-color="#A7A7A7"/>
<stop offset="0.72" stop-color="white"/>
</linearGradient>
<linearGradient id="paint9_linear_412_786" x1="4429.89" y1="238.117" x2="4429.89" y2="-1157.49" gradientUnits="userSpaceOnUse">
<stop stop-color="white"/>
<stop offset="0.2" stop-color="#A7A7A7"/>
<stop offset="0.72" stop-color="white"/>
</linearGradient>
<linearGradient id="paint10_linear_412_786" x1="2860.12" y1="211.277" x2="2860.12" y2="-578.828" gradientUnits="userSpaceOnUse">
<stop stop-color="white"/>
<stop offset="0.2" stop-color="#A7A7A7"/>
<stop offset="0.72" stop-color="white"/>
</linearGradient>
<linearGradient id="paint11_linear_412_786" x1="1361.45" y1="203.924" x2="1361.45" y2="-167.745" gradientUnits="userSpaceOnUse">
<stop stop-color="white"/>
<stop offset="0.2" stop-color="#A7A7A7"/>
<stop offset="0.72" stop-color="white"/>
</linearGradient>
<linearGradient id="paint12_linear_412_786" x1="4298.73" y1="165.562" x2="4298.73" y2="-1092.05" gradientUnits="userSpaceOnUse">
<stop stop-color="white"/>
<stop offset="0.2" stop-color="#A7A7A7"/>
<stop offset="0.72" stop-color="white"/>
</linearGradient>
<linearGradient id="paint13_linear_412_786" x1="1686.59" y1="153.565" x2="1686.59" y2="-311.636" gradientUnits="userSpaceOnUse">
<stop stop-color="white"/>
<stop offset="0.2" stop-color="#A7A7A7"/>
<stop offset="0.72" stop-color="white"/>
</linearGradient>
<linearGradient id="paint14_linear_412_786" x1="1337.42" y1="181.703" x2="1337.42" y2="-189.967" gradientUnits="userSpaceOnUse">
<stop stop-color="white"/>
<stop offset="0.2" stop-color="#A7A7A7"/>
<stop offset="0.72" stop-color="white"/>
</linearGradient>
<linearGradient id="paint15_linear_412_786" x1="711.93" y1="178.203" x2="711.93" y2="-661.027" gradientUnits="userSpaceOnUse">
<stop stop-color="white"/>
<stop offset="0.2" stop-color="#A7A7A7"/>
<stop offset="0.72" stop-color="white"/>
</linearGradient>
<linearGradient id="paint16_linear_412_786" x1="88.7754" y1="164.908" x2="88.7753" y2="-440.594" gradientUnits="userSpaceOnUse">
<stop stop-color="white"/>
<stop offset="0.2" stop-color="#A7A7A7"/>
<stop offset="0.72" stop-color="white"/>
</linearGradient>
<linearGradient id="paint17_linear_412_786" x1="148.731" y1="155.1" x2="148.731" y2="-263.335" gradientUnits="userSpaceOnUse">
<stop stop-color="white"/>
<stop offset="0.2" stop-color="#A7A7A7"/>
<stop offset="0.72" stop-color="white"/>
</linearGradient>
<linearGradient id="paint18_linear_412_786" x1="540.845" y1="169.789" x2="540.845" y2="-994.305" gradientUnits="userSpaceOnUse">
<stop stop-color="white"/>
<stop offset="0.2" stop-color="#A7A7A7"/>
<stop offset="0.72" stop-color="white"/>
</linearGradient>
<linearGradient id="paint19_linear_412_786" x1="6.85591" y1="205.07" x2="6.85589" y2="-166.598" gradientUnits="userSpaceOnUse">
<stop stop-color="white"/>
<stop offset="0.2" stop-color="#A7A7A7"/>
<stop offset="0.72" stop-color="white"/>
</linearGradient>
<linearGradient id="paint20_linear_412_786" x1="436.892" y1="147.414" x2="436.892" y2="-782.99" gradientUnits="userSpaceOnUse">
<stop stop-color="white"/>
<stop offset="0.2" stop-color="#A7A7A7"/>
<stop offset="0.72" stop-color="white"/>
</linearGradient>
<linearGradient id="paint21_linear_412_786" x1="274.021" y1="229.487" x2="274.021" y2="-4.31659" gradientUnits="userSpaceOnUse">
<stop stop-color="white"/>
<stop offset="0.2" stop-color="#A7A7A7"/>
<stop offset="0.72" stop-color="white"/>
</linearGradient>
<linearGradient id="paint22_linear_412_786" x1="1185.48" y1="224.177" x2="1185.48" y2="-103.228" gradientUnits="userSpaceOnUse">
<stop stop-color="white"/>
<stop offset="0.2" stop-color="#A7A7A7"/>
<stop offset="0.72" stop-color="white"/>
</linearGradient>
<linearGradient id="paint23_linear_412_786" x1="1793.42" y1="99.6047" x2="1793.42" y2="-690.499" gradientUnits="userSpaceOnUse">
<stop stop-color="white"/>
<stop offset="0.2" stop-color="#A7A7A7"/>
<stop offset="0.72" stop-color="white"/>
</linearGradient>
<linearGradient id="paint24_linear_412_786" x1="1077.5" y1="181.209" x2="1077.5" y2="-517.825" gradientUnits="userSpaceOnUse">
<stop stop-color="white"/>
<stop offset="0.2" stop-color="#A7A7A7"/>
<stop offset="0.72" stop-color="white"/>
</linearGradient>
<linearGradient id="paint25_linear_412_786" x1="575.633" y1="117.32" x2="575.633" y2="-254.347" gradientUnits="userSpaceOnUse">
<stop stop-color="white"/>
<stop offset="0.2" stop-color="#A7A7A7"/>
<stop offset="0.72" stop-color="white"/>
</linearGradient>
<linearGradient id="paint26_linear_412_786" x1="493.439" y1="101.371" x2="493.439" y2="-270.299" gradientUnits="userSpaceOnUse">
<stop stop-color="white"/>
<stop offset="0.2" stop-color="#A7A7A7"/>
<stop offset="0.72" stop-color="white"/>
</linearGradient>
<linearGradient id="paint27_linear_412_786" x1="1280.21" y1="178.074" x2="1280.21" y2="-146.789" gradientUnits="userSpaceOnUse">
<stop stop-color="white"/>
<stop offset="0.2" stop-color="#A7A7A7"/>
<stop offset="0.72" stop-color="white"/>
</linearGradient>
<clipPath id="clip0_412_786">
<rect width="306" height="404" fill="white" transform="translate(0 306) rotate(-90)"/>
</clipPath>
</defs>
</svg>
