<svg width="221" height="337" viewBox="0 0 221 337" fill="none" xmlns="http://www.w3.org/2000/svg">
<g clip-path="url(#clip0_0_419)">
<g opacity="0.2">
<path opacity="0.0476" d="M32.1198 275.749L38.6956 269.848C38.7956 269.788 46.4807 262.847 46.6006 262.847C48.3995 261.857 50.4981 261.216 52.6768 260.906C53.5962 260.776 54.6255 260.746 55.5749 260.746C58.2932 260.746 60.9915 261.476 62.9403 262.597L102.445 284.811L104.474 285.951L146.018 309.305C147.787 310.325 149.206 311.865 149.845 313.506C150.155 314.296 150.335 315.126 150.355 315.996C150.415 318.977 148.586 321.787 145.318 323.678L137.553 327.488C137.383 327.588 123.212 334.429 123.062 334.349C120.604 335.77 117.236 336.39 114.108 336.39C111.39 336.39 108.681 335.66 106.733 334.529L73.8733 315.146L69.0764 312.316L31.4202 290.102C29.6014 289.051 28.1623 287.461 27.5427 285.771C27.2629 285.021 27.093 284.23 27.083 283.41C27.013 280.45 28.8519 277.639 32.1198 275.749Z" fill="#ABB1DD"/>
<path opacity="0.0952" d="M32.2095 275.999L38.7454 270.248C38.9452 270.128 46.3805 263.507 46.6304 263.517C48.4192 262.587 50.4979 262.017 52.6266 261.737C53.506 261.617 54.5653 261.637 55.4648 261.637C58.0531 261.637 60.8513 262.467 62.7102 263.537L101.675 285.451L103.674 286.581L144.648 309.635C146.337 310.605 147.836 312.186 148.466 313.726C148.786 314.496 148.986 315.306 149.025 316.146C149.145 319.067 147.367 321.857 144.119 323.728L136.453 327.488C136.114 327.678 122.382 334.199 122.093 334.029C119.754 335.38 116.256 335.8 113.288 335.8C110.7 335.8 107.892 334.97 106.033 333.899L73.6033 314.796L68.8663 312.006L31.6898 290.112C29.9609 289.111 28.4319 287.491 27.8123 285.891C27.5325 285.151 27.3426 284.391 27.3026 283.59C27.1827 280.67 28.9516 277.879 32.2095 275.999Z" fill="#A7ACDA"/>
<path opacity="0.1429" d="M32.2896 276.249L38.7755 270.658C39.0753 270.488 46.2707 264.177 46.6305 264.197C48.4193 263.317 50.4681 262.817 52.5467 262.567C53.3762 262.467 54.4855 262.527 55.335 262.527C57.7834 262.527 60.6916 263.457 62.4505 264.467L100.866 286.091L102.835 287.201L143.239 309.945C144.838 310.865 146.437 312.476 147.047 313.936C147.367 314.696 147.597 315.476 147.647 316.296C147.826 319.157 146.107 321.917 142.88 323.778L135.314 327.488C134.815 327.778 121.523 333.959 121.083 333.709C118.865 334.99 115.237 335.21 112.429 335.21C109.98 335.21 107.052 334.27 105.303 333.259L73.2936 314.436L68.6265 311.686L31.9398 290.102C30.3008 289.151 28.6719 287.491 28.0722 285.991C27.7824 285.271 27.5726 284.531 27.5226 283.751C27.3427 280.88 29.0616 278.12 32.2896 276.249Z" fill="#A3A8D6"/>
<path opacity="0.1905" d="M32.3794 276.499L38.8253 271.058C39.225 270.828 46.1706 264.837 46.6603 264.857C48.4392 264.027 50.4679 263.607 52.4966 263.387C53.2861 263.297 54.4254 263.407 55.2349 263.407C57.5434 263.407 60.5615 264.437 62.2205 265.397L100.096 286.721L102.035 287.811L141.87 310.245C143.379 311.115 145.068 312.756 145.668 314.126C145.997 314.866 146.247 315.616 146.317 316.416C146.557 319.217 144.888 321.947 141.69 323.798L134.225 327.458C133.555 327.848 120.703 333.699 120.124 333.359C118.035 334.57 114.277 334.58 111.609 334.58C109.301 334.58 106.263 333.539 104.604 332.579L73.0236 314.026L68.4165 311.315L32.2195 290.052C30.6705 289.161 28.9416 287.461 28.3519 286.051C28.0521 285.351 27.8223 284.631 27.7523 283.871C27.5125 281.1 29.1714 278.36 32.3794 276.499Z" fill="#9FA3D3"/>
<path opacity="0.2381" d="M32.4697 276.759L38.8756 271.478C39.3753 271.188 46.0811 265.517 46.6807 265.547C48.4595 264.777 50.4583 264.427 52.437 264.227C53.1766 264.157 54.3558 264.307 55.1153 264.307C57.294 264.307 60.412 265.437 61.981 266.337L99.3073 287.361L101.216 288.441L140.481 310.565C141.9 311.385 143.689 313.066 144.279 314.346C144.609 315.066 144.888 315.796 144.968 316.576C145.268 319.317 143.659 322.027 140.481 323.858L133.116 327.468C132.276 327.948 119.874 333.469 119.145 333.049C117.176 334.189 113.288 333.999 110.78 333.999C108.601 333.999 105.453 332.859 103.894 331.959L72.7542 313.676L68.207 311.015L32.4897 290.062C31.0306 289.221 29.2017 287.491 28.6321 286.171C28.3323 285.481 28.0725 284.791 27.9825 284.051C27.6727 281.31 29.2817 278.6 32.4697 276.759Z" fill="#9B9FD0"/>
<path opacity="0.2857" d="M32.5496 277.009L38.9156 271.878C39.5252 271.528 45.9711 266.177 46.7007 266.217C48.4695 265.497 50.4383 265.217 52.3771 265.057C53.0766 264.997 54.2958 265.197 55.0054 265.197C57.0441 265.197 60.282 266.427 61.7411 267.278L98.5178 288.011L100.397 289.071L139.092 310.885C140.421 311.655 142.31 313.366 142.88 314.556C143.22 315.266 143.519 315.966 143.619 316.726C143.979 319.407 142.42 322.087 139.272 323.908L132.007 327.468C130.997 328.048 119.035 333.239 118.165 332.739C116.317 333.809 112.299 333.419 109.951 333.419C107.912 333.419 104.654 332.169 103.195 331.329L72.4643 313.326L67.9872 310.705L32.7595 290.052C31.4003 289.261 29.4616 287.491 28.9019 286.261C28.5921 285.591 28.3123 284.921 28.2124 284.211C27.8326 281.52 29.3916 278.84 32.5496 277.009Z" fill="#979ACD"/>
<path opacity="0.3333" d="M32.6393 277.259L38.9653 272.278C39.6748 271.868 45.8809 266.837 46.7203 266.877C48.4892 266.207 50.478 266.297 52.3168 265.877C52.9564 265.727 54.2256 266.077 54.8852 266.077C56.794 266.077 60.1318 267.407 61.491 268.198L97.728 288.631L99.5769 289.671L137.703 311.175C138.942 311.895 140.931 313.636 141.48 314.736C141.82 315.426 142.15 316.096 142.27 316.836C142.7 319.457 141.191 322.107 138.052 323.918L130.887 327.428C129.708 328.108 118.185 332.959 117.176 332.379C115.457 333.379 111.299 332.789 109.111 332.789C107.202 332.789 103.844 331.439 102.475 330.649L72.1742 312.926L67.757 310.345L33.019 290.022C31.7498 289.281 29.7111 287.481 29.1715 286.341C28.8617 285.681 28.5518 285.041 28.4319 284.351C28.0022 281.74 29.4913 279.07 32.6393 277.259Z" fill="#9396CA"/>
<path opacity="0.381" d="M32.7293 277.509L39.0153 272.689C39.8248 272.218 45.781 267.508 46.7504 267.558C48.5093 266.948 50.478 267.148 52.2669 266.707C52.8565 266.567 54.1757 266.968 54.7853 266.968C56.5542 266.968 60.002 268.398 61.2712 269.138L96.9586 289.271L98.7774 290.302L136.334 311.495C137.483 312.166 139.582 313.936 140.101 314.956C140.451 315.636 140.801 316.276 140.931 316.996C141.42 319.557 139.961 322.177 136.853 323.978L129.798 327.438C128.459 328.218 117.376 332.739 116.216 332.069C114.617 332.989 110.33 332.199 108.301 332.199C106.533 332.199 103.055 330.749 101.786 330.009L71.9145 312.566L67.5572 310.025L33.2989 290.022C32.1197 289.341 29.971 287.501 29.4514 286.451C29.1316 285.801 28.8018 285.191 28.6719 284.521C28.1622 281.95 29.6013 279.31 32.7293 277.509Z" fill="#8F92C6"/>
<path opacity="0.4286" d="M32.8191 277.759L39.0651 273.089C39.9746 272.569 45.691 268.168 46.7803 268.228C48.5292 267.668 50.4779 267.988 52.2168 267.538C52.7565 267.398 54.1156 267.858 54.6853 267.858C56.3142 267.858 59.872 269.398 61.0412 270.068L96.179 289.912L97.9678 290.922L134.954 311.806C136.014 312.416 138.222 314.226 138.712 315.156C139.072 315.816 139.432 316.436 139.591 317.126C140.141 319.627 138.742 322.227 135.654 324.008L128.698 327.418C127.189 328.288 116.546 332.489 115.237 331.729C113.758 332.579 109.341 331.589 107.472 331.589C105.843 331.589 102.255 330.029 101.076 329.359L71.6245 312.186L67.3372 309.685L33.5686 289.992C32.4793 289.362 30.2208 287.491 29.7211 286.531C29.3913 285.901 29.0415 285.311 28.8916 284.661C28.322 282.17 29.7111 279.55 32.8191 277.759Z" fill="#8B8DC3"/>
<path opacity="0.4762" d="M32.899 278.01L39.1051 273.499C40.1145 272.919 45.581 268.838 46.7902 268.898C48.5391 268.388 50.4579 268.828 52.1568 268.358C52.6465 268.218 54.0456 268.738 54.5653 268.738C56.0643 268.738 59.722 270.378 60.7914 270.998L95.3894 290.542L97.1483 291.532L133.565 312.106C134.545 312.666 136.843 314.506 137.313 315.356C137.673 316.006 138.062 316.596 138.232 317.267C138.842 319.707 137.503 322.277 134.435 324.048L127.579 327.408C125.9 328.378 115.707 332.239 114.247 331.399C112.898 332.179 108.351 330.989 106.622 330.989C105.123 330.989 101.426 329.329 100.356 328.709L71.3347 311.816L67.1074 309.355L33.8284 289.982C32.8291 289.402 30.4606 287.501 29.9909 286.631C29.6611 286.011 29.2813 285.461 29.1214 284.821C28.4818 282.38 29.821 279.79 32.899 278.01Z" fill="#8789C0"/>
<path opacity="0.5238" d="M32.9889 278.259L39.145 273.899C40.2543 273.259 45.481 269.498 46.8102 269.568C48.5491 269.118 50.4479 269.668 52.0968 269.188C52.5465 269.058 53.9856 269.628 54.4553 269.628C55.8145 269.628 59.5821 271.368 60.5515 271.928L94.5999 291.182L96.3288 292.162L132.176 312.426C133.066 312.936 135.484 314.806 135.924 315.566C136.293 316.206 136.703 316.756 136.893 317.406C137.573 319.787 136.273 322.327 133.235 324.088L126.48 327.398C124.631 328.468 114.877 331.999 113.278 331.069C112.049 331.779 107.372 330.389 105.803 330.389C104.444 330.389 100.636 328.628 99.6567 328.058L71.0648 311.435L66.9074 309.015L34.1182 289.962C33.2088 289.431 30.7204 287.501 30.2806 286.721C29.9408 286.111 29.5411 285.591 29.3612 284.971C28.6417 282.59 29.9309 280.03 32.9889 278.259Z" fill="#8284BD"/>
<path opacity="0.5714" d="M33.0791 278.52L39.1953 274.319C40.4045 273.619 45.3814 270.178 46.8304 270.248C48.5693 269.848 50.4381 270.518 52.0371 270.018C52.4369 269.898 53.9159 270.518 54.3457 270.518C55.5649 270.518 59.4424 272.359 60.3219 272.869L93.8307 291.822L95.5296 292.782L130.807 312.736C131.607 313.196 134.265 315.036 134.545 315.776C135.025 316.326 135.354 316.926 135.554 317.557C136.294 319.877 135.055 322.387 132.026 324.138L125.371 327.398C123.352 328.559 114.048 331.759 112.299 330.759C111.19 331.399 106.383 329.799 104.974 329.799C103.754 329.799 99.8269 327.928 98.9474 327.428L70.7753 311.085L66.6779 308.705L34.3783 289.952C33.5588 289.482 30.8206 287.581 30.5507 286.821C30.101 286.301 29.7812 285.731 29.5814 285.131C28.8019 282.81 30.0411 280.27 33.0791 278.52Z" fill="#7E80BA"/>
<path opacity="0.619" d="M33.1589 278.77L39.2351 274.719C40.5442 273.959 45.2812 270.838 46.8503 270.918C48.5792 270.568 50.418 271.358 51.977 270.848C52.3268 270.728 53.8458 271.408 54.2256 271.408C55.3149 271.408 59.2924 273.349 60.0719 273.799L93.031 292.452L94.6999 293.402L129.408 313.046C130.118 313.456 132.886 315.316 133.136 315.976C133.635 316.506 133.975 317.086 134.195 317.697C135.004 319.957 133.805 322.447 130.807 324.178L124.251 327.388C122.073 328.649 113.198 331.519 111.309 330.429C110.32 330.999 105.383 329.199 104.134 329.199C103.045 329.199 99.0172 327.228 98.2377 326.778L70.4953 310.715L66.4578 308.375L34.638 289.952C33.9084 289.532 31.0503 287.601 30.8104 286.921C30.3407 286.421 30.0109 285.871 29.8011 285.291C28.9616 283.02 30.1408 280.51 33.1589 278.77Z" fill="#7A7BB7"/>
<path opacity="0.6667" d="M33.249 279.02L39.2852 275.129C40.6943 274.309 45.1814 271.518 46.8704 271.598C48.5993 271.308 50.3581 271.328 51.9172 271.678C52.237 271.628 53.786 272.298 54.1158 272.298C55.0652 272.298 59.1526 274.339 59.8321 274.739L92.2416 293.102L93.8806 294.032L128.019 313.366C128.639 313.726 131.517 315.616 131.737 316.186C132.246 316.696 132.606 317.256 132.846 317.837C133.715 320.037 132.576 322.497 129.598 324.218L123.142 327.378C120.794 328.739 112.369 331.279 110.33 330.099C109.471 330.599 104.394 328.599 103.305 328.599C102.355 328.599 98.2078 326.528 97.5283 326.128L70.2156 310.335L66.2481 308.035L34.9179 289.922C34.2783 289.552 31.3102 287.601 31.1003 287.001C30.6207 286.521 30.2709 285.991 30.041 285.431C29.1216 283.24 30.2509 280.75 33.249 279.02Z" fill="#7677B3"/>
<path opacity="0.7143" d="M33.3389 279.27L39.3351 275.529C40.8441 274.659 45.0914 272.178 46.9003 272.258C48.6192 272.018 50.3581 272.088 51.8671 272.498C52.1469 272.458 53.7259 273.179 54.0058 273.179C54.8252 273.179 59.0126 275.319 59.6022 275.659L91.472 293.722L93.081 294.632L126.65 313.656C127.179 313.966 130.168 315.876 130.357 316.376C130.887 316.856 131.257 317.396 131.507 317.967C132.446 320.097 131.347 322.537 128.399 324.248L122.043 327.358C119.524 328.808 111.539 331.019 109.361 329.759C108.621 330.189 103.424 327.988 102.485 327.988C101.666 327.988 97.4182 325.808 96.8286 325.468L69.9357 309.955L66.0281 307.705L35.1777 289.912C34.628 289.591 31.54 287.611 31.3601 287.101C30.8604 286.641 30.5006 286.131 30.2608 285.591C29.2814 283.45 30.3607 280.99 33.3389 279.27Z" fill="#7273B0"/>
<path opacity="0.7619" d="M33.4187 279.52L39.3749 275.939C40.9839 275.009 44.9814 272.849 46.9202 272.939C48.6391 272.749 50.348 272.879 51.8071 273.339C52.0369 273.309 53.6559 274.079 53.8957 274.079C54.5753 274.079 58.8726 276.319 59.3623 276.609L90.6824 294.372L92.2614 295.273L125.261 313.996C125.7 314.256 128.808 316.196 128.958 316.606C129.498 317.066 129.888 317.587 130.157 318.127C131.157 320.197 130.117 322.617 127.189 324.308L120.933 327.368C118.245 328.919 110.71 330.799 108.381 329.449C107.762 329.809 102.435 327.398 101.645 327.398C100.966 327.398 96.5987 325.118 96.119 324.838L69.6558 309.595L65.8082 307.385L35.4474 289.902C34.9977 289.642 31.7897 287.621 31.6398 287.201C31.1302 286.761 30.7504 286.271 30.4906 285.761C29.4312 283.67 30.4706 281.23 33.4187 279.52Z" fill="#6E6EAD"/>
<path opacity="0.8095" d="M33.5088 279.77L39.425 276.339C41.1339 275.349 44.8916 273.509 46.9403 273.609C48.6492 273.479 50.3381 273.659 51.7472 274.159C51.9271 274.129 53.596 274.959 53.7859 274.959C54.3256 274.959 58.7328 277.309 59.1225 277.529L89.893 295.002L91.4421 295.883L123.872 314.296C124.221 314.496 127.439 316.476 127.559 316.806C128.109 317.246 128.519 317.747 128.798 318.267C129.868 320.277 128.868 322.667 125.97 324.348L119.824 327.358C116.966 329.009 109.87 330.549 107.402 329.129C106.912 329.409 101.446 326.808 100.816 326.808C100.276 326.808 95.7993 324.418 95.4096 324.198L69.3661 309.235L65.5884 307.065L35.7174 289.902C35.3576 289.692 32.0297 287.651 31.9098 287.311C31.3801 286.891 30.9904 286.421 30.7205 285.931C29.5913 283.881 30.5806 281.47 33.5088 279.77Z" fill="#6A6AAA"/>
<path opacity="0.8571" d="M33.5989 280.03L39.4652 276.749C41.284 275.699 44.7818 274.179 46.9604 274.279C48.6594 274.199 50.3283 274.429 51.6874 274.989C51.8274 274.969 53.5263 275.849 53.6662 275.849C54.0759 275.849 58.5831 278.299 58.8729 278.469L89.1037 295.643L90.6228 296.503L122.483 314.606C122.752 314.756 126.07 316.756 126.17 317.006C126.74 317.426 127.17 317.896 127.459 318.407C128.599 320.357 127.649 322.717 124.761 324.388L118.715 327.348C115.697 329.098 109.031 330.309 106.423 328.798C106.053 329.008 100.457 326.208 99.9869 326.208C99.5771 326.208 94.99 323.718 94.7002 323.547L69.0864 308.865L65.3688 306.734L35.9774 289.881C35.7076 289.721 32.2697 287.651 32.1798 287.401C31.6401 287.001 31.2304 286.551 30.9406 286.081C29.7513 284.1 30.6807 281.71 33.5989 280.03Z" fill="#6665A7"/>
<path opacity="0.9048" d="M33.6889 280.28L39.5152 277.159C41.434 276.049 44.6919 274.849 46.9805 274.959C48.6794 274.929 50.3084 275.219 51.6275 275.819C51.7175 275.809 53.4564 276.739 53.5563 276.739C53.8261 276.739 58.4432 279.29 58.6431 279.4L88.3243 296.273L89.8133 297.123L121.104 314.916C121.283 315.016 124.721 317.046 124.781 317.206C125.361 317.607 125.811 318.057 126.12 318.537C127.33 320.427 126.43 322.757 123.562 324.418L117.616 327.328C114.428 329.169 108.212 330.059 105.453 328.458C105.204 328.598 99.4772 325.588 99.1674 325.588C98.8976 325.588 94.2006 322.998 94.0007 322.877L68.8166 308.465L65.1689 306.375L36.2573 289.852C36.0774 289.742 32.5196 287.651 32.4597 287.481C31.91 287.101 31.4803 286.671 31.1705 286.221C29.9013 284.321 30.7907 281.95 33.6889 280.28Z" fill="#6261A3"/>
<path opacity="0.9524" d="M33.7688 280.53L39.5551 277.559C41.5738 276.399 44.5819 275.509 47.0004 275.629C48.6893 275.659 50.2983 275.989 51.5675 276.649C51.6174 276.639 53.3963 277.629 53.4363 277.629C53.5762 277.629 58.2932 280.28 58.3932 280.34L87.5347 296.923L88.9938 297.753L119.714 315.236C119.804 315.286 123.352 317.346 123.382 317.426C123.982 317.807 124.441 318.237 124.761 318.697C126.04 320.517 125.181 322.837 122.343 324.478L116.496 327.338C113.138 329.279 107.362 329.829 104.454 328.148C104.334 328.218 98.4678 325.008 98.3179 325.008C98.1779 325.008 93.371 322.307 93.281 322.257L68.5167 308.125L64.939 306.054L36.527 289.832C36.4371 289.782 32.7694 287.651 32.7394 287.561C32.1698 287.201 31.73 286.801 31.4102 286.361C30.0611 284.541 30.9006 282.19 33.7688 280.53Z" fill="#5E5CA0"/>
<path opacity="0.2" d="M103.485 327.808L68.2469 307.735L33.0092 287.661C29.9612 285.901 30.3409 282.82 33.8687 280.78L39.6151 277.97C43.1428 275.929 48.4695 275.709 51.5275 277.479L86.7652 297.553L122.003 317.627C125.051 319.387 124.671 322.467 121.143 324.508L115.397 327.318C111.869 329.349 106.543 329.569 103.485 327.808Z" fill="#5A589D"/>
</g>
<path d="M109.8 324.208L25.314 275.389C15.78 269.878 8.05492 255.105 8.05492 242.393V17.2231C8.05492 10.752 2.74828 9.3217 5.95624 7.00129C6.07617 6.91127 18.8481 1.18025 18.988 1.13024C22.4558 -0.199998 26.1534 -0.790103 30.6506 1.81036L115.137 50.6291C124.671 56.14 132.396 70.9127 132.396 83.6249V308.795C132.396 315.556 130.218 320.367 126.74 322.577C126.53 322.707 112.249 329.319 112.019 329.399C108.951 330.419 113.968 326.618 109.8 324.208Z" fill="#AFB5E0"/>
<path d="M109.8 324.208L25.314 275.389C15.78 269.878 8.05492 255.105 8.05492 242.393V17.223C8.05492 10.7519 2.74828 9.32164 5.95624 7.00123C6.09616 6.92121 18.6582 1.2602 18.7981 1.2102C22.2659 -0.120041 25.9636 -0.710146 30.4607 1.89032L114.947 50.709C124.481 56.22 132.206 70.9926 132.206 83.7049V308.875C132.206 315.636 130.028 320.447 126.55 322.657C126.34 322.787 112.259 329.319 112.029 329.399C108.951 330.419 113.968 326.618 109.8 324.208Z" fill="url(#paint0_linear_0_419)"/>
<path d="M109.8 324.208L25.314 275.389C15.78 269.878 8.05492 255.105 8.05492 242.393V17.2231C8.05492 10.752 2.74828 9.3217 5.95624 7.00129C6.09616 6.92128 18.4483 1.34028 18.5882 1.29027C22.056 -0.0399634 25.7537 -0.630068 30.2509 1.97039L114.737 50.7891C124.271 56.3001 131.996 71.0727 131.996 83.785V308.955C131.996 315.716 129.818 320.527 126.34 322.737C126.13 322.868 112.259 329.329 112.029 329.399C108.951 330.419 113.968 326.618 109.8 324.208Z" fill="url(#paint1_linear_0_419)"/>
<path d="M109.8 324.208L25.314 275.389C15.78 269.878 8.05492 255.105 8.05492 242.393V17.223C8.05492 10.7519 2.74828 9.32164 5.95624 7.00122C6.09616 6.92121 18.2385 1.42023 18.3784 1.36022C21.8462 0.0299829 25.5438 -0.560122 30.041 2.04034L114.527 50.859C124.061 56.37 131.787 71.1426 131.787 83.8549V309.025C131.787 315.786 129.608 320.597 126.13 322.807C125.92 322.937 112.259 329.319 112.029 329.399C108.951 330.419 113.968 326.618 109.8 324.208Z" fill="url(#paint2_linear_0_419)"/>
<path d="M109.8 324.208L25.314 275.389C15.78 269.878 8.05492 255.105 8.05492 242.393V17.2231C8.05492 10.752 2.74828 9.3217 5.95624 7.00129C6.09616 6.92127 18.0286 1.50031 18.1685 1.4403C21.6363 0.110061 25.334 -0.480044 29.8311 2.12042L114.318 50.9391C123.852 56.4501 131.577 71.2227 131.577 83.935V309.105C131.577 315.866 129.398 320.677 125.92 322.887C125.71 323.018 112.259 329.319 112.029 329.399C108.951 330.419 113.968 326.618 109.8 324.208Z" fill="url(#paint3_linear_0_419)"/>
<path d="M109.8 324.208L25.314 275.389C15.78 269.878 8.05492 255.105 8.05492 242.393V17.223C8.05492 10.7519 2.74828 9.32164 5.95624 7.00123C6.07617 6.91121 17.8087 1.57026 17.9486 1.52025C21.4164 0.190017 25.1141 -0.400088 29.6113 2.20038L114.098 51.0191C123.632 56.53 131.357 71.3027 131.357 84.0149V309.185C131.357 315.946 129.178 320.757 125.7 322.968C125.491 323.098 112.249 329.319 112.019 329.399C108.951 330.419 113.968 326.618 109.8 324.208Z" fill="url(#paint4_linear_0_419)"/>
<path d="M109.8 324.208L25.314 275.389C15.78 269.878 8.05492 255.105 8.05492 242.393V17.2231C8.05492 10.752 2.74828 9.32171 5.95624 7.00129C6.09616 6.92128 17.6189 1.65034 17.7588 1.60033C21.2266 0.270095 24.9242 -0.32001 29.4214 2.28045L113.908 51.0991C123.442 56.6101 131.167 71.3828 131.167 84.095V309.255C131.167 316.016 128.988 320.827 125.511 323.038C125.301 323.168 112.269 329.319 112.039 329.389C108.951 330.419 113.968 326.618 109.8 324.208Z" fill="url(#paint5_linear_0_419)"/>
<path d="M109.8 324.208L25.314 275.389C15.78 269.878 8.05492 255.105 8.05492 242.393V17.223C8.05492 10.7519 2.74828 9.32164 5.95624 7.00123C6.09616 6.92121 17.409 1.73029 17.5489 1.67028C21.0167 0.340042 24.7144 -0.250063 29.2115 2.3504L113.698 51.1691C123.232 56.6801 130.957 71.4527 130.957 84.165V309.335C130.957 316.096 128.778 320.907 125.301 323.117C125.091 323.248 112.259 329.319 112.029 329.399C108.951 330.419 113.968 326.618 109.8 324.208Z" fill="url(#paint6_linear_0_419)"/>
<path d="M109.8 324.208L25.314 275.389C15.78 269.878 8.05492 255.105 8.05492 242.393V17.2231C8.05492 10.752 2.74828 9.3217 5.95624 7.00129C6.09616 6.92128 17.1991 1.80037 17.339 1.75036C20.8068 0.42012 24.5045 -0.169985 29.0016 2.43048L113.488 51.2492C123.022 56.7602 130.747 71.5328 130.747 84.245V309.415C130.747 316.176 128.569 320.987 125.091 323.198C124.881 323.328 112.259 329.319 112.029 329.399C108.951 330.419 113.968 326.618 109.8 324.208Z" fill="url(#paint7_linear_0_419)"/>
<path d="M109.8 324.208L25.314 275.389C15.78 269.878 8.05492 255.105 8.05492 242.393V17.2231C8.05492 10.7519 2.74828 9.32165 5.95624 7.00123C6.09616 6.92122 16.9893 1.88032 17.1292 1.83031C20.597 0.500076 24.2946 -0.0900293 28.7918 2.51043L113.278 51.3291C122.812 56.8401 130.537 71.6127 130.537 84.325V309.495C130.537 316.256 128.359 321.067 124.881 323.278C124.671 323.408 112.259 329.329 112.029 329.399C108.951 330.419 113.968 326.618 109.8 324.208Z" fill="url(#paint8_linear_0_419)"/>
<path d="M109.8 324.208L25.314 275.389C15.78 269.878 8.05492 255.105 8.05492 242.393V17.2231C8.05492 10.752 2.74828 9.3217 5.95624 7.00129C6.07617 6.91127 16.7694 1.95039 16.9093 1.90038C20.3771 0.570144 24.0748 -0.0199609 28.5719 2.5805L113.058 51.3992C122.592 56.9102 130.317 71.6828 130.317 84.3951V309.565C130.317 316.326 128.139 321.137 124.661 323.348C124.451 323.478 112.249 329.319 112.019 329.389C108.951 330.419 113.968 326.618 109.8 324.208Z" fill="url(#paint9_linear_0_419)"/>
<path d="M109.8 324.208L25.314 275.389C15.78 269.878 8.05492 255.105 8.05492 242.393V17.2231C8.05492 10.7519 2.74828 9.32164 5.95624 7.00123C6.09616 6.92122 16.5695 2.04035 16.7094 1.98034C20.1772 0.6501 23.8749 0.0599952 28.372 2.66046L112.859 51.4792C122.392 56.9901 130.118 71.7628 130.118 84.475V309.645C130.118 316.406 127.939 321.217 124.461 323.428C124.251 323.558 112.259 329.319 112.029 329.399C108.951 330.419 113.968 326.618 109.8 324.208Z" fill="url(#paint10_linear_0_419)"/>
<path d="M109.8 324.208L25.314 275.389C15.78 269.878 8.05492 255.105 8.05492 242.393V17.2231C8.05492 10.752 2.74828 9.32171 5.95624 7.00129C6.07617 6.91128 16.3497 2.11042 16.4896 2.06042C19.9574 0.730178 23.655 0.140073 28.1522 2.74054L112.639 51.5592C122.173 57.0702 129.898 71.8428 129.898 84.5551V309.725C129.898 316.486 127.719 321.297 124.241 323.508C124.031 323.638 112.249 329.319 112.019 329.399C108.951 330.419 113.968 326.618 109.8 324.208Z" fill="url(#paint11_linear_0_419)"/>
<path d="M109.8 324.208L25.314 275.389C15.78 269.878 8.05492 255.105 8.05492 242.393V17.2231C8.05492 10.7519 2.74828 9.32165 5.95624 7.00124C6.09616 6.92122 16.1598 2.19038 16.2997 2.14037C19.7675 0.810134 23.4652 0.220029 27.9623 2.82049L112.449 51.6392C121.983 57.1502 129.708 71.9228 129.708 84.6351V309.805C129.708 316.566 127.529 321.377 124.051 323.588C123.842 323.718 112.259 329.329 112.029 329.399C108.951 330.419 113.968 326.618 109.8 324.208Z" fill="url(#paint12_linear_0_419)"/>
<path d="M109.8 324.208L25.314 275.389C15.78 269.878 8.05492 255.105 8.05492 242.393V17.2231C8.05492 10.752 2.74828 9.32171 5.95624 7.00129C6.09616 6.92128 15.9499 2.27045 16.0898 2.21044C19.5576 0.880203 23.2553 0.290098 27.7524 2.89056L112.239 51.7093C121.773 57.2202 129.498 71.9929 129.498 84.7051V309.875C129.498 316.636 127.319 321.447 123.842 323.658C123.632 323.788 112.259 329.319 112.029 329.399C108.951 330.419 113.968 326.618 109.8 324.208Z" fill="url(#paint13_linear_0_419)"/>
<path d="M109.8 324.208L25.314 275.389C15.78 269.878 8.05492 255.105 8.05492 242.393V17.2231C8.05492 10.7519 2.74828 9.32165 5.95624 7.00123C6.07617 6.91122 15.7301 2.3404 15.86 2.2904C19.3278 0.960159 23.0254 0.370054 27.5226 2.97052L112.009 51.7892C121.543 57.3002 129.268 72.0728 129.268 84.7851V309.955C129.268 316.716 127.09 321.527 123.612 323.738C123.402 323.868 112.239 329.319 112.009 329.399C108.951 330.419 113.968 326.618 109.8 324.208Z" fill="url(#paint14_linear_0_419)"/>
<path d="M109.8 324.208L25.314 275.389C15.78 269.878 8.05492 255.105 8.05492 242.393V17.2231C8.05492 10.752 2.74828 9.3217 5.95624 7.00129C6.07617 6.91127 15.5202 2.42047 15.6601 2.36046C19.1279 1.03023 22.8256 0.440122 27.3227 3.04058L111.809 51.8593C121.343 57.3703 129.068 72.1429 129.068 84.8551V310.025C129.068 316.786 126.89 321.597 123.412 323.808C123.202 323.938 112.249 329.309 112.019 329.389C108.951 330.419 113.968 326.618 109.8 324.208Z" fill="url(#paint15_linear_0_419)"/>
<path d="M109.8 324.208L25.314 275.389C15.78 269.878 8.05492 255.105 8.05492 242.393V17.2231C8.05492 10.7519 2.74828 9.32165 5.95624 7.00123C6.07617 6.91122 15.3103 2.50043 15.4502 2.44042C18.918 1.11018 22.6157 0.520078 27.1128 3.12054L111.599 51.9392C121.133 57.4502 128.858 72.2229 128.858 84.9351V310.105C128.858 316.866 126.68 321.677 123.202 323.888C122.992 324.018 112.249 329.319 112.019 329.389C108.951 330.419 113.968 326.618 109.8 324.208Z" fill="url(#paint16_linear_0_419)"/>
<path d="M109.8 324.208L25.314 275.389C15.78 269.878 8.05492 255.105 8.05492 242.393V17.2231C8.05492 10.752 2.74828 9.3217 5.95624 7.00129C6.07617 6.91127 15.1005 2.5705 15.2404 2.52049C18.7182 1.20026 22.4258 0.60015 26.923 3.20061L111.409 52.0193C120.943 57.5303 128.669 72.3029 128.669 85.0152V310.185C128.669 316.947 126.49 321.757 123.012 323.968C122.802 324.098 112.269 329.319 112.039 329.399C108.951 330.419 113.968 326.618 109.8 324.208Z" fill="url(#paint17_linear_0_419)"/>
<path d="M109.8 324.208L25.314 275.389C15.78 269.878 8.05492 255.105 8.05492 242.393V17.2231C8.05492 10.7519 2.74828 9.32165 5.95624 7.00124C6.07617 6.91122 14.8906 2.65046 15.0305 2.60045C18.4983 1.27022 22.196 0.680112 26.6931 3.28058L111.18 52.0993C120.714 57.6102 128.439 72.3829 128.439 85.0951V310.265C128.439 317.026 126.26 321.837 122.782 324.048C122.572 324.178 112.239 329.319 112.009 329.399C108.951 330.419 113.968 326.618 109.8 324.208Z" fill="url(#paint18_linear_0_419)"/>
<path d="M109.8 324.208L25.314 275.389C15.78 269.878 8.05492 255.105 8.05492 242.393V17.2231C8.05492 10.752 2.74828 9.32171 5.95624 7.00129C6.07617 6.91128 14.6807 2.73053 14.8206 2.67052C18.2884 1.34029 21.9861 0.750181 26.4832 3.35064L110.97 52.1693C120.504 57.6803 128.229 72.4529 128.229 85.1652V310.335C128.229 317.097 126.05 321.907 122.572 324.118C122.363 324.248 112.239 329.319 112.009 329.389C108.951 330.419 113.968 326.618 109.8 324.208Z" fill="url(#paint19_linear_0_419)"/>
<path d="M109.8 324.208L25.314 275.389C15.78 269.878 8.05492 255.105 8.05492 242.393V17.2231C8.05492 10.7519 2.74828 9.32165 5.95624 7.00124C6.07617 6.91122 14.4709 2.80049 14.6108 2.75048C18.0786 1.42024 21.7762 0.830137 26.2734 3.4306L110.76 52.2493C120.294 57.7603 128.019 72.5329 128.019 85.2452V310.415C128.019 317.176 125.84 321.987 122.363 324.198C122.153 324.328 112.239 329.319 112.009 329.389C108.951 330.419 113.968 326.618 109.8 324.208Z" fill="url(#paint20_linear_0_419)"/>
<path d="M101.736 328.018L17.2491 279.2C7.72511 273.699 0 258.926 0 246.214V21.0437C0 8.32148 7.72511 2.48044 17.2591 7.98142L101.746 56.8001C111.28 62.3111 119.005 77.0837 119.005 89.796V314.966C118.995 327.688 111.27 333.529 101.736 328.018Z" fill="white"/>
<path d="M108.591 328.388C106.732 328.388 104.714 327.768 102.595 326.548L18.1086 277.729C9.06432 272.509 1.70898 258.366 1.70898 246.214V21.0437C1.70898 12.8923 5.12682 7.63135 10.4035 7.63135C12.2623 7.63135 14.281 8.25146 16.3997 9.47168L100.886 58.2904C109.93 63.5113 117.286 77.6538 117.286 89.806V314.976C117.286 323.118 113.868 328.388 108.591 328.388Z" fill="url(#paint21_linear_0_419)"/>
<path d="M5.71631 249.084V24.7744C5.71631 15.4427 11.3827 11.152 18.3783 15.1927L100.616 62.7112C107.612 66.7519 113.278 77.5938 113.278 86.9255V311.235C113.278 320.567 107.612 324.858 100.616 320.817L18.3783 273.299C11.3827 269.248 5.71631 258.416 5.71631 249.084Z" fill="#AFB5E0"/>
<path d="M19.3279 17.6732C12.7421 13.8726 7.39551 16.9131 7.39551 24.4845V251.315C7.39551 258.886 12.7421 268.108 19.3279 271.919L99.6671 318.337C106.253 322.147 111.599 319.097 111.599 311.526V84.6952C111.599 77.1238 106.253 67.9022 99.6671 64.0915L19.3279 17.6732Z" fill="url(#paint22_linear_0_419)"/>
<path d="M125.471 163.799C123.042 165.199 121.083 163.709 121.083 160.479V142.155C121.083 138.925 123.052 135.164 125.471 133.764C127.899 132.364 129.858 133.854 129.858 137.084V155.408C129.868 158.638 127.899 162.399 125.471 163.799Z" fill="url(#paint23_linear_0_419)"/>
<path d="M13.0718 257.676L103.584 309.575C103.594 241.003 103.644 81.5345 103.644 80.6844L13.0718 28.7551C13.0718 30.3954 13.0718 257.676 13.0718 257.676Z" fill="url(#paint24_linear_0_419)"/>
<path d="M13.0716 63.4313L103.634 115.361C103.644 85.8453 103.644 75.4634 103.644 79.5541L13.0716 27.6249C13.0716 24.9544 12.9917 156.638 12.9717 178.242C12.9717 183.863 12.9717 191.334 12.9717 197.625C13.0017 163.269 13.0716 51.1191 13.0716 63.4313Z" fill="url(#paint25_linear_0_419)"/>
<path d="M91.4017 127.973L22.6452 87.6156C22.6452 94.1268 22.6452 99.2777 22.6353 103.348L91.4017 143.065V127.973V127.973Z" fill="white"/>
<path d="M91.4017 140.965L23.5447 101.768C23.5447 98.1475 23.5447 93.6667 23.5547 88.1457L22.6452 87.6156C22.6452 94.1268 22.6452 99.2777 22.6353 103.348L91.4017 143.065V140.965Z" fill="#AFB5E0"/>
<path d="M91.4017 161.639L22.6452 121.272C22.6452 127.783 22.6452 132.934 22.6353 137.004L91.4017 176.721V161.639Z" fill="white"/>
<path d="M91.4017 174.621L23.5447 135.424C23.5447 131.803 23.5447 127.323 23.5547 121.802L22.6452 121.272C22.6452 127.783 22.6452 132.934 22.6353 137.004L91.4017 176.721V174.621Z" fill="#AFB5E0"/>
<path d="M91.4017 193.424L22.6452 153.057C22.6452 159.568 22.6452 164.719 22.6353 168.79L91.4017 208.507V193.424Z" fill="white"/>
<path d="M91.4017 206.407L23.5447 167.21C23.5447 163.589 23.5447 159.108 23.5547 153.587L22.6452 153.057C22.6452 159.568 22.6452 164.719 22.6353 168.79L91.4017 208.507V206.407Z" fill="#AFB5E0"/>
<path d="M66.2876 211.468L22.6452 185.873C22.6452 192.384 22.6452 197.535 22.6353 201.606L66.2776 226.561V211.468H66.2876Z" fill="white"/>
<path d="M66.2876 224.45L23.5447 200.016C23.5447 196.395 23.5447 191.914 23.5547 186.393L22.6452 185.863C22.6452 192.374 22.6452 197.525 22.6353 201.596L66.2776 226.55V224.45H66.2876Z" fill="#AFB5E0"/>
<path d="M22.6354 91.2163C22.6254 91.8964 22.6254 91.8064 22.6354 91.2163V91.2163Z" fill="url(#paint26_linear_0_419)"/>
<path d="M59.3322 102.018L22.6355 80.9044C22.6355 82.4747 22.6355 83.7549 22.6255 84.415L59.3222 105.529C59.3322 106.309 59.3322 104.229 59.3322 102.018Z" fill="url(#paint27_linear_0_419)"/>
<path d="M59.3322 199.596L22.6355 178.482C22.6355 180.052 22.6355 181.332 22.6255 181.992L59.3222 203.106C59.3322 203.886 59.3322 201.806 59.3322 199.596Z" fill="url(#paint28_linear_0_419)"/>
<path d="M71.994 143.136L22.6452 114.57C22.6452 116.141 22.6452 117.421 22.6353 118.081L71.994 146.646C71.984 147.416 71.984 145.336 71.994 143.136Z" fill="url(#paint29_linear_0_419)"/>
<path d="M22.6354 133.034C22.6254 133.714 22.6254 133.624 22.6354 133.034V133.034Z" fill="url(#paint30_linear_0_419)"/>
<path d="M22.6354 166.36C22.6254 167.03 22.6254 166.94 22.6354 166.36V166.36Z" fill="url(#paint31_linear_0_419)"/>
<path d="M22.6353 150.037L43.8718 162.099C43.8718 162.869 43.8718 160.799 43.8718 158.588L22.6353 146.526C22.6353 148.096 22.6353 149.377 22.6353 150.037Z" fill="url(#paint32_linear_0_419)"/>
<path d="M47.09 179.232C47.08 179.902 47.08 179.812 47.09 179.232V179.232Z" fill="url(#paint33_linear_0_419)"/>
<path d="M91.062 226.23L71.2146 214.378C71.2146 220.889 71.2146 226.04 71.2046 230.111L91.052 241.323V226.23H91.062Z" fill="white"/>
<path d="M91.062 239.223L72.114 228.531C72.114 224.91 72.114 220.429 72.124 214.908L71.2146 214.378C71.2146 220.889 71.2146 226.04 71.2046 230.111L91.052 241.323V239.223H91.062Z" fill="#AFB5E0"/>
<path d="M85.8655 158.798L82.8374 161.569L88.9036 165.079L85.8655 158.798Z" fill="#AFB5E0"/>
<path d="M85.8655 169.51L88.9036 166.73L82.8374 163.229L85.8655 169.51Z" fill="#AFB5E0"/>
<path d="M64.4293 75.7834C64.4293 71.1826 61.4012 65.6416 57.5137 62.8911V80.6743C61.4012 82.4246 64.4293 80.3842 64.4293 75.7834Z" fill="white"/>
<path d="M57.5137 59.7306V61.3509L71.6647 69.5323C72.3942 72.0628 73.7934 74.5832 75.5722 76.5736V88.0056C73.8333 87.9456 72.4542 88.8158 71.7147 90.4261L57.5137 82.2246V83.8449L76.9813 95.0969V70.9926L57.5137 59.7306Z" fill="white"/>
<path d="M50.2686 67.252C50.2686 71.8528 53.2966 77.3938 57.1842 80.1443V62.3611C53.2966 60.6108 50.2686 62.6511 50.2686 67.252Z" fill="white"/>
<path d="M57.184 83.3048V81.6845L43.0329 73.513C42.3034 70.9826 40.9043 68.4621 39.1254 66.4718V55.0397C40.8643 55.0998 42.2434 54.2296 42.983 52.6093L57.184 60.8108V59.1905L37.7163 47.9485V72.0528L57.184 83.3048Z" fill="white"/>
<path d="M152.783 87.2755C152.783 88.6158 152.713 85.3052 152.703 102.978C152.703 112.59 152.703 128.853 152.703 128.973C152.703 135.424 148.566 143.145 143.169 147.206C152.414 152.547 156.241 154.968 172.021 164.079H185.862C185.862 170.21 185.862 175.271 185.862 175.341C185.862 179.782 188.93 182.572 191.909 183.163C191.929 183.163 191.939 183.173 191.959 183.173C192.208 183.223 192.458 183.243 192.718 183.263C192.888 183.273 193.058 183.273 193.238 183.273C193.358 183.273 193.478 183.273 193.598 183.263C194.977 183.163 196.496 182.672 198.095 181.752C199.794 180.772 201.403 179.392 202.852 177.782C204.641 176.141 205.94 174.141 206.879 171.801C208.398 168.72 209.318 165.409 209.318 162.379C209.318 162.319 209.378 161.229 209.378 158.148C209.378 157.408 209.427 120.661 209.427 119.911L152.783 87.2755Z" fill="url(#paint34_linear_0_419)"/>
<g opacity="0.3">
<path opacity="0.0909" d="M158.849 77.3738C153.433 74.2432 149.045 76.7536 149.045 82.9647V101.238C149.045 107.449 153.433 115.03 158.849 118.151L208.358 146.956C213.774 150.087 220.14 147.266 220.14 141.055V122.782C220.14 116.571 213.774 109.309 208.358 106.179L158.849 77.3738Z" fill="url(#paint35_linear_0_419)"/>
<path opacity="0.1818" d="M158.559 77.8138C153.173 74.7033 148.806 77.1937 148.806 83.3748V100.958C148.806 107.139 153.173 114.68 158.559 117.791L207.738 146.406C213.125 149.517 219.271 146.746 219.271 140.555V122.972C219.271 116.791 213.125 109.529 207.738 106.419L158.559 77.8138Z" fill="url(#paint36_linear_0_419)"/>
<path opacity="0.2727" d="M158.27 78.2539C152.913 75.1534 148.566 77.6338 148.566 83.7949V100.688C148.566 106.839 152.913 114.34 158.27 117.441L207.129 145.876C212.485 148.976 218.422 146.246 218.422 140.085V123.192C218.422 117.041 212.495 109.79 207.129 106.689L158.27 78.2539Z" fill="url(#paint37_linear_0_419)"/>
<path opacity="0.3636" d="M157.98 78.684C152.643 75.6035 148.326 78.0739 148.326 84.195V100.398C148.326 106.519 152.653 113.98 157.98 117.061L206.519 145.306C211.856 148.386 217.562 145.696 217.562 139.575V123.372C217.562 117.251 211.856 110.01 206.519 106.929L157.98 78.684Z" fill="url(#paint38_linear_0_419)"/>
<path opacity="0.4545" d="M157.68 79.1241C152.373 76.0535 148.076 78.514 148.076 84.6051V100.108C148.076 106.199 152.373 113.63 157.68 116.691L205.89 144.746C211.196 147.816 216.683 145.166 216.683 139.075V123.572C216.683 117.481 211.196 110.24 205.89 107.179L157.68 79.1241Z" fill="url(#paint39_linear_0_419)"/>
<path opacity="0.5455" d="M157.39 79.5642C152.113 76.5136 147.826 78.9541 147.826 85.0151V99.8278C147.826 105.889 152.103 113.28 157.39 116.331L205.28 144.196C210.556 147.246 215.833 144.646 215.833 138.585V123.772C215.833 117.711 210.566 110.48 205.28 107.429L157.39 79.5642Z" fill="url(#paint40_linear_0_419)"/>
<path opacity="0.6364" d="M157.1 80.0043C151.844 76.9737 147.586 79.3941 147.586 85.4352V99.5577C147.586 105.589 151.844 112.94 157.1 115.981L204.67 143.666C209.927 146.696 214.974 144.146 214.974 138.115V123.992C214.974 117.961 209.927 110.73 204.67 107.699L157.1 80.0043Z" fill="url(#paint41_linear_0_419)"/>
<path opacity="0.7273" d="M156.811 80.4442C151.584 77.4237 147.347 79.8441 147.347 85.8452V99.2776C147.347 105.279 151.584 112.59 156.811 115.61L204.051 143.105C209.277 146.126 214.104 143.615 214.104 137.614V124.182C214.104 118.181 209.277 110.96 204.051 107.939L156.811 80.4442Z" fill="url(#paint42_linear_0_419)"/>
<path opacity="0.8182" d="M156.521 80.8843C151.324 77.8838 147.107 80.2842 147.107 86.2553V98.9875C147.107 104.959 151.324 112.24 156.521 115.24L203.441 142.545C208.638 145.546 213.255 143.085 213.255 137.114V124.382C213.255 118.411 208.648 111.2 203.441 108.189L156.521 80.8843Z" fill="url(#paint43_linear_0_419)"/>
<path opacity="0.9091" d="M156.221 81.3244C151.044 78.3339 146.857 80.7243 146.857 86.6653V98.7075C146.857 104.649 151.054 111.89 156.221 114.88L202.812 142.005C207.988 144.996 212.375 142.565 212.375 136.624V124.582C212.375 118.641 207.988 111.43 202.812 108.439L156.221 81.3244Z" fill="url(#paint44_linear_0_419)"/>
<path opacity="0.3" d="M155.931 81.7645C150.785 78.794 146.617 81.1744 146.617 87.0854V98.4375C146.617 104.349 150.785 111.55 155.931 114.52L202.202 141.455C207.349 144.426 211.516 142.045 211.516 136.134V124.782C211.516 118.871 207.349 111.67 202.202 108.699L155.931 81.7645Z" fill="url(#paint45_linear_0_419)"/>
</g>
<path d="M208.638 144.056L156.651 111.87C152.424 109.429 148.966 102.808 148.966 97.1673L147.207 83.6549C147.207 79.6942 149.885 78.434 152.364 78.1539C153.423 78.0339 154.612 78.3139 155.882 79.0441L208.398 109.57C212.626 112.01 216.083 118.631 216.083 124.272V136.924C216.083 140.085 214.994 142.295 213.295 143.205C211.956 143.916 210.497 145.136 208.638 144.056Z" fill="url(#paint46_linear_0_419)"/>
<path d="M206.829 143.475L154.312 112.95C150.085 110.51 146.627 103.888 146.627 98.2474V85.5951C146.627 79.9541 150.085 77.3337 154.312 79.7741L206.829 110.3C211.056 112.74 214.514 119.361 214.514 125.002V137.654C214.514 143.305 211.056 145.926 206.829 143.475Z" fill="url(#paint47_linear_0_419)"/>
<path d="M206.829 110.31L154.302 79.7842C152.094 78.504 150.105 78.624 148.696 79.8142C150.015 79.1641 151.684 79.2741 153.493 80.3243L206.01 110.85C210.237 113.29 213.695 119.911 213.695 125.552V138.205C213.695 140.905 212.895 142.895 211.616 143.986C213.375 143.115 214.504 140.885 214.504 137.665V125.012C214.514 119.371 211.056 112.75 206.829 110.31Z" fill="url(#paint48_radial_0_419)"/>
<path d="M153.653 102.538C153.183 101.688 152.953 100.728 152.953 99.6577V92.3464C152.953 91.2862 153.183 90.5961 153.653 90.2861C154.122 89.976 154.802 90.076 155.691 90.5861C156.581 91.1062 157.26 91.7863 157.73 92.6365C158.2 93.4866 158.43 94.4468 158.43 95.517V96.9572L156.671 95.9371V94.3568C156.671 93.5166 156.361 92.9165 155.741 92.5565C155.122 92.1964 154.812 92.4364 154.812 93.2866V100.888C154.812 101.718 155.122 102.308 155.741 102.668C156.361 103.028 156.671 102.788 156.671 101.958V99.8778L158.43 100.898V102.828C158.43 103.888 158.2 104.579 157.73 104.889C157.26 105.199 156.581 105.099 155.691 104.589C154.802 104.078 154.122 103.388 153.653 102.538Z" fill="white"/>
<path d="M160.988 93.8467L163.516 95.3069L165.445 110.04L163.586 108.959L163.246 106.059V106.099L161.128 104.879L160.788 107.349L159.059 106.349L160.988 93.8467ZM163.027 104.119L162.197 96.9072L162.167 96.8872L161.358 103.148L163.027 104.119Z" fill="white"/>
<path d="M166.345 96.9373L168.204 98.0174V109.69L171.272 111.46V113.4L166.345 110.55V96.9373Z" fill="white"/>
<path d="M172.691 113.54C172.221 112.69 171.991 111.73 171.991 110.66V103.348C171.991 102.288 172.221 101.598 172.691 101.288C173.16 100.978 173.84 101.078 174.729 101.588C175.619 102.108 176.298 102.788 176.768 103.638C177.238 104.489 177.468 105.449 177.468 106.519V107.959L175.709 106.939V105.359C175.709 104.519 175.399 103.918 174.779 103.558C174.16 103.198 173.85 103.438 173.85 104.289V111.89C173.85 112.72 174.16 113.31 174.779 113.67C175.399 114.03 175.709 113.79 175.709 112.96V110.88L177.468 111.9V113.83C177.468 114.89 177.238 115.581 176.768 115.891C176.298 116.201 175.619 116.101 174.729 115.591C173.84 115.07 173.16 114.39 172.691 113.54Z" fill="white"/>
<path d="M179.236 117.311C178.767 116.451 178.527 115.461 178.527 114.36V103.969L180.386 105.049V115.591C180.386 116.061 180.466 116.441 180.636 116.741C180.795 117.041 181.035 117.281 181.335 117.461C181.645 117.641 181.875 117.671 182.035 117.551C182.195 117.441 182.284 117.151 182.284 116.681V106.139L184.083 107.179V117.571C184.083 118.671 183.844 119.381 183.374 119.701C182.904 120.021 182.215 119.911 181.305 119.391C180.396 118.861 179.706 118.171 179.236 117.311Z" fill="white"/>
<path d="M185.402 107.949L187.261 109.029V120.701L190.329 122.472V124.412L185.402 121.562V107.949Z" fill="white"/>
<path d="M192.738 112.18L195.266 113.64L197.195 128.373L195.336 127.293L194.996 124.392V124.432L192.878 123.212L192.538 125.682L190.809 124.682L192.738 112.18ZM194.767 122.462L193.937 115.25L193.907 115.23L193.098 121.492L194.767 122.462Z" fill="white"/>
<path d="M198.764 117.611L196.815 116.481V114.54L202.572 117.871V119.811L200.623 118.681V130.353L198.764 129.273V117.611Z" fill="white"/>
<path d="M203.471 118.391L208.548 121.332V123.272L205.33 121.412V125.012L207.888 126.493V128.433L205.33 126.953V131.133L208.548 132.994V134.934L203.471 131.994V118.391Z" fill="white"/>
<g opacity="0.3">
<path opacity="0.3" d="M152.793 101.548C144.019 96.4771 136.903 100.538 136.903 110.61V117.471C136.903 127.553 144.019 157.448 152.793 162.519L189.92 182.632C198.694 187.703 194.087 176.781 194.087 166.7V134.844C194.087 124.762 183.454 120.421 174.679 115.35L152.793 101.548Z" fill="url(#paint49_linear_0_419)"/>
<path opacity="0.3" d="M152.603 101.828C143.839 96.7672 136.733 100.818 136.733 110.88V117.071C136.733 127.133 143.839 157.018 152.603 162.079L188.081 181.462C196.845 186.523 193.298 174.631 193.298 164.569V135.654C193.298 125.592 182.994 120.541 174.23 115.47L152.603 101.828Z" fill="url(#paint50_linear_0_419)"/>
<path opacity="0.3" d="M152.403 102.118C143.649 97.0572 136.553 101.108 136.553 111.16V116.681C136.553 126.732 143.649 156.598 152.403 161.659L186.242 180.322C194.996 185.383 192.498 172.511 192.498 162.459V136.484C192.498 126.432 182.524 120.671 173.77 115.621L152.403 102.118Z" fill="url(#paint51_linear_0_419)"/>
<path opacity="0.3" d="M152.213 102.398C143.469 97.3472 136.383 101.388 136.383 111.43V116.281C136.383 126.322 143.469 156.168 152.213 161.219L184.403 179.152C193.147 184.203 191.708 170.36 191.708 160.328V137.304C191.708 127.263 182.064 120.801 173.32 115.751L152.213 102.398Z" fill="url(#paint52_linear_0_419)"/>
<path opacity="0.3" d="M152.024 102.688C143.289 97.6473 136.214 101.678 136.214 111.71V115.891C136.214 125.912 143.289 155.748 152.024 160.799L182.564 178.012C191.299 183.052 190.919 168.25 190.919 158.218V138.125C190.919 128.103 181.605 120.931 172.871 115.881L152.024 102.688Z" fill="url(#paint53_linear_0_419)"/>
<path opacity="0.3" d="M151.834 102.968C143.109 97.9273 136.044 101.968 136.044 111.98V115.49C136.044 125.502 143.109 155.328 151.834 160.358L180.736 176.851C189.46 181.892 190.13 166.109 190.13 156.088V138.945C190.13 128.933 181.145 121.051 172.421 116.021L151.834 102.968Z" fill="url(#paint54_linear_0_419)"/>
<path opacity="0.3" d="M151.634 103.258C142.929 98.2274 135.864 102.258 135.864 112.26V115.1C135.864 125.102 142.919 154.907 151.634 159.938L178.887 175.701C187.591 180.732 189.33 163.979 189.33 153.977V139.775C189.33 129.773 180.675 121.191 171.961 116.161L151.634 103.258Z" fill="url(#paint55_linear_0_419)"/>
<path opacity="0.3" d="M151.444 103.538C142.749 98.5174 135.694 102.538 135.694 112.52V114.69C135.694 124.682 142.749 154.467 151.444 159.488L177.058 174.531C185.752 179.552 188.54 161.829 188.54 151.837V140.585C188.54 130.593 180.216 121.311 171.511 116.281L151.444 103.538Z" fill="url(#paint56_linear_0_419)"/>
<path opacity="0.3" d="M151.254 103.828C142.569 98.8075 135.524 102.828 135.524 112.8V114.3C135.524 124.272 142.569 154.047 151.254 159.068L175.219 173.381C183.903 178.402 187.751 159.698 187.751 149.727V141.415C187.751 131.443 179.746 121.452 171.061 116.431L151.254 103.828Z" fill="url(#paint57_linear_0_419)"/>
<path opacity="0.3" d="M151.064 104.108C142.39 99.0975 135.354 103.108 135.354 113.07V113.89C135.354 123.852 142.39 153.607 151.064 158.628L173.38 172.221C182.054 177.231 186.961 157.558 186.961 147.596V142.225C186.961 132.263 179.286 121.562 170.612 116.551L151.064 104.108Z" fill="url(#paint58_linear_0_419)"/>
<path opacity="0.3" d="M150.874 104.399C142.21 99.3877 135.184 103.398 135.184 113.35V113.5C135.184 123.452 142.21 153.197 150.874 158.198L171.551 171.07C180.216 176.081 186.172 155.428 186.172 145.476V143.045C186.172 133.094 178.826 121.692 170.162 116.681L150.874 104.399Z" fill="url(#paint59_linear_0_419)"/>
<path opacity="0.3" d="M150.674 104.679C142.02 99.6777 135.004 103.678 135.004 113.62V113.1C135.004 123.042 142.02 152.767 150.674 157.768L169.702 169.91C178.357 174.911 185.372 153.287 185.372 143.355V143.876C185.372 133.934 178.357 121.832 169.702 116.831L150.674 104.679Z" fill="#71459D"/>
</g>
<path d="M186.982 175.341C186.982 175.201 186.982 141.035 186.992 131.934C186.802 130.423 186.682 129.513 186.682 129.483C186.442 122.752 181.515 120.121 175.469 123.612C169.433 127.103 164.506 135.424 164.256 142.425C164.256 142.485 164.256 162.119 164.246 167.82C170.632 171.461 190.749 182.963 190.749 182.913C190.749 182.873 190.749 182.823 190.749 182.793C188.441 181.752 186.982 179.172 186.982 175.341Z" fill="url(#paint60_linear_0_419)"/>
<g opacity="0.3">
<path opacity="0.0476" d="M162.147 112.45C153.383 107.379 123.572 113.15 123.572 123.212V224.98C123.572 235.052 118.895 268.488 127.669 273.559L149.426 287.281C158.19 292.352 180.436 274.849 180.436 264.777V169.33C180.436 159.258 190.659 128.313 181.895 123.252L162.147 112.45Z" fill="#CAA4DD"/>
<path opacity="0.0952" d="M160.468 112.26C151.704 107.199 123.042 112.87 123.042 122.932V224.35C123.042 234.412 118.955 266.787 127.709 271.848L149.325 285.491C158.09 290.552 179.566 273.729 179.566 263.667V168.25C179.566 158.188 188.93 128.183 180.166 123.122L160.468 112.26Z" fill="#C6A0DA"/>
<path opacity="0.1429" d="M158.779 112.07C150.025 107.009 122.502 112.6 122.502 122.652V223.72C122.502 233.782 118.995 265.077 127.749 270.138L149.235 283.701C157.99 288.761 178.717 272.609 178.717 262.557V167.18C178.717 157.118 187.221 128.063 178.467 123.002L158.779 112.07Z" fill="#C39DD7"/>
<path opacity="0.1905" d="M157.091 111.89C148.336 106.829 121.953 112.33 121.953 122.382V223.1C121.953 233.151 119.035 263.387 127.779 268.448L149.126 281.94C157.88 287.001 177.837 271.518 177.837 261.467V166.12C177.837 156.068 185.483 127.953 176.728 122.892L157.091 111.89Z" fill="#BF99D3"/>
<path opacity="0.2381" d="M155.412 111.7C146.667 106.649 121.423 112.06 121.423 122.102V222.47C121.423 232.511 119.085 261.687 127.829 266.737L149.036 280.15C157.78 285.201 176.978 270.408 176.978 260.356V165.049C176.978 155.008 183.754 127.833 175.009 122.772L155.412 111.7Z" fill="#BC95D0"/>
<path opacity="0.2857" d="M153.723 111.51C144.978 106.459 120.873 111.78 120.873 121.822V221.839C120.873 231.881 119.125 259.986 127.859 265.037L148.936 278.37C157.68 283.42 176.108 269.298 176.108 259.256V163.979C176.108 153.937 182.025 127.713 173.29 122.662L153.723 111.51Z" fill="#B891CD"/>
<path opacity="0.3333" d="M152.034 111.32C143.299 106.269 120.334 111.51 120.334 121.542V221.199C120.334 231.231 119.165 258.266 127.899 263.317L148.836 276.569C157.57 281.62 175.249 268.168 175.249 258.136V162.899C175.249 152.867 180.306 127.573 171.571 122.532L152.034 111.32Z" fill="#B58ECA"/>
<path opacity="0.381" d="M150.355 111.13C141.63 106.089 119.804 111.23 119.804 121.262V220.569C119.804 230.591 119.224 256.566 127.949 261.607L148.746 274.779C157.47 279.82 174.389 267.048 174.389 257.026V161.819C174.389 151.797 178.587 127.443 169.852 122.402L150.355 111.13Z" fill="#B18AC7"/>
<path opacity="0.4286" d="M148.666 110.94C139.941 105.899 119.254 110.96 119.254 120.972V219.929C119.254 229.951 119.254 254.855 127.979 259.896L148.646 272.989C157.37 278.029 173.52 265.927 173.52 255.906V160.739C173.52 150.717 176.848 127.313 168.123 122.272L148.666 110.94Z" fill="#AE86C4"/>
<path opacity="0.4762" d="M146.977 110.75C138.262 105.709 118.715 110.68 118.715 120.691V219.299C118.715 229.311 119.304 253.145 128.019 258.186L148.546 271.198C157.26 276.239 172.651 264.807 172.651 254.795V159.658C172.651 149.647 175.119 127.183 166.405 122.142L146.977 110.75Z" fill="#AA82C1"/>
<path opacity="0.5238" d="M145.298 110.56C136.584 105.529 118.175 110.41 118.175 120.411V218.669C118.175 228.671 119.345 251.445 128.059 256.476L148.446 269.408C157.161 274.439 171.791 263.687 171.791 253.685V158.588C171.791 148.586 173.4 127.063 164.686 122.022L145.298 110.56Z" fill="#A77FBD"/>
<path opacity="0.5714" d="M143.609 110.37C134.904 105.339 117.635 110.13 117.635 120.131V218.039C117.635 228.041 119.384 249.744 128.099 254.775L148.356 267.628C157.06 272.659 170.931 262.577 170.931 252.585V157.528C170.931 147.526 171.671 126.943 162.967 121.912L143.609 110.37Z" fill="#A37BBA"/>
<path opacity="0.619" d="M141.92 110.18C133.216 105.149 117.086 109.86 117.086 119.851V217.409C117.086 227.4 119.424 248.044 128.129 253.065L148.246 265.837C156.951 270.868 170.052 261.467 170.052 251.475V156.448C170.052 146.456 169.932 126.813 161.238 121.792L141.92 110.18Z" fill="#A077B7"/>
<path opacity="0.6667" d="M140.241 109.99C131.547 104.969 116.556 109.59 116.556 119.571V216.779C116.556 226.76 119.474 246.334 128.169 251.365L148.156 264.057C156.851 269.078 169.193 260.356 169.193 250.365V155.378C169.193 145.396 168.213 126.693 159.519 121.672L140.241 109.99Z" fill="#9C73B4"/>
<path opacity="0.7143" d="M138.552 109.8C129.868 104.779 116.017 109.309 116.017 119.291V216.138C116.017 226.12 119.524 244.624 128.209 249.644L148.056 262.267C156.741 267.288 168.323 259.236 168.323 249.254V154.297C168.323 144.316 166.485 126.563 157.79 121.542L138.552 109.8Z" fill="#9970B1"/>
<path opacity="0.7619" d="M136.873 109.61C128.189 104.589 115.477 109.039 115.477 119.011V215.508C115.477 225.48 119.564 242.923 128.249 247.934L147.956 260.476C156.641 265.497 167.464 258.116 167.464 248.144V153.227C167.464 143.256 164.756 126.443 156.081 121.422L136.873 109.61Z" fill="#956CAE"/>
<path opacity="0.8095" d="M135.184 109.419C126.51 104.409 114.937 108.759 114.937 118.721V214.868C114.937 224.83 119.614 241.203 128.289 246.224L147.866 258.686C156.541 263.697 166.604 256.996 166.604 247.034V152.147C166.604 142.185 163.037 126.302 154.362 121.292L135.184 109.419Z" fill="#9268AB"/>
<path opacity="0.8571" d="M133.496 109.239C124.821 104.229 114.388 108.499 114.388 118.451V214.248C114.388 224.21 119.644 239.513 128.319 244.523L147.757 256.906C156.431 261.917 165.725 255.885 165.725 245.934V151.087C165.725 141.125 161.298 126.192 152.623 121.182L133.496 109.239Z" fill="#8E64A7"/>
<path opacity="0.9048" d="M131.817 109.049C123.152 104.038 113.858 108.219 113.858 118.171V213.618C113.858 223.57 119.704 237.812 128.369 242.823L147.666 255.125C156.331 260.136 164.866 254.775 164.866 244.824V150.007C164.866 140.055 159.579 126.062 150.914 121.051L131.817 109.049Z" fill="#8B61A4"/>
<path opacity="0.9524" d="M130.128 108.859C121.473 103.858 113.318 107.949 113.318 117.891V212.988C113.318 222.93 119.744 236.112 128.409 241.113L147.577 253.335C156.231 258.336 164.016 253.665 164.016 243.713V148.937C164.016 138.995 157.86 125.942 149.206 120.942L130.128 108.859Z" fill="#875DA1"/>
<path opacity="0.3" d="M128.439 108.669C119.784 103.668 112.769 107.669 112.769 117.611V212.358C112.769 222.3 119.784 234.402 128.439 239.403L147.467 251.545C156.121 256.546 163.137 252.545 163.137 242.603V147.856C163.137 137.915 156.121 125.812 147.467 120.811L128.439 108.669Z" fill="#84599E"/>
</g>
<path d="M127.829 91.0162C125.78 89.0158 122.502 88.8458 118.805 90.9862C112.768 94.4768 107.841 102.798 107.592 109.8C107.592 109.83 107.592 113.07 107.582 113.92L107.562 113.91C107.562 115.251 107.482 241.723 107.482 241.853C107.482 248.304 103.344 256.026 97.9478 260.086C107.192 265.427 111.019 267.848 126.799 276.959C126.799 276.959 129.308 279.36 130.537 279.64C130.607 279.69 137.643 283.1 141.75 285.091C141.75 286.991 141.75 288.181 141.75 288.221C141.75 292.662 143.709 295.453 146.687 296.043C146.707 296.043 146.717 296.053 146.737 296.053C146.987 296.103 147.237 296.123 147.496 296.143C147.666 296.153 147.836 296.153 148.016 296.153C148.136 296.153 148.256 296.153 148.376 296.143C149.755 296.043 151.274 295.553 152.873 294.632C154.572 293.652 156.181 292.272 157.63 290.662C159.419 289.021 160.718 287.021 161.657 284.681C163.176 281.6 164.096 278.29 164.096 275.259C164.096 275.199 164.176 274.069 164.176 272.699C164.176 272.048 164.216 172.961 164.226 144.326C164.226 144.286 164.236 144.246 164.236 144.206C164.236 143.105 164.236 142.435 164.236 142.415C164.486 135.404 169.412 127.083 175.449 123.602C177.917 122.172 180.196 121.792 182.054 122.272L127.829 91.0162Z" fill="url(#paint61_linear_0_419)"/>
<path d="M142.64 288.901C142.64 286.691 143.149 284.321 144.029 282.01L85.4058 248.194L83.7869 247.284C82.9174 249.574 82.4277 251.915 82.4277 254.105C82.4277 257.856 84.5264 260.426 86.4152 261.456L145.628 295.773L145.418 295.593C143.689 294.382 142.64 292.092 142.64 288.901Z" fill="url(#paint62_linear_0_419)"/>
<path d="M163.756 167.91L107.562 134.924C107.562 140.245 107.562 133.324 107.552 136.654L163.746 169.12V167.91H163.756Z" fill="white"/>
<path d="M163.756 216.869L107.562 183.883C107.562 189.204 107.562 182.282 107.552 185.613L163.746 218.079V216.869H163.756Z" fill="white"/>
<path d="M112.838 97.5373L168.343 129.463C168.553 129.163 168.763 128.873 168.983 128.593L113.728 96.3671C113.428 96.7371 113.128 97.1372 112.838 97.5373Z" fill="white"/>
<path d="M163.756 263.617L107.562 230.631C107.562 235.952 107.562 229.031 107.552 232.361L163.746 264.827V263.617H163.756Z" fill="white"/>
<path d="M127.669 121.632L125.59 120.431V118.361L131.726 121.902V123.972L129.648 122.772V135.194L127.659 134.044V121.632H127.669Z" fill="url(#paint63_linear_0_419)"/>
<path d="M133.386 122.862L136.074 124.412L138.133 140.095L136.144 138.945L135.784 135.854V135.894L133.536 134.594L133.176 137.225L131.337 136.164L133.386 122.862ZM135.544 133.804L134.665 126.133L134.625 126.113L133.755 132.774L135.544 133.804Z" fill="url(#paint64_linear_0_419)"/>
<path d="M140.871 134.264L138.692 125.922L140.781 127.133L142.11 132.584L142.15 132.604L143.519 128.713L145.398 129.793L143.219 135.614L145.508 144.356L143.419 143.146L141.98 137.265L141.94 137.244L140.461 141.445L138.582 140.365L140.871 134.264Z" fill="url(#paint65_linear_0_419)"/>
<path d="M125.87 164.759L128.359 166.2L130.287 175.991L130.327 176.011V167.33L132.096 168.35V182.853L130.057 181.672L127.679 169.71L127.639 169.69V180.272L125.87 179.252V164.759V164.759Z" fill="url(#paint66_linear_0_419)"/>
<path d="M133.575 169.21L138.982 172.341V174.411L135.554 172.431V176.261L138.272 177.832V179.902L135.554 178.332V182.783L138.982 184.763V186.833L133.575 183.703V169.21Z" fill="url(#paint67_linear_0_419)"/>
<path d="M141.67 175.961L139.591 174.761V172.691L145.727 176.231V178.302L143.649 177.102V189.524L141.66 188.384V175.961H141.67Z" fill="url(#paint68_linear_0_419)"/>
<path d="M126.08 211.118L128.079 212.278L129.378 224.27L129.418 224.29L130.717 213.788L132.536 214.838L130.627 228.231L127.999 226.71L126.08 211.118Z" fill="url(#paint69_linear_0_419)"/>
<path d="M134.525 215.989L137.213 217.539L139.272 233.222L137.283 232.071L136.923 228.981V229.041L134.675 227.741L134.315 230.371L132.476 229.311L134.525 215.989ZM136.683 226.94L135.804 219.269L135.764 219.249L134.895 225.92L136.683 226.94Z" fill="url(#paint70_linear_0_419)"/>
<path d="M140.941 221.769L138.862 220.569V218.499L144.998 222.04V224.11L142.919 222.91V235.332L140.931 234.182V221.769H140.941Z" fill="url(#paint71_linear_0_419)"/>
<path d="M130.067 255.516C129.698 254.925 129.488 254.295 129.458 253.625C129.448 253.435 129.448 253.195 129.448 252.895C129.448 252.575 129.448 252.315 129.458 252.125C129.498 251.475 129.688 251.065 130.047 250.885C130.407 250.705 130.907 250.795 131.556 251.175C132.206 251.545 132.706 252.035 133.065 252.625C133.425 253.225 133.625 253.865 133.665 254.555C133.685 254.955 133.695 255.215 133.695 255.346C133.695 255.466 133.685 255.706 133.665 256.056C133.625 256.676 133.425 257.076 133.055 257.236C132.686 257.396 132.186 257.296 131.556 256.936C130.937 256.586 130.437 256.106 130.067 255.516ZM130.187 261.687C130.127 261.597 130.107 261.497 130.107 261.407C130.107 261.337 130.127 261.297 130.167 261.257L137.103 254.765C137.183 254.705 137.253 254.665 137.313 254.655C137.383 254.645 137.473 254.675 137.593 254.745L138.342 255.175C138.432 255.225 138.512 255.305 138.562 255.396C138.612 255.486 138.642 255.576 138.642 255.676C138.642 255.736 138.622 255.786 138.582 255.816L131.646 262.307C131.576 262.367 131.496 262.407 131.437 262.417C131.367 262.427 131.277 262.397 131.167 262.337L130.417 261.907C130.317 261.847 130.247 261.777 130.187 261.687ZM132.146 255.796C132.276 255.686 132.346 255.496 132.376 255.235C132.396 254.875 132.406 254.655 132.406 254.575C132.406 254.455 132.396 254.235 132.376 253.895C132.356 253.605 132.286 253.325 132.146 253.065C132.016 252.805 131.816 252.595 131.546 252.435C131.287 252.285 131.087 252.265 130.957 252.375C130.827 252.485 130.747 252.675 130.727 252.945C130.717 253.105 130.717 253.315 130.717 253.595C130.717 253.865 130.717 254.095 130.727 254.285C130.747 254.565 130.817 254.835 130.947 255.095C131.077 255.356 131.277 255.566 131.546 255.726C131.826 255.886 132.026 255.906 132.146 255.796ZM135.694 264.457C135.324 263.847 135.114 263.207 135.084 262.527C135.074 262.337 135.074 262.097 135.074 261.797C135.074 261.487 135.074 261.237 135.084 261.047C135.124 260.396 135.324 259.986 135.674 259.806C136.034 259.626 136.533 259.716 137.173 260.096C137.832 260.476 138.332 260.967 138.692 261.557C139.052 262.147 139.242 262.787 139.282 263.477C139.302 263.877 139.312 264.137 139.312 264.257C139.312 264.377 139.302 264.617 139.282 264.967C139.242 265.607 139.042 266.007 138.672 266.187C138.302 266.367 137.802 266.277 137.173 265.907C136.553 265.547 136.064 265.067 135.694 264.457ZM137.782 264.717C137.912 264.607 137.982 264.417 138.002 264.157C138.022 263.807 138.032 263.577 138.032 263.477C138.032 263.367 138.022 263.147 138.002 262.817C137.982 262.527 137.912 262.247 137.772 261.987C137.643 261.727 137.443 261.517 137.163 261.357C136.903 261.207 136.703 261.187 136.573 261.297C136.443 261.407 136.363 261.597 136.343 261.867C136.333 262.027 136.333 262.237 136.333 262.507C136.333 262.787 136.333 263.027 136.343 263.207C136.363 263.487 136.433 263.757 136.563 264.017C136.693 264.277 136.893 264.487 137.163 264.647C137.453 264.807 137.663 264.837 137.782 264.717Z" fill="url(#paint72_linear_0_419)"/>
<g opacity="0.3">
<path opacity="0.0909" d="M41.5239 227.931C37.7463 225.75 34.6782 227.491 34.6782 231.831V244.594C34.6782 248.934 37.7463 254.225 41.5239 256.406L71.1351 273.819C74.9127 275.999 79.3599 274.039 79.3599 269.698V256.946C79.3599 252.605 74.9127 247.534 71.1351 245.354L41.5239 227.931Z" fill="url(#paint73_linear_0_419)"/>
<path opacity="0.1818" d="M41.3137 228.241C37.5561 226.07 34.498 227.811 34.498 232.131V244.414C34.498 248.734 37.5461 253.995 41.3137 256.176L70.6951 273.459C74.4527 275.629 78.75 273.699 78.75 269.378V257.096C78.75 252.775 74.4527 247.704 70.6951 245.534L41.3137 228.241Z" fill="url(#paint74_linear_0_419)"/>
<path opacity="0.2727" d="M41.1141 228.541C37.3665 226.38 34.3384 228.111 34.3384 232.411V244.214C34.3384 248.514 37.3765 253.755 41.1141 255.916L70.2756 273.069C74.0232 275.229 78.1606 273.329 78.1606 269.028V257.226C78.1606 252.925 74.0232 247.864 70.2756 245.704L41.1141 228.541Z" fill="url(#paint75_linear_0_419)"/>
<path opacity="0.3636" d="M40.9044 228.851C37.1768 226.7 34.1587 228.421 34.1587 232.702V244.014C34.1587 248.294 37.1768 253.505 40.9044 255.656L69.8361 272.679C73.5637 274.829 77.5512 272.959 77.5512 268.678V257.366C77.5512 253.085 73.5637 248.034 69.8361 245.874L40.9044 228.851Z" fill="url(#paint76_linear_0_419)"/>
<path opacity="0.4545" d="M40.7043 229.161C36.9966 227.02 33.9985 228.731 33.9985 232.991V243.823C33.9985 248.084 37.0066 253.265 40.7043 255.405L69.4061 272.298C73.1137 274.439 76.9513 272.599 76.9513 268.338V257.506C76.9513 253.245 73.1137 248.194 69.4061 246.054L40.7043 229.161Z" fill="url(#paint77_linear_0_419)"/>
<path opacity="0.5455" d="M40.5044 229.461C36.8167 227.33 33.8286 229.041 33.8286 233.272V243.623C33.8286 247.854 36.8167 253.015 40.5044 255.145L68.9863 271.908C72.674 274.039 76.3517 272.228 76.3517 267.988V257.646C76.3517 253.415 72.674 248.364 68.9863 246.234L40.5044 229.461Z" fill="url(#paint78_linear_0_419)"/>
<path opacity="0.6364" d="M40.2947 229.771C36.627 227.651 33.6489 229.351 33.6489 233.562V243.423C33.6489 247.634 36.627 252.775 40.2947 254.895L68.5468 271.528C72.2145 273.649 75.7423 271.868 75.7423 267.648V257.786C75.7423 253.575 72.2145 248.524 68.5468 246.404L40.2947 229.771Z" fill="url(#paint79_linear_0_419)"/>
<path opacity="0.7273" d="M40.0946 230.081C36.4469 227.971 33.4888 229.661 33.4888 233.852V243.233C33.4888 247.424 36.4469 252.535 40.0946 254.645L68.1268 271.148C71.7745 273.259 75.1524 271.498 75.1524 267.308V257.926C75.1524 253.735 71.7745 248.694 68.1268 246.584L40.0946 230.081Z" fill="url(#paint80_linear_0_419)"/>
<path opacity="0.8182" d="M39.8849 230.381C36.2572 228.281 33.3091 229.961 33.3091 234.132V243.023C33.3091 247.194 36.2572 252.275 39.8849 254.375L67.6873 270.748C71.315 272.849 74.543 271.118 74.543 266.948V258.056C74.543 253.885 71.325 248.844 67.6873 246.744L39.8849 230.381Z" fill="url(#paint81_linear_0_419)"/>
<path opacity="0.9091" d="M39.685 230.691C36.0673 228.601 33.1392 230.271 33.1392 234.422V242.833C33.1392 246.984 36.0673 252.035 39.685 254.125L67.2576 270.368C70.8753 272.459 73.9433 270.758 73.9433 266.618V258.206C73.9433 254.055 70.8753 249.024 67.2576 246.934L39.685 230.691Z" fill="url(#paint82_linear_0_419)"/>
<path opacity="0.3" d="M39.4751 231.001C35.8774 228.921 32.9692 230.591 32.9692 234.712V242.643C32.9692 246.774 35.8874 251.805 39.4751 253.875L66.8278 269.988C70.4255 272.068 73.3337 270.398 73.3337 266.277V258.346C73.3337 254.215 70.4155 249.184 66.8278 247.114L39.4751 231.001Z" fill="url(#paint83_linear_0_419)"/>
</g>
<path d="M72.5242 274.339L39.2852 253.385C36.1772 251.585 33.6388 246.724 33.6388 242.583L32.3496 232.651C32.3496 229.741 34.3184 228.821 36.1372 228.611C36.9167 228.521 37.7862 228.731 38.7156 229.261L72.3343 248.994C75.4423 250.795 77.9807 255.656 77.9807 259.796V269.088C77.9807 271.408 77.1812 273.039 75.932 273.699C74.9626 274.229 73.8833 275.129 72.5242 274.339Z" fill="url(#paint84_linear_0_419)"/>
<path d="M71.1948 273.909L37.5761 254.175C34.4681 252.375 31.9297 247.514 31.9297 243.373V234.082C31.9297 229.931 34.4681 228.011 37.5761 229.811L71.1948 249.544C74.3028 251.345 76.8412 256.206 76.8412 260.346V269.638C76.8412 273.779 74.3028 275.699 71.1948 273.909Z" fill="url(#paint85_linear_0_419)"/>
<path d="M71.1946 249.534L37.5759 229.801C35.9569 228.861 34.4878 228.951 33.4585 229.821C34.4279 229.341 35.6471 229.421 36.9863 230.191L70.605 249.925C73.713 251.725 76.2514 256.586 76.2514 260.726V270.018C76.2514 271.998 75.6618 273.469 74.7224 274.269C76.0115 273.629 76.851 271.988 76.851 269.618V260.326C76.841 256.196 74.3026 251.335 71.1946 249.534Z" fill="url(#paint86_radial_0_419)"/>
<path d="M44.9814 239.083L47.9196 240.783C48.909 241.353 49.6585 242.093 50.1482 242.993C50.6479 243.893 50.8877 244.934 50.8877 246.114V247.554C50.8877 248.734 50.6379 249.484 50.1482 249.814C49.6485 250.134 48.909 250.014 47.9196 249.444L46.9802 248.894V254.835L44.9814 253.685V239.083ZM47.9296 247.354C48.2594 247.544 48.4992 247.584 48.6691 247.464C48.829 247.354 48.919 247.044 48.919 246.544V244.814C48.919 244.313 48.839 243.913 48.6691 243.613C48.5092 243.313 48.2594 243.063 47.9296 242.873L46.9902 242.323V246.804L47.9296 247.354Z" fill="white"/>
<path d="M52.8966 243.663L55.6049 245.224L57.6736 261.016L55.6748 259.866L55.3151 256.756V256.796L53.0465 255.485L52.6867 258.136L50.8379 257.066L52.8966 243.663ZM55.0752 254.675L54.1858 246.944L54.1458 246.924L53.2764 253.635L55.0752 254.675Z" fill="white"/>
<path d="M59.6323 255.936L57.2139 246.164L59.3425 247.394L60.7017 253.535L60.7416 253.555L62.1008 248.984L64.0395 250.105L61.6211 257.086V263.297L59.6223 262.147V255.936H59.6323Z" fill="white"/>
</g>
<defs>
<linearGradient id="paint0_linear_0_419" x1="18.0331" y1="2.08825" x2="123.19" y2="326.439" gradientUnits="userSpaceOnUse">
<stop stop-color="#B0B6E1"/>
<stop offset="0.1919" stop-color="#B2B7E1"/>
<stop offset="0.2828" stop-color="#B3B9E1"/>
<stop offset="0.4091" stop-color="#AFB5E0"/>
<stop offset="0.9091" stop-color="#AFB5E0"/>
<stop offset="1" stop-color="#B0B6E1"/>
</linearGradient>
<linearGradient id="paint1_linear_0_419" x1="17.9304" y1="2.13142" x2="123.084" y2="326.473" gradientUnits="userSpaceOnUse">
<stop stop-color="#B2B8E1"/>
<stop offset="0.1919" stop-color="#B4BAE3"/>
<stop offset="0.2828" stop-color="#B7BCE3"/>
<stop offset="0.4091" stop-color="#AFB5E0"/>
<stop offset="0.9091" stop-color="#AFB5E0"/>
<stop offset="1" stop-color="#B2B8E1"/>
</linearGradient>
<linearGradient id="paint2_linear_0_419" x1="17.8276" y1="2.17436" x2="122.979" y2="326.507" gradientUnits="userSpaceOnUse">
<stop stop-color="#B3B9E2"/>
<stop offset="0.1919" stop-color="#B7BCE4"/>
<stop offset="0.2828" stop-color="#BAC0E4"/>
<stop offset="0.4091" stop-color="#AFB5E0"/>
<stop offset="0.9091" stop-color="#AFB5E0"/>
<stop offset="1" stop-color="#B3B9E2"/>
</linearGradient>
<linearGradient id="paint3_linear_0_419" x1="17.725" y1="2.21744" x2="122.873" y2="326.542" gradientUnits="userSpaceOnUse">
<stop stop-color="#B5BAE3"/>
<stop offset="0.1919" stop-color="#B9BFE5"/>
<stop offset="0.2828" stop-color="#BEC3E6"/>
<stop offset="0.4091" stop-color="#AFB5E0"/>
<stop offset="0.9091" stop-color="#AFB5E0"/>
<stop offset="1" stop-color="#B5BAE3"/>
</linearGradient>
<linearGradient id="paint4_linear_0_419" x1="17.6223" y1="2.26038" x2="122.767" y2="326.576" gradientUnits="userSpaceOnUse">
<stop stop-color="#B6BCE4"/>
<stop offset="0.1919" stop-color="#BCC1E7"/>
<stop offset="0.2828" stop-color="#C2C7E7"/>
<stop offset="0.4091" stop-color="#AFB5E0"/>
<stop offset="0.9091" stop-color="#AFB5E0"/>
<stop offset="1" stop-color="#B6BCE4"/>
</linearGradient>
<linearGradient id="paint5_linear_0_419" x1="17.5195" y1="2.30346" x2="122.662" y2="326.61" gradientUnits="userSpaceOnUse">
<stop stop-color="#B8BDE4"/>
<stop offset="0.1919" stop-color="#BEC4E8"/>
<stop offset="0.2828" stop-color="#C6CAE9"/>
<stop offset="0.3927" stop-color="#B2B8E1"/>
<stop offset="0.4091" stop-color="#AFB5E0"/>
<stop offset="0.9091" stop-color="#AFB5E0"/>
<stop offset="1" stop-color="#B8BDE4"/>
</linearGradient>
<linearGradient id="paint6_linear_0_419" x1="17.4169" y1="2.3464" x2="122.556" y2="326.644" gradientUnits="userSpaceOnUse">
<stop stop-color="#B9BEE5"/>
<stop offset="0.1919" stop-color="#C1C6E9"/>
<stop offset="0.2828" stop-color="#CACEEA"/>
<stop offset="0.3784" stop-color="#B6BCE3"/>
<stop offset="0.4091" stop-color="#AFB5E0"/>
<stop offset="0.9091" stop-color="#AFB5E0"/>
<stop offset="1" stop-color="#B9BEE5"/>
</linearGradient>
<linearGradient id="paint7_linear_0_419" x1="17.3141" y1="2.38957" x2="122.451" y2="326.678" gradientUnits="userSpaceOnUse">
<stop stop-color="#BAC0E6"/>
<stop offset="0.1919" stop-color="#C4C8EB"/>
<stop offset="0.2828" stop-color="#CDD1EC"/>
<stop offset="0.37" stop-color="#B9BFE4"/>
<stop offset="0.4091" stop-color="#AFB5E0"/>
<stop offset="0.9091" stop-color="#AFB5E0"/>
<stop offset="0.999" stop-color="#BAC0E6"/>
<stop offset="1" stop-color="#BAC0E6"/>
</linearGradient>
<linearGradient id="paint8_linear_0_419" x1="17.2114" y1="2.43252" x2="122.345" y2="326.713" gradientUnits="userSpaceOnUse">
<stop stop-color="#BCC1E6"/>
<stop offset="0.1919" stop-color="#C6CBEC"/>
<stop offset="0.277" stop-color="#D0D4ED"/>
<stop offset="0.2828" stop-color="#D1D5ED"/>
<stop offset="0.361" stop-color="#BDC3E6"/>
<stop offset="0.4091" stop-color="#AFB5E0"/>
<stop offset="0.9091" stop-color="#AFB5E0"/>
<stop offset="0.9881" stop-color="#BABFE5"/>
<stop offset="1" stop-color="#BCC1E6"/>
</linearGradient>
<linearGradient id="paint9_linear_0_419" x1="17.1088" y1="2.47559" x2="122.24" y2="326.747" gradientUnits="userSpaceOnUse">
<stop stop-color="#BDC2E7"/>
<stop offset="0.1919" stop-color="#C9CDED"/>
<stop offset="0.2716" stop-color="#D3D6EF"/>
<stop offset="0.2828" stop-color="#D5D8EF"/>
<stop offset="0.3538" stop-color="#C1C6E7"/>
<stop offset="0.4091" stop-color="#AFB5E0"/>
<stop offset="0.9091" stop-color="#AFB5E0"/>
<stop offset="0.9836" stop-color="#BABFE5"/>
<stop offset="1" stop-color="#BDC2E7"/>
</linearGradient>
<linearGradient id="paint10_linear_0_419" x1="17.0061" y1="2.51853" x2="122.134" y2="326.781" gradientUnits="userSpaceOnUse">
<stop stop-color="#BFC4E8"/>
<stop offset="0.1919" stop-color="#CBD0EF"/>
<stop offset="0.2627" stop-color="#D5D9F0"/>
<stop offset="0.2828" stop-color="#D9DCF0"/>
<stop offset="0.3478" stop-color="#C5CAE9"/>
<stop offset="0.4091" stop-color="#AFB5E0"/>
<stop offset="0.9091" stop-color="#AFB5E0"/>
<stop offset="0.9763" stop-color="#BABFE5"/>
<stop offset="1" stop-color="#BFC4E8"/>
</linearGradient>
<linearGradient id="paint11_linear_0_419" x1="16.9033" y1="2.5616" x2="122.028" y2="326.815" gradientUnits="userSpaceOnUse">
<stop stop-color="#C0C5E9"/>
<stop offset="0.1919" stop-color="#CED2F0"/>
<stop offset="0.2591" stop-color="#D8DBF1"/>
<stop offset="0.2828" stop-color="#DDDFF2"/>
<stop offset="0.3431" stop-color="#C9CDEA"/>
<stop offset="0.4091" stop-color="#AFB5E0"/>
<stop offset="0.9091" stop-color="#AFB5E0"/>
<stop offset="0.9732" stop-color="#BABFE6"/>
<stop offset="1" stop-color="#C0C5E9"/>
</linearGradient>
<linearGradient id="paint12_linear_0_419" x1="16.8007" y1="2.60455" x2="121.923" y2="326.849" gradientUnits="userSpaceOnUse">
<stop stop-color="#C2C6E9"/>
<stop offset="0.1919" stop-color="#D0D5F1"/>
<stop offset="0.253" stop-color="#DADDF2"/>
<stop offset="0.2828" stop-color="#E1E3F3"/>
<stop offset="0.3388" stop-color="#CDD1EC"/>
<stop offset="0.4091" stop-color="#AFB5E0"/>
<stop offset="0.9091" stop-color="#AFB5E0"/>
<stop offset="0.9679" stop-color="#BABFE5"/>
<stop offset="1" stop-color="#C2C6E9"/>
</linearGradient>
<linearGradient id="paint13_linear_0_419" x1="16.6979" y1="2.64762" x2="121.817" y2="326.884" gradientUnits="userSpaceOnUse">
<stop stop-color="#C3C8EA"/>
<stop offset="0.1919" stop-color="#D3D7F3"/>
<stop offset="0.253" stop-color="#DDE0F4"/>
<stop offset="0.2828" stop-color="#E4E6F5"/>
<stop offset="0.3361" stop-color="#D0D4ED"/>
<stop offset="0.4091" stop-color="#AFB5E0"/>
<stop offset="0.9091" stop-color="#AFB5E0"/>
<stop offset="0.9656" stop-color="#BABFE5"/>
<stop offset="1" stop-color="#C3C8EA"/>
</linearGradient>
<linearGradient id="paint14_linear_0_419" x1="16.5952" y1="2.69067" x2="121.712" y2="326.918" gradientUnits="userSpaceOnUse">
<stop stop-color="#C4C9EB"/>
<stop offset="0.1919" stop-color="#D6D9F4"/>
<stop offset="0.2504" stop-color="#E0E3F5"/>
<stop offset="0.2828" stop-color="#E8EAF6"/>
<stop offset="0.3328" stop-color="#D4D8EE"/>
<stop offset="0.4091" stop-color="#AFB5E0"/>
<stop offset="0.9091" stop-color="#AFB5E0"/>
<stop offset="0.9635" stop-color="#BABFE6"/>
<stop offset="1" stop-color="#C4C9EB"/>
</linearGradient>
<linearGradient id="paint15_linear_0_419" x1="16.4926" y1="2.73373" x2="121.606" y2="326.952" gradientUnits="userSpaceOnUse">
<stop stop-color="#C6CAEB"/>
<stop offset="0.1919" stop-color="#D8DCF5"/>
<stop offset="0.2458" stop-color="#E2E5F7"/>
<stop offset="0.2828" stop-color="#ECEDF8"/>
<stop offset="0.3299" stop-color="#D8DBF0"/>
<stop offset="0.4091" stop-color="#AFB5E0"/>
<stop offset="0.9091" stop-color="#AFB5E0"/>
<stop offset="0.9597" stop-color="#BABFE5"/>
<stop offset="1" stop-color="#C6CAEB"/>
</linearGradient>
<linearGradient id="paint16_linear_0_419" x1="16.3898" y1="2.77668" x2="121.501" y2="326.986" gradientUnits="userSpaceOnUse">
<stop stop-color="#C7CCEC"/>
<stop offset="0.1919" stop-color="#DBDEF7"/>
<stop offset="0.2439" stop-color="#E5E7F8"/>
<stop offset="0.2828" stop-color="#F0F1F9"/>
<stop offset="0.3274" stop-color="#DCDFF1"/>
<stop offset="0.4091" stop-color="#AFB5E0"/>
<stop offset="0.9091" stop-color="#AFB5E0"/>
<stop offset="0.9581" stop-color="#BABFE5"/>
<stop offset="1" stop-color="#C7CCEC"/>
</linearGradient>
<linearGradient id="paint17_linear_0_419" x1="16.2871" y1="2.81974" x2="121.395" y2="327.02" gradientUnits="userSpaceOnUse">
<stop stop-color="#C9CDED"/>
<stop offset="0.1919" stop-color="#DDE1F8"/>
<stop offset="0.2404" stop-color="#E7E9F9"/>
<stop offset="0.2828" stop-color="#F4F4FB"/>
<stop offset="0.3252" stop-color="#E0E2F3"/>
<stop offset="0.4091" stop-color="#AFB5E0"/>
<stop offset="0.9091" stop-color="#AFB5E0"/>
<stop offset="0.9551" stop-color="#BABFE5"/>
<stop offset="1" stop-color="#C9CDED"/>
</linearGradient>
<linearGradient id="paint18_linear_0_419" x1="16.1845" y1="2.8627" x2="121.29" y2="327.055" gradientUnits="userSpaceOnUse">
<stop stop-color="#CACEEE"/>
<stop offset="0.1919" stop-color="#E0E3F9"/>
<stop offset="0.2404" stop-color="#EAECFA"/>
<stop offset="0.2828" stop-color="#F7F8FC"/>
<stop offset="0.3236" stop-color="#E3E6F4"/>
<stop offset="0.4066" stop-color="#B1B7E1"/>
<stop offset="0.4091" stop-color="#AFB5E0"/>
<stop offset="0.9091" stop-color="#AFB5E0"/>
<stop offset="0.9539" stop-color="#BABFE6"/>
<stop offset="1" stop-color="#CACEEE"/>
</linearGradient>
<linearGradient id="paint19_linear_0_419" x1="16.0817" y1="2.90576" x2="121.184" y2="327.089" gradientUnits="userSpaceOnUse">
<stop stop-color="#CCD0EE"/>
<stop offset="0.1919" stop-color="#E2E6FB"/>
<stop offset="0.2374" stop-color="#ECEEFC"/>
<stop offset="0.2828" stop-color="#FBFBFE"/>
<stop offset="0.3217" stop-color="#E7E9F6"/>
<stop offset="0.4009" stop-color="#B5BAE2"/>
<stop offset="0.4091" stop-color="#AFB5E0"/>
<stop offset="0.9091" stop-color="#AFB5E0"/>
<stop offset="0.9514" stop-color="#BABFE5"/>
<stop offset="1" stop-color="#CCD0EE"/>
</linearGradient>
<linearGradient id="paint20_linear_0_419" x1="15.9791" y1="2.94882" x2="121.078" y2="327.123" gradientUnits="userSpaceOnUse">
<stop stop-color="#CDD1EF"/>
<stop offset="0.1919" stop-color="#E5E8FC"/>
<stop offset="0.2361" stop-color="#EFF1FD"/>
<stop offset="0.2828" stop-color="white"/>
<stop offset="0.3201" stop-color="#EBEDF7"/>
<stop offset="0.3957" stop-color="#B9BEE4"/>
<stop offset="0.4091" stop-color="#AFB5E0"/>
<stop offset="0.9091" stop-color="#AFB5E0"/>
<stop offset="0.9503" stop-color="#BABFE5"/>
<stop offset="1" stop-color="#CDD1EF"/>
</linearGradient>
<linearGradient id="paint21_linear_0_419" x1="-150.584" y1="254.046" x2="219.801" y2="102.596" gradientUnits="userSpaceOnUse">
<stop stop-color="#AFB5E0"/>
<stop offset="0.1449" stop-color="#B6BBE3"/>
<stop offset="0.3485" stop-color="#C8CCED"/>
<stop offset="0.5808" stop-color="#E5E8FC"/>
<stop offset="0.8551" stop-color="#F5F6FE"/>
<stop offset="1" stop-color="white"/>
</linearGradient>
<linearGradient id="paint22_linear_0_419" x1="-6.44153" y1="42.171" x2="157.422" y2="354.374" gradientUnits="userSpaceOnUse">
<stop offset="0.00505051" stop-color="#2B3A91"/>
<stop offset="0.2402" stop-color="#2F2A9B"/>
<stop offset="0.399" stop-color="#321DA4"/>
<stop offset="0.7924" stop-color="#3F1081"/>
<stop offset="1" stop-color="#47086C"/>
</linearGradient>
<linearGradient id="paint23_linear_0_419" x1="143.74" y1="158.573" x2="90.4342" y2="130.04" gradientUnits="userSpaceOnUse">
<stop stop-color="#AFB5E0"/>
<stop offset="0.1449" stop-color="#B6BBE3"/>
<stop offset="0.3485" stop-color="#C8CCED"/>
<stop offset="0.5808" stop-color="#E5E8FC"/>
<stop offset="0.8551" stop-color="#F5F6FE"/>
<stop offset="1" stop-color="white"/>
</linearGradient>
<linearGradient id="paint24_linear_0_419" x1="15.1292" y1="244.043" x2="102.311" y2="93.1615" gradientUnits="userSpaceOnUse">
<stop stop-color="#CED2F0"/>
<stop offset="0.0127" stop-color="#D3D7F3"/>
<stop offset="0.0563" stop-color="#E1E4FA"/>
<stop offset="0.096" stop-color="#E5E8FC"/>
<stop offset="0.253" stop-color="#EAECFD"/>
<stop offset="1" stop-color="white"/>
</linearGradient>
<linearGradient id="paint25_linear_0_419" x1="140.558" y1="148.314" x2="-17.8185" y2="104.033" gradientUnits="userSpaceOnUse">
<stop stop-color="#1E2B5C"/>
<stop offset="1" stop-color="#738EBD"/>
</linearGradient>
<linearGradient id="paint26_linear_0_419" x1="22.8216" y1="91.8325" x2="22.4887" y2="91.1818" gradientUnits="userSpaceOnUse">
<stop offset="0.00505051" stop-color="#C1F471"/>
<stop offset="0.0792" stop-color="#9DE38E"/>
<stop offset="0.202" stop-color="#5AC3C3"/>
<stop offset="0.3977" stop-color="#5A9BD9"/>
<stop offset="0.596" stop-color="#5A76EE"/>
<stop offset="0.6727" stop-color="#6375EE"/>
<stop offset="0.7973" stop-color="#7B74ED"/>
<stop offset="0.9534" stop-color="#A272EB"/>
<stop offset="1" stop-color="#AF71EB"/>
</linearGradient>
<linearGradient id="paint27_linear_0_419" x1="58.5999" y1="127.71" x2="28.3325" y2="68.5601" gradientUnits="userSpaceOnUse">
<stop offset="0.00505051" stop-color="#C1F471"/>
<stop offset="0.0792" stop-color="#9DE38E"/>
<stop offset="0.202" stop-color="#5AC3C3"/>
<stop offset="0.3977" stop-color="#5A9BD9"/>
<stop offset="0.596" stop-color="#5A76EE"/>
<stop offset="0.6727" stop-color="#6375EE"/>
<stop offset="0.7973" stop-color="#7B74ED"/>
<stop offset="0.9534" stop-color="#A272EB"/>
<stop offset="1" stop-color="#AF71EB"/>
</linearGradient>
<linearGradient id="paint28_linear_0_419" x1="58.5998" y1="225.286" x2="28.3326" y2="166.137" gradientUnits="userSpaceOnUse">
<stop offset="0.00505051" stop-color="#C1F471"/>
<stop offset="0.0792" stop-color="#9DE38E"/>
<stop offset="0.202" stop-color="#5AC3C3"/>
<stop offset="0.3977" stop-color="#5A9BD9"/>
<stop offset="0.596" stop-color="#5A76EE"/>
<stop offset="0.6727" stop-color="#6375EE"/>
<stop offset="0.7973" stop-color="#7B74ED"/>
<stop offset="0.9534" stop-color="#A272EB"/>
<stop offset="1" stop-color="#AF71EB"/>
</linearGradient>
<linearGradient id="paint29_linear_0_419" x1="70.5523" y1="176.1" x2="30.6075" y2="98.0383" gradientUnits="userSpaceOnUse">
<stop offset="0.00505051" stop-color="#C1F471"/>
<stop offset="0.0792" stop-color="#9DE38E"/>
<stop offset="0.202" stop-color="#5AC3C3"/>
<stop offset="0.3977" stop-color="#5A9BD9"/>
<stop offset="0.596" stop-color="#5A76EE"/>
<stop offset="0.6727" stop-color="#6375EE"/>
<stop offset="0.7973" stop-color="#7B74ED"/>
<stop offset="0.9534" stop-color="#A272EB"/>
<stop offset="1" stop-color="#AF71EB"/>
</linearGradient>
<linearGradient id="paint30_linear_0_419" x1="22.8216" y1="133.651" x2="22.4887" y2="133" gradientUnits="userSpaceOnUse">
<stop offset="0.00505051" stop-color="#C1F471"/>
<stop offset="0.0792" stop-color="#9DE38E"/>
<stop offset="0.202" stop-color="#5AC3C3"/>
<stop offset="0.3977" stop-color="#5A9BD9"/>
<stop offset="0.596" stop-color="#5A76EE"/>
<stop offset="0.6727" stop-color="#6375EE"/>
<stop offset="0.7973" stop-color="#7B74ED"/>
<stop offset="0.9534" stop-color="#A272EB"/>
<stop offset="1" stop-color="#AF71EB"/>
</linearGradient>
<linearGradient id="paint31_linear_0_419" x1="22.8216" y1="166.97" x2="22.4887" y2="166.319" gradientUnits="userSpaceOnUse">
<stop offset="0.00505051" stop-color="#C1F471"/>
<stop offset="0.0792" stop-color="#9DE38E"/>
<stop offset="0.202" stop-color="#5AC3C3"/>
<stop offset="0.3977" stop-color="#5A9BD9"/>
<stop offset="0.596" stop-color="#5A76EE"/>
<stop offset="0.6727" stop-color="#6375EE"/>
<stop offset="0.7973" stop-color="#7B74ED"/>
<stop offset="0.9534" stop-color="#A272EB"/>
<stop offset="1" stop-color="#AF71EB"/>
</linearGradient>
<linearGradient id="paint32_linear_0_419" x1="44.0196" y1="175.391" x2="25.5416" y2="139.281" gradientUnits="userSpaceOnUse">
<stop offset="0.00505051" stop-color="#C1F471"/>
<stop offset="0.0792" stop-color="#9DE38E"/>
<stop offset="0.202" stop-color="#5AC3C3"/>
<stop offset="0.3977" stop-color="#5A9BD9"/>
<stop offset="0.596" stop-color="#5A76EE"/>
<stop offset="0.6727" stop-color="#6375EE"/>
<stop offset="0.7973" stop-color="#7B74ED"/>
<stop offset="0.9534" stop-color="#A272EB"/>
<stop offset="1" stop-color="#AF71EB"/>
</linearGradient>
<linearGradient id="paint33_linear_0_419" x1="47.2771" y1="179.842" x2="46.9442" y2="179.191" gradientUnits="userSpaceOnUse">
<stop offset="0.00505051" stop-color="#C1F471"/>
<stop offset="0.0792" stop-color="#9DE38E"/>
<stop offset="0.202" stop-color="#5AC3C3"/>
<stop offset="0.3977" stop-color="#5A9BD9"/>
<stop offset="0.596" stop-color="#5A76EE"/>
<stop offset="0.6727" stop-color="#6375EE"/>
<stop offset="0.7973" stop-color="#7B74ED"/>
<stop offset="0.9534" stop-color="#A272EB"/>
<stop offset="1" stop-color="#AF71EB"/>
</linearGradient>
<linearGradient id="paint34_linear_0_419" x1="161.613" y1="161.309" x2="189.665" y2="112.759" gradientUnits="userSpaceOnUse">
<stop stop-color="#1E2B5C"/>
<stop offset="1" stop-color="#738EBD"/>
</linearGradient>
<linearGradient id="paint35_linear_0_419" x1="145.712" y1="38.4721" x2="194.225" y2="130.902" gradientUnits="userSpaceOnUse">
<stop offset="0.0101" stop-color="#ACA8DB"/>
<stop offset="0.4293" stop-color="#A7A8DC"/>
<stop offset="0.904" stop-color="#A4A6D4"/>
</linearGradient>
<linearGradient id="paint36_linear_0_419" x1="145.644" y1="39.3061" x2="193.582" y2="130.641" gradientUnits="userSpaceOnUse">
<stop offset="0.0101" stop-color="#AA9BD5"/>
<stop offset="0.4293" stop-color="#9F9CD8"/>
<stop offset="0.904" stop-color="#9996C8"/>
</linearGradient>
<linearGradient id="paint37_linear_0_419" x1="145.577" y1="40.1393" x2="192.941" y2="130.379" gradientUnits="userSpaceOnUse">
<stop offset="0.0101" stop-color="#A78FD0"/>
<stop offset="0.4293" stop-color="#978FD4"/>
<stop offset="0.904" stop-color="#8E87BC"/>
</linearGradient>
<linearGradient id="paint38_linear_0_419" x1="145.512" y1="40.9718" x2="192.301" y2="130.117" gradientUnits="userSpaceOnUse">
<stop offset="0.0101" stop-color="#A482CA"/>
<stop offset="0.4293" stop-color="#8F82D0"/>
<stop offset="0.904" stop-color="#8377B0"/>
</linearGradient>
<linearGradient id="paint39_linear_0_419" x1="145.447" y1="41.8034" x2="191.662" y2="129.854" gradientUnits="userSpaceOnUse">
<stop offset="0.0101" stop-color="#A175C5"/>
<stop offset="0.4293" stop-color="#8776CC"/>
<stop offset="0.904" stop-color="#7868A4"/>
</linearGradient>
<linearGradient id="paint40_linear_0_419" x1="145.384" y1="42.6342" x2="191.024" y2="129.591" gradientUnits="userSpaceOnUse">
<stop offset="0.0101" stop-color="#9F68BF"/>
<stop offset="0.4293" stop-color="#8069C9"/>
<stop offset="0.904" stop-color="#6E5897"/>
</linearGradient>
<linearGradient id="paint41_linear_0_419" x1="145.323" y1="43.4641" x2="190.389" y2="129.327" gradientUnits="userSpaceOnUse">
<stop offset="0.0101" stop-color="#9C5BBA"/>
<stop offset="0.4293" stop-color="#785DC5"/>
<stop offset="0.904" stop-color="#63498B"/>
</linearGradient>
<linearGradient id="paint42_linear_0_419" x1="145.263" y1="44.293" x2="189.755" y2="129.062" gradientUnits="userSpaceOnUse">
<stop offset="0.0101" stop-color="#994EB4"/>
<stop offset="0.4293" stop-color="#7050C1"/>
<stop offset="0.904" stop-color="#58397F"/>
</linearGradient>
<linearGradient id="paint43_linear_0_419" x1="145.205" y1="45.1209" x2="189.123" y2="128.797" gradientUnits="userSpaceOnUse">
<stop offset="0.0101" stop-color="#9642AF"/>
<stop offset="0.4293" stop-color="#6843BD"/>
<stop offset="0.904" stop-color="#4D2A73"/>
</linearGradient>
<linearGradient id="paint44_linear_0_419" x1="145.148" y1="45.9479" x2="188.493" y2="128.531" gradientUnits="userSpaceOnUse">
<stop offset="0.0101" stop-color="#9435A9"/>
<stop offset="0.4293" stop-color="#6037B9"/>
<stop offset="0.904" stop-color="#421A67"/>
</linearGradient>
<linearGradient id="paint45_linear_0_419" x1="145.094" y1="46.7737" x2="187.864" y2="128.264" gradientUnits="userSpaceOnUse">
<stop offset="0.0101" stop-color="#9128A4"/>
<stop offset="0.4293" stop-color="#582AB5"/>
<stop offset="0.904" stop-color="#370B5B"/>
</linearGradient>
<linearGradient id="paint46_linear_0_419" x1="169.87" y1="131.093" x2="188.836" y2="98.4061" gradientUnits="userSpaceOnUse">
<stop offset="0.0253" stop-color="#71E5A7"/>
<stop offset="0.5101" stop-color="#5AC3C3"/>
<stop offset="0.6374" stop-color="#5AB4CC"/>
<stop offset="0.8829" stop-color="#5A8BE2"/>
<stop offset="1" stop-color="#5A76EE"/>
</linearGradient>
<linearGradient id="paint47_linear_0_419" x1="175.535" y1="126.19" x2="190.853" y2="81.9266" gradientUnits="userSpaceOnUse">
<stop offset="0.0253" stop-color="#71E5A7"/>
<stop offset="0.5101" stop-color="#5AC3C3"/>
<stop offset="0.6374" stop-color="#5AB4CC"/>
<stop offset="0.8829" stop-color="#5A8BE2"/>
<stop offset="1" stop-color="#5A76EE"/>
</linearGradient>
<radialGradient id="paint48_radial_0_419" cx="0" cy="0" r="1" gradientUnits="userSpaceOnUse" gradientTransform="translate(179.988 105.162) scale(32.8628 32.8895)">
<stop stop-color="white"/>
<stop offset="1"/>
</radialGradient>
<linearGradient id="paint49_linear_0_419" x1="136.903" y1="141.636" x2="195.297" y2="141.636" gradientUnits="userSpaceOnUse">
<stop stop-color="#1E2B5C"/>
<stop offset="1" stop-color="#738EBD"/>
</linearGradient>
<linearGradient id="paint50_linear_0_419" x1="136.731" y1="141.164" x2="194.007" y2="141.164" gradientUnits="userSpaceOnUse">
<stop stop-color="#262D62"/>
<stop offset="1" stop-color="#7387BA"/>
</linearGradient>
<linearGradient id="paint51_linear_0_419" x1="136.558" y1="140.695" x2="192.832" y2="140.695" gradientUnits="userSpaceOnUse">
<stop stop-color="#2D3068"/>
<stop offset="1" stop-color="#7381B7"/>
</linearGradient>
<linearGradient id="paint52_linear_0_419" x1="136.386" y1="140.23" x2="191.8" y2="140.23" gradientUnits="userSpaceOnUse">
<stop stop-color="#35326E"/>
<stop offset="1" stop-color="#727AB4"/>
</linearGradient>
<linearGradient id="paint53_linear_0_419" x1="136.215" y1="139.768" x2="190.922" y2="139.768" gradientUnits="userSpaceOnUse">
<stop stop-color="#3C3474"/>
<stop offset="1" stop-color="#7273B1"/>
</linearGradient>
<linearGradient id="paint54_linear_0_419" x1="136.042" y1="139.308" x2="190.128" y2="139.308" gradientUnits="userSpaceOnUse">
<stop stop-color="#44377A"/>
<stop offset="1" stop-color="#726DAE"/>
</linearGradient>
<linearGradient id="paint55_linear_0_419" x1="135.87" y1="138.851" x2="189.335" y2="138.851" gradientUnits="userSpaceOnUse">
<stop stop-color="#4B397F"/>
<stop offset="1" stop-color="#7266AC"/>
</linearGradient>
<linearGradient id="paint56_linear_0_419" x1="135.698" y1="138.395" x2="188.543" y2="138.395" gradientUnits="userSpaceOnUse">
<stop stop-color="#533C85"/>
<stop offset="1" stop-color="#7260A9"/>
</linearGradient>
<linearGradient id="paint57_linear_0_419" x1="135.526" y1="137.942" x2="187.751" y2="137.942" gradientUnits="userSpaceOnUse">
<stop stop-color="#5A3E8B"/>
<stop offset="1" stop-color="#7259A6"/>
</linearGradient>
<linearGradient id="paint58_linear_0_419" x1="135.353" y1="137.489" x2="186.958" y2="137.489" gradientUnits="userSpaceOnUse">
<stop stop-color="#624091"/>
<stop offset="1" stop-color="#7152A3"/>
</linearGradient>
<linearGradient id="paint59_linear_0_419" x1="135.181" y1="137.039" x2="186.166" y2="137.039" gradientUnits="userSpaceOnUse">
<stop stop-color="#694397"/>
<stop offset="1" stop-color="#714CA0"/>
</linearGradient>
<linearGradient id="paint60_linear_0_419" x1="164.248" y1="152.485" x2="190.753" y2="152.485" gradientUnits="userSpaceOnUse">
<stop stop-color="#1E2B5C"/>
<stop offset="1" stop-color="#738EBD"/>
</linearGradient>
<linearGradient id="paint61_linear_0_419" x1="100.812" y1="253.671" x2="177.487" y2="120.973" gradientUnits="userSpaceOnUse">
<stop stop-color="#1E2B5C"/>
<stop offset="1" stop-color="#738EBD"/>
</linearGradient>
<linearGradient id="paint62_linear_0_419" x1="97.7646" y1="300.408" x2="117.207" y2="267.311" gradientUnits="userSpaceOnUse">
<stop stop-color="#1E2B5C"/>
<stop offset="1" stop-color="#738EBD"/>
</linearGradient>
<linearGradient id="paint63_linear_0_419" x1="132.708" y1="120.047" x2="-48.1391" y2="359.051" gradientUnits="userSpaceOnUse">
<stop stop-color="white"/>
<stop offset="0.132" stop-color="#F6F6F6"/>
<stop offset="0.3511" stop-color="#DDDCDC"/>
<stop offset="0.6302" stop-color="#B4B3B3"/>
<stop offset="0.9554" stop-color="#7C7A7A"/>
<stop offset="1" stop-color="#747272"/>
</linearGradient>
<linearGradient id="paint64_linear_0_419" x1="140.143" y1="125.672" x2="-40.7031" y2="364.675" gradientUnits="userSpaceOnUse">
<stop stop-color="white"/>
<stop offset="0.132" stop-color="#F6F6F6"/>
<stop offset="0.3511" stop-color="#DDDCDC"/>
<stop offset="0.6302" stop-color="#B4B3B3"/>
<stop offset="0.9554" stop-color="#7C7A7A"/>
<stop offset="1" stop-color="#747272"/>
</linearGradient>
<linearGradient id="paint65_linear_0_419" x1="145.936" y1="130.056" x2="-34.9113" y2="369.062" gradientUnits="userSpaceOnUse">
<stop stop-color="white"/>
<stop offset="0.132" stop-color="#F6F6F6"/>
<stop offset="0.3511" stop-color="#DDDCDC"/>
<stop offset="0.6302" stop-color="#B4B3B3"/>
<stop offset="0.9554" stop-color="#7C7A7A"/>
<stop offset="1" stop-color="#747272"/>
</linearGradient>
<linearGradient id="paint66_linear_0_419" x1="156.178" y1="137.806" x2="-24.67" y2="376.811" gradientUnits="userSpaceOnUse">
<stop stop-color="white"/>
<stop offset="0.132" stop-color="#F6F6F6"/>
<stop offset="0.3511" stop-color="#DDDCDC"/>
<stop offset="0.6302" stop-color="#B4B3B3"/>
<stop offset="0.9554" stop-color="#7C7A7A"/>
<stop offset="1" stop-color="#747272"/>
</linearGradient>
<linearGradient id="paint67_linear_0_419" x1="162.846" y1="142.851" x2="-18.0018" y2="381.856" gradientUnits="userSpaceOnUse">
<stop stop-color="white"/>
<stop offset="0.132" stop-color="#F6F6F6"/>
<stop offset="0.3511" stop-color="#DDDCDC"/>
<stop offset="0.6302" stop-color="#B4B3B3"/>
<stop offset="0.9554" stop-color="#7C7A7A"/>
<stop offset="1" stop-color="#747272"/>
</linearGradient>
<linearGradient id="paint68_linear_0_419" x1="167.733" y1="146.549" x2="-13.1148" y2="385.555" gradientUnits="userSpaceOnUse">
<stop stop-color="white"/>
<stop offset="0.132" stop-color="#F6F6F6"/>
<stop offset="0.3511" stop-color="#DDDCDC"/>
<stop offset="0.6302" stop-color="#B4B3B3"/>
<stop offset="0.9554" stop-color="#7C7A7A"/>
<stop offset="1" stop-color="#747272"/>
</linearGradient>
<linearGradient id="paint69_linear_0_419" x1="177.827" y1="154.187" x2="-3.02066" y2="393.192" gradientUnits="userSpaceOnUse">
<stop stop-color="white"/>
<stop offset="0.132" stop-color="#F6F6F6"/>
<stop offset="0.3511" stop-color="#DDDCDC"/>
<stop offset="0.6302" stop-color="#B4B3B3"/>
<stop offset="0.9554" stop-color="#7C7A7A"/>
<stop offset="1" stop-color="#747272"/>
</linearGradient>
<linearGradient id="paint70_linear_0_419" x1="185.632" y1="160.093" x2="4.78458" y2="399.098" gradientUnits="userSpaceOnUse">
<stop stop-color="white"/>
<stop offset="0.132" stop-color="#F6F6F6"/>
<stop offset="0.3511" stop-color="#DDDCDC"/>
<stop offset="0.6302" stop-color="#B4B3B3"/>
<stop offset="0.9554" stop-color="#7C7A7A"/>
<stop offset="1" stop-color="#747272"/>
</linearGradient>
<linearGradient id="paint71_linear_0_419" x1="189.292" y1="162.863" x2="8.44493" y2="401.866" gradientUnits="userSpaceOnUse">
<stop stop-color="white"/>
<stop offset="0.132" stop-color="#F6F6F6"/>
<stop offset="0.3511" stop-color="#DDDCDC"/>
<stop offset="0.6302" stop-color="#B4B3B3"/>
<stop offset="0.9554" stop-color="#7C7A7A"/>
<stop offset="1" stop-color="#747272"/>
</linearGradient>
<linearGradient id="paint72_linear_0_419" x1="200.332" y1="171.215" x2="19.4828" y2="410.221" gradientUnits="userSpaceOnUse">
<stop stop-color="white"/>
<stop offset="0.132" stop-color="#F6F6F6"/>
<stop offset="0.3511" stop-color="#DDDCDC"/>
<stop offset="0.6302" stop-color="#B4B3B3"/>
<stop offset="0.9554" stop-color="#7C7A7A"/>
<stop offset="1" stop-color="#747272"/>
</linearGradient>
<linearGradient id="paint73_linear_0_419" x1="31.8125" y1="203.14" x2="63.2367" y2="263.012" gradientUnits="userSpaceOnUse">
<stop offset="0.0101" stop-color="#ACA8DB"/>
<stop offset="0.4293" stop-color="#A7A8DC"/>
<stop offset="0.904" stop-color="#A4A6D4"/>
</linearGradient>
<linearGradient id="paint74_linear_0_419" x1="31.7648" y1="203.723" x2="62.7874" y2="262.829" gradientUnits="userSpaceOnUse">
<stop offset="0.0101" stop-color="#AA9BD5"/>
<stop offset="0.4293" stop-color="#9F9CD8"/>
<stop offset="0.904" stop-color="#9996C8"/>
</linearGradient>
<linearGradient id="paint75_linear_0_419" x1="31.7183" y1="204.305" x2="62.3395" y2="262.646" gradientUnits="userSpaceOnUse">
<stop offset="0.0101" stop-color="#A78FD0"/>
<stop offset="0.4293" stop-color="#978FD4"/>
<stop offset="0.904" stop-color="#8E87BC"/>
</linearGradient>
<linearGradient id="paint76_linear_0_419" x1="31.6727" y1="204.886" x2="61.8925" y2="262.463" gradientUnits="userSpaceOnUse">
<stop offset="0.0101" stop-color="#A482CA"/>
<stop offset="0.4293" stop-color="#8F82D0"/>
<stop offset="0.904" stop-color="#8377B0"/>
</linearGradient>
<linearGradient id="paint77_linear_0_419" x1="31.6274" y1="205.467" x2="61.446" y2="262.279" gradientUnits="userSpaceOnUse">
<stop offset="0.0101" stop-color="#A175C5"/>
<stop offset="0.4293" stop-color="#8776CC"/>
<stop offset="0.904" stop-color="#7868A4"/>
</linearGradient>
<linearGradient id="paint78_linear_0_419" x1="31.5834" y1="206.047" x2="61.0008" y2="262.096" gradientUnits="userSpaceOnUse">
<stop offset="0.0101" stop-color="#9F68BF"/>
<stop offset="0.4293" stop-color="#8069C9"/>
<stop offset="0.904" stop-color="#6E5897"/>
</linearGradient>
<linearGradient id="paint79_linear_0_419" x1="31.5407" y1="206.627" x2="60.5571" y2="261.911" gradientUnits="userSpaceOnUse">
<stop offset="0.0101" stop-color="#9C5BBA"/>
<stop offset="0.4293" stop-color="#785DC5"/>
<stop offset="0.904" stop-color="#63498B"/>
</linearGradient>
<linearGradient id="paint80_linear_0_419" x1="31.4985" y1="207.206" x2="60.114" y2="261.726" gradientUnits="userSpaceOnUse">
<stop offset="0.0101" stop-color="#994EB4"/>
<stop offset="0.4293" stop-color="#7050C1"/>
<stop offset="0.904" stop-color="#58397F"/>
</linearGradient>
<linearGradient id="paint81_linear_0_419" x1="31.4581" y1="207.785" x2="59.6727" y2="261.541" gradientUnits="userSpaceOnUse">
<stop offset="0.0101" stop-color="#9642AF"/>
<stop offset="0.4293" stop-color="#6843BD"/>
<stop offset="0.904" stop-color="#4D2A73"/>
</linearGradient>
<linearGradient id="paint82_linear_0_419" x1="31.4186" y1="208.362" x2="59.2325" y2="261.355" gradientUnits="userSpaceOnUse">
<stop offset="0.0101" stop-color="#9435A9"/>
<stop offset="0.4293" stop-color="#6037B9"/>
<stop offset="0.904" stop-color="#421A67"/>
</linearGradient>
<linearGradient id="paint83_linear_0_419" x1="31.3803" y1="208.939" x2="58.7936" y2="261.169" gradientUnits="userSpaceOnUse">
<stop offset="0.0101" stop-color="#9128A4"/>
<stop offset="0.4293" stop-color="#582AB5"/>
<stop offset="0.904" stop-color="#370B5B"/>
</linearGradient>
<linearGradient id="paint84_linear_0_419" x1="46.4586" y1="266.264" x2="60.4959" y2="242.071" gradientUnits="userSpaceOnUse">
<stop offset="0.0253" stop-color="#71E5A7"/>
<stop offset="0.5101" stop-color="#5AC3C3"/>
<stop offset="0.6374" stop-color="#5AB4CC"/>
<stop offset="0.8829" stop-color="#5A8BE2"/>
<stop offset="1" stop-color="#5A76EE"/>
</linearGradient>
<linearGradient id="paint85_linear_0_419" x1="31.9181" y1="251.856" x2="76.8406" y2="251.856" gradientUnits="userSpaceOnUse">
<stop stop-color="#1E2B5C"/>
<stop offset="1" stop-color="#738EBD"/>
</linearGradient>
<radialGradient id="paint86_radial_0_419" cx="0" cy="0" r="1" gradientUnits="userSpaceOnUse" gradientTransform="translate(54.0772 247.363) scale(22.2983 22.3164)">
<stop stop-color="white"/>
<stop offset="1"/>
</radialGradient>
<clipPath id="clip0_0_419">
<rect width="221" height="337" fill="white"/>
</clipPath>
</defs>
</svg>
