<svg width="266" height="266" viewBox="0 0 266 266" fill="none" xmlns="http://www.w3.org/2000/svg">
<path d="M266 133C266 206.454 206.454 266 133 266C59.5455 266 0 206.454 0 133C0 59.5455 59.5455 0 133 0C206.454 0 266 59.5455 266 133Z" fill="#F5F1F3"/>
<path d="M101.559 148.881C101.044 147.789 99.8702 147.491 98.9956 146.862C97.3762 145.701 96.4861 144.215 96.3057 142.278C96.0652 139.681 95.8674 137.08 95.6502 134.48C96.8759 132.794 96.5442 130.884 96.4318 129.009C95.8868 119.968 95.336 110.926 94.7988 101.885C94.7756 101.482 94.5855 100.997 95.0936 100.71C95.1266 100.727 95.1576 100.745 95.1906 100.762C95.1537 100.749 95.1188 100.737 95.082 100.723C94.7504 98.6794 94.3683 96.6392 94.3489 94.5583C94.3373 93.4199 94.0406 92.3629 93.5131 91.3622C93.5228 89.1533 93.6624 86.9328 94.9036 85.04C97.9561 80.3817 98.6562 75.2424 98.373 69.8278C98.1675 65.8929 101.067 63.7596 104.771 65.0415C105.731 65.3731 106.683 65.7765 107.566 66.273C110.021 67.6538 112.47 69.0501 114.865 70.5318C125.834 77.3175 137.346 82.8466 149.928 85.9689C157.643 87.8831 165.465 89.0118 173.402 89.355C173.988 89.3802 174.727 89.1882 174.704 90.1812L174.74 90.1831C174.442 90.0959 174.5 90.346 174.446 90.4915C173.148 91.0927 172.475 92.1438 172.326 93.5324C172.163 95.0586 172.045 96.5888 171.907 98.117C171.362 99.8178 171.442 101.55 171.632 103.289C171.145 111.661 170.637 120.033 170.193 128.408C170.094 130.267 169.628 132.183 170.608 133.975C170.057 136.423 170.008 138.928 169.795 141.413C169.657 143.02 169.45 144.525 168.195 145.767C166.867 147.081 165.329 148.022 163.696 148.858C162.119 149.69 160.533 150.506 158.966 151.358C153.487 154.333 147.997 157.286 142.563 160.341C141.781 160.781 140.68 160.93 140.317 161.991C138.96 162.026 137.6 162.123 136.245 162.078C134.534 162.02 133.089 162.486 131.978 163.83C129.267 163.391 126.839 162.298 124.451 160.946C117.716 157.137 110.907 153.456 104.117 149.744C103.328 149.318 102.566 148.716 101.559 148.881Z" fill="#F0D6A8"/>
<path d="M223.494 221.597C223.013 221.636 222.534 221.709 222.053 221.709C198.786 221.715 175.52 221.715 152.254 221.709C151.775 221.709 151.294 221.634 150.815 221.595C150.72 221.469 150.625 221.345 150.53 221.219C150.584 221.034 150.588 220.809 150.7 220.674C153.693 217.066 156.693 213.467 159.699 209.872C162.705 206.276 165.701 202.673 168.74 199.108C169.345 198.396 169.209 197.962 168.566 197.429C166.818 195.98 165.116 194.473 163.355 193.04C162.54 192.377 162.426 191.904 163.262 191.097C165.693 188.748 168.019 186.293 170.33 183.822C174.141 179.75 178.103 175.817 181.99 171.814C182.447 171.343 182.915 170.957 183.611 170.992C194.367 176.282 203.887 183.223 211.828 192.243C216.754 197.838 220.697 204.034 223.067 211.155C224.085 214.216 224.63 217.365 224.861 220.577C224.921 221.411 224.785 221.973 223.755 221.597C223.711 221.517 223.666 221.44 223.622 221.36C223.581 221.436 223.536 221.515 223.494 221.597Z" fill="#495971"/>
<path d="M42.3009 221.581C42.1031 221.721 41.8995 221.709 41.6939 221.599C41.5756 220.891 41.9906 220.107 41.3894 219.467C41.6182 213.806 43.5498 208.646 46.1873 203.737C51.5671 193.726 59.4253 185.95 68.5266 179.333C72.5003 176.445 76.6893 173.904 81.0392 171.624C81.493 171.385 82.0748 171.302 82.3289 170.753C83.0135 171.114 83.2287 171.874 83.7388 172.394C87.1307 175.846 90.4974 179.321 93.866 182.796C96.5927 185.61 99.2903 188.453 102.048 191.238C102.698 191.894 102.667 192.313 102.005 192.877C100.204 194.417 98.4622 196.026 96.6237 197.522C95.9857 198.041 95.8189 198.379 96.3794 199.032C97.9212 200.828 99.4125 202.669 100.954 204.466C102.686 206.483 104.478 208.45 106.194 210.48C108.254 212.914 110.273 215.381 112.284 217.856C113.246 219.041 114.487 220.036 114.937 221.587C114.456 221.624 113.975 221.694 113.494 221.694C90.2782 221.699 67.0604 221.699 43.8446 221.694C43.4141 221.694 42.9835 221.62 42.553 221.581C42.4735 221.343 42.3882 221.339 42.3009 221.581Z" fill="#45566B"/>
<path d="M114.939 221.587C114.489 220.036 113.25 219.041 112.286 217.856C110.275 215.381 108.256 212.914 106.196 210.48C104.48 208.45 102.688 206.483 100.956 204.467C99.4145 202.671 97.9231 200.83 96.3813 199.033C95.8209 198.381 95.9877 198.042 96.6257 197.522C98.4623 196.027 100.206 194.417 102.007 192.877C102.669 192.313 102.698 191.892 102.05 191.238C99.2923 188.453 96.5947 185.61 93.868 182.796C90.4993 179.321 87.1326 175.846 83.7407 172.394C83.2307 171.874 83.0135 171.114 82.3308 170.753C82.1601 170.061 82.8215 170.119 83.1259 169.966C89.0235 167.004 95.1344 164.584 101.482 162.763C101.684 163.091 101.885 163.418 102.089 163.746C102.11 163.89 102.106 164.043 102.157 164.175C108.557 180.473 114.96 196.769 121.376 213.062C121.473 213.31 121.727 213.498 121.909 213.713C122.016 215.183 122.842 216.411 123.265 217.774C123.674 219.083 124.562 220.241 124.513 221.696C121.321 221.639 118.129 221.853 114.939 221.587Z" fill="#3D4A5D"/>
<path d="M183.613 170.99C182.915 170.957 182.447 171.343 181.992 171.812C178.103 175.815 174.143 179.748 170.332 183.82C168.021 186.291 165.695 188.746 163.263 191.095C162.429 191.902 162.542 192.375 163.357 193.038C165.117 194.471 166.818 195.978 168.568 197.427C169.211 197.96 169.347 198.396 168.742 199.106C165.703 202.673 162.707 206.276 159.701 209.87C156.695 213.465 153.695 217.065 150.702 220.672C150.59 220.807 150.586 221.032 150.532 221.217C150.33 221.236 150.115 221.228 150.045 221.488L149.967 221.608C146.878 221.831 143.789 221.705 140.697 221.661C141.818 218.686 142.939 215.711 144.06 212.736C148.92 200.367 153.803 188.005 158.628 175.623C160.052 171.969 161.691 168.393 162.817 164.625L162.796 164.64C163.048 164.518 163.083 164.283 163.11 164.043C163.479 163.711 163.562 163.246 163.69 162.8C168.189 163.863 172.46 165.581 176.699 167.377C178.528 168.152 180.308 169.044 182.112 169.878C182.688 170.15 183.223 170.47 183.613 170.99Z" fill="#59687B"/>
<path d="M85.781 71.5131C84.821 68.2201 85.0169 65.0687 86.4423 61.8804C92.3592 48.6347 102.593 40.2393 116.238 36.2229C134.753 30.7733 151.953 33.7056 167 46.1756C175.51 53.227 180.355 62.4447 181.416 73.5378C180.857 73.3826 180.768 72.8415 180.549 72.4323C178.218 68.0902 175.439 64.0602 172.109 60.4259C162.629 50.0853 151.036 43.7417 136.954 42.7391C119.368 41.4882 104.934 48.1595 93.2319 61.1299C90.3578 64.3181 88.1159 67.9467 85.781 71.5131Z" fill="#3A3C36"/>
<path d="M85.7809 71.5131C88.1159 67.9466 90.3578 64.3162 93.2319 61.1318C104.932 48.1595 119.366 41.4901 136.954 42.741C151.036 43.7417 162.631 50.0872 172.109 60.4278C175.441 64.0621 178.218 68.0921 180.549 72.4343C180.768 72.8435 180.855 73.3846 181.416 73.5397C182.032 75.8941 183.285 77.9944 184.102 80.2731C186.035 85.6819 187.358 91.211 187.781 96.9456C185.965 95.7684 184.15 94.5932 182.335 93.416C181.825 90.9725 181.418 88.5017 180.576 86.1377C177.436 75.3491 171.721 66.1702 162.98 59.0916C150.411 48.912 136.167 45.5725 120.483 49.8991C107.048 53.6052 97.3452 62.1965 90.4508 74.1234C89.3648 76.0046 88.1954 77.8703 87.7144 80.0404C85.5327 84.3593 84.402 88.9846 83.7155 93.7399C81.8887 94.9035 80.0618 96.069 78.2369 97.2326C78.3319 93.0883 79.2221 89.0777 80.3197 85.1098C81.5512 80.6551 83.2636 76.3867 85.4861 72.3276C85.6219 72.0774 85.6839 71.7865 85.7809 71.5131Z" fill="#92C0CB"/>
<path d="M163.688 162.802C163.562 163.248 163.477 163.711 163.108 164.045C162.86 164.169 162.798 164.39 162.794 164.642L162.815 164.627C161.495 164.588 160.61 165.546 159.561 166.099C153.706 169.186 147.879 172.328 142.144 175.64C140.059 176.844 137.965 178.051 135.544 178.543C134.701 178.716 133.785 178.332 133.012 178.908C132.911 178.898 132.808 178.889 132.707 178.879C131.982 178.351 131.115 178.658 130.318 178.487C126.872 177.75 124.073 175.681 121.094 174.034C114.79 170.547 108.452 167.121 102.085 163.748C101.883 163.42 101.682 163.093 101.478 162.765C101.511 158.607 101.544 154.449 101.577 150.291C105.19 151.829 108.527 153.9 111.985 155.735C116.037 157.884 120.001 160.201 124.019 162.414C126.333 163.688 128.547 165.253 131.369 165.205C131.278 168.583 132.785 170.109 136.227 170.115C138.886 170.119 141.547 170.068 144.204 170.134C146.001 170.179 147.4 169.562 148.429 168.094C150.316 167.885 152.083 167.216 153.85 166.589C157.319 165.36 160.531 163.593 163.663 161.679C163.675 162.053 163.682 162.427 163.688 162.802Z" fill="#F0D6A8"/>
<path d="M78.233 97.2327C80.0599 96.0691 81.8867 94.9036 83.7117 93.74C84.98 93.5131 86.1145 92.7645 87.4449 92.7703C87.5399 98.3459 87.9821 103.902 88.3428 109.464C88.7191 115.267 88.882 121.087 89.3299 126.883C89.5006 129.096 89.3028 131.354 89.9059 133.529C84.5165 133.326 80.1859 130.915 76.8716 126.825C70.0742 118.438 70.3826 106.606 77.4457 98.4312C77.7618 98.0666 78.1458 97.7486 78.233 97.2327Z" fill="#7FA7B0"/>
<path d="M182.333 93.416C184.148 94.5932 185.963 95.7684 187.779 96.9456C191.39 100.617 193.827 104.891 194.367 110.087C195.265 118.765 192.441 125.817 185.143 130.87C184.788 131.117 184.451 131.388 184.104 131.648C182.509 132.405 180.809 132.851 179.133 133.374C178.359 133.396 177.587 133.415 176.814 133.434C176.897 132.567 177.006 131.704 177.06 130.836C177.357 126.096 177.663 121.356 177.921 116.614C178.352 108.675 178.749 100.735 179.158 92.7954C180.275 92.7062 181.216 93.5188 182.333 93.416Z" fill="#7FA7B0"/>
<path d="M89.9059 133.531C89.3028 131.353 89.5006 129.098 89.3299 126.885C88.8819 121.089 88.7171 115.27 88.3428 109.466C87.984 103.904 87.5399 98.3478 87.4449 92.7722C87.8968 92.0934 88.2497 91.3409 88.9052 90.8115C90.6041 89.644 92.0702 90.4042 93.5131 91.3642C94.0386 92.3649 94.3373 93.4219 94.3489 94.5602C94.3683 96.6412 94.7504 98.6814 95.082 100.725L95.0956 100.712C94.5875 100.999 94.7775 101.484 94.8008 101.887C95.3361 110.928 95.8868 119.97 96.4337 129.011C96.5462 130.886 96.8778 132.796 95.6522 134.482C93.2513 136.179 91.853 135.946 89.9059 133.531Z" fill="#4B5C72"/>
<path d="M132.709 178.881C132.81 178.891 132.913 178.9 133.014 178.91C133.229 179.525 133.698 179.957 134.107 180.434C135.715 182.31 137.286 184.218 138.931 186.06C139.464 186.66 139.541 187.17 139.243 187.891C138.614 189.411 138.05 190.961 137.48 192.507C137.3 192.997 137.164 193.459 137.364 194.039C139.382 199.952 141.353 205.882 143.36 211.799C143.48 212.154 143.391 212.753 144.058 212.736C142.937 215.711 141.816 218.686 140.695 221.661C138.044 221.771 135.391 221.93 132.746 221.572C132.742 208.097 132.742 194.624 132.725 181.15C132.725 180.595 132.946 179.977 132.443 179.496C132.531 179.292 132.62 179.086 132.709 178.881Z" fill="#90BBC1"/>
<path d="M132.443 179.498C132.946 179.977 132.725 180.597 132.725 181.152C132.742 194.626 132.742 208.099 132.746 221.573C130.006 221.936 127.258 221.723 124.513 221.7C124.562 220.245 123.674 219.087 123.264 217.778C122.84 216.417 122.016 215.187 121.909 213.717C121.827 213.011 122.122 212.383 122.337 211.745C123.714 207.659 124.913 203.501 126.538 199.517C128.196 195.453 128.766 191.584 126.323 187.674C126.009 187.172 126.03 186.731 126.472 186.241C128.483 184.008 130.456 181.747 132.443 179.498Z" fill="#7DB7C4"/>
<path d="M179.133 133.376C180.807 132.853 182.509 132.406 184.104 131.65C183.683 134.606 182.519 137.321 181.35 140.024C177.506 148.91 171.506 156.049 163.667 161.681C160.535 163.593 157.323 165.36 153.854 166.589C152.087 167.216 150.32 167.883 148.433 168.094C149.06 166.519 148.949 165.003 148.084 163.545C150.132 162.829 152.229 162.226 154.218 161.374C157.643 159.912 160.954 158.219 163.704 155.622C163.919 155.521 164.167 155.459 164.344 155.312C171.414 149.444 176.426 142.187 179.133 133.376Z" fill="#92C0CB"/>
<path d="M131.373 165.205C128.551 165.253 126.336 163.688 124.023 162.414C120.004 160.201 116.04 157.885 111.989 155.735C108.531 153.9 105.194 151.829 101.581 150.291C101.575 149.82 101.567 149.35 101.559 148.881C102.566 148.716 103.33 149.319 104.121 149.75C110.913 153.46 117.72 157.141 124.455 160.952C126.843 162.303 129.273 163.397 131.982 163.835C131.778 164.291 131.575 164.747 131.373 165.205Z" fill="#CAB891"/>
<path d="M41.3914 219.467C41.9906 220.107 41.5775 220.891 41.6958 221.599C40.5536 221.036 41.498 220.177 41.3914 219.467Z" fill="#3D4A5D"/>
<path d="M150.045 221.488C150.113 221.23 150.33 221.238 150.532 221.217C150.627 221.343 150.722 221.467 150.817 221.593C150.611 221.591 150.408 221.587 150.202 221.585C150.157 221.54 150.105 221.507 150.045 221.488Z" fill="#3D4A5D"/>
<path d="M223.494 221.597C223.536 221.517 223.581 221.436 223.623 221.356C223.668 221.436 223.713 221.513 223.757 221.593L223.625 221.651L223.494 221.597Z" fill="#3D4A5D"/>
<path d="M150.045 221.488C150.105 221.507 150.157 221.54 150.202 221.585L150.091 221.657L149.967 221.608C149.965 221.608 150.045 221.488 150.045 221.488Z" fill="#495971"/>
<path d="M42.3009 221.581C42.3882 221.339 42.4735 221.345 42.555 221.583L42.427 221.632L42.3009 221.581Z" fill="#3D4A5D"/>
<path d="M93.515 91.3641C92.0721 90.4041 90.6041 89.6439 88.9071 90.8114C88.7229 89.9154 88.529 89.0194 88.3583 88.1196C87.8502 85.451 88.3699 82.6972 87.7125 80.0403C88.1935 77.8701 89.3609 76.0026 90.4489 74.1233C97.3433 62.1964 107.048 53.6051 120.482 49.899C136.167 45.5723 150.411 48.9119 162.978 59.0915C171.719 66.1701 177.434 75.349 180.574 86.1376C179.928 88.1525 179.653 90.2781 178.803 92.2348C177.861 90.7066 176.482 90.0453 174.706 90.183C174.729 89.1901 173.992 89.3821 173.404 89.3569C165.466 89.0136 157.645 87.8849 149.93 85.9708C137.348 82.8484 125.834 77.3194 114.867 70.5336C112.472 69.052 110.023 67.6556 107.567 66.2748C106.683 65.7783 105.731 65.375 104.773 65.0433C101.069 63.7614 98.1694 65.8947 98.375 69.8296C98.6581 75.2443 97.958 80.3835 94.9055 85.0418C93.6643 86.9346 93.5247 89.1552 93.515 91.3641Z" fill="#3A3C36"/>
<path d="M174.706 90.1831C176.482 90.0454 177.861 90.7048 178.803 92.2349C178.922 92.423 179.04 92.6111 179.158 92.7973C178.747 100.737 178.352 108.679 177.921 116.616C177.663 121.358 177.357 126.098 177.06 130.837C177.006 131.706 176.897 132.569 176.814 133.436C174.339 136.142 172.71 136.285 170.61 133.979C169.63 132.187 170.096 130.269 170.195 128.411C170.639 120.037 171.149 111.665 171.634 103.293C171.791 101.573 172.19 99.8643 171.909 98.1208C172.047 96.5926 172.165 95.0625 172.328 93.5362C172.477 92.1476 173.15 91.0965 174.448 90.4953C174.547 90.3925 174.643 90.2897 174.742 90.187L174.706 90.1831Z" fill="#4B5C72"/>
<path d="M131.373 165.204C131.577 164.749 131.78 164.291 131.982 163.835C133.093 162.491 134.538 162.026 136.248 162.084C137.604 162.129 138.963 162.032 140.321 161.997C141.087 162.007 141.855 162.018 142.621 162.028C143.604 162.078 144.59 162.127 145.573 162.177C145.672 162.195 145.769 162.21 145.868 162.228C146.74 162.439 147.396 163.017 148.082 163.544C148.947 165.003 149.058 166.521 148.431 168.094C147.402 169.562 146.003 170.179 144.206 170.134C141.549 170.066 138.888 170.119 136.229 170.115C132.789 170.109 131.282 168.583 131.373 165.204Z" fill="#4B5C72"/>
<path d="M163.7 148.864C163.678 149.537 163.657 150.208 163.636 150.881C163.017 150.854 162.517 151.174 162.009 151.451C155.545 154.975 149.085 158.502 142.623 162.028C141.857 162.018 141.089 162.007 140.323 161.997C140.686 160.934 141.787 160.785 142.569 160.347C148.003 157.292 153.495 154.339 158.972 151.364C160.539 150.512 162.123 149.696 163.7 148.864Z" fill="#CAB891"/>
<path d="M171.911 98.1208C172.192 99.8643 171.791 101.573 171.636 103.293C171.444 101.553 171.366 99.8197 171.911 98.1208Z" fill="#3A3C36"/>
<path d="M95.084 100.725C95.1208 100.739 95.1557 100.75 95.1926 100.764C95.1596 100.747 95.1286 100.729 95.0956 100.712C95.0976 100.712 95.084 100.725 95.084 100.725Z" fill="#4B5C72"/>
<path d="M174.742 90.1871C174.643 90.2899 174.547 90.3927 174.448 90.4955C174.502 90.35 174.444 90.0979 174.742 90.1871Z" fill="#3A3C36"/>
<path d="M132.443 179.497C130.458 181.747 128.485 184.01 126.472 186.237C126.03 186.727 126.009 187.168 126.323 187.67C128.766 191.58 128.196 195.448 126.538 199.513C124.913 203.497 123.712 207.657 122.337 211.741C122.122 212.379 121.827 213.007 121.909 213.713C121.729 213.498 121.474 213.31 121.376 213.062C114.96 196.769 108.557 180.473 102.157 164.175C102.104 164.043 102.11 163.89 102.089 163.746C108.456 167.119 114.792 170.545 121.098 174.032C124.077 175.679 126.876 177.748 130.322 178.485C131.119 178.656 131.986 178.349 132.711 178.877C132.62 179.086 132.531 179.292 132.443 179.497Z" fill="#F5F1F3"/>
<path d="M144.058 212.736C143.391 212.753 143.48 212.154 143.36 211.799C141.353 205.882 139.382 199.952 137.363 194.039C137.166 193.457 137.3 192.995 137.48 192.507C138.05 190.961 138.612 189.413 139.243 187.891C139.541 187.171 139.462 186.659 138.93 186.06C137.288 184.216 135.717 182.308 134.107 180.434C133.698 179.957 133.229 179.525 133.014 178.91C133.787 178.334 134.703 178.716 135.546 178.545C137.967 178.051 140.061 176.846 142.146 175.642C147.881 172.33 153.706 169.188 159.563 166.1C160.61 165.548 161.497 164.592 162.817 164.628C161.689 168.397 160.052 171.971 158.628 175.626C153.801 188.005 148.918 200.367 144.058 212.736Z" fill="#F5F1F3"/>
<path d="M162.796 164.642C162.798 164.39 162.862 164.169 163.11 164.045C163.083 164.285 163.048 164.52 162.796 164.642Z" fill="#F5F1F3"/>
<path d="M142.623 162.028C149.085 158.502 155.545 154.972 162.009 151.451C162.517 151.173 163.017 150.851 163.636 150.88C163.659 152.461 163.68 154.042 163.704 155.622C160.954 158.219 157.643 159.91 154.218 161.374C152.229 162.226 150.132 162.829 148.084 163.544C147.398 163.019 146.742 162.439 145.869 162.229C145.79 162.1 145.695 162.061 145.575 162.179C144.59 162.127 143.606 162.078 142.623 162.028Z" fill="#F0D6A8"/>
<path d="M145.575 162.177C145.697 162.059 145.79 162.098 145.869 162.228C145.771 162.21 145.672 162.195 145.575 162.177Z" fill="#CAB891"/>
</svg>
