<svg width="58" height="59" viewBox="0 0 58 59" fill="none" xmlns="http://www.w3.org/2000/svg">
<path d="M36.4452 17.1568C41.022 17.1568 45.385 17.155 49.7477 17.1575C52.1478 17.1589 52.9959 18.0283 52.9973 20.4976C53.0009 26.5352 53.0009 32.5724 52.9973 38.61C52.9959 41.0436 52.2056 41.8418 49.8097 41.8436C45.8977 41.8465 41.9857 41.8444 38.0737 41.8444C37.6273 41.8444 37.1813 41.8444 36.6257 41.8444C36.5994 42.3826 36.5604 42.8267 36.5594 43.2707C36.5523 45.7444 36.5888 48.2188 36.5427 50.6914C36.5047 52.7401 35.3488 53.8997 33.3657 53.9033C24.9652 53.9181 16.565 53.9178 8.16447 53.9033C6.17461 53.9001 5.00913 52.7174 5.00771 50.6972C4.99707 36.5681 4.99601 22.4388 5.00913 8.30976C5.01126 6.28447 6.17567 5.10215 8.16589 5.09818C16.5664 5.08121 24.9666 5.08302 33.3671 5.09638C35.3045 5.09963 36.4129 6.23826 36.4363 8.23287C36.465 10.7062 36.4445 13.1802 36.4452 15.6539C36.4455 16.1044 36.4452 16.5553 36.4452 17.1568ZM34.9748 41.9364C34.733 41.8873 34.6525 41.8566 34.5723 41.8566C30.1263 41.8509 25.6804 41.8537 21.2344 41.8415C19.2789 41.8361 18.3577 40.9021 18.3481 38.9234C18.3361 36.4504 18.312 33.9768 18.362 31.5046C18.3808 30.5717 18.1748 29.9035 17.4667 29.2125C14.5234 26.3403 14.2486 21.6803 16.7274 18.468C19.2005 15.2625 23.5543 14.4604 27.0536 16.56C27.3681 16.7488 27.7014 17.0412 28.0305 17.0474C30.3206 17.09 32.6119 17.0701 34.9319 17.0701C34.9319 15.6539 34.9319 14.3936 34.9319 13.1058C25.407 13.1058 15.998 13.1058 6.554 13.1058C6.554 24.0828 6.554 34.988 6.554 45.8892C16.0729 45.8892 25.4878 45.8892 34.9751 45.8892C34.9748 44.5339 34.9748 43.2545 34.9748 41.9364ZM19.8327 31.2641C19.8327 33.6678 19.8639 36.2613 19.8186 38.8537C19.7984 40.0072 20.276 40.3989 21.3691 40.3963C30.9138 40.3747 40.4586 40.3732 50.0033 40.3967C51.1876 40.3996 51.6117 39.8797 51.6017 38.7285C51.5734 35.4194 51.5939 32.11 51.5868 28.8009C51.5861 28.5172 51.5241 28.2338 51.4879 27.928C51.2876 27.8811 51.1323 27.8132 50.977 27.8132C44.1064 27.806 37.2359 27.793 30.3653 27.832C29.9636 27.8341 29.4622 28.1738 29.1807 28.5081C27.9014 30.0284 26.3548 31.1616 24.4089 31.3858C22.9356 31.5555 21.4173 31.3215 19.8327 31.2641ZM6.45189 11.387C16.0658 11.387 25.502 11.387 34.9276 11.387C34.9804 11.1589 35.0308 11.039 35.0326 10.9181C35.0436 10.1639 35.0531 9.40977 35.045 8.65598C35.0272 6.94802 34.6663 6.56895 33.0211 6.56715C27.6302 6.56173 22.2396 6.56498 16.8487 6.56498C13.9681 6.56498 11.0876 6.55235 8.20702 6.5722C6.97311 6.58087 6.48734 7.07943 6.4565 8.31265C6.43203 9.31085 6.45189 10.3098 6.45189 11.387ZM35.1248 47.6098C25.5258 47.6098 16.0516 47.6098 6.49479 47.6098C6.49479 48.6798 6.48167 49.6387 6.49798 50.5971C6.52067 51.9401 6.97488 52.4188 8.27652 52.4297C10.3355 52.447 12.3945 52.4351 14.4539 52.4351C20.6724 52.4351 26.8909 52.4232 33.1094 52.4459C34.2167 52.4499 35.0056 52.0824 35.1056 50.8993C35.1964 49.8275 35.1248 48.7412 35.1248 47.6098ZM22.9491 30.0154C26.4835 30.0006 29.3739 27.0009 29.3275 23.3969C29.2814 19.8355 26.4065 16.9279 22.9239 16.9199C19.4051 16.912 16.4523 19.9131 16.4636 23.4854C16.4753 27.0782 19.4073 30.0302 22.9491 30.0154ZM51.5017 22.3276C51.5017 21.5965 51.5028 21.0586 51.5014 20.5207C51.4968 18.738 51.4386 18.677 49.692 18.677C43.3072 18.6763 36.9224 18.6766 30.5376 18.6766C30.165 18.6766 29.792 18.6766 29.3821 18.6766C29.8026 19.7008 30.2355 20.4842 30.4377 21.3254C30.6373 22.1565 31.0351 22.3485 31.8145 22.3435C36.7161 22.3117 41.618 22.3276 46.52 22.3276C48.122 22.3276 49.7239 22.3276 51.5017 22.3276ZM30.4579 26.1717C37.4671 26.1717 44.4305 26.1717 51.3748 26.1717C51.3748 25.3337 51.3748 24.6005 51.3748 23.841C44.4805 23.841 37.6699 23.841 30.8358 23.841C30.7043 24.6518 30.5852 25.3861 30.4579 26.1717Z" fill="white"/>
<path d="M45.8758 37.6541C44.7781 37.7216 43.681 37.8273 42.5825 37.8468C41.3922 37.8681 40.564 37.2338 40.0835 36.1522C39.6151 35.0981 39.7928 34.0974 40.5189 33.2342C41.2852 32.3233 42.2691 32.1168 43.4165 32.3569C43.9654 32.4717 44.5763 32.4663 45.1259 32.3508C46.2839 32.1071 47.247 32.3724 48.0047 33.2811C48.7312 34.153 48.8893 35.1613 48.4245 36.2053C47.9412 37.2909 47.0821 37.8541 45.8758 37.6541ZM41.0827 34.8096C41.0884 35.0125 41.0937 35.2158 41.0994 35.4187C41.6156 35.7526 42.1056 36.2992 42.6545 36.3696C43.4459 36.471 43.9519 35.8479 43.9225 35.0226C43.8934 34.2064 43.3814 33.6039 42.5744 33.7779C42.0301 33.8955 41.577 34.4504 41.0827 34.8096ZM45.6617 33.6064C45.5712 33.7324 45.4805 33.858 45.3901 33.984C45.3901 34.7544 45.3901 35.5252 45.3901 36.6302C45.9779 36.3797 46.5952 36.2847 46.9268 35.9197C47.176 35.6457 47.2565 34.8847 47.0565 34.5923C46.7537 34.149 46.1421 33.9241 45.6617 33.6064Z" fill="white"/>
<path d="M31.0735 37.6469C29.0588 37.6469 27.0431 37.6895 25.0312 37.6144C24.5795 37.5974 24.1427 37.1692 23.6991 36.9302C24.1228 36.6588 24.5433 36.1577 24.9706 36.1515C29.1634 36.0923 33.3573 36.0923 37.5501 36.1512C37.9838 36.1573 38.4107 36.6562 38.8404 36.9266C38.3894 37.1667 37.9448 37.5981 37.4859 37.614C35.3504 37.6877 33.2112 37.6465 31.0735 37.6469Z" fill="white"/>
<path d="M28.9847 34.0569C27.5852 34.0569 26.1825 34.106 24.7876 34.0241C24.4164 34.002 24.0679 33.5771 23.7087 33.3374C24.0523 33.071 24.3912 32.5811 24.7405 32.5735C27.621 32.5111 30.5037 32.5111 33.3839 32.5742C33.731 32.5818 34.0675 33.0789 34.409 33.349C34.0416 33.5851 33.6842 34.0035 33.3052 34.0248C31.8692 34.1049 30.4257 34.0569 28.9847 34.0569Z" fill="white"/>
<path d="M20.7976 8.0834C21.1047 8.54586 21.4855 8.89677 21.4192 9.06897C21.3029 9.37078 20.9121 9.5632 20.6363 9.80147C20.4367 9.53504 20.0892 9.27295 20.081 9.00074C20.0743 8.76067 20.4455 8.50868 20.7976 8.0834Z" fill="white"/>
<path d="M23.4115 10.0762C23.0573 9.6484 22.6364 9.34659 22.6769 9.13901C22.7357 8.83828 23.1289 8.60579 23.3796 8.34406C23.6051 8.58305 23.9891 8.8076 24.0118 9.06536C24.0352 9.32637 23.7012 9.62024 23.4115 10.0762Z" fill="white"/>
<path d="M18.1717 8.05487C18.4745 8.51805 18.8216 8.81553 18.7883 9.05957C18.7511 9.33322 18.3702 9.55886 18.1391 9.80543C17.8873 9.53503 17.5111 9.29748 17.431 8.98195C17.3838 8.79675 17.8086 8.48773 18.1717 8.05487Z" fill="white"/>
<path d="M20.8558 49.1675C21.4678 49.169 22.0964 49.0834 22.6843 49.204C22.9903 49.2668 23.2247 49.6935 23.4913 49.956C23.2123 50.1946 22.9439 50.6217 22.6521 50.6394C21.3919 50.7159 20.1225 50.7155 18.8624 50.6383C18.5908 50.6217 18.3451 50.1711 18.0873 49.9202C18.3575 49.6686 18.6 49.2538 18.9039 49.2C19.5368 49.0874 20.203 49.1661 20.8558 49.1675Z" fill="white"/>
<path d="M21.7082 25.0558C23.1318 23.5312 24.2849 22.2265 25.5273 21.0171C25.8138 20.7384 26.4052 20.7842 26.8562 20.6806C26.7378 21.1521 26.7616 21.7565 26.4765 22.072C25.2245 23.459 23.8725 24.7518 22.579 26.1012C22.0358 26.6677 21.5578 26.7038 21.0125 26.1175C20.3902 25.4485 19.6839 24.8525 19.1247 24.1352C18.9166 23.8684 19.0205 23.3489 18.9822 22.9445C19.3729 23.0045 19.8818 22.9287 20.1307 23.1521C20.6749 23.6413 21.0866 24.2825 21.7082 25.0558Z" fill="white"/>
</svg>
