<svg width="56" height="37" viewBox="0 0 56 37" fill="none" xmlns="http://www.w3.org/2000/svg">
<circle cx="41" cy="15" r="15" fill="#CD3728" fill-opacity="0.3"/>
<circle cx="41.5" cy="14.5" r="10.75" stroke="#0080B4" stroke-width="1.5"/>
<path d="M41 9V15.2069L47 18" stroke="#0080B4" stroke-width="1.5"/>
<path fill-rule="evenodd" clip-rule="evenodd" d="M29.3191 10.9787L1 10.9787C0.447715 10.9787 0 11.4264 0 11.9787V35.9149C0 36.4672 0.447715 36.9149 1 36.9149H46.3617C46.914 36.9149 47.3617 36.4672 47.3617 35.9149V26.766H45.8617V35.4149H1.5V12.4787H29.3191V10.9787Z" fill="#0080B4"/>
<path d="M29.3536 20.3536C29.5488 20.1583 29.5488 19.8417 29.3536 19.6464L26.1716 16.4645C25.9763 16.2692 25.6597 16.2692 25.4645 16.4645C25.2692 16.6597 25.2692 16.9763 25.4645 17.1716L28.2929 20L25.4645 22.8284C25.2692 23.0237 25.2692 23.3403 25.4645 23.5355C25.6597 23.7308 25.9763 23.7308 26.1716 23.5355L29.3536 20.3536ZM14 20.5H29V19.5H14V20.5Z" fill="#0080B4"/>
<path d="M13.6464 29.3536C13.4512 29.1583 13.4512 28.8417 13.6464 28.6464L16.8284 25.4645C17.0237 25.2692 17.3403 25.2692 17.5355 25.4645C17.7308 25.6597 17.7308 25.9763 17.5355 26.1716L14.7071 29L17.5355 31.8284C17.7308 32.0237 17.7308 32.3403 17.5355 32.5355C17.3403 32.7308 17.0237 32.7308 16.8284 32.5355L13.6464 29.3536ZM28 29.5H14V28.5H28V29.5Z" fill="#0080B4"/>
</svg>
