<svg width="52" height="42" viewBox="0 0 52 42" fill="none" xmlns="http://www.w3.org/2000/svg">
<circle cx="37" cy="15" r="15" fill="#CD3728" fill-opacity="0.3"/>
<path d="M35 20C35 11.7157 28.0604 5 19.5 5C10.9396 5 4 11.7157 4 20" stroke="#0080B4" stroke-width="1.5"/>
<rect x="31.75" y="19.75" width="4.5" height="11.5" rx="1.25" stroke="#0080B4" stroke-width="1.5"/>
<rect x="2.75" y="19.75" width="4.5" height="11.5" rx="1.25" stroke="#0080B4" stroke-width="1.5"/>
<rect x="0.75" y="22.75" width="1.5" height="5.5" rx="0.75" stroke="#0080B4" stroke-width="1.5"/>
<rect x="36.75" y="22.75" width="1.5" height="5.5" rx="0.75" stroke="#0080B4" stroke-width="1.5"/>
<path d="M25.25 38C25.25 38.8055 24.8026 39.6003 23.948 40.2219C23.0941 40.8429 21.8775 41.25 20.5 41.25C19.1225 41.25 17.9059 40.8429 17.052 40.2219C16.1974 39.6003 15.75 38.8055 15.75 38C15.75 37.1945 16.1974 36.3997 17.052 35.7781C17.9059 35.1571 19.1225 34.75 20.5 34.75C21.8775 34.75 23.0941 35.1571 23.948 35.7781C24.8026 36.3997 25.25 37.1945 25.25 38Z" stroke="#0080B4" stroke-width="1.5"/>
<path d="M34 31C33.625 33.7983 31.7 39.7909 24.5 38" stroke="#0080B4" stroke-width="1.5"/>
</svg>
