<svg width="57" height="46" viewBox="0 0 57 46" fill="none" xmlns="http://www.w3.org/2000/svg">
<circle cx="42" cy="15" r="15" fill="#CD3728" fill-opacity="0.3"/>
<path d="M15.1714 17.3326C15.642 22.5128 24.3887 28.5173 28.7032 30.8719C35.7633 22.866 41.8428 29.8908 44 34.404C43.5293 40.0552 39.0972 43.8227 36.9399 45C24.2318 44.0581 15.1714 35.9737 12.2297 32.0493C2.34556 21.2178 0.658984 12.2308 1.05121 9.09119C1.52188 4.38184 7.52295 2.41961 10.4646 2.02717C13.7593 1.55623 17.3286 7.32519 18.7014 10.2685C18.7014 11.6813 16.348 15.5666 15.1714 17.3326Z" stroke="#0080B4" stroke-width="1.5"/>
<path d="M23 11V14C23 16.7614 25.2386 19 28 19V19C30.7614 19 33 16.7614 33 14V11" stroke="#0080B4" stroke-width="1.5"/>
<rect x="25.75" y="4.75" width="4.5" height="10.5" rx="2.25" stroke="#0080B4" stroke-width="1.5"/>
<path d="M28 19V24" stroke="#0080B4" stroke-width="1.5"/>
<path d="M27.5556 24H24H32" stroke="#0080B4" stroke-width="1.5"/>
<path d="M34 19.7815V24.1629C34 24.5412 34.4039 24.7825 34.7371 24.6031L39.1185 22.2439C39.4815 22.0484 39.4653 21.5224 39.091 21.3497L34.7095 19.3275C34.3782 19.1746 34 19.4166 34 19.7815Z" stroke="#0080B4" stroke-width="1.5"/>
</svg>
