<svg width="59" height="45" viewBox="0 0 59 45" fill="none" xmlns="http://www.w3.org/2000/svg">
<circle cx="44" cy="15" r="15" fill="#CD3728" fill-opacity="0.3"/>
<path d="M15.1714 16.3326C15.642 21.5128 24.3887 27.5173 28.7032 29.8719C35.7633 21.866 41.8428 28.8908 44 33.404C43.5293 39.0552 39.0972 42.8227 36.9399 44C24.2318 43.0581 15.1714 34.9737 12.2297 31.0493C2.34556 20.2178 0.658984 11.2308 1.05121 8.09119C1.52188 3.38184 7.52295 1.41961 10.4646 1.02717C13.7593 0.55623 17.3286 6.32519 18.7014 9.26853C18.7014 10.6813 16.348 14.5666 15.1714 16.3326Z" stroke="#0080B4" stroke-width="1.5"/>
<path d="M34.8874 1.71632C34.8773 1.30224 34.5334 0.974736 34.1193 0.984836L27.3713 1.14942C26.9572 1.15952 26.6297 1.50339 26.6398 1.91748C26.6499 2.33158 26.9938 2.65907 27.4079 2.64897L33.4061 2.50268L33.5524 8.50089C33.5625 8.91498 33.9064 9.24248 34.3205 9.23238C34.7346 9.22228 35.0621 8.87841 35.052 8.46432L34.8874 1.71632ZM22.789 14.7381L34.6807 2.25185L33.5945 1.21737L21.7028 13.7037L22.789 14.7381Z" fill="#0080B4"/>
<path d="M28.9284 21.9688C28.9385 22.3829 29.2824 22.7104 29.6965 22.7003L36.4445 22.5357C36.8586 22.5256 37.1861 22.1817 37.176 21.7677C37.1659 21.3536 36.822 21.0261 36.4079 21.0362L30.4097 21.1825L30.2634 15.1842C30.2533 14.7702 29.9094 14.4427 29.4953 14.4528C29.0812 14.4629 28.7537 14.8067 28.7638 15.2208L28.9284 21.9688ZM41.0268 8.94699L29.1351 21.4333L30.2213 22.4678L42.113 9.98147L41.0268 8.94699Z" fill="#0080B4"/>
</svg>
