<svg width="57" height="45" viewBox="0 0 57 45" fill="none" xmlns="http://www.w3.org/2000/svg">
<circle cx="42" cy="15" r="15" fill="#CD3728" fill-opacity="0.3"/>
<path d="M15.1714 16.3326C15.642 21.5128 24.3887 27.5173 28.7032 29.8719C35.7633 21.866 41.8428 28.8908 44 33.404C43.5293 39.0552 39.0972 42.8227 36.9399 44C24.2318 43.0581 15.1714 34.9737 12.2297 31.0493C2.34556 20.2178 0.658984 11.2308 1.05121 8.09119C1.52188 3.38184 7.52295 1.41961 10.4646 1.02717C13.7593 0.55623 17.3286 6.32519 18.7014 9.26853C18.7014 10.6813 16.348 14.5666 15.1714 16.3326Z" stroke="#0080B4" stroke-width="1.5"/>
<circle cx="32" cy="13" r="10.25" stroke="#0080B4" stroke-width="1.5"/>
<path d="M32 7V13.2069L39 16" stroke="#0080B4" stroke-width="1.5"/>
</svg>
