<svg width="52" height="47" viewBox="0 0 52 47" fill="none" xmlns="http://www.w3.org/2000/svg">
<circle cx="37" cy="16" r="15" fill="#56D6FF" fill-opacity="0.5"/>
<path d="M9.79294 25.6758L9.77914 25.6893L18.1555 37.4602C19.5914 37.931 20.3493 37.6564 25.5487 34.4602L33.925 29.1633C35.8396 27.7508 35.5205 27.0053 35.1216 26.8091C35.1216 25.8675 33.5261 26.0244 32.7284 26.2206C34.643 25.2789 34.7228 23.8664 34.5233 23.2779C34.0447 21.8654 32.3295 21.9046 31.5318 22.1008C34.5233 20.9237 32.7284 18.5696 30.9335 18.5696L37.5149 14.4498C37.9935 13.5081 37.7143 12.488 37.5149 12.0956C36.5576 11.1539 35.1216 11.3109 34.5233 11.507L21.9588 18.5696C22.9161 17.1571 22.7566 14.8421 22.5572 13.8612C22.5572 8.21121 18.9673 9.54524 17.1724 10.9185C17.6489 17.9493 10.8379 24.648 9.79294 25.6758Z" stroke="white" stroke-width="1.5"/>
<rect x="1.044" y="29.3772" width="9.33773" height="19.4747" rx="2.25" transform="rotate(-34.8302 1.044 29.3772)" stroke="white" stroke-width="1.5"/>
<line x1="22.555" y1="2.12984" x2="24.9634" y2="8.1508" stroke="white" stroke-width="1.5"/>
<line x1="28.6221" y1="0.106066" x2="27.4179" y2="8.53541" stroke="white" stroke-width="1.5"/>
<line x1="34.4309" y1="4.14291" x2="29.6142" y2="8.95967" stroke="white" stroke-width="1.5"/>
</svg>
