<svg width="66" height="41" viewBox="0 0 66 41" fill="none" xmlns="http://www.w3.org/2000/svg">
<circle cx="50" cy="15" r="15" fill="#CD3728" fill-opacity="0.3"/>
<mask id="mask0_117_107" style="mask-type:alpha" maskUnits="userSpaceOnUse" x="0" y="11" width="66" height="30">
<path d="M6.32285 32.9335H6.72891L6.34863 34.5107C6.29062 34.7425 6.30352 34.9227 6.38086 35.0386C6.4582 35.1545 6.6 35.2124 6.8127 35.2124C7.01895 35.2124 7.19297 35.1545 7.32832 35.0386C7.46367 34.9227 7.55391 34.7425 7.61191 34.5107L7.99219 32.9335H8.40469L8.01797 34.5494C7.93418 34.897 7.78594 35.1609 7.5668 35.3348C7.3541 35.5086 7.07051 35.5987 6.72246 35.5987C6.37441 35.5987 6.13594 35.515 6.00703 35.3412C5.87812 35.1674 5.85234 34.9034 5.93613 34.5558L6.32285 32.9335ZM8.34668 35.5279L8.99121 32.8305L10.2158 34.4142C10.248 34.4592 10.2803 34.5043 10.3125 34.5558C10.3447 34.6073 10.377 34.6652 10.4156 34.7296L10.8475 32.9335H11.2277L10.5832 35.6245L9.33281 34.0086C9.30059 33.9635 9.26836 33.9185 9.23613 33.8734C9.20391 33.8219 9.17813 33.7768 9.15879 33.7189L8.72695 35.5215H8.34668V35.5279ZM11.1955 35.5279L11.8143 32.9335H12.2268L11.608 35.5279H11.1955ZM12.1945 35.5279L12.8133 32.9335H14.2248L14.141 33.294H13.142L12.9873 33.9378H13.9863L13.8961 34.3047H12.8971L12.607 35.5215H12.1945V35.5279ZM14.0637 35.5279L14.6824 32.9335H15.0949L14.4762 35.5279H14.0637ZM15.0627 35.5279L15.6814 32.9335H17.093L17.0092 33.294H16.0102L15.8555 33.9442H16.8545L16.7643 34.3112H15.7652L15.5654 35.1481H16.5645L16.4742 35.5279H15.0627ZM16.9512 35.5279L17.5699 32.9335H18.1242C18.4852 32.9335 18.7365 32.9528 18.8719 32.9914C19.0072 33.03 19.1232 33.088 19.2135 33.1781C19.3295 33.294 19.4068 33.4421 19.4391 33.6159C19.4713 33.7961 19.4584 34.0021 19.4068 34.2275C19.3488 34.4592 19.265 34.6588 19.149 34.8391C19.033 35.0193 18.8848 35.1609 18.7107 35.2768C18.5818 35.367 18.44 35.4249 18.2854 35.4635C18.1371 35.5021 17.9115 35.5215 17.615 35.5215H17.5055H16.9512V35.5279ZM17.4539 35.1416H17.802C17.9889 35.1416 18.1371 35.1288 18.2402 35.103C18.3434 35.0773 18.4336 35.0322 18.5174 34.9743C18.6334 34.8906 18.7301 34.7876 18.8074 34.6588C18.8848 34.5365 18.9428 34.3884 18.9814 34.221C19.0201 34.0537 19.033 33.912 19.0137 33.7897C18.9943 33.6674 18.9492 33.5579 18.8719 33.4743C18.8139 33.4099 18.743 33.3712 18.6463 33.3455C18.5496 33.3197 18.4014 33.3069 18.1887 33.3069H18.0404H17.8922L17.4539 35.1416ZM21.3018 34.3627L21.0246 35.5279H20.6379L21.2566 32.9335H21.8818C22.0688 32.9335 22.1977 32.9464 22.2815 32.9657C22.3652 32.985 22.4297 33.0172 22.4813 33.0687C22.5457 33.1266 22.5908 33.2103 22.6102 33.3133C22.6295 33.4163 22.6231 33.5258 22.5973 33.6481C22.565 33.7704 22.5199 33.8863 22.449 33.9893C22.3781 34.0923 22.2943 34.176 22.2041 34.2339C22.1268 34.279 22.043 34.3176 21.9527 34.3369C21.8625 34.3562 21.7207 34.3691 21.5402 34.3691H21.4564H21.3018V34.3627ZM21.4113 34.015H21.5145C21.74 34.015 21.9012 33.9893 21.9914 33.9378C22.0816 33.8863 22.1397 33.7961 22.1719 33.6674C22.2041 33.5322 22.1848 33.4292 22.1203 33.3777C22.0494 33.3197 21.9076 33.294 21.6949 33.294H21.5918L21.4113 34.015ZM23.9959 35.5279L23.867 34.8584H22.8615L22.4104 35.5279H21.9785L23.8477 32.8305L24.4277 35.5279H23.9959ZM23.1064 34.5043H23.809L23.693 33.912C23.6865 33.8734 23.6801 33.8283 23.6801 33.7833C23.6736 33.7318 23.6736 33.6803 23.6736 33.6223C23.6479 33.6803 23.6221 33.7318 23.5898 33.7833C23.5641 33.8348 23.5383 33.8798 23.5125 33.9185L23.1064 34.5043ZM25.0207 35.5279L25.3043 34.3434L24.7887 32.9399H25.2205L25.5428 33.8219C25.5492 33.8476 25.5557 33.8734 25.5686 33.912C25.5815 33.9506 25.5879 33.9893 25.6008 34.0279C25.6266 33.9893 25.6523 33.9506 25.6781 33.912C25.7039 33.8734 25.7297 33.8412 25.7555 33.809L26.5096 32.9399H26.9221L25.7168 34.3369L25.4332 35.5215H25.0207V35.5279ZM28.9459 34.2468C28.9459 34.2275 28.9523 34.1695 28.9652 34.0794C28.9717 34.0021 28.9781 33.9442 28.9846 33.8927C28.9588 33.9506 28.933 34.0086 28.9008 34.073C28.8686 34.1309 28.8299 34.1953 28.7848 34.2532L27.7922 35.6373L27.4699 34.2275C27.457 34.1695 27.4441 34.1116 27.4377 34.0601C27.4313 34.0086 27.4248 33.9506 27.4248 33.8991C27.4119 33.9506 27.3926 34.0086 27.3732 34.073C27.3539 34.1309 27.3281 34.1953 27.2959 34.2597L26.7158 35.5343H26.3356L27.5795 32.8305L27.934 34.4657C27.9404 34.4914 27.9469 34.5365 27.9533 34.5944C27.9598 34.6524 27.9727 34.7296 27.9856 34.8197C28.0307 34.7425 28.0887 34.6524 28.166 34.5365C28.1854 34.5043 28.2047 34.485 28.2111 34.4657L29.3326 32.8305L29.294 35.5343H28.9137L28.9459 34.2468ZM29.6291 35.5279L30.2479 32.9335H31.6594L31.5756 33.294H30.5766L30.4219 33.9442H31.4209L31.3307 34.3112H30.3316L30.1318 35.1481H31.1309L31.0406 35.5279H29.6291ZM31.5111 35.5279L32.1557 32.8305L33.3803 34.4142C33.4125 34.4592 33.4447 34.5043 33.477 34.5558C33.5092 34.6073 33.5414 34.6652 33.5801 34.7296L34.0119 32.9335H34.3922L33.7477 35.6245L32.4973 34.0086C32.465 33.9635 32.4328 33.9185 32.4006 33.8734C32.3684 33.8219 32.3426 33.7768 32.3232 33.7189L31.8914 35.5215H31.5111V35.5279ZM35.707 33.2876L35.1721 35.5215H34.7596L35.2945 33.2876H34.6242L34.708 32.927H36.4611L36.3774 33.2876H35.707ZM36.1389 35.0064L36.5063 34.8519C36.5127 34.9678 36.5449 35.0579 36.6158 35.1159C36.6867 35.1738 36.7834 35.206 36.9123 35.206C37.0348 35.206 37.1379 35.1738 37.2281 35.103C37.3184 35.0322 37.3764 34.9421 37.4022 34.8262C37.4408 34.6717 37.3506 34.5365 37.1315 34.4206C37.0992 34.4013 37.0799 34.3884 37.0606 34.382C36.8156 34.2403 36.6609 34.118 36.5965 34.0021C36.532 33.8863 36.5191 33.7511 36.5578 33.5901C36.6094 33.3777 36.719 33.2103 36.893 33.0751C37.067 32.9464 37.2604 32.8755 37.4924 32.8755C37.6793 32.8755 37.8275 32.9142 37.9371 32.985C38.0467 33.0558 38.1047 33.1652 38.124 33.3004L37.7631 33.4678C37.7309 33.3841 37.6922 33.3262 37.6406 33.2876C37.5891 33.2489 37.5246 33.2296 37.4473 33.2296C37.3377 33.2296 37.241 33.2618 37.1637 33.3197C37.0863 33.3777 37.0348 33.4549 37.009 33.5579C36.9703 33.7124 37.0799 33.8605 37.3313 33.9957C37.3506 34.0086 37.3635 34.015 37.3764 34.0215C37.5955 34.1373 37.7438 34.2532 37.8082 34.3691C37.8727 34.485 37.8856 34.6202 37.8469 34.794C37.7889 35.0386 37.6664 35.2318 37.4795 35.3798C37.2926 35.5215 37.0734 35.5987 36.8156 35.5987C36.6029 35.5987 36.4354 35.5472 36.3193 35.4442C36.1904 35.3412 36.1324 35.1931 36.1389 35.0064ZM39.1746 35.5279L39.7934 32.9335H40.2059L39.5871 35.5279H39.1746ZM40.1801 35.5279L40.8246 32.8305L42.0492 34.4142C42.0815 34.4592 42.1137 34.5043 42.1459 34.5558C42.1781 34.6073 42.2104 34.6652 42.249 34.7296L42.6809 32.9335H43.0611L42.4166 35.6245L41.1662 34.0086C41.134 33.9635 41.1018 33.9185 41.0695 33.8734C41.0373 33.8219 41.0115 33.7768 40.9922 33.7189L40.5604 35.5215H40.1801V35.5279ZM44.376 33.2876L43.841 35.5215H43.4285L43.9635 33.2876H43.2932L43.377 32.927H45.1301L45.0463 33.2876H44.376ZM44.8207 35.5279L45.4395 32.9335H46.8574L46.7736 33.294H45.7746L45.6199 33.9442H46.619L46.5287 34.3112H45.5297L45.3299 35.1481H46.3289L46.2387 35.5279H44.8207ZM47.3666 34.3627L47.0895 35.5215H46.7027L47.3215 32.927H47.8951C48.0627 32.927 48.1916 32.9399 48.2754 32.9592C48.3656 32.9785 48.4365 33.0172 48.4881 33.0687C48.5526 33.133 48.5912 33.2103 48.6106 33.3133C48.6299 33.4099 48.6234 33.5193 48.5977 33.6416C48.5461 33.8476 48.4623 34.015 48.3334 34.1309C48.2045 34.2468 48.0434 34.3176 47.85 34.3434L48.4365 35.5215H47.9725L47.4117 34.3627H47.3666ZM47.4697 34.0343H47.5471C47.7662 34.0343 47.9145 34.0086 47.9983 33.9571C48.082 33.9056 48.1401 33.8155 48.1723 33.6803C48.2045 33.5386 48.1916 33.4356 48.1272 33.3777C48.0627 33.3197 47.9274 33.2876 47.7211 33.2876H47.6438L47.4697 34.0343ZM48.6879 35.5279L49.3067 32.9335H50.7182L50.6344 33.294H49.6354L49.4807 33.9378H50.4797L50.3895 34.3047H49.3904L49.1004 35.5215H48.6879V35.5279ZM52.091 35.5279L51.9621 34.8584H50.9566L50.5055 35.5279H50.0736L51.9428 32.8305L52.5229 35.5279H52.091ZM51.1951 34.5043H51.8977L51.7817 33.912C51.7752 33.8734 51.7688 33.8283 51.7688 33.7833C51.7623 33.7318 51.7623 33.6803 51.7623 33.6223C51.7365 33.6803 51.7108 33.7318 51.6785 33.7833C51.6527 33.8348 51.627 33.8798 51.6012 33.9185L51.1951 34.5043ZM55.2041 33.5644C55.1139 33.4614 55.0043 33.3841 54.8883 33.3391C54.7723 33.2876 54.6434 33.2618 54.4951 33.2618C54.218 33.2618 53.9731 33.3519 53.7539 33.5322C53.5348 33.7124 53.393 33.9506 53.3221 34.2403C53.2576 34.5172 53.2834 34.7489 53.4123 34.9356C53.5348 35.1159 53.7281 35.206 53.986 35.206C54.1342 35.206 54.2824 35.1803 54.4307 35.1223C54.5789 35.0708 54.7272 34.9871 54.8818 34.8777L54.7658 35.3541C54.6369 35.4378 54.5016 35.4957 54.3598 35.5343C54.218 35.573 54.0762 35.5923 53.9215 35.5923C53.7281 35.5923 53.5541 35.5601 53.4059 35.4957C53.2576 35.4313 53.1352 35.3348 53.0385 35.206C52.9418 35.0837 52.8838 34.9356 52.858 34.7682C52.8322 34.6009 52.8387 34.4206 52.8902 34.2275C52.9354 34.0343 53.0127 33.8605 53.1158 33.6931C53.219 33.5258 53.3543 33.3777 53.509 33.2554C53.6637 33.1266 53.8313 33.03 54.0117 32.9657C54.1922 32.9013 54.3727 32.8691 54.5596 32.8691C54.7078 32.8691 54.8432 32.8884 54.9721 32.9335C55.0945 32.9785 55.2106 33.0429 55.3137 33.133L55.2041 33.5644ZM55.2428 35.5279L55.8615 32.9335H57.2731L57.1893 33.294H56.1902L56.0356 33.9442H57.0346L56.9444 34.3112H55.9453L55.7455 35.1481H56.7445L56.6543 35.5279H55.2428Z" fill="#3D3D3C"/>
<path d="M47.7404 30.6738H44.9109L48.8426 16.4914H51.6721L47.7404 30.6738ZM46.2709 16.9356C46.0775 16.6652 45.7746 16.53 45.3621 16.53H29.816L29.049 19.3112H31.8785H43.19L42.365 22.279H31.0535V22.2725H28.224L25.8779 30.7382H28.7074L30.2801 25.0601H42.9967C43.3963 25.0601 43.7701 24.9249 44.1181 24.6545C44.4662 24.3841 44.6982 24.0493 44.8078 23.6502L46.3805 17.9721C46.5029 17.5472 46.4642 17.206 46.2709 16.9356ZM24.2279 29.7854C24.0732 30.3455 23.5576 30.7382 22.9775 30.7382H8.3918C7.99219 30.7382 7.6957 30.603 7.50234 30.3326C7.30898 30.0622 7.26387 29.7275 7.37988 29.3283L10.9377 16.53H13.7672L10.5896 27.9635H21.9076L25.0851 16.53H27.9146L24.2279 29.7854Z" fill="#70706E"/>
<path d="M56.5576 16.5172L60.1348 23.6245L52.6131 30.7318L56.5576 16.5172Z" fill="#098041"/>
<path d="M54.0439 16.5172L57.6211 23.6245L50.093 30.7318L54.0439 16.5172Z" fill="#E97626"/>
</mask>
<g mask="url(#mask0_117_107)">
<rect x="1" y="12" width="64" height="32" fill="#0080B4"/>
</g>
</svg>
