<svg width="41" height="45" viewBox="0 0 41 45" fill="none" xmlns="http://www.w3.org/2000/svg">
<circle cx="26" cy="15" r="15" fill="#56D6FF" fill-opacity="0.5"/>
<path d="M12.7072 35H6.26675M12.7072 35H17.3478C17.5983 35 17.8104 34.8169 17.8383 34.568C18.2188 31.1754 18.1516 24.6577 15.0916 22.6015M12.7072 35C13.7447 32.2679 14.8458 27.7857 15.0916 22.6015M6.26675 35C5.00834 30.4546 4.36956 26.3148 4.17032 22.6015M6.26675 35H2.05472C1.83458 35 1.63893 34.8539 1.57946 34.642C-0.201898 28.2935 2.54324 23.9817 4.17032 22.6015M4.17032 22.6015C3.58714 11.7325 6.76981 4.51763 9.20201 1.47984C9.40384 1.22776 9.7858 1.25644 9.96179 1.52719C14.3291 8.24598 15.405 15.994 15.0916 22.6015" stroke="white" stroke-width="1.5"/>
<circle cx="9.5" cy="17.5" r="2.75" stroke="white" stroke-width="1.5"/>
<line x1="5.75" y1="37" x2="5.75" y2="45" stroke="white" stroke-width="1.5"/>
<line x1="9.75" y1="37" x2="9.75" y2="45" stroke="white" stroke-width="1.5"/>
<line x1="13.75" y1="37" x2="13.75" y2="45" stroke="white" stroke-width="1.5"/>
</svg>
