<svg width="58" height="35" viewBox="0 0 58 35" fill="none" xmlns="http://www.w3.org/2000/svg">
<circle cx="43" cy="15" r="15" fill="#CD3728" fill-opacity="0.3"/>
<path d="M16.25 16C16.25 17.7949 14.7949 19.25 13 19.25C11.2051 19.25 9.75 17.7949 9.75 16C9.75 14.2051 11.2051 12.75 13 12.75C14.7949 12.75 16.25 14.2051 16.25 16Z" stroke="#0080B4" stroke-width="1.5"/>
<path d="M12.6562 21.7776L13 21.955L13.3438 21.7776L15.3293 20.7534C16.6707 20.8063 17.5764 21.4659 18.1956 22.3164C18.8489 23.2138 19.1643 24.3083 19.25 25.0419V29.25H6.75V24.5362C7.49366 21.6196 9.62602 20.8332 10.6766 20.7565L12.6562 21.7776Z" stroke="#0080B4" stroke-width="1.5"/>
<line x1="23" y1="16.5" x2="41" y2="16.5" stroke="#0080B4"/>
<line x1="23" y1="20.5" x2="41" y2="20.5" stroke="#0080B4"/>
<line x1="23" y1="24.5" x2="41" y2="24.5" stroke="#0080B4"/>
<line x1="23" y1="28.5" x2="41" y2="28.5" stroke="#0080B4"/>
<mask id="path-8-inside-1_119_202" fill="white">
<rect y="7" width="48" height="28" rx="0.5"/>
</mask>
<rect y="7" width="48" height="28" rx="0.5" stroke="#0080B4" stroke-width="3" mask="url(#path-8-inside-1_119_202)"/>
</svg>
