<svg width="49" height="44" viewBox="0 0 49 44" fill="none" xmlns="http://www.w3.org/2000/svg">
<circle cx="34" cy="15" r="15" fill="#CD3728" fill-opacity="0.3"/>
<line y1="7.8707" x2="24" y2="7.8707" stroke="#0080B4" stroke-width="1.5"/>
<line y1="36.8707" x2="24" y2="36.8707" stroke="#0080B4" stroke-width="1.5"/>
<line x1="10" y1="4.1207" x2="17" y2="4.1207" stroke="#0080B4"/>
<circle cx="6.5" cy="4.1207" r="0.5" fill="#0080B4"/>
<circle cx="12" cy="39.6207" r="1" fill="#0080B4"/>
<path d="M9.53223 21.0162V21.252C9.53223 21.6303 9.48096 21.9698 9.37842 22.2706C9.27588 22.5714 9.13118 22.8277 8.94434 23.0396C8.75749 23.2493 8.53418 23.4099 8.27441 23.5216C8.01693 23.6332 7.73096 23.6891 7.4165 23.6891C7.10433 23.6891 6.81836 23.6332 6.55859 23.5216C6.30111 23.4099 6.0778 23.2493 5.88867 23.0396C5.69954 22.8277 5.55257 22.5714 5.44775 22.2706C5.34521 21.9698 5.29395 21.6303 5.29395 21.252V21.0162C5.29395 20.6357 5.34521 20.2962 5.44775 19.9977C5.55029 19.6969 5.69499 19.4405 5.88184 19.2286C6.07096 19.0167 6.29427 18.8549 6.55176 18.7433C6.81152 18.6316 7.09749 18.5758 7.40967 18.5758C7.72412 18.5758 8.01009 18.6316 8.26758 18.7433C8.52734 18.8549 8.75065 19.0167 8.9375 19.2286C9.12663 19.4405 9.27246 19.6969 9.375 19.9977C9.47982 20.2962 9.53223 20.6357 9.53223 21.0162ZM8.49658 21.252V21.0094C8.49658 20.745 8.47266 20.5126 8.4248 20.3121C8.37695 20.1116 8.30632 19.943 8.21289 19.8062C8.11947 19.6695 8.00553 19.567 7.87109 19.4986C7.73665 19.428 7.58285 19.3927 7.40967 19.3927C7.23649 19.3927 7.08268 19.428 6.94824 19.4986C6.81608 19.567 6.70329 19.6695 6.60986 19.8062C6.51872 19.943 6.44922 20.1116 6.40137 20.3121C6.35352 20.5126 6.32959 20.745 6.32959 21.0094V21.252C6.32959 21.5141 6.35352 21.7465 6.40137 21.9493C6.44922 22.1498 6.51986 22.3196 6.61328 22.4586C6.70671 22.5953 6.82064 22.699 6.95508 22.7696C7.08952 22.8403 7.24333 22.8756 7.4165 22.8756C7.58968 22.8756 7.74349 22.8403 7.87793 22.7696C8.01237 22.699 8.12516 22.5953 8.21631 22.4586C8.30745 22.3196 8.37695 22.1498 8.4248 21.9493C8.47266 21.7465 8.49658 21.5141 8.49658 21.252ZM12.2632 18.6441V23.6207H11.2412V18.6441H12.2632ZM13.7944 18.6441V19.4474H9.73389V18.6441H13.7944ZM16.3169 21.8468H15.0488V21.047H16.3169C16.5129 21.047 16.6724 21.0151 16.7954 20.9513C16.9185 20.8852 17.0085 20.794 17.0654 20.6778C17.1224 20.5616 17.1509 20.4306 17.1509 20.2848C17.1509 20.1366 17.1224 19.9988 17.0654 19.8712C17.0085 19.7436 16.9185 19.641 16.7954 19.5636C16.6724 19.4861 16.5129 19.4474 16.3169 19.4474H15.4043V23.6207H14.3789V18.6441H16.3169C16.7065 18.6441 17.0404 18.7148 17.3184 18.856C17.5986 18.995 17.8128 19.1876 17.9609 19.4337C18.109 19.6798 18.1831 19.9612 18.1831 20.2779C18.1831 20.5992 18.109 20.8772 17.9609 21.1119C17.8128 21.3466 17.5986 21.5278 17.3184 21.6554C17.0404 21.783 16.7065 21.8468 16.3169 21.8468Z" fill="#0080B4"/>
<path d="M24.3052 19.3301L24.8594 18.666L24.0659 18.4463L24.2246 17.9849L25.001 18.3047L24.9424 17.4453H25.4624L25.3989 18.3218L26.1582 18.0093L26.3145 18.4756L25.5088 18.6953L26.0435 19.3423L25.6235 19.6304L25.1743 18.9126L24.7251 19.606L24.3052 19.3301ZM26.6343 19.3301L27.1885 18.666L26.395 18.4463L26.5537 17.9849L27.3301 18.3047L27.2715 17.4453H27.7915L27.728 18.3218L28.4873 18.0093L28.6436 18.4756L27.8379 18.6953L28.3726 19.3423L27.9526 19.6304L27.5034 18.9126L27.0542 19.606L26.6343 19.3301ZM28.9634 19.3301L29.5176 18.666L28.7241 18.4463L28.8828 17.9849L29.6592 18.3047L29.6006 17.4453H30.1206L30.0571 18.3218L30.8164 18.0093L30.9727 18.4756L30.167 18.6953L30.7017 19.3423L30.2817 19.6304L29.8325 18.9126L29.3833 19.606L28.9634 19.3301ZM31.2925 19.3301L31.8467 18.666L31.0532 18.4463L31.2119 17.9849L31.9883 18.3047L31.9297 17.4453H32.4497L32.3862 18.3218L33.1455 18.0093L33.3018 18.4756L32.4961 18.6953L33.0308 19.3423L32.6108 19.6304L32.1616 18.9126L31.7124 19.606L31.2925 19.3301Z" fill="#0080B4"/>
<path fill-rule="evenodd" clip-rule="evenodd" d="M2 2H22.1379C22.6902 2 23.1379 2.44772 23.1379 3V13H24.1379V3C24.1379 1.89543 23.2425 1 22.1379 1H2C0.895431 1 0 1.89543 0 3V41.2414C0 42.3459 0.89543 43.2414 2 43.2414H22.1379C23.2425 43.2414 24.1379 42.3459 24.1379 41.2414V27H23.1379V41.2414C23.1379 41.7937 22.6902 42.2414 22.1379 42.2414H2C1.44772 42.2414 1 41.7937 1 41.2414V3C1 2.44772 1.44772 2 2 2Z" fill="#0080B4"/>
<path d="M35.5044 15H21.4996C21.2234 15 21 15.2239 21 15.5V22.6345C21 22.9106 21.2239 23.1345 21.5 23.1345H22.8977C23.0951 23.1345 23.274 23.2506 23.3544 23.4308L24.0794 25.0567C24.2496 25.4384 24.7852 25.4552 24.979 25.0849L25.8597 23.4026C25.9459 23.2377 26.1166 23.1345 26.3026 23.1345H35.5C35.7761 23.1345 36 22.9106 36 22.6345V15.5C36 15.2239 35.7806 15 35.5044 15Z" stroke="#0080B4"/>
</svg>
