<svg width="52" height="44" viewBox="0 0 52 44" fill="none" xmlns="http://www.w3.org/2000/svg">
<circle cx="37" cy="15" r="15" fill="#CD3728" fill-opacity="0.3"/>
<path d="M19.25 8C19.25 9.79493 17.7949 11.25 16 11.25C14.2051 11.25 12.75 9.79493 12.75 8C12.75 6.20507 14.2051 4.75 16 4.75C17.7949 4.75 19.25 6.20507 19.25 8Z" stroke="#0080B4" stroke-width="1.5"/>
<path d="M15.6562 13.7776L16 13.955L16.3438 13.7776L18.3293 12.7534C19.6707 12.8063 20.5764 13.4659 21.1956 14.3164C21.8489 15.2138 22.1643 16.3083 22.25 17.0419V21.25H9.75V16.5362C10.4937 13.6196 12.626 12.8332 13.6766 12.7565L15.6562 13.7776Z" stroke="#0080B4" stroke-width="1.5"/>
<line x1="4" y1="25.5" x2="28" y2="25.5" stroke="#0080B4"/>
<line x1="4" y1="29.5" x2="28" y2="29.5" stroke="#0080B4"/>
<line x1="4" y1="33.5" x2="28" y2="33.5" stroke="#0080B4"/>
<line x1="4" y1="37.5" x2="28" y2="37.5" stroke="#0080B4"/>
<mask id="path-8-inside-1_120_4" fill="white">
<rect width="32" height="44" rx="0.5"/>
</mask>
<rect width="32" height="44" rx="0.5" stroke="#0080B4" stroke-width="3" mask="url(#path-8-inside-1_120_4)"/>
</svg>
