<svg width="50" height="44" viewBox="0 0 50 44" fill="none" xmlns="http://www.w3.org/2000/svg">
<circle cx="35" cy="15" r="15" fill="#56D6FF" fill-opacity="0.5"/>
<line y1="8.25" x2="24" y2="8.25" stroke="white" stroke-width="1.5"/>
<line y1="37.25" x2="24" y2="37.25" stroke="white" stroke-width="1.5"/>
<line x1="10" y1="4.5" x2="17" y2="4.5" stroke="white"/>
<circle cx="6.5" cy="4.5" r="0.5" fill="white"/>
<circle cx="12" cy="40" r="1" fill="white"/>
<path d="M23 18C24.5092 19.5 26.6222 23.6 23 28" stroke="white" stroke-width="1.5"/>
<path d="M27 15C28.3385 16.4062 33.0233 23.4375 27 30" stroke="white" stroke-width="1.5"/>
<path d="M29 12C31.677 13.5714 41.0465 24.5714 29 34" stroke="white" stroke-width="1.5"/>
<path d="M7.38232 22.2261H6.11426V21.4263H7.38232C7.57829 21.4263 7.73779 21.3944 7.86084 21.3306C7.98389 21.2645 8.07389 21.1733 8.13086 21.0571C8.18783 20.9409 8.21631 20.8099 8.21631 20.6641C8.21631 20.516 8.18783 20.3781 8.13086 20.2505C8.07389 20.1229 7.98389 20.0203 7.86084 19.9429C7.73779 19.8654 7.57829 19.8267 7.38232 19.8267H6.46973V24H5.44434V19.0234H7.38232C7.77197 19.0234 8.10579 19.0941 8.38379 19.2354C8.66406 19.3743 8.87826 19.5669 9.02637 19.813C9.17448 20.0591 9.24854 20.3405 9.24854 20.6572C9.24854 20.9785 9.17448 21.2565 9.02637 21.4912C8.87826 21.7259 8.66406 21.9071 8.38379 22.0347C8.10579 22.1623 7.77197 22.2261 7.38232 22.2261ZM11.4121 19.8745L10.0586 24H8.96826L10.8174 19.0234H11.5112L11.4121 19.8745ZM12.5366 24L11.1797 19.8745L11.0703 19.0234H11.771L13.6304 24H12.5366ZM12.4751 22.1475V22.9507H9.84668V22.1475H12.4751ZM14.3242 19.0234L15.3633 21.293L16.4023 19.0234H17.52L15.8828 22.1885V24H14.8438V22.1885L13.2031 19.0234H14.3242Z" fill="white"/>
<path fill-rule="evenodd" clip-rule="evenodd" d="M2 2.37931H22.1379C22.6902 2.37931 23.1379 2.82703 23.1379 3.37931V13.4483H24.1379V3.37931C24.1379 2.27474 23.2425 1.37931 22.1379 1.37931H2C0.895431 1.37931 0 2.27474 0 3.37931V41.6207C0 42.7253 0.89543 43.6207 2 43.6207H22.1379C23.2425 43.6207 24.1379 42.7253 24.1379 41.6207V31.5517H23.1379V41.6207C23.1379 42.173 22.6902 42.6207 22.1379 42.6207H2C1.44772 42.6207 1 42.173 1 41.6207V3.37931C1 2.82703 1.44772 2.37931 2 2.37931Z" fill="white"/>
</svg>
