<?xml version="1.0" encoding="utf-8"?>
<!-- Generator: Adobe Illustrator 26.0.3, SVG Export Plug-In . SVG Version: 6.00 Build 0)  -->
<svg version="1.1" id="Layer_1" xmlns="http://www.w3.org/2000/svg" xmlns:xlink="http://www.w3.org/1999/xlink" x="0px" y="0px"
	 viewBox="0 0 1030.14 254.7" style="enable-background:new 0 0 1030.14 254.7;" xml:space="preserve">
<style type="text/css">
	.st0{fill:#ffffff;}
	.st1{fill:#ffffff;}
</style>
<g>
	<path class="st0" d="M283.84,1.64v30.9h-47.16V148.5H203.3V32.53h-47.12V1.64H283.84z M720.02,117.09V87.13h-62.93
		c-5.13,0-10.74,2.2-10.74,14.81c0,12.59,5.66,15.15,10.74,15.15H720.02z M705.54,1.64c35.26,0,47.49,13.28,47.49,50.29v96.54
		h-99.44c-26.69,0-40-11.96-40-41.99v-6.94c0-29.14,12.82-42.04,38.6-42.04h67.84l-0.02-5.18c0-14.08-4.7-19.55-16.7-19.55h-81.83
		V1.64H705.54 M997.13,117.09V87.13h-62.95c-5.11,0-10.72,2.2-10.72,14.81c0,12.59,5.67,15.15,10.72,15.15H997.13z M982.61,1.64
		c35.35,0,47.51,13.28,47.51,50.29v96.54h-99.42c-26.67,0-40.01-11.96-40.01-41.99v-6.94c0-29.14,12.83-42.04,38.63-42.04h67.81
		v-5.18c0-14.08-4.7-19.55-16.68-19.55H898.6V1.64H982.61 M294.45,1.64v30.9h47.13V148.5h33.4V32.53h47.11V1.64H294.45z
		 M759.75,1.64v30.9h47.13V148.5h33.37V32.53h47.19V1.64H759.75z M566.56,52.45c0-14.08-4.74-19.56-16.74-19.56h-53.76v84.34h53.76
		c12,0,16.74-5.44,16.74-19.55V52.45z M600.65,97.03c0,33.71-11.28,51.45-47.03,51.45H462.7V1.62h89.35
		c33.67,0,48.6,12.95,48.6,51.48V97.03 M109.12,113.51c-0.72-1.3-45.32-88.22-50.77-96.8C52.04,6.83,44.39,0,29.75,0
		C16.11,0,0,6,0,38.72v109.83h32.87V56.97c0-6.58-0.41-16.31-0.48-18.29c-0.07-1.62,0-3.15,0.82-3.63l2.54,1.57
		c0.62,1.23,41.99,82.99,50.75,96.81c6.31,9.85,13.96,16.79,28.63,16.79c13.6,0,29.77-6.08,29.77-38.79V1.59h-32.94V93.2
		c0,6.56,0.41,16.34,0.49,18.29c0.09,1.64,0,3.1-0.83,3.65L109.12,113.51"/>
	<path class="st1" d="M524.96,198.64c5.44,2.91,8.76,8.01,9.97,15.39h-7.45c-0.85-4.09-2.71-7.07-5.49-8.95
		c-2.78-1.89-6.31-2.83-10.51-2.83c-5.08,0-9.29,1.94-12.73,5.83c-3.42,3.94-5.15,9.73-5.15,17.45c0,6.7,1.41,12.15,4.26,16.29
		c2.85,4.23,7.48,6.31,13.87,6.31c4.93,0,8.97-1.45,12.17-4.4c3.24-2.93,4.87-7.69,4.96-14.3h-17.37v-6.29h24.37v31.37H531
		l-1.82-8.56c-2.45,2.83-4.67,4.79-6.65,5.91c-3.24,1.89-7.34,2.83-12.35,2.83c-6.46,0-12.01-2.16-16.67-6.47
		c-5.08-5.4-7.63-12.8-7.63-22.26c0-9.39,2.5-16.91,7.46-22.43c4.7-5.2,10.82-7.99,18.3-7.99
		C516.79,195.55,521.21,196.57,524.96,198.64 M592.15,215.44c3.56,3.6,5.37,8.88,5.37,15.83c0,6.73-1.58,12.25-4.74,16.65
		c-3.15,4.41-8.04,6.6-14.64,6.6c-5.54,0-9.94-1.96-13.16-5.83c-3.27-3.85-4.87-9.12-4.87-15.63c0-6.99,1.69-12.61,5.13-16.72
		c3.39-4.16,8.03-6.25,13.8-6.25C584.23,210.09,588.55,211.88,592.15,215.44 M587.92,243.18c1.65-3.51,2.51-7.4,2.51-11.72
		c0-3.92-0.62-7.06-1.82-9.48c-1.87-3.87-5.13-5.78-9.78-5.78c-4.11,0-7.09,1.62-8.93,4.91c-1.89,3.27-2.8,7.23-2.8,11.83
		c0,4.43,0.9,8.09,2.8,11.08c1.84,2.97,4.81,4.45,8.88,4.45C583.22,248.47,586.3,246.68,587.92,243.18 M855.53,215.44
		c3.59,3.6,5.4,8.88,5.4,15.83c0,6.73-1.59,12.25-4.72,16.65c-3.17,4.41-8.03,6.6-14.67,6.6c-5.54,0-9.92-1.96-13.14-5.83
		c-3.27-3.85-4.86-9.12-4.86-15.63c0-6.99,1.67-12.61,5.09-16.72c3.43-4.16,8.01-6.25,13.8-6.25
		C847.62,210.09,851.97,211.88,855.53,215.44 M851.33,243.18c1.65-3.51,2.5-7.4,2.5-11.72c0-3.92-0.61-7.06-1.82-9.48
		c-1.87-3.87-5.13-5.78-9.76-5.78c-4.11,0-7.11,1.62-8.96,4.91c-1.86,3.27-2.78,7.23-2.78,11.83c0,4.43,0.92,8.09,2.78,11.08
		c1.86,2.97,4.81,4.45,8.88,4.45C846.63,248.47,849.68,246.68,851.33,243.18 M668.89,227.66c1.57-0.19,2.62-0.84,3.13-1.99
		l0.46-2.74c0-2.44-0.82-4.14-2.45-5.25c-1.65-1.06-4.04-1.64-7.07-1.64c-3.54,0-6.07,1.02-7.55,3c-0.84,1.11-1.38,2.79-1.6,4.94
		h-6.36c0.12-5.18,1.74-8.81,4.86-10.84c3.09-2.03,6.68-3.07,10.77-3.07c4.77,0,8.62,0.95,11.6,2.83c2.93,1.91,4.4,4.81,4.4,8.84
		v24.18l0.44,1.79l1.84,0.63l0.99-0.05l1.23-0.19v5.25l-2.44,0.6l-2.25,0.12c-2.33,0-4.04-0.89-5.11-2.59
		c-0.51-0.94-0.9-2.2-1.16-3.88c-1.38,1.89-3.34,3.49-5.98,4.89c-2.57,1.4-5.44,2.09-8.54,2.09c-3.73,0-6.82-1.19-9.2-3.58
		c-2.39-2.35-3.58-5.32-3.58-8.88c0-3.89,1.19-6.89,3.54-9.03c2.32-2.13,5.38-3.48,9.22-3.97L668.89,227.66z M654.57,246.8
		c1.45,1.18,3.14,1.77,5.11,1.77c2.37,0,4.7-0.58,6.94-1.72c3.77-1.89,5.67-5.06,5.67-9.39v-5.69l-3.2,1.41l-3.85,0.75l-4.09,0.56
		c-2.45,0.32-4.33,0.89-5.55,1.62c-2.11,1.23-3.17,3.17-3.17,5.85C652.43,244.02,653.16,245.64,654.57,246.8 M927.29,227.66
		c1.57-0.19,2.61-0.84,3.14-1.99l0.46-2.74c0-2.44-0.83-4.14-2.49-5.25c-1.62-1.06-3.99-1.64-7.04-1.64c-3.54,0-6.07,1.02-7.55,3
		c-0.8,1.11-1.36,2.79-1.6,4.94h-6.32c0.08-5.18,1.7-8.81,4.82-10.84c3.08-2.03,6.7-3.07,10.8-3.07c4.75,0,8.59,0.95,11.55,2.83
		c2.95,1.91,4.43,4.81,4.43,8.84v24.18l0.41,1.79l1.88,0.63l0.99-0.05l1.23-0.19v5.25l-2.44,0.6l-2.27,0.12
		c-2.32,0-4.04-0.89-5.1-2.59c-0.56-0.94-0.92-2.2-1.18-3.88c-1.38,1.89-3.37,3.49-5.93,4.89c-2.63,1.4-5.49,2.09-8.57,2.09
		c-3.77,0-6.84-1.19-9.19-3.58c-2.4-2.35-3.58-5.32-3.58-8.88c0-3.89,1.16-6.89,3.53-9.03c2.3-2.13,5.37-3.48,9.2-3.97
		L927.29,227.66z M913.01,246.8c1.43,1.18,3.1,1.77,5.08,1.77c2.39,0,4.72-0.58,6.95-1.72c3.77-1.89,5.67-5.06,5.67-9.39v-5.69
		l-3.22,1.41l-3.83,0.75l-4.12,0.56c-2.44,0.32-4.31,0.89-5.54,1.62c-2.13,1.23-3.15,3.17-3.15,5.85
		C910.84,244.02,911.58,245.64,913.01,246.8 M724.54,195.55h6.78v58.96h-6.78V195.55z M741.6,210.09h6.48v7.94
		c1.89-2.39,3.92-4.11,6.07-5.15c2.13-1.02,4.5-1.59,7.12-1.59c5.76,0,9.65,2.03,11.66,6.12c1.09,2.23,1.64,5.35,1.64,9.53v27.57
		h-6.9v-27.15c0-2.49-0.36-4.52-1.09-6c-1.21-2.57-3.39-3.85-6.58-3.85c-1.62,0-2.93,0.15-3.95,0.49c-1.86,0.55-3.51,1.69-4.91,3.41
		l-2.18,4.12c-0.38,1.45-0.55,3.53-0.55,6.19v22.78h-6.8V210.09z M783.71,210.09h6.46v7.94c1.89-2.39,3.9-4.11,6.05-5.15
		c2.13-1.02,4.53-1.59,7.14-1.59c5.74,0,9.59,2.03,11.64,6.12c1.07,2.23,1.65,5.35,1.65,9.53v27.57h-6.92v-27.15
		c0-2.49-0.37-4.52-1.11-6c-1.18-2.57-3.37-3.85-6.54-3.85c-1.62,0-2.93,0.15-3.97,0.49c-1.86,0.55-3.51,1.69-4.91,3.41l-2.2,4.12
		c-0.34,1.45-0.53,3.53-0.53,6.19v22.78h-6.77V210.09z M870.75,210.14l11.72,36.11l12.15-36.11h7.84L886,254.52h-7.45l-16.14-44.38
		H870.75z M948.45,195.55h6.85v14.54h6.48v5.62h-6.48v29.55l1.43,2.83l2.64,0.43l1.07-0.02l1.33-0.14v5.47l-2.45,0.55l-2.75,0.14
		c-3.13,0-5.3-0.84-6.46-2.47c-1.13-1.69-1.67-3.8-1.67-6.43v-29.91h-5.49v-5.62h5.49V195.55z M997.5,215.44
		c3.56,3.6,5.35,8.88,5.35,15.83c0,6.75-1.57,12.27-4.69,16.65c-3.17,4.43-8.09,6.6-14.69,6.6c-5.54,0-9.9-1.94-13.14-5.81
		c-3.27-3.85-4.88-9.12-4.88-15.63c0-7,1.69-12.61,5.1-16.73c3.46-4.16,8.04-6.25,13.82-6.25
		C989.56,210.09,993.92,211.89,997.5,215.44 M993.27,243.18c1.67-3.51,2.47-7.38,2.47-11.72c0-3.92-0.56-7.06-1.79-9.48
		c-1.91-3.87-5.13-5.78-9.76-5.78c-4.11,0-7.11,1.62-8.97,4.91c-1.86,3.27-2.79,7.24-2.79,11.83c0,4.45,0.94,8.11,2.79,11.08
		c1.86,2.98,4.84,4.45,8.9,4.45C988.55,248.47,991.6,246.69,993.27,243.18 M1010.45,210.09h6.41v7.99c0.56-1.35,1.89-3.05,3.97-5.03
		c1.99-1.96,4.36-2.96,7.12-2.96l0.56,0.03l1.62,0.17v7.26l-1.19-0.14l-1.01-0.02c-3.47,0-6.1,1.04-7.94,3.27
		c-1.86,2.25-2.73,6.1-2.73,8.95v24.9h-6.82V210.09z M635.69,215.49c-3.15-3.58-7.26-5.37-12.31-5.37c-2.44,0-4.68,0.56-6.77,1.6
		c-2.03,1.06-3.83,2.63-5.32,4.62v-20.79h-6.59v58.96h6.59v-6.27c1.31,1.79,2.56,3.1,3.7,3.95c2.13,1.55,4.76,2.32,7.82,2.32
		c5.49,0,9.83-2.18,12.9-6.6c3.13-4.4,4.67-9.87,4.67-16.51C640.39,224.4,638.84,219.1,635.69,215.49 M630.66,243.73
		c-1.81,3.02-4.57,4.55-8.25,4.55c-4.91,0-8.27-2.32-10.07-6.95c-0.95-2.44-1.43-5.62-1.43-9.58c0-5.44,1.18-9.39,3.51-11.74
		c2.37-2.4,5.06-3.56,8.16-3.56c3.56,0,6.27,1.43,8.08,4.31c1.86,2.95,2.78,6.58,2.78,10.99
		C633.44,236.71,632.52,240.7,630.66,243.73 M697.91,248.09l-1.5-2.83v-49.71h-6.82v50.07c0,2.63,0.56,4.74,1.71,6.43
		c1.14,1.64,3.29,2.47,6.46,2.47l1.62-0.05v-5.98L697.91,248.09 M554.59,248.09l-1.5-2.83v-49.71h-6.81v50.07
		c0,2.63,0.58,4.74,1.7,6.43c1.13,1.64,3.29,2.47,6.46,2.47l1.62-0.05v-5.98L554.59,248.09 M251.2,195.65v7.02h-19.6v51.84h-7.94
		v-51.84h-19.58v-7.02H251.2z M287.26,210.1v28.72c0,2.16,0.32,4,0.99,5.38c1.24,2.54,3.53,3.85,6.92,3.85
		c4.82,0,8.09-2.23,9.85-6.78c0.94-2.37,1.41-5.66,1.41-9.85V210.1h7.12v43.1h-6.75l0.1-6.31c-0.92,1.64-2.04,3.05-3.39,4.11
		c-2.64,2.23-5.9,3.43-9.68,3.43c-5.97,0-9.95-2.06-12.1-6.15c-1.19-2.2-1.77-5.15-1.77-8.79V210.1H287.26z M327.26,239.84
		c0.22,2.34,0.82,4.11,1.82,5.37c1.81,2.28,4.99,3.36,9.51,3.36c2.73,0,5.04-0.55,7.09-1.69c2.08-1.11,3.1-2.86,3.1-5.25
		c0-1.74-0.85-3.1-2.45-4.09c-1.07-0.58-3.13-1.21-6.2-1.94l-5.75-1.4c-3.66-0.9-6.37-1.89-8.13-2.97c-3.1-1.91-4.65-4.48-4.65-7.87
		c0-3.92,1.45-7.16,4.38-9.61c2.93-2.44,6.85-3.65,11.83-3.65c6.44,0,11.09,1.84,13.96,5.54c1.79,2.34,2.66,4.82,2.59,7.58h-6.7
		c-0.14-1.55-0.72-3.03-1.74-4.31c-1.67-1.82-4.55-2.76-8.71-2.76c-2.76,0-4.84,0.51-6.25,1.5c-1.41,1.01-2.13,2.35-2.13,4.04
		c0,1.79,0.94,3.24,2.78,4.31c1.11,0.7,2.69,1.21,4.81,1.67l4.75,1.21c5.22,1.16,8.73,2.35,10.5,3.53c2.74,1.79,4.13,4.55,4.13,8.42
		c0,3.73-1.45,6.95-4.33,9.61c-2.88,2.73-7.29,4.07-13.22,4.07c-6.39,0-10.91-1.41-13.57-4.23c-2.64-2.8-4.07-6.31-4.26-10.45
		H327.26z M426.4,231.44c0,6.63,1.55,12.1,4.63,16.48c3.12,4.41,7.41,6.6,12.92,6.6c3.1,0,5.71-0.77,7.82-2.32
		c1.16-0.83,2.4-2.16,3.72-3.95v6.27h6.61v-58.93h-6.61v20.77c-1.5-1.99-3.26-3.58-5.35-4.6c-2.08-1.07-4.33-1.62-6.77-1.62
		c-5.03,0-9.12,1.79-12.27,5.37C427.95,219.12,426.4,224.4,426.4,231.44 M433.37,231.76c0-4.41,0.94-8.04,2.73-10.99
		c1.84-2.86,4.57-4.29,8.11-4.29c3.07,0,5.83,1.14,8.15,3.56c2.33,2.33,3.49,6.29,3.49,11.72c0,3.95-0.48,7.12-1.43,9.59
		c-1.79,4.6-5.11,6.92-10.02,6.92c-3.66,0-6.46-1.52-8.3-4.53C434.31,240.7,433.37,236.71,433.37,231.76 M364.73,195.59h6.84v14.52
		h6.42v5.62h-6.42v29.53l1.45,2.83l2.63,0.43l1.09-0.02l1.26-0.14v5.49l-2.42,0.53l-2.71,0.14c-3.17,0-5.33-0.82-6.51-2.45
		c-1.07-1.7-1.62-3.82-1.62-6.41v-29.93h-5.54v-5.62h5.54V195.59z M411.25,212.2c2.76,1.36,4.91,3.19,6.36,5.4
		c1.4,2.15,2.4,4.57,2.85,7.43c0.43,1.93,0.63,4.98,0.63,9.25h-30.78c0.1,4.28,1.11,7.69,3,10.28c1.89,2.56,4.82,3.85,8.74,3.85
		c3.68,0,6.66-1.21,8.83-3.63c1.21-1.48,2.13-3.1,2.61-4.93h7.02c-0.21,1.5-0.82,3.22-1.82,5.16c-1.07,1.86-2.23,3.41-3.51,4.65
		c-2.1,2.08-4.82,3.48-7.98,4.21c-1.67,0.43-3.63,0.61-5.78,0.61c-5.22,0-9.66-1.93-13.29-5.72c-3.63-3.75-5.49-9.1-5.49-15.93
		c0-6.77,1.86-12.24,5.52-16.43c3.67-4.19,8.49-6.32,14.37-6.32C405.54,210.09,408.41,210.8,411.25,212.2 M413.79,228.71
		c-0.31-3.12-1.01-5.54-2.01-7.33c-1.94-3.44-5.16-5.16-9.69-5.16c-3.22,0-5.95,1.19-8.13,3.54c-2.2,2.32-3.39,5.32-3.51,8.95
		H413.79z M253.01,210.1h6.39v7.99c0.61-1.33,1.87-3.07,3.9-5.04c2.13-1.94,4.51-2.95,7.12-2.95l0.65,0.03l1.58,0.17v7.26
		l-1.13-0.15l-1.12-0.02c-3.44,0-6.02,1.06-7.87,3.29c-1.81,2.23-2.78,6.08-2.78,8.95v24.88h-6.75V210.1z"/>
</g>
</svg>
