<svg width="59" height="57" viewBox="0 0 59 57" fill="none" xmlns="http://www.w3.org/2000/svg">
<path d="M59 15C59 23.2843 52.2843 30 44 30C35.7157 30 29 23.2843 29 15C29 6.71573 35.7157 0 44 0C52.2843 0 59 6.71573 59 15Z" fill="#CD3728" fill-opacity="0.3"/>
<path d="M32 24H54" stroke="#0080B4" stroke-width="1.5"/>
<path d="M40.9667 24C45.8236 26.1429 51.6815 34 40.9667 39H32" stroke="#0080B4" stroke-width="1.5"/>
<path d="M47 54L36 39" stroke="#0080B4" stroke-width="1.5"/>
<path d="M32 30H54" stroke="#0080B4" stroke-width="1.5"/>
<path d="M10.7647 30H13.4837V43.1602H10.7647V43.5758H13.4837V43.7143H14.8431V37.4805H23V36.2338H14.8431V30M10 42.1905V46" stroke="#0080B4" stroke-width="1.5"/>
<path d="M9 36H6V39" stroke="#0080B4" stroke-width="1.5"/>
<mask id="path-8-inside-1_5_140" fill="white">
<rect y="23" width="27" height="30" rx="0.5"/>
</mask>
<rect y="23" width="27" height="30" rx="0.5" stroke="#0080B4" stroke-width="3" mask="url(#path-8-inside-1_5_140)"/>
<path d="M24 48L23 48L28 56L29 56L24 48Z" fill="#0080B4" stroke="#0080B4" stroke-width="1.5"/>
<rect width="3" height="3" transform="matrix(1 0 0 -1 5 30)" fill="#0080B4"/>
<rect width="3" height="3" transform="matrix(1 0 0 -1 5 47)" fill="#0080B4"/>
<rect width="3" height="3" transform="matrix(1 0 0 -1 18 33)" fill="#0080B4"/>
<path d="M3.02539 19.064H2.47754L2.47461 18.7622H2.93457C3.01562 18.7622 3.08203 18.752 3.13379 18.7314C3.18555 18.71 3.22412 18.6792 3.24951 18.6392C3.27588 18.5981 3.28906 18.5483 3.28906 18.4897C3.28906 18.4233 3.27637 18.3696 3.25098 18.3286C3.22656 18.2876 3.18799 18.2578 3.13525 18.2393C3.0835 18.2207 3.0166 18.2114 2.93457 18.2114H2.62988V20H2.19043V17.8672H2.93457C3.05859 17.8672 3.16943 17.8789 3.26709 17.9023C3.36572 17.9258 3.44922 17.9614 3.51758 18.0093C3.58594 18.0571 3.63818 18.1177 3.67432 18.1909C3.71045 18.2632 3.72852 18.3491 3.72852 18.4487C3.72852 18.5366 3.7085 18.6177 3.66846 18.6919C3.62939 18.7661 3.56738 18.8267 3.48242 18.8735C3.39844 18.9204 3.28857 18.9463 3.15283 18.9512L3.02539 19.064ZM3.00635 20H2.35742L2.52881 19.6572H3.00635C3.0835 19.6572 3.14648 19.645 3.19531 19.6206C3.24414 19.5952 3.28027 19.561 3.30371 19.5181C3.32715 19.4751 3.33887 19.4258 3.33887 19.3701C3.33887 19.3076 3.32812 19.2534 3.30664 19.2075C3.28613 19.1616 3.25293 19.1265 3.20703 19.1021C3.16113 19.0767 3.10059 19.064 3.02539 19.064H2.60205L2.60498 18.7622H3.13232L3.2334 18.8809C3.36328 18.8789 3.46777 18.9019 3.54688 18.9497C3.62695 18.9966 3.68506 19.0576 3.72119 19.1328C3.7583 19.208 3.77686 19.2886 3.77686 19.3745C3.77686 19.5112 3.74707 19.6265 3.6875 19.7202C3.62793 19.813 3.54053 19.8828 3.42529 19.9297C3.31104 19.9766 3.17139 20 3.00635 20ZM5.52881 18.7358V19.0786H4.41553V18.7358H5.52881ZM4.5459 17.8672V20H4.10645V17.8672H4.5459ZM5.84229 17.8672V20H5.4043V17.8672H5.84229ZM7.11816 18.2319L6.53809 20H6.0708L6.86328 17.8672H7.16064L7.11816 18.2319ZM7.6001 20L7.01855 18.2319L6.97168 17.8672H7.27197L8.06885 20H7.6001ZM7.57373 19.2061V19.5503H6.44727V19.2061H7.57373ZM8.2666 17.8672H9.06201C9.2251 17.8672 9.36523 17.8916 9.48242 17.9404C9.60059 17.9893 9.69141 18.0615 9.75488 18.1572C9.81836 18.2529 9.8501 18.3706 9.8501 18.5103C9.8501 18.6245 9.83057 18.7227 9.7915 18.8047C9.75342 18.8857 9.69922 18.9536 9.62891 19.0083C9.55957 19.062 9.47803 19.105 9.38428 19.1372L9.24512 19.2104H8.55371L8.55078 18.8677H9.06494C9.14209 18.8677 9.20605 18.854 9.25684 18.8267C9.30762 18.7993 9.3457 18.7612 9.37109 18.7124C9.39746 18.6636 9.41064 18.6069 9.41064 18.5425C9.41064 18.4741 9.39795 18.415 9.37256 18.3652C9.34717 18.3154 9.30859 18.2773 9.25684 18.251C9.20508 18.2246 9.14014 18.2114 9.06201 18.2114H8.70605V20H8.2666V17.8672ZM9.45898 20L8.97266 19.0493L9.43701 19.0464L9.9292 19.9795V20H9.45898ZM11.0557 18.2319L10.4756 20H10.0083L10.8008 17.8672H11.0981L11.0557 18.2319ZM11.5376 20L10.9561 18.2319L10.9092 17.8672H11.2095L12.0063 20H11.5376ZM11.5112 19.2061V19.5503H10.3848V19.2061H11.5112ZM12.9761 17.8672V20H12.5381V17.8672H12.9761ZM13.6323 17.8672V18.2114H11.8921V17.8672H13.6323ZM15.7095 19.6836L16.2866 20.1406L16.0098 20.3809L15.4414 19.9238L15.7095 19.6836ZM16.3013 18.8838V18.9849C16.3013 19.147 16.2793 19.2925 16.2354 19.4214C16.1924 19.5503 16.1304 19.6602 16.0493 19.751C15.9683 19.8408 15.8726 19.9097 15.7622 19.9575C15.6519 20.0054 15.5293 20.0293 15.3945 20.0293C15.2607 20.0293 15.1382 20.0054 15.0269 19.9575C14.9155 19.9097 14.8193 19.8408 14.7383 19.751C14.6572 19.6602 14.5942 19.5503 14.5493 19.4214C14.5054 19.2925 14.4834 19.147 14.4834 18.9849V18.8838C14.4834 18.7207 14.5054 18.5752 14.5493 18.4473C14.5942 18.3184 14.6567 18.2085 14.7368 18.1177C14.8169 18.0269 14.9126 17.9575 15.0239 17.9097C15.1353 17.8618 15.2578 17.8379 15.3916 17.8379C15.5264 17.8379 15.6489 17.8618 15.7593 17.9097C15.8706 17.9575 15.9668 18.0269 16.0479 18.1177C16.1289 18.2085 16.1914 18.3184 16.2354 18.4473C16.2793 18.5752 16.3013 18.7207 16.3013 18.8838ZM15.8574 18.9849V18.8809C15.8574 18.7676 15.8467 18.668 15.8252 18.582C15.8047 18.4961 15.7744 18.4238 15.7344 18.3652C15.6953 18.3066 15.647 18.2627 15.5894 18.2334C15.5317 18.2031 15.4658 18.188 15.3916 18.188C15.3174 18.188 15.2515 18.2031 15.1938 18.2334C15.1362 18.2627 15.0879 18.3066 15.0488 18.3652C15.0098 18.4238 14.98 18.4961 14.9595 18.582C14.939 18.668 14.9287 18.7676 14.9287 18.8809V18.9849C14.9287 19.0972 14.939 19.1968 14.9595 19.2837C14.98 19.3696 15.0098 19.4424 15.0488 19.502C15.0889 19.5605 15.1377 19.605 15.1953 19.6353C15.2539 19.6655 15.3203 19.6807 15.3945 19.6807C15.4688 19.6807 15.5342 19.6655 15.5908 19.6353C15.6484 19.605 15.6968 19.5605 15.7358 19.502C15.7759 19.4424 15.8062 19.3696 15.8267 19.2837C15.8472 19.1968 15.8574 19.0972 15.8574 18.9849ZM16.6191 17.8672H17.4146C17.5776 17.8672 17.7178 17.8916 17.835 17.9404C17.9531 17.9893 18.0439 18.0615 18.1074 18.1572C18.1709 18.2529 18.2026 18.3706 18.2026 18.5103C18.2026 18.6245 18.1831 18.7227 18.144 18.8047C18.106 18.8857 18.0518 18.9536 17.9814 19.0083C17.9121 19.062 17.8306 19.105 17.7368 19.1372L17.5977 19.2104H16.9062L16.9033 18.8677H17.4175C17.4946 18.8677 17.5586 18.854 17.6094 18.8267C17.6602 18.7993 17.6982 18.7612 17.7236 18.7124C17.75 18.6636 17.7632 18.6069 17.7632 18.5425C17.7632 18.4741 17.7505 18.415 17.7251 18.3652C17.6997 18.3154 17.6611 18.2773 17.6094 18.251C17.5576 18.2246 17.4927 18.2114 17.4146 18.2114H17.0586V20H16.6191V17.8672ZM17.8115 20L17.3252 19.0493L17.7896 19.0464L18.2817 19.9795V20H17.8115Z" fill="#0080B4"/>
</svg>
