<svg width="61" height="58" viewBox="0 0 61 58" fill="none" xmlns="http://www.w3.org/2000/svg">
<path d="M61 15C61 23.2843 54.2843 30 46 30C37.7157 30 31 23.2843 31 15C31 6.71573 37.7157 0 46 0C54.2843 0 61 6.71573 61 15Z" fill="#CD3728" fill-opacity="0.3"/>
<rect x="4.30881" y="14.2309" width="3.59521" height="9.96422" stroke="#0080B4" stroke-width="1.5"/>
<rect x="8.13022" y="15.5047" width="3.59521" height="7.41662" stroke="#0080B4" stroke-width="1.5"/>
<path d="M11.2016 16.0285C12.6877 15.6039 17.698 14.3726 20.7551 12.844C23.8123 11.3154 27.1242 12.2071 28.398 12.844L41.136 17.9392C41.9852 19.4253 42.7919 22.3975 39.2253 22.3975L31.5825 20.4868" stroke="#0080B4" stroke-width="1.5"/>
<path d="M19.4813 20.4868L27.7611 17.9392C29.4595 17.9392 32.092 18.8309 29.0349 22.3975L21.3921 24.9451C19.9059 27.0681 15.6599 28.1296 11.8385 23.0344" stroke="#0080B4" stroke-width="1.5"/>
<rect x="46.2088" y="50.5155" width="3.59521" height="9.96422" transform="rotate(-180 46.2088 50.5155)" stroke="#0080B4" stroke-width="1.5"/>
<rect x="42.3874" y="49.2417" width="3.59521" height="7.41662" transform="rotate(-180 42.3874 49.2417)" stroke="#0080B4" stroke-width="1.5"/>
<path d="M39.316 48.7179C37.8299 49.1425 32.8196 50.3738 29.7625 51.9024C26.7054 53.431 23.3935 52.5393 22.1197 51.9024L9.38165 46.8072C8.53245 45.3211 7.72571 42.3489 11.2924 42.3489L18.9352 44.2596" stroke="#0080B4" stroke-width="1.5"/>
<path d="M31.0363 44.2596L22.7566 46.8072C21.0582 46.8072 18.4257 45.9155 21.4828 42.3489L29.1256 39.8013C30.6117 37.6783 34.8577 36.6168 38.6791 41.712" stroke="#0080B4" stroke-width="1.5"/>
<path d="M31 38.4186L22.1739 29L2 44.6977L12.087 56L18.3913 50.9767M13.3478 39.0465C14.3986 38.2093 16.7522 37.0372 17.7609 39.0465C18.7696 41.0558 18.1812 41.7674 17.7609 41.8721L23.4348 41.4404" stroke="#0080B4" stroke-width="1.5"/>
</svg>
