<svg width="52" height="54" viewBox="0 0 52 54" fill="none" xmlns="http://www.w3.org/2000/svg">
<path d="M52 15C52 23.2843 45.2843 30 37 30C28.7157 30 22 23.2843 22 15C22 6.71573 28.7157 0 37 0C45.2843 0 52 6.71573 52 15Z" fill="#CD3728" fill-opacity="0.3"/>
<circle cx="20" cy="34" r="19.25" stroke="#0080B4" stroke-width="1.5"/>
<path d="M18 40C15.3 40 9 39.4857 9 34C9 30.5714 10.8 28 18 28" stroke="#0080B4" stroke-width="1.5"/>
<path d="M24 28C26.4 28 32 28.5143 32 34C32 37.4286 30.4 40 24 40" stroke="#0080B4" stroke-width="1.5"/>
<path d="M16 34H26" stroke="#0080B4" stroke-width="1.5"/>
</svg>
