<svg width="62" height="59" viewBox="0 0 62 59" fill="none" xmlns="http://www.w3.org/2000/svg">
<path d="M62 15C62 23.2843 55.2843 30 47 30C38.7157 30 32 23.2843 32 15C32 6.71573 38.7157 0 47 0C55.2843 0 62 6.71573 62 15Z" fill="#CD3728" fill-opacity="0.3"/>
<rect x="4.02921" y="42.698" width="24.9026" height="15.1753" stroke="#0080B4" stroke-width="1.5"/>
<path d="M0.499969 57.9285H31.0714" stroke="#0080B4" stroke-width="1.5"/>
<path d="M1.85538 42.6428H5.36365H31.053C31.2552 42.6428 31.3297 42.377 31.157 42.2719L15.8946 32.9818C15.8282 32.9413 15.7444 32.9431 15.6797 32.9862L1.74444 42.2764C1.57979 42.3861 1.6575 42.6428 1.85538 42.6428Z" stroke="#0080B4" stroke-width="1.5"/>
<circle cx="15.8961" cy="37.8895" r="0.75" stroke="#0080B4" stroke-width="1.5"/>
<path d="M8.14282 42.6428V57.9285H12.3117V46.8116H19.2597V57.9285H24.1233V42.6428H8.14282Z" stroke="#0080B4" stroke-width="1.5"/>
<rect x="26.263" y="18.3799" width="24.9026" height="15.1753" stroke="#0080B4" stroke-width="1.5"/>
<path d="M22.7337 33.6104H53.3052" stroke="#0080B4" stroke-width="1.5"/>
<path d="M24.0891 18.3247H27.5974H53.2868C53.489 18.3247 53.5635 18.0589 53.3908 17.9538L38.1284 8.66365C38.062 8.62323 37.9781 8.62496 37.9134 8.66808L23.9782 17.9582C23.8136 18.068 23.8913 18.3247 24.0891 18.3247Z" stroke="#0080B4" stroke-width="1.5"/>
<circle cx="38.1299" cy="13.5714" r="0.75" stroke="#0080B4" stroke-width="1.5"/>
<path d="M30.3766 18.3246V33.6103H34.5454V22.4934H41.4935V33.6103H46.3571V18.3246H30.3766Z" stroke="#0080B4" stroke-width="1.5"/>
<path d="M18.5649 18.3246H11.6169V30.8311" stroke="#0080B4" stroke-width="1.5"/>
<path d="M7.44806 27.3571L11.6169 30.8311L15.7857 27.3571" stroke="#0080B4" stroke-width="1.5"/>
<path d="M35.2402 51.6752H42.1883V39.1688" stroke="#0080B4" stroke-width="1.5"/>
<path d="M46.3571 42.6428L42.1883 39.1688L38.0195 42.6428" stroke="#0080B4" stroke-width="1.5"/>
</svg>
