<svg width="50" height="55" viewBox="0 0 50 55" fill="none" xmlns="http://www.w3.org/2000/svg">
<path d="M50 15C50 23.2843 43.2843 30 35 30C26.7157 30 20 23.2843 20 15C20 6.71573 26.7157 0 35 0C43.2843 0 50 6.71573 50 15Z" fill="#CD3728" fill-opacity="0.3"/>
<path d="M26.75 40C26.75 37.6528 28.6528 35.75 31 35.75H39C39.6904 35.75 40.25 36.3096 40.25 37V43C40.25 43.6904 39.6904 44.25 39 44.25H31C28.6528 44.25 26.75 42.3472 26.75 40Z" stroke="#0080B4" stroke-width="1.5"/>
<path fill-rule="evenodd" clip-rule="evenodd" d="M1.5 53.18V26.66H36.22V35H37.72V26.16C37.72 25.6077 37.2723 25.16 36.72 25.16H1C0.447715 25.16 0 25.6077 0 26.16V53.68C0 54.2323 0.447715 54.68 1 54.68H36.72C37.2723 54.68 37.72 54.2323 37.72 53.68V44.84H36.22V53.18H1.5Z" fill="#0080B4"/>
<circle cx="32" cy="40" r="2" fill="#0080B4"/>
<path d="M34 26C33.3796 26 28.1403 19.4048 24.7297 15.7617C24.3375 15.3427 23.6752 15.3573 23.2891 15.782L14 26" stroke="#0080B4" stroke-width="1.5"/>
<path d="M20 19.2308L16.5458 15.7234C16.1541 15.3257 15.5126 15.3257 15.1208 15.7234L5 26" stroke="#0080B4" stroke-width="1.5"/>
</svg>
