<svg width="36" height="36" viewBox="0 0 36 36" fill="none" xmlns="http://www.w3.org/2000/svg">
<path d="M33 25.3801V29.8801C33.0017 30.2979 32.9161 30.7114 32.7488 31.0942C32.5814 31.4769 32.336 31.8205 32.0281 32.1029C31.7203 32.3854 31.3569 32.6004 30.9611 32.7342C30.5654 32.868 30.1461 32.9177 29.73 32.8801C25.1143 32.3786 20.6805 30.8014 16.785 28.2751C13.1607 25.9721 10.088 22.8994 7.78501 19.2751C5.24997 15.362 3.67237 10.9066 3.18001 6.27015C3.14252 5.85535 3.19182 5.43729 3.32476 5.04258C3.4577 4.64788 3.67136 4.28518 3.95216 3.97758C4.23295 3.66997 4.57471 3.42421 4.95569 3.25593C5.33667 3.08765 5.74852 3.00054 6.16501 3.00015H10.665C11.393 2.99298 12.0987 3.25076 12.6506 3.72544C13.2026 4.20013 13.5631 4.85932 13.665 5.58015C13.8549 7.02025 14.2072 8.43424 14.715 9.79515C14.9168 10.332 14.9605 10.9155 14.8409 11.4765C14.7212 12.0374 14.4433 12.5523 14.04 12.9601L12.135 14.8651C14.2703 18.6205 17.3797 21.7298 21.135 23.8651L23.04 21.9601C23.4478 21.5569 23.9627 21.2789 24.5237 21.1593C25.0846 21.0397 25.6681 21.0833 26.205 21.2851C27.5659 21.793 28.9799 22.1452 30.42 22.3351C31.1487 22.4379 31.8141 22.805 32.2898 23.3664C32.7655 23.9278 33.0183 24.6445 33 25.3801Z" stroke="black" stroke-width="2" stroke-linecap="round" stroke-linejoin="round"/>
</svg>
