<svg width="61" height="41" viewBox="0 0 61 41" fill="none" xmlns="http://www.w3.org/2000/svg">
<circle cx="46" cy="15" r="15" fill="#56D6FF" fill-opacity="0.5"/>
<mask id="path-2-inside-1_72_203" fill="white">
<rect x="4" y="9" width="43" height="26" rx="0.5"/>
</mask>
<rect x="4" y="9" width="43" height="26" rx="0.5" stroke="#0080B4" stroke-width="2" mask="url(#path-2-inside-1_72_203)"/>
<path d="M49.3501 39.1877L46.9501 36.1877C46.8552 36.069 46.7116 36 46.5597 36H4.44031C4.28842 36 4.14476 36.069 4.04988 36.1877L1.64988 39.1877C1.38797 39.515 1.62106 40 2.04031 40H48.9597C49.3789 40 49.612 39.515 49.3501 39.1877Z" stroke="#0080B4" stroke-width="1.5"/>
<path d="M21 21.7143L24.3 24L31.5 14" stroke="#0080B4" stroke-width="1.5"/>
<line x1="15" y1="22.5" x2="18" y2="22.5" stroke="#0080B4"/>
<line x1="29" y1="22.5" x2="32" y2="22.5" stroke="#0080B4"/>
<line x1="23.5" y1="31" x2="23.5" y2="28" stroke="#0080B4"/>
<line x1="23.5" y1="17" x2="23.5" y2="14" stroke="#0080B4"/>
<path fill-rule="evenodd" clip-rule="evenodd" d="M32 22.5C32 27.1944 28.1944 31 23.5 31C18.8056 31 15 27.1944 15 22.5C15 17.8056 18.8056 14 23.5 14C25.1526 14 26.695 14.4716 28 15.2876V14.1313C26.6606 13.4096 25.1281 13 23.5 13C18.2533 13 14 17.2533 14 22.5C14 27.7467 18.2533 32 23.5 32C28.7467 32 33 27.7467 33 22.5C33 20.8719 32.5904 19.3394 31.8687 18H30.7124C31.5284 19.305 32 20.8474 32 22.5Z" fill="#0080B4"/>
</svg>
