<svg width="52" height="45" viewBox="0 0 52 45" fill="none" xmlns="http://www.w3.org/2000/svg">
<path d="M7.61905 42.0673H14.2857" stroke="white" stroke-width="1.5"/>
<path d="M7.61905 35.4006H14.2857" stroke="white" stroke-width="1.5"/>
<circle cx="37" cy="15" r="15" fill="#56D6FF" fill-opacity="0.5"/>
<path d="M0 43.9721H4.57143V23.7123L16.7619 18.2578L22.8571 22.9331V43.9721H26.6667" stroke="white" stroke-width="1.5"/>
<path d="M18.0952 23.0197V43.9721" stroke="white" stroke-width="1.5"/>
<path d="M7.61905 28.734H14.2857" stroke="white" stroke-width="1.5"/>
<path d="M39.25 11.5911C39.25 16.4735 35.4992 20.3649 30.9524 20.3649C26.4055 20.3649 22.6548 16.4735 22.6548 11.5911C22.6548 6.70876 26.4055 2.81731 30.9524 2.81731C35.4992 2.81731 39.25 6.70876 39.25 11.5911Z" stroke="white" stroke-width="1.5"/>
<path d="M39.25 11.5911C39.25 16.4735 35.4992 20.3649 30.9524 20.3649C26.4055 20.3649 22.6548 16.4735 22.6548 11.5911C22.6548 6.70876 26.4055 2.81731 30.9524 2.81731C35.4992 2.81731 39.25 6.70876 39.25 11.5911Z" stroke="white" stroke-width="1.5"/>
<path fill-rule="evenodd" clip-rule="evenodd" d="M23.0769 9.28394L11.2545 14.1204L10.7885 14.311V14.8146V18.6607H12.2885V15.3181L23.0769 10.9046V9.28394ZM32.3269 19.4299V44.0453V44.7953H33.0769H36.1539V43.2953H33.8269V19.4299H32.3269Z" fill="white"/>
<path d="M29.5782 6.96518C30.1007 9.41038 28.4898 10.895 27.619 11.3316V15.6981L28.7075 16.353H33.2789C33.8014 16.353 34.0771 15.4797 34.1497 15.0431C34.6721 14.6938 34.6576 13.8787 34.585 13.5148C35.4558 13.1655 35.093 12.496 34.8027 12.2049C35.151 11.8556 35.2381 11.3316 35.2381 11.1133C34.8898 10.0653 32.4807 10.0945 31.3197 10.24C32.0163 6.74686 30.449 6.60131 29.5782 6.96518Z" stroke="white"/>
</svg>
