<svg width="56" height="46" viewBox="0 0 56 46" fill="none" xmlns="http://www.w3.org/2000/svg">
<circle cx="41" cy="15" r="15" fill="#56D6FF" fill-opacity="0.5"/>
<path d="M22.5 37L24 38.5L27 35M29.5 30C29.6667 30.8333 30.3 32.7 31.5 33.5C31.3333 37 29.8 43.3 25 44.5C23.3333 44 19.7 42.6 18.5 37L18 33.5C18.8333 33 20.5 31.6 20.5 30C22.5 30.3333 27.1 30.8 29.5 30Z" stroke="#0080B4" stroke-width="1.5"/>
<path d="M13.4697 17.4697C13.1768 17.7626 13.1768 18.2374 13.4697 18.5303L18.2426 23.3033C18.5355 23.5962 19.0104 23.5962 19.3033 23.3033C19.5962 23.0104 19.5962 22.5355 19.3033 22.2426L15.0607 18L19.3033 13.7574C19.5962 13.4645 19.5962 12.9896 19.3033 12.6967C19.0104 12.4038 18.5355 12.4038 18.2426 12.6967L13.4697 17.4697ZM14 18.75H28V17.25H14V18.75Z" fill="#0080B4"/>
<path d="M35.5303 21.4697C35.8232 21.7626 35.8232 22.2374 35.5303 22.5303L30.7574 27.3033C30.4645 27.5962 29.9896 27.5962 29.6967 27.3033C29.4038 27.0104 29.4038 26.5355 29.6967 26.2426L33.9393 22L29.6967 17.7574C29.4038 17.4645 29.4038 16.9896 29.6967 16.6967C29.9896 16.4038 30.4645 16.4038 30.7574 16.6967L35.5303 21.4697ZM35 22.75H21V21.25H35V22.75Z" fill="#0080B4"/>
<path fill-rule="evenodd" clip-rule="evenodd" d="M1.5 36.5V10.5H46.5V36.5H33V38H47.5C47.7761 38 48 37.7761 48 37.5V9.5C48 9.22386 47.7761 9 47.5 9H0.5C0.223858 9 0 9.22386 0 9.5V37.5C0 37.7761 0.223859 38 0.500001 38H16V36.5H1.5Z" fill="#0080B4"/>
</svg>
