<svg width="70" height="70" viewBox="0 0 70 70" fill="none" xmlns="http://www.w3.org/2000/svg">
<path d="M34.3583 5.01667C34.1581 4.80175 33.9166 4.62937 33.6482 4.50981C33.3799 4.39025 33.0902 4.32596 32.7965 4.32078C32.5028 4.31559 32.2111 4.36962 31.9387 4.47964C31.6663 4.58966 31.4189 4.75342 31.2111 4.96114C31.0034 5.16886 30.8397 5.41629 30.7297 5.68867C30.6196 5.96106 30.5656 6.25281 30.5708 6.54652C30.576 6.84024 30.6403 7.1299 30.7598 7.39824C30.8794 7.66657 31.0518 7.90807 31.2667 8.10833L34.825 11.6667C29.7428 11.7008 24.7799 13.2095 20.5385 16.0097C16.2972 18.8098 12.96 22.781 10.9319 27.4411C8.90382 32.1012 8.27216 37.2499 9.11358 42.262C9.955 47.2742 12.2333 51.9343 15.672 55.6767C19.1106 59.419 23.5617 62.0827 28.4849 63.3444C33.4081 64.606 38.5917 64.4114 43.4064 62.7841C48.2211 61.1568 52.4599 58.1668 55.6082 54.1771C58.7565 50.1873 60.6789 45.3695 61.1421 40.3083C61.1679 40.0222 61.1372 39.7338 61.0516 39.4596C60.966 39.1853 60.8272 38.9307 60.6432 38.7101C60.4591 38.4895 60.2334 38.3073 59.979 38.1739C59.7246 38.0405 59.4463 37.9586 59.1602 37.9327C58.8741 37.9069 58.5857 37.9376 58.3115 38.0232C58.0372 38.1088 57.7825 38.2476 57.562 38.4316C57.3414 38.6157 57.1592 38.8414 57.0258 39.0958C56.8924 39.3502 56.8104 39.6285 56.7846 39.9146C56.3978 44.1307 54.7958 48.1439 52.173 51.4674C49.5502 54.7909 46.0193 57.2819 42.0086 58.6382C37.9979 59.9944 33.6798 60.1577 29.5782 59.1081C25.4766 58.0586 21.7677 55.8413 18.9014 52.7253C16.0352 49.6093 14.1347 45.7285 13.4307 41.5536C12.7266 37.3788 13.2492 33.0894 14.935 29.2057C16.6208 25.322 19.3975 22.011 22.928 19.6743C26.4586 17.3377 30.5914 16.0757 34.825 16.0417L31.2667 19.6C30.8684 20.0128 30.6482 20.5654 30.6534 21.139C30.6587 21.7125 30.889 22.2611 31.2948 22.6665C31.7005 23.0719 32.2493 23.3017 32.8229 23.3064C33.3964 23.3111 33.9489 23.0903 34.3613 22.6917L41.6529 15.4C42.0626 14.9898 42.2927 14.4339 42.2927 13.8542C42.2927 13.2745 42.0626 12.7185 41.6529 12.3083L34.3613 5.01667H34.3583ZM46.0367 29.8083C46.4463 30.2185 46.6764 30.7745 46.6764 31.3542C46.6764 31.9339 46.4463 32.4898 46.0367 32.9L32.9 46.0367C32.4899 46.4463 31.9339 46.6764 31.3542 46.6764C30.7745 46.6764 30.2185 46.4463 29.8083 46.0367L23.975 40.2033C23.5886 39.7887 23.3782 39.2402 23.3882 38.6735C23.3982 38.1068 23.6278 37.5661 24.0286 37.1653C24.4294 36.7645 24.9701 36.5349 25.5368 36.5249C26.1035 36.5149 26.652 36.7253 27.0667 37.1117L31.3542 41.3963L42.9421 29.8083C43.3522 29.3987 43.9082 29.1686 44.4879 29.1686C45.0676 29.1686 45.6236 29.3987 46.0338 29.8083H46.0367Z" fill="#121A38"/>
</svg>
