<svg width="60" height="71" viewBox="0 0 60 71" fill="none" xmlns="http://www.w3.org/2000/svg">
<path d="M38 40.3333C38 40.3333 52.6667 33 52.6667 22V9.16666L38 3.66666L23.3333 9.16666V22C23.3333 33 38 40.3333 38 40.3333Z" stroke="black" stroke-width="2" stroke-linecap="round" stroke-linejoin="round"/>
<path d="M42.75 41.75H11.25C8.76472 41.75 6.75 43.7647 6.75 46.25V62C6.75 64.4853 8.76472 66.5 11.25 66.5H42.75C45.2353 66.5 47.25 64.4853 47.25 62V46.25C47.25 43.7647 45.2353 41.75 42.75 41.75Z" stroke="black" stroke-width="2" stroke-linecap="round" stroke-linejoin="round"/>
<path d="M16 41V32.5556C16 29.756 17.1589 27.0712 19.2218 25.0917C21.2847 23.1121 24.0826 22 27 22C29.9174 22 32.7153 23.1121 34.7782 25.0917C36.8411 27.0712 38 29.756 38 32.5556V41" fill="#F4F7FB"/>
<path d="M16 41V32.5556C16 29.756 17.1589 27.0712 19.2218 25.0917C21.2847 23.1121 24.0826 22 27 22C29.9174 22 32.7153 23.1121 34.7782 25.0917C36.8411 27.0712 38 29.756 38 32.5556V41" stroke="black" stroke-width="2" stroke-linecap="round" stroke-linejoin="round"/>
</svg>
