<svg width="397" height="408" viewBox="0 0 397 408" fill="none" xmlns="http://www.w3.org/2000/svg">
<g clip-path="url(#clip0_13_349)">
<path d="M379.888 250.456C375.655 341.753 294.283 367.744 192.931 369.698C38.3767 372.679 20.3874 323.668 20.3874 232.273C20.3874 140.875 54.0799 46.5101 143.416 53.4675C185.863 56.7732 234.038 126.989 270.107 150.291C319.929 182.475 383.07 181.873 379.888 250.456Z" fill="#D4E7FF"/>
<path opacity="0.42" d="M18.011 288.697C18.011 288.697 50.2011 274.677 65.005 228.964C79.8052 183.25 106.639 144.754 157.476 142.169C208.316 139.584 263.306 142.76 281.473 115.518C299.639 88.2762 260.814 87.6526 260.265 135.45C259.72 183.25 343.386 270.906 347.763 338.974C352.137 407.041 295.648 393.53 225.461 366.173C155.273 338.812 82.0047 392.96 36.3362 372.712C-9.33232 352.46 -7.34956 309.143 18.011 288.697Z" stroke="#4570B4" stroke-miterlimit="10"/>
<path opacity="0.42" d="M24.8441 235.723C35.0406 235.723 43.3065 227.472 43.3065 217.295C43.3065 207.117 35.0406 198.867 24.8441 198.867C14.6476 198.867 6.38165 207.117 6.38165 217.295C6.38165 227.472 14.6476 235.723 24.8441 235.723Z" fill="#4570B4"/>
<path opacity="0.42" d="M41.5064 233.925C50.7092 224.74 50.7092 209.847 41.5064 200.661C32.3035 191.475 17.3828 191.475 8.1799 200.661C-1.02295 209.847 -1.02295 224.74 8.1799 233.925C17.3828 243.111 32.3035 243.111 41.5064 233.925Z" stroke="#4570B4" stroke-miterlimit="10"/>
<path opacity="0.42" d="M375.468 250.456C387.36 250.456 397 240.834 397 228.964C397 217.094 387.36 207.471 375.468 207.471C363.576 207.471 353.935 217.094 353.935 228.964C353.935 240.834 363.576 250.456 375.468 250.456Z" fill="#4570B4"/>
<path opacity="0.42" d="M225.085 170.997L219.274 180.208H231.647L225.085 170.997Z" stroke="#4570B4" stroke-miterlimit="10"/>
<path opacity="0.42" d="M143.113 85.2264L135.348 97.5335H151.878L143.113 85.2264Z" fill="#4570B4"/>
<path opacity="0.42" d="M231.647 87.7391C244.048 87.7391 254.1 77.7051 254.1 65.3275C254.1 52.95 244.048 42.916 231.647 42.916C219.247 42.916 209.194 52.95 209.194 65.3275C209.194 77.7051 219.247 87.7391 231.647 87.7391Z" fill="#4570B4"/>
<path d="M231.206 62.5518L229.942 60.1401C229.13 58.59 229.733 56.6794 231.282 55.8719C232.341 55.3204 232.749 54.019 232.196 52.9628L230.307 49.3543C229.755 48.2981 228.451 47.8907 227.393 48.4423L225.749 49.3002C224.2 50.1077 222.936 51.373 222.134 52.9231L221.654 53.8496C220.827 55.4466 220.83 57.3499 221.665 58.9433L225.197 65.6844L227.552 70.1833L231.08 76.9244C231.914 78.5178 233.478 79.6064 235.266 79.8408L236.302 79.9777C238.036 80.2049 239.798 79.8912 241.348 79.0837L242.991 78.2258C244.049 77.6742 244.457 76.3729 243.905 75.3166L242.016 71.7082C241.463 70.6519 240.16 70.2446 239.101 70.7961C237.548 71.6072 235.634 71.0052 234.825 69.4587L233.561 67.0471L231.206 62.5518Z" fill="white"/>
<path opacity="0.42" d="M365.536 340.452C365.536 343.015 363.456 345.091 360.888 345.091C358.32 345.091 356.24 343.015 356.24 340.452C356.24 337.889 358.32 335.812 360.888 335.812C363.456 335.812 365.536 337.889 365.536 340.452Z" stroke="#4570B4" stroke-miterlimit="10"/>
<path opacity="0.42" d="M87.646 95.0497C92.3912 95.0497 96.2379 91.2101 96.2379 86.4737C96.2379 81.7373 92.3912 77.8977 87.646 77.8977C82.9008 77.8977 79.054 81.7373 79.054 86.4737C79.054 91.2101 82.9008 95.0497 87.646 95.0497Z" fill="white"/>
<path opacity="0.42" d="M322.236 214.234C326.982 214.234 330.828 210.395 330.828 205.658C330.828 200.922 326.982 197.082 322.236 197.082C317.491 197.082 313.645 200.922 313.645 205.658C313.645 210.395 317.491 214.234 322.236 214.234Z" stroke="#4570B4" stroke-miterlimit="10"/>
<path opacity="0.42" d="M51.689 263.102C56.3145 263.102 60.0643 259.359 60.0643 254.742C60.0643 250.125 56.3145 246.382 51.689 246.382C47.0635 246.382 43.3137 250.125 43.3137 254.742C43.3137 259.359 47.0635 263.102 51.689 263.102Z" fill="#4570B4"/>
<path opacity="0.42" d="M375.468 243.791C383.672 243.791 390.322 237.152 390.322 228.964C390.322 220.775 383.672 214.137 375.468 214.137C367.264 214.137 360.613 220.775 360.613 228.964C360.613 237.152 367.264 243.791 375.468 243.791Z" stroke="white" stroke-miterlimit="10"/>
<path opacity="0.42" d="M353.563 101.949H250.626C246.227 101.949 242.662 105.507 242.662 109.898V171.96C242.662 176.351 246.227 179.909 250.626 179.909H316.27V195.554C316.27 198.171 319.336 199.595 321.344 197.911L342.776 179.909H353.563C357.962 179.909 361.527 176.351 361.527 171.96V109.895C361.523 105.507 357.959 101.949 353.563 101.949Z" fill="#4570B4"/>
<path d="M388.914 96.2754C388.914 105.551 386.245 114.195 381.64 121.455C380.914 122.62 380.127 123.759 379.296 124.848C370.885 135.871 357.724 142.969 342.938 142.969C335.35 142.969 328.192 141.106 321.883 137.793C307.079 130.035 296.963 114.35 296.963 96.279C296.963 94.1665 297.096 92.0865 297.374 90.0426C300.368 67.2021 319.633 49.5814 342.938 49.5814C368.328 49.5742 388.914 70.4861 388.914 96.2754Z" fill="#68A8DE"/>
<path d="M379.296 124.844C370.885 135.868 357.724 142.966 342.938 142.966C335.35 142.966 328.192 141.102 321.883 137.789C322.742 135.641 325.386 129.938 330.066 126.747C335.903 122.753 353.646 120.356 365.955 121.409C373.221 122.014 377.23 123.629 379.296 124.844Z" fill="#C6606C"/>
<path d="M322.237 72.5878L322.717 95.3887C322.717 95.3887 323.443 118.683 342.436 118.272C361.43 117.861 365.442 89.0801 365.442 89.0801L362.455 71.6217C362.455 71.6217 340.251 56.8345 322.237 72.5878Z" fill="white"/>
<path d="M342.563 112.793C342.563 112.793 343.975 121.61 341.844 124.494C339.713 127.378 346.069 137.393 346.069 137.393L360.776 123.925C360.776 123.925 359.797 114.051 360.064 105.406L342.563 112.793Z" fill="white"/>
<path d="M322.345 77.8256C322.345 77.8256 327.809 79.5631 333.656 79.0513C339.5 78.5394 341.551 76.1854 341.551 76.1854C341.551 76.1854 343.498 77.0037 346.68 77.0037C349.858 77.0037 352.216 75.468 352.216 75.468C352.216 75.468 350.064 79.1522 350.985 83.8602C351.909 88.5681 354.983 89.7974 354.983 89.7974C354.983 89.7974 356.929 85.0894 360.313 85.0894C363.698 85.0894 364.929 88.6727 364.055 93.3806C363.185 98.0886 357.749 99.2133 357.749 99.2133L360.068 105.406C360.068 105.406 368.826 96.041 369.852 85.7022C370.877 75.3671 365.648 72.2957 365.648 72.2957C365.648 72.2957 366.085 64.6209 355.817 61.9605C345.549 59.3001 338.781 59.5056 331.092 63.9036C331.092 63.9036 324.631 58.9901 319.199 61.9605C313.767 64.931 315.302 71.2755 317.968 72.9121C317.968 72.9121 312.738 74.2423 313.865 80.6915C314.992 87.1406 322.529 86.6359 322.529 86.6359L322.345 77.8256Z" fill="#00496A"/>
<path d="M342.436 118.272C342.436 118.272 356.24 114.628 357.608 105.406C357.608 105.406 361.032 118.77 342.436 123.308C342.436 123.312 342.985 119.339 342.436 118.272Z" fill="#D9D9D9"/>
<path opacity="0.42" d="M364.153 24.9186C366.068 13.2238 358.121 2.19365 346.402 0.28193C334.684 -1.62979 323.632 6.3009 321.717 17.9956C319.802 29.6903 327.749 40.7205 339.468 42.6322C351.186 44.544 362.238 36.6133 364.153 24.9186Z" fill="#4570B4"/>
<path d="M340.511 27.2348L340.435 26.2362C340.204 24.1634 340.898 21.8996 342.819 19.5961C344.549 17.5629 345.513 16.0633 345.513 14.3365C345.513 12.3791 344.282 11.0741 341.858 11.0345C340.475 11.0345 338.937 11.4959 337.972 12.2241L337.048 9.80521C338.315 8.88236 340.508 8.26953 342.548 8.26953C346.972 8.26953 348.973 10.9948 348.973 13.9148C348.973 16.5247 347.51 18.4064 345.665 20.5946C343.971 22.5917 343.357 24.2788 343.473 26.2398L343.512 27.2384H340.511V27.2348ZM339.666 32.6097C339.666 31.1893 340.627 30.1908 341.974 30.1908C343.321 30.1908 344.242 31.1893 344.242 32.6097C344.242 33.9543 343.357 34.9889 341.934 34.9889C340.591 34.9889 339.666 33.9543 339.666 32.6097Z" fill="white"/>
<path d="M355.752 316.721C355.684 316.937 355.597 317.121 355.496 317.269C353.679 319.897 351.761 322.442 349.742 324.915H349.735C284.051 405.484 115.13 405.484 115.13 405.484V309.32H355.499C355.496 309.32 356.42 314.554 355.752 316.721Z" fill="#A6D6F7"/>
<path d="M355.752 316.721C355.684 316.937 355.597 317.121 355.496 317.269C353.679 319.897 351.761 322.442 349.742 324.915H349.735L115.13 351.562V316.721H355.752Z" fill="#8CC6E5"/>
<path d="M225.461 241.296L213.835 253.6C213.835 253.6 211.451 251.155 208.602 247.41C207.244 245.615 205.777 243.524 204.43 241.26C202.661 238.3 201.072 235.052 200.161 231.794C197.099 220.856 198.352 197.789 198.352 197.789C198.352 197.789 203.311 198.322 205.005 200.204C214.539 210.806 225.461 241.296 225.461 241.296Z" fill="#FF6A76"/>
<path d="M181.749 281.49H98.488L90.8856 217.587C90.0116 210.272 95.1256 203.611 102.316 202.681L107.326 202.028L170.944 193.773L181.749 281.49Z" fill="#4570B4"/>
<path d="M161.42 195.885C161.42 195.885 134.326 204.584 132.859 206.819C131.393 209.054 144.113 248.69 144.113 248.69L141.668 281.49H196.831L199.612 250.189C199.612 250.189 205.517 243.722 205.882 233.037C206.25 222.352 198.341 197.789 198.341 197.789L179.091 195.265L161.42 195.885Z" fill="#FF6A76"/>
<path d="M169.178 134.321C169.178 134.321 150.293 126.217 136.886 145.129C123.48 164.04 137.363 193.773 137.363 193.773C137.363 193.773 171.572 189.314 181.042 188.402C190.511 187.49 192.425 187.49 192.425 187.49C192.425 187.49 197.305 157.62 186.892 146.639C176.48 135.659 169.178 134.321 169.178 134.321Z" fill="#00496A"/>
<path d="M176.202 208.084L160.257 197.176C160.257 197.176 161.568 193.002 161.243 188.827C161.167 187.901 161.012 186.974 160.745 186.095C160.611 185.655 160.448 185.226 160.257 184.804L176.202 184.011C176.202 184.011 176.307 185.302 176.603 186.963C176.841 188.261 177.195 189.79 177.733 191.12C178.116 192.104 178.593 192.973 179.189 193.575C181.63 196.048 176.202 208.084 176.202 208.084Z" fill="white"/>
<path d="M177.733 191.12C175.686 191.188 166.891 191.322 161.243 188.827C161.167 187.901 161.012 186.974 160.745 186.094C160.745 186.094 171.493 187.403 176.603 186.963C176.845 188.265 177.199 189.793 177.733 191.12Z" fill="#D9D9D9"/>
<path d="M185.173 141.499L187.831 163.431C187.831 163.431 191.317 186.03 173.046 188.221C154.775 190.413 148.631 169.335 148.631 169.335L146.471 146.055C146.471 146.055 165.739 128.846 185.173 141.499Z" fill="white"/>
<path d="M176.841 143.2C176.841 143.2 174.45 149.069 166.592 153.229C159.621 156.92 153.084 157.937 153.084 157.937C153.084 157.937 152.037 164.112 148.505 167.991C148.505 167.991 142.401 156.43 144.893 146.477C147.385 136.524 160.257 131.715 171.554 132.728C182.847 133.741 186.918 137.872 188.413 144.455C189.908 151.034 187.405 159.912 187.405 159.912C187.405 159.912 185.007 145.248 176.841 143.2Z" fill="#00496A"/>
<path d="M146.472 163.157C146.472 163.157 144.297 146.477 157.183 137.62C165.577 131.852 176.137 133.388 176.137 133.388C176.137 133.388 169.474 128.38 156.353 134.163C143.232 139.941 142.567 153.013 143.896 163.157H146.472Z" fill="#68A8DE"/>
<path d="M117.481 281.49H98.488L90.8856 217.587C90.0116 210.272 95.1256 203.611 102.316 202.681L107.326 202.028L117.481 281.49Z" fill="#375C93"/>
<path d="M164.291 184.206C155.576 184.206 149.104 178.149 148.815 177.872L149.986 176.603C150.054 176.671 157.129 183.261 165.967 182.382L166.133 184.112C165.512 184.177 164.898 184.206 164.291 184.206Z" fill="#375C93"/>
<path d="M380.282 317.269H119.052C112.064 317.269 105.411 314.388 100.76 309.356L86.4145 293.826C80.849 287.803 85.2804 278.257 93.6412 278.257H348.663C357.475 278.257 365.948 281.559 372.286 287.471L387.01 301.198C393.276 307.038 388.993 317.269 380.282 317.269Z" fill="#68A8DE"/>
<path d="M261.154 201.462C260.684 201.718 259.944 202.147 259.142 202.626L258.987 202.378C261.374 200.856 264.914 198.484 264.675 197.904C264.318 197.035 262.523 197.49 261.19 198.21C260.421 198.629 259.023 199.458 257.676 200.269L257.578 200.11C259.948 198.614 263.902 196.004 263.649 195.395C263.292 194.526 261.497 194.981 260.164 195.701C259.319 196.159 257.723 197.111 256.264 197.994L256.148 197.81C258.499 196.296 261.566 194.195 261.342 193.654C260.984 192.785 259.189 193.239 257.856 193.96C256.058 194.934 250.839 198.156 250.839 198.156L247.04 199.537C247.86 198.207 250.167 193.293 249.091 193.293C248.015 193.293 245.043 196.722 243.811 200.254C242.89 202.9 242.775 205.254 242.775 206.275L209.465 248.524C209.465 248.524 210.256 249.76 211.444 251.404C214.9 256.177 222.947 257.222 227.595 253.596C231.264 250.73 234.164 246.948 237 243.084C242.345 235.802 250.316 216.484 252.19 211.859L259.727 204.804C261.793 203.47 264.426 201.657 264.235 201.185C263.917 200.42 262.331 200.824 261.154 201.462Z" fill="white"/>
<path d="M173.526 288.531C173.526 288.531 177.423 291.397 178.961 295.286C180.5 299.176 170.655 301.681 154.222 296.112C142.268 292.056 162.453 279.627 173.526 288.531Z" fill="#00496A"/>
<path d="M167.336 185.251H165.133C164.349 185.251 163.71 184.606 163.71 183.805V182.454C163.71 181.657 164.345 181.008 165.133 181.008H167.336C168.119 181.008 168.759 181.653 168.759 182.454V183.128V183.802C168.759 184.606 168.123 185.251 167.336 185.251Z" fill="#00496A"/>
<path d="M155.883 168.103C157.1 174.18 153.933 179.966 148.805 181.026C143.676 182.086 138.533 178.02 137.316 171.942C136.099 165.864 139.266 160.078 144.395 159.018C149.523 157.955 154.666 162.025 155.883 168.103Z" fill="#4570B4"/>
<path d="M150.719 169.17C151.437 172.756 149.567 176.167 146.544 176.794C143.521 177.418 140.483 175.02 139.765 171.433C139.046 167.847 140.917 164.436 143.94 163.809C146.966 163.185 150 165.586 150.719 169.17Z" fill="#68A8DE"/>
<path d="M137.32 204.425C137.32 204.425 132.664 205.121 130.779 208.124C122.686 220.982 106.925 260.304 106.925 260.304L122.122 267.013C122.122 267.013 142.102 243.906 143.94 232.907C145.775 221.913 137.32 204.425 137.32 204.425Z" fill="#FF6A76"/>
<path d="M120.688 263.661L151.882 283.913L147.479 293.664C147.479 293.664 119.406 283.599 110.782 277.078C102.157 270.557 106.928 260.305 106.928 260.305C106.928 260.305 111.696 259.746 120.688 263.661Z" fill="white"/>
<path d="M150.961 283.599C150.961 283.599 161.481 283.102 165.273 283.102C169.066 283.102 175.671 289.313 174.938 291.303C174.205 293.289 166.621 287.204 166.621 287.204L166.191 288.012C166.191 288.012 172.919 292.11 173.284 293.664C173.652 295.218 172.121 294.969 169.922 294.035C167.718 293.105 164.417 290.993 164.417 290.993L164.049 291.429C164.049 291.429 170.409 295.344 170.409 296.771C170.409 298.199 165.822 296.584 162.46 294.349L162.03 295.034C162.03 295.034 166.191 297.146 166.494 298.513C166.801 299.879 164.537 299.32 162.03 298.141C159.524 296.963 157.198 296.836 153.958 296.339C150.715 295.841 146.869 293.448 146.869 293.448L150.961 283.599Z" fill="white"/>
<path d="M344.347 226.797L329.388 301.678H218.562L233.435 227.226C233.749 225.655 235.111 224.523 236.693 224.523H342.519C343.697 224.523 344.578 225.622 344.347 226.797Z" fill="#4570B4"/>
<path d="M218.562 301.678L188.117 291.793C187.041 291.443 186.315 290.445 186.315 289.313C186.315 287.875 187.485 286.707 188.926 286.707H221.556L218.562 301.678Z" fill="#00496A"/>
<path d="M138.671 207.468C138.671 207.468 145.486 226.707 141.358 239.912C141.354 239.912 155.291 224.454 138.671 207.468Z" fill="#C6606C"/>
<path d="M208.598 247.41C207.24 245.615 205.774 243.524 204.427 241.26C207.24 230.225 200.696 205.658 200.696 205.658C215.038 223.913 211.04 240.867 208.598 247.41Z" fill="#C6606C"/>
<path d="M240.105 228.964L329.387 301.678H227.591L240.105 228.964Z" fill="#375C93"/>
<path d="M293.765 275.306C298.312 273.439 300.482 268.246 298.611 263.707C296.74 259.169 291.537 257.003 286.99 258.87C282.443 260.738 280.274 265.931 282.145 270.469C284.015 275.008 289.218 277.173 293.765 275.306Z" fill="#A6D6F7"/>
<path d="M161.142 192.785L176.206 208.084C176.206 208.084 173.595 211.772 169.243 211.671C164.894 211.57 162.449 206.051 161.221 203.178C159.99 200.309 157.48 197.176 157.48 197.176L161.142 192.785Z" fill="#FFA9B3"/>
<path d="M176.202 208.084C176.202 208.084 180.085 210.442 183.877 208.805C187.669 207.169 186.647 204.667 185.31 202.028C183.978 199.389 182.54 194.681 182.54 194.681L178.217 192.194C178.221 192.19 178.987 202.248 176.202 208.084Z" fill="#FFA9B3"/>
<path d="M199.428 237.63L161.47 241.296C161.47 241.296 169.979 247.388 183.082 245.546C196.185 243.704 199.428 237.63 199.428 237.63Z" fill="#C6606C"/>
<path opacity="0.42" d="M114.588 114.448H45.9502C41.5766 114.448 38.03 117.988 38.03 122.357V140.518C38.03 144.884 41.5766 148.424 45.9502 148.424H103.768L122.509 159.238V148.424V143.197V122.357C122.512 117.988 118.966 114.448 114.588 114.448Z" fill="#4570B4"/>
<path d="M43.3066 122.663H114.805" stroke="white" stroke-miterlimit="10" stroke-linecap="round" stroke-linejoin="round"/>
<path d="M43.3066 131.376H114.805" stroke="white" stroke-miterlimit="10" stroke-linecap="round" stroke-linejoin="round"/>
<path d="M43.3066 140.086H114.805" stroke="white" stroke-miterlimit="10" stroke-linecap="round" stroke-linejoin="round"/>
<path opacity="0.42" d="M265.965 408C283.429 408 297.588 393.868 297.588 376.436C297.588 359.003 283.429 344.871 265.965 344.871C248.5 344.871 234.341 359.003 234.341 376.436C234.341 393.868 248.5 408 265.965 408Z" fill="#4570B4"/>
<path d="M285.835 364.777H246.094C245.006 364.777 244.125 365.657 244.125 366.742V388.602C244.125 389.687 245.006 390.567 246.094 390.567H285.835C286.923 390.567 287.804 389.687 287.804 388.602V366.742C287.804 365.657 286.923 364.777 285.835 364.777ZM286.424 367.928L267.763 380.105C267.604 380.21 267.424 380.26 267.239 380.26C267.077 380.26 266.918 380.221 266.77 380.138L245.032 367.961C244.569 367.701 244.407 367.121 244.667 366.659C244.927 366.198 245.512 366.036 245.971 366.295L267.203 378.191L285.38 366.328C285.821 366.039 286.417 366.162 286.706 366.605C286.991 367.049 286.868 367.64 286.424 367.928Z" fill="white"/>
<path d="M290.375 373.033C296.848 373.033 302.095 367.795 302.095 361.335C302.095 354.874 296.848 349.637 290.375 349.637C283.903 349.637 278.656 354.874 278.656 361.335C278.656 367.795 283.903 373.033 290.375 373.033Z" fill="#FFA9B3"/>
</g>
<defs>
<clipPath id="clip0_13_349">
<rect width="397" height="408" fill="white"/>
</clipPath>
</defs>
</svg>
