<svg width="101" height="87" viewBox="0 0 101 87" fill="none" xmlns="http://www.w3.org/2000/svg">
<path d="M22.48 86.416C16.528 86.416 11.44 84.016 7.216 79.216C2.992 74.224 0.880001 67.984 0.880001 60.496C0.880001 49.744 4.432 38.512 11.536 26.8C18.832 15.088 27.952 6.25596 38.896 0.303955L47.248 17.584L46.096 18.736C41.296 22.768 37.36 26.608 34.288 30.256C31.216 33.712 29.008 38.416 27.664 44.368C30.928 44.368 34.384 46.48 38.032 50.704C41.68 54.928 43.504 59.728 43.504 65.104C43.504 70.096 41.488 74.896 37.456 79.504C33.424 84.112 28.432 86.416 22.48 86.416ZM75.76 86.416C69.808 86.416 64.72 84.016 60.496 79.216C56.272 74.224 54.16 67.984 54.16 60.496C54.16 49.744 57.712 38.512 64.816 26.8C72.112 15.088 81.136 6.25596 91.888 0.303955L100.528 17.584L99.376 18.736C94.576 22.768 90.64 26.608 87.568 30.256C84.496 33.712 82.288 38.416 80.944 44.368C84.016 44.368 87.472 46.48 91.312 50.704C95.152 54.928 97.072 59.728 97.072 65.104C97.072 70.096 94.96 74.896 90.736 79.504C86.704 84.112 81.712 86.416 75.76 86.416Z" fill="#EFEFEF"/>
</svg>
