<svg width="180" height="343" viewBox="0 0 180 343" fill="none" xmlns="http://www.w3.org/2000/svg">
<path d="M180 9.22575V332.783C180 337.851 175.854 342.003 170.787 342.003H9.21029C4.14299 342.003 0 337.851 0 332.783V9.22575C0 4.15159 4.14299 0 9.21029 0H170.787C175.854 0 180 4.15159 180 9.22575Z" fill="#2B478B"/>
<path opacity="0.4" d="M116.377 12.946H69.5872C68.5851 12.946 67.7654 12.1252 67.7654 11.1218C67.7654 10.1183 68.5851 9.29761 69.5872 9.29761H116.377C117.38 9.29761 118.199 10.1183 118.199 11.1218C118.196 12.1252 117.38 12.946 116.377 12.946Z" fill="#5E92DD"/>
<path opacity="0.4" d="M61.2773 12.946C60.2752 12.946 59.4556 12.1252 59.4556 11.1218C59.4556 10.1183 60.2752 9.29761 61.2773 9.29761C62.2794 9.29761 63.099 10.1183 63.099 11.1218C63.096 12.1252 62.2764 12.946 61.2773 12.946Z" fill="#5E92DD"/>
<path d="M103.97 323.105C103.97 326.331 102.668 329.258 100.565 331.382C98.4386 333.532 95.4861 334.862 92.2286 334.862C85.7434 334.862 80.4846 329.596 80.4846 323.102C80.4846 318.927 82.6563 315.263 85.9348 313.179C87.7535 312.019 89.9133 311.345 92.2286 311.345C98.7108 311.348 103.97 316.611 103.97 323.105Z" fill="#2B478B"/>
<path d="M170.395 21.0695H10.7778V305.567H170.395V21.0695Z" fill="#DCEAFF"/>
<path d="M100.565 331.381C98.4386 333.532 95.4861 334.862 92.2286 334.862C85.7434 334.862 80.4846 329.596 80.4846 323.102C80.4846 318.927 82.6563 315.263 85.9348 313.178C87.0865 318.187 90.4966 326.559 100.565 331.381Z" fill="#233862"/>
<path d="M170.087 103.904H10.7778V242.479H170.087V103.904Z" fill="#F99746"/>
<path d="M145.525 194.196H35.6476C33.2516 194.196 31.3012 192.243 31.3012 189.844V127.276C31.3012 124.877 33.2516 122.924 35.6476 122.924H145.528C147.924 122.924 149.874 124.877 149.874 127.276V189.844C149.874 192.243 147.921 194.196 145.525 194.196ZM35.6476 123.745C33.7032 123.745 32.1208 125.329 32.1208 127.276V189.844C32.1208 191.791 33.7032 193.375 35.6476 193.375H145.528C147.472 193.375 149.055 191.791 149.055 189.844V127.276C149.055 125.329 147.472 123.745 145.528 123.745H35.6476Z" fill="#EBF3FA"/>
<path d="M68.618 179.821L43.2815 180.019C42.2106 180.028 41.3251 179.156 41.3162 178.084L41.3132 177.841C41.3042 176.769 42.1747 175.882 43.2456 175.873L68.5821 175.676C69.653 175.667 70.5384 176.538 70.5474 177.611L70.5504 177.853C70.5624 178.926 69.6919 179.812 68.618 179.821Z" fill="white"/>
<path d="M102.007 179.561L76.6707 179.758C75.5998 179.767 74.7143 178.896 74.7054 177.823L74.7024 177.581C74.6934 176.508 75.5639 175.622 76.6378 175.613L101.974 175.415C103.045 175.406 103.931 176.278 103.94 177.35L103.943 177.593C103.949 178.668 103.078 179.552 102.007 179.561Z" fill="white"/>
<path d="M45.857 154.609C45.863 155.535 45.7104 156.293 45.3934 156.886C44.9925 157.635 44.3703 158.012 43.5238 158.018C42.6772 158.024 42.0491 157.656 41.6392 156.913C41.3132 156.326 41.1457 155.568 41.1397 154.642C41.1337 153.717 41.2833 152.962 41.5944 152.375C41.9922 151.626 42.6204 151.248 43.4729 151.243C44.3255 151.237 44.9566 151.605 45.3664 152.348C45.6865 152.932 45.848 153.684 45.857 154.609ZM44.6934 154.615C44.6874 154.034 44.6186 153.549 44.484 153.157C44.2776 152.566 43.9426 152.273 43.4849 152.276C43.0153 152.279 42.6832 152.575 42.4918 153.163C42.3572 153.558 42.2943 154.049 42.2973 154.636C42.3093 156.215 42.7191 157 43.5238 156.994C43.9874 156.991 44.3165 156.688 44.5079 156.089C44.6366 155.697 44.6994 155.205 44.6934 154.615Z" fill="white"/>
<path d="M51.059 154.57C51.0649 155.496 50.9124 156.254 50.5953 156.847C50.1945 157.596 49.5723 157.973 48.7257 157.979C47.8792 157.985 47.251 157.617 46.8412 156.874C46.5151 156.287 46.3476 155.529 46.3416 154.603C46.3357 153.678 46.4852 152.923 46.7993 152.336C47.2001 151.587 47.8253 151.209 48.6779 151.203C49.5304 151.197 50.1616 151.566 50.5714 152.309C50.8884 152.89 51.053 153.645 51.059 154.57ZM49.8953 154.573C49.8893 153.992 49.8205 153.507 49.6859 153.114C49.4795 152.524 49.1445 152.231 48.6868 152.234C48.2172 152.237 47.8852 152.533 47.6937 153.12C47.5591 153.516 47.4963 154.007 47.4993 154.594C47.5112 156.173 47.9211 156.958 48.7257 156.952C49.1894 156.949 49.5184 156.646 49.7099 156.047C49.8385 155.658 49.9013 155.166 49.8953 154.573Z" fill="white"/>
<path d="M56.2609 154.528C56.2669 155.454 56.1143 156.212 55.7972 156.805C55.3964 157.554 54.7742 157.931 53.9277 157.937C53.0811 157.943 52.4529 157.575 52.0431 156.832C51.7171 156.245 51.5496 155.487 51.5436 154.561C51.5376 153.636 51.6872 152.881 52.0012 152.294C52.3991 151.545 53.0273 151.168 53.8798 151.162C54.7323 151.156 55.3635 151.524 55.7733 152.267C56.0904 152.851 56.2549 153.603 56.2609 154.528ZM55.1003 154.534C55.0943 153.953 55.0255 153.468 54.8909 153.073C54.6845 152.483 54.3494 152.189 53.8918 152.192C53.4221 152.195 53.0901 152.492 52.8986 153.079C52.764 153.474 52.7012 153.965 52.7042 154.552C52.7162 156.131 53.126 156.916 53.9306 156.91C54.3943 156.907 54.7233 156.604 54.9148 156.005C55.0404 155.616 55.1032 155.124 55.1003 154.534Z" fill="white"/>
<path d="M61.4628 154.489C61.4687 155.415 61.3162 156.173 60.9991 156.766C60.5983 157.515 59.9761 157.892 59.1295 157.898C58.283 157.904 57.6548 157.536 57.245 156.793C56.9189 156.206 56.7514 155.448 56.7454 154.522C56.7395 153.597 56.889 152.842 57.2001 152.255C57.601 151.506 58.2261 151.129 59.0787 151.123C59.9312 151.117 60.5624 151.485 60.9722 152.228C61.2923 152.809 61.4568 153.564 61.4628 154.489ZM60.3021 154.492C60.2991 153.911 60.2273 153.426 60.0927 153.034C59.8863 152.444 59.5513 152.15 59.0936 152.153C58.624 152.156 58.292 152.453 58.1005 153.04C57.9659 153.435 57.9031 153.926 57.9061 154.513C57.918 156.092 58.3279 156.877 59.1325 156.871C59.5962 156.868 59.9252 156.565 60.1167 155.966C60.2423 155.577 60.3051 155.086 60.3021 154.492Z" fill="white"/>
<path d="M69.3479 154.427C69.3539 155.352 69.2013 156.11 68.8843 156.703C68.4834 157.452 67.8612 157.829 67.0147 157.835C66.1681 157.841 65.54 157.473 65.1302 156.73C64.8041 156.143 64.6366 155.385 64.6306 154.459C64.6246 153.534 64.7742 152.779 65.0883 152.192C65.4861 151.443 66.1143 151.066 66.9668 151.057C67.8193 151.051 68.4505 151.419 68.8603 152.162C69.1744 152.749 69.3389 153.501 69.3479 154.427ZM68.1843 154.433C68.1783 153.851 68.1095 153.366 67.9749 152.974C67.7685 152.384 67.4335 152.09 66.9758 152.093C66.5062 152.096 66.1741 152.393 65.9827 152.98C65.8481 153.375 65.7853 153.866 65.7882 154.453C65.8002 156.032 66.21 156.817 67.0147 156.811C67.4783 156.808 67.8074 156.505 67.9988 155.906C68.1275 155.514 68.1903 155.023 68.1843 154.433Z" fill="white"/>
<path d="M74.5498 154.388C74.5558 155.313 74.4033 156.071 74.0862 156.664C73.6853 157.413 73.0632 157.79 72.2166 157.796C71.3701 157.802 70.7419 157.434 70.3321 156.691C70.006 156.104 69.8385 155.346 69.8325 154.421C69.8265 153.495 69.9761 152.74 70.2902 152.153C70.688 151.404 71.3162 151.027 72.1687 151.021C73.0213 151.015 73.6524 151.383 74.0623 152.126C74.3763 152.707 74.5409 153.462 74.5498 154.388ZM73.3862 154.391C73.3802 153.81 73.3114 153.324 73.1768 152.929C72.9704 152.339 72.6354 152.045 72.1777 152.048C71.7081 152.051 71.376 152.348 71.1846 152.935C71.05 153.33 70.9872 153.821 70.9902 154.406C71.0021 155.984 71.4119 156.769 72.2166 156.763C72.6803 156.76 73.0093 156.457 73.2008 155.858C73.3294 155.472 73.3922 154.984 73.3862 154.391Z" fill="white"/>
<path d="M79.7517 154.346C79.7577 155.271 79.6052 156.029 79.2881 156.622C78.8873 157.371 78.2651 157.748 77.4185 157.754C76.572 157.76 75.9438 157.392 75.534 156.649C75.2079 156.062 75.0404 155.304 75.0344 154.379C75.0284 153.453 75.178 152.698 75.4891 152.111C75.8869 151.362 76.5151 150.985 77.3677 150.979C78.2202 150.973 78.8514 151.341 79.2612 152.084C79.5812 152.668 79.7428 153.42 79.7517 154.346ZM78.5881 154.349C78.5821 153.768 78.5133 153.282 78.3787 152.89C78.1723 152.3 77.8373 152.006 77.3796 152.009C76.91 152.012 76.5779 152.309 76.3865 152.896C76.2519 153.291 76.1891 153.782 76.1921 154.37C76.204 155.948 76.6138 156.733 77.4185 156.727C77.8822 156.724 78.2112 156.421 78.4027 155.822C78.5313 155.433 78.5941 154.942 78.5881 154.349Z" fill="white"/>
<path d="M84.9537 154.304C84.9596 155.229 84.8071 155.987 84.487 156.58C84.0862 157.329 83.464 157.706 82.6174 157.712C81.7709 157.718 81.1427 157.35 80.7329 156.607C80.4068 156.02 80.2393 155.262 80.2333 154.337C80.2273 153.411 80.3769 152.656 80.688 152.069C81.0888 151.32 81.714 150.943 82.5666 150.937C83.4191 150.931 84.0503 151.299 84.4601 152.042C84.7832 152.626 84.9447 153.381 84.9537 154.304ZM83.79 154.31C83.784 153.729 83.7153 153.243 83.5806 152.848C83.3742 152.258 83.0392 151.964 82.5815 151.967C82.1119 151.97 81.7799 152.267 81.5884 152.854C81.4538 153.249 81.391 153.741 81.394 154.328C81.4059 155.906 81.8158 156.691 82.6204 156.685C83.0841 156.682 83.4131 156.38 83.6046 155.78C83.7332 155.391 83.796 154.903 83.79 154.31Z" fill="white"/>
<path d="M92.8358 154.244C92.8418 155.169 92.6892 155.927 92.3721 156.52C91.9713 157.269 91.3491 157.647 90.5026 157.653C89.656 157.659 89.0279 157.29 88.618 156.547C88.292 155.96 88.1245 155.202 88.1185 154.277C88.1125 153.351 88.2621 152.596 88.5732 152.009C88.974 151.261 89.5992 150.883 90.4517 150.874C91.3042 150.868 91.9354 151.237 92.3452 151.979C92.6653 152.566 92.8298 153.318 92.8358 154.244ZM91.6752 154.25C91.6692 153.669 91.6004 153.184 91.4658 152.791C91.2594 152.201 90.9243 151.907 90.4667 151.91C89.997 151.913 89.665 152.21 89.4736 152.797C89.3389 153.193 89.2761 153.684 89.2791 154.271C89.2911 155.849 89.7009 156.634 90.5056 156.628C90.9692 156.625 91.2983 156.323 91.4897 155.724C91.6183 155.331 91.6782 154.84 91.6752 154.25Z" fill="white"/>
<path d="M98.0377 154.202C98.0437 155.127 97.8911 155.885 97.574 156.478C97.1732 157.227 96.551 157.605 95.7044 157.611C94.8579 157.617 94.2297 157.248 93.8199 156.505C93.4939 155.918 93.3263 155.16 93.3204 154.235C93.3144 153.309 93.4639 152.554 93.778 151.967C94.1789 151.218 94.8041 150.841 95.6566 150.835C96.5091 150.829 97.1403 151.197 97.5501 151.94C97.8672 152.524 98.0317 153.279 98.0377 154.202ZM96.877 154.208C96.8711 153.627 96.8023 153.141 96.6677 152.749C96.4612 152.159 96.1262 151.865 95.6686 151.868C95.1989 151.871 94.8669 152.168 94.6754 152.755C94.5408 153.15 94.478 153.642 94.481 154.226C94.493 155.804 94.9028 156.589 95.7074 156.583C96.1711 156.58 96.5001 156.278 96.6916 155.679C96.8202 155.289 96.88 154.798 96.877 154.208Z" fill="white"/>
<path d="M103.24 154.163C103.246 155.089 103.093 155.846 102.776 156.44C102.378 157.188 101.753 157.566 100.906 157.572C100.06 157.578 99.4317 157.209 99.0218 156.466C98.6958 155.879 98.5283 155.122 98.5223 154.196C98.5163 153.27 98.6689 152.516 98.98 151.928C99.3808 151.18 100.006 150.802 100.859 150.796C101.711 150.79 102.342 151.156 102.752 151.902C103.069 152.486 103.234 153.237 103.24 154.163ZM102.079 154.166C102.076 153.585 102.004 153.1 101.873 152.707C101.666 152.117 101.331 151.824 100.873 151.827C100.404 151.83 100.072 152.126 99.8804 152.713C99.7457 153.109 99.6829 153.6 99.6859 154.187C99.6979 155.766 100.108 156.55 100.912 156.544C101.376 156.541 101.705 156.239 101.897 155.64C102.022 155.25 102.082 154.759 102.079 154.166Z" fill="white"/>
<path d="M108.442 154.121C108.448 155.047 108.295 155.804 107.978 156.397C107.58 157.146 106.955 157.524 106.108 157.53C105.262 157.536 104.634 157.167 104.224 156.424C103.898 155.837 103.73 155.08 103.724 154.154C103.718 153.228 103.868 152.474 104.179 151.886C104.58 151.138 105.205 150.76 106.057 150.754C106.91 150.748 107.541 151.117 107.954 151.86C108.271 152.444 108.436 153.198 108.442 154.121ZM107.281 154.127C107.278 153.546 107.206 153.061 107.075 152.665C106.868 152.075 106.533 151.782 106.075 151.785C105.603 151.788 105.274 152.084 105.079 152.671C104.945 153.067 104.882 153.558 104.885 154.145C104.897 155.724 105.307 156.508 106.111 156.502C106.575 156.499 106.904 156.197 107.095 155.598C107.224 155.208 107.284 154.72 107.281 154.127Z" fill="white"/>
<path d="M116.327 154.061C116.336 154.987 116.18 155.744 115.863 156.338C115.465 157.086 114.84 157.464 113.993 157.47C113.147 157.476 112.519 157.107 112.109 156.365C111.783 155.777 111.615 155.02 111.609 154.094C111.603 153.168 111.753 152.414 112.067 151.827C112.468 151.078 113.093 150.7 113.946 150.694C114.798 150.688 115.429 151.057 115.839 151.8C116.156 152.381 116.321 153.136 116.327 154.061ZM115.163 154.064C115.16 153.483 115.088 152.998 114.954 152.602C114.747 152.012 114.412 151.719 113.955 151.722C113.485 151.725 113.153 152.021 112.961 152.608C112.827 153.004 112.764 153.495 112.767 154.082C112.779 155.661 113.189 156.445 113.993 156.439C114.457 156.436 114.786 156.134 114.978 155.535C115.106 155.148 115.169 154.657 115.163 154.064Z" fill="white"/>
<path d="M121.529 154.019C121.538 154.945 121.382 155.703 121.065 156.296C120.667 157.045 120.042 157.422 119.195 157.428C118.349 157.434 117.721 157.065 117.311 156.323C116.985 155.736 116.817 154.978 116.811 154.052C116.805 153.127 116.955 152.372 117.269 151.785C117.67 151.036 118.295 150.658 119.147 150.652C120 150.646 120.631 151.015 121.041 151.758C121.358 152.342 121.523 153.097 121.529 154.019ZM120.365 154.025C120.362 153.444 120.29 152.959 120.156 152.566C119.949 151.976 119.614 151.683 119.156 151.686C118.684 151.689 118.355 151.985 118.16 152.572C118.026 152.968 117.963 153.459 117.966 154.046C117.978 155.625 118.388 156.41 119.192 156.404C119.656 156.401 119.985 156.098 120.177 155.499C120.308 155.107 120.371 154.615 120.365 154.025Z" fill="white"/>
<path d="M126.73 153.98C126.739 154.906 126.584 155.664 126.267 156.257C125.869 157.005 125.244 157.383 124.397 157.389C123.551 157.395 122.923 157.026 122.513 156.284C122.187 155.697 122.019 154.939 122.013 154.013C122.007 153.088 122.157 152.333 122.471 151.746C122.869 150.997 123.497 150.619 124.349 150.613C125.202 150.607 125.833 150.976 126.243 151.719C126.56 152.3 126.725 153.055 126.73 153.98ZM125.57 153.983C125.567 153.402 125.495 152.917 125.36 152.524C125.154 151.934 124.819 151.641 124.361 151.644C123.889 151.647 123.56 151.943 123.365 152.53C123.231 152.926 123.168 153.417 123.171 154.004C123.183 155.583 123.593 156.367 124.397 156.361C124.861 156.358 125.19 156.056 125.381 155.457C125.51 155.067 125.573 154.576 125.57 153.983Z" fill="white"/>
<path d="M131.932 153.938C131.938 154.864 131.783 155.622 131.469 156.215C131.071 156.964 130.446 157.341 129.599 157.347C128.753 157.353 128.124 156.985 127.715 156.242C127.389 155.655 127.221 154.897 127.215 153.971C127.209 153.046 127.359 152.291 127.673 151.704C128.074 150.955 128.699 150.577 129.551 150.571C130.404 150.565 131.035 150.934 131.448 151.677C131.762 152.261 131.926 153.013 131.932 153.938ZM130.772 153.944C130.769 153.363 130.697 152.878 130.565 152.483C130.359 151.892 130.024 151.599 129.566 151.602C129.097 151.605 128.765 151.901 128.573 152.489C128.439 152.884 128.373 153.375 128.379 153.962C128.391 155.541 128.8 156.326 129.602 156.32C130.066 156.317 130.395 156.014 130.586 155.415C130.712 155.026 130.775 154.534 130.772 153.944Z" fill="white"/>
<path d="M67.7445 137.041L42.9494 137.233C41.8785 137.242 40.9931 136.37 40.9841 135.298C40.9752 134.226 41.8456 133.339 42.9165 133.33L67.7116 133.135C68.7825 133.126 69.668 133.998 69.6769 135.07C69.6859 136.149 68.8154 137.032 67.7445 137.041Z" fill="white"/>
<path d="M138.72 134.54C138.714 133.83 138.462 133.18 138.047 132.671C137.927 132.521 137.703 132.512 137.568 132.65L137.454 132.77C137.344 132.884 137.335 133.063 137.434 133.189C137.733 133.561 137.915 134.034 137.918 134.549C137.921 135.064 137.748 135.538 137.454 135.915C137.356 136.041 137.371 136.221 137.481 136.334L137.598 136.451C137.733 136.586 137.957 136.574 138.074 136.424C138.483 135.903 138.726 135.25 138.72 134.54Z" fill="white"/>
<path d="M140.326 134.528C140.317 133.363 139.874 132.303 139.153 131.497C139.031 131.359 138.815 131.359 138.69 131.491L138.624 131.56C138.507 131.68 138.507 131.871 138.618 131.997C139.219 132.674 139.587 133.564 139.593 134.537C139.602 135.511 139.246 136.406 138.657 137.092C138.546 137.218 138.552 137.41 138.669 137.53L138.735 137.595C138.863 137.724 139.079 137.721 139.198 137.584C139.91 136.763 140.335 135.693 140.326 134.528Z" fill="white"/>
<path d="M141.732 134.519C141.72 132.962 141.116 131.542 140.132 130.479C140.009 130.344 139.797 130.344 139.671 130.476C139.554 130.598 139.551 130.79 139.668 130.913C140.547 131.862 141.089 133.129 141.101 134.522C141.113 135.915 140.589 137.191 139.725 138.156C139.611 138.282 139.617 138.473 139.737 138.593C139.865 138.722 140.078 138.719 140.198 138.584C141.161 137.503 141.744 136.077 141.732 134.519Z" fill="white"/>
<path d="M143.258 134.507C143.243 132.521 142.459 130.718 141.191 129.382C141.065 129.25 140.856 129.247 140.73 129.379L140.616 129.496C140.5 129.619 140.497 129.811 140.613 129.936C141.744 131.135 142.441 132.743 142.456 134.513C142.471 136.287 141.798 137.904 140.685 139.12C140.571 139.246 140.574 139.438 140.694 139.561L140.808 139.674C140.936 139.803 141.146 139.8 141.271 139.665C142.519 138.305 143.273 136.49 143.258 134.507Z" fill="white"/>
<path d="M43.6464 184.494C43.6494 184.94 43.5746 185.306 43.4221 185.593C43.2306 185.956 42.9285 186.135 42.5217 186.141C42.1149 186.144 41.8097 185.968 41.6123 185.608C41.4538 185.324 41.373 184.958 41.37 184.515C41.367 184.069 41.4388 183.703 41.5884 183.422C41.7798 183.059 42.082 182.879 42.4948 182.873C42.9046 182.87 43.2097 183.047 43.4071 183.407C43.5627 183.685 43.6434 184.048 43.6464 184.494ZM43.084 184.497C43.0811 184.218 43.0481 183.982 42.9823 183.793C42.8836 183.508 42.7221 183.368 42.5007 183.368C42.2734 183.371 42.1149 183.511 42.0221 183.796C41.9563 183.988 41.9264 184.224 41.9294 184.506C41.9354 185.267 42.1328 185.647 42.5217 185.644C42.746 185.644 42.9046 185.497 42.9973 185.207C43.0571 185.018 43.087 184.782 43.084 184.497Z" fill="white"/>
<path d="M46.1532 184.476C46.1562 184.922 46.0814 185.288 45.9288 185.575C45.7374 185.938 45.4353 186.118 45.0284 186.124C44.6216 186.127 44.3165 185.95 44.1191 185.59C43.9605 185.306 43.8828 184.943 43.8768 184.497C43.8738 184.051 43.9456 183.685 44.0981 183.404C44.2896 183.041 44.5917 182.862 45.0045 182.859C45.4143 182.856 45.7194 183.032 45.9169 183.392C46.0724 183.667 46.1502 184.03 46.1532 184.476ZM45.5938 184.479C45.5908 184.2 45.5579 183.964 45.4921 183.775C45.3934 183.491 45.2318 183.35 45.0105 183.35C44.7831 183.353 44.6246 183.494 44.5319 183.778C44.4661 183.97 44.4361 184.206 44.4391 184.488C44.4451 185.249 44.6425 185.629 45.0314 185.626C45.2558 185.623 45.4143 185.48 45.507 185.189C45.5669 185 45.5968 184.764 45.5938 184.479Z" fill="white"/>
<path d="M48.0347 183.044C48.0347 183.083 48.0198 183.134 47.9899 183.194L46.7036 185.914C46.6408 186.049 46.56 186.115 46.4553 186.115C46.3925 186.115 46.3386 186.094 46.2938 186.052C46.2489 186.01 46.225 185.956 46.225 185.893C46.225 185.842 46.2369 185.788 46.2639 185.737L47.5591 183.023C47.6219 182.895 47.7027 182.829 47.8044 182.829C47.8702 182.829 47.927 182.847 47.9719 182.889C48.0138 182.924 48.0347 182.978 48.0347 183.044Z" fill="white"/>
<path d="M50.3799 184.443C50.3829 184.889 50.3081 185.255 50.1556 185.542C49.9641 185.905 49.662 186.084 49.2552 186.087C48.8484 186.09 48.5432 185.914 48.3458 185.554C48.1873 185.27 48.1065 184.904 48.1035 184.458C48.1005 184.012 48.1723 183.646 48.3249 183.365C48.5163 183.002 48.8184 182.822 49.2312 182.816C49.6411 182.813 49.9462 182.99 50.1436 183.35C50.2962 183.634 50.3769 183.997 50.3799 184.443ZM49.8175 184.446C49.8145 184.167 49.7816 183.931 49.7158 183.742C49.6171 183.457 49.4556 183.317 49.2342 183.317C49.0069 183.32 48.8484 183.46 48.7556 183.745C48.6898 183.937 48.6599 184.173 48.6629 184.455C48.6689 185.216 48.8663 185.596 49.2552 185.593C49.4795 185.59 49.6381 185.446 49.7308 185.156C49.7906 184.967 49.8205 184.73 49.8175 184.446Z" fill="white"/>
<path d="M52.8896 184.422C52.8926 184.868 52.8178 185.234 52.6653 185.521C52.4738 185.884 52.1717 186.067 51.7649 186.07C51.3581 186.073 51.0529 185.896 50.8555 185.536C50.697 185.252 50.6192 184.886 50.6132 184.443C50.6102 183.997 50.682 183.631 50.8346 183.35C51.026 182.987 51.3281 182.808 51.7409 182.805C52.1508 182.802 52.4559 182.978 52.6533 183.338C52.8059 183.613 52.8836 183.976 52.8896 184.422ZM52.3272 184.425C52.3243 184.147 52.2913 183.91 52.2255 183.721C52.1268 183.437 51.9653 183.296 51.7439 183.296C51.5166 183.299 51.3581 183.44 51.2653 183.724C51.1995 183.916 51.1696 184.152 51.1726 184.434C51.1786 185.195 51.376 185.575 51.7649 185.572C51.9892 185.569 52.1478 185.426 52.2405 185.135C52.3003 184.946 52.3302 184.71 52.3272 184.425Z" fill="white"/>
<path d="M55.3964 184.404C55.3994 184.85 55.3246 185.216 55.172 185.503C54.9806 185.866 54.6784 186.045 54.2716 186.051C53.8648 186.054 53.5597 185.878 53.3623 185.518C53.2037 185.234 53.1259 184.871 53.12 184.425C53.117 183.979 53.1888 183.613 53.3413 183.332C53.5328 182.969 53.8349 182.789 54.2477 182.783C54.6575 182.78 54.9626 182.957 55.1601 183.317C55.3156 183.595 55.3934 183.958 55.3964 184.404ZM54.837 184.407C54.834 184.128 54.8011 183.892 54.7353 183.703C54.6366 183.419 54.475 183.278 54.2537 183.278C54.0263 183.281 53.8678 183.422 53.7751 183.706C53.7093 183.898 53.6793 184.134 53.6823 184.416C53.6883 185.177 53.8857 185.557 54.2746 185.554C54.499 185.551 54.6575 185.407 54.7502 185.117C54.8101 184.928 54.84 184.692 54.837 184.407Z" fill="white"/>
<path d="M57.9061 184.383C57.9091 184.83 57.8343 185.195 57.6817 185.483C57.4903 185.845 57.1881 186.025 56.7813 186.031C56.3745 186.034 56.0694 185.857 55.872 185.497C55.7134 185.213 55.6356 184.847 55.6297 184.404C55.6237 183.961 55.6985 183.592 55.848 183.311C56.0395 182.948 56.3416 182.769 56.7544 182.763C57.1642 182.76 57.4693 182.936 57.6668 183.296C57.8253 183.574 57.9031 183.937 57.9061 184.383ZM57.3467 184.386C57.3437 184.108 57.3108 183.871 57.245 183.682C57.1463 183.398 56.9847 183.257 56.7634 183.257C56.536 183.26 56.3775 183.401 56.2848 183.685C56.219 183.877 56.189 184.114 56.192 184.395C56.198 185.156 56.3954 185.536 56.7843 185.533C57.0087 185.53 57.1672 185.387 57.2599 185.096C57.3198 184.907 57.3467 184.671 57.3467 184.386Z" fill="white"/>
<path d="M61.0291 38.0204H62.5846V55.115C61.1009 55.115 59.6172 55.115 58.1335 55.115V47.5157L54.511 51.3139H54.0264L50.4278 47.5157V55.115C48.9441 55.115 47.4604 55.115 45.9797 55.115V38.0204H47.5831L54.2448 45.422L61.0291 38.0204Z" fill="#2C92E0"/>
<path d="M65.881 46.6171C65.881 34.8303 83.3414 34.8303 83.3414 46.6171C83.3414 58.4278 65.881 58.4278 65.881 46.6171ZM78.8903 46.6171C78.8903 40.4796 70.356 40.4796 70.356 46.6171C70.356 52.8025 78.8903 52.8025 78.8903 46.6171Z" fill="#2C92E0"/>
<path d="M91.1338 46.74V55.115C89.6262 55.115 88.1186 55.115 86.6349 55.115V37.9965H88.2143L96.8233 46.4224V38.0713C98.307 38.0713 99.7907 38.0713 101.271 38.0713V55.142H99.7159L91.1338 46.74Z" fill="#2C92E0"/>
<path d="M116.237 41.9653C113.709 41.9653 112.444 41.9653 109.937 41.9653V44.3766H115.725C115.725 45.6676 115.725 46.9586 115.725 48.2466H109.937C109.937 49.244 109.937 50.2205 109.937 51.242C112.441 51.242 113.901 51.242 116.452 51.242C116.452 52.509 116.452 53.824 116.452 55.112C112.465 55.112 109.548 55.112 105.609 55.112C105.609 49.4148 105.609 43.7176 105.609 38.0653C109.548 38.0653 112.25 38.0653 116.237 38.0653C116.237 39.3353 116.237 40.6503 116.237 41.9653Z" fill="#2C92E0"/>
<path d="M128.283 55.115H123.982V47.956L118.268 38.7273V38.0713H122.962L126.052 43.7445H126.219L129.309 38.0713H134.026V38.7273L128.286 47.956V55.115H128.283Z" fill="#2C92E0"/>
<path d="M25.9438 68.0581C25.9438 66.7432 25.9438 65.4521 25.9438 64.1611H38.5882C38.5882 65.4521 38.5882 66.7432 38.5882 68.0581H34.4302V81.2078C32.9944 81.2078 31.5616 81.2078 30.1257 81.2078V68.0581H25.9438Z" fill="#2C92E0"/>
<path d="M55.6627 80.5727V81.2048H50.7988L47.8793 76.1875H45.6178V81.2048C44.1581 81.2048 42.6744 81.2048 41.2654 81.2048C41.2654 75.5315 41.2654 69.8583 41.2654 64.1581C43.7213 64.1581 46.249 64.1581 48.7318 64.1581C55.4174 64.182 56.6349 72.2426 52.3304 75.1631L55.6627 80.5727ZM48.7348 68.0581C47.7117 68.0341 46.6438 68.0581 45.6208 68.0581C45.6208 69.4449 45.6208 70.9067 45.6208 72.2725H48.7348C51.0919 72.2725 51.2146 68.082 48.7348 68.0581Z" fill="#2C92E0"/>
<path d="M68.8784 79.0631H62.1658L61.1697 81.2078H56.9131V80.5758L64.5738 63.9454H66.4464L74.1281 80.5758V81.2078H69.8715L68.8784 79.0631ZM65.4982 70.8348L63.6017 75.3159H67.4425L65.4982 70.8348Z" fill="#2C92E0"/>
<path d="M80.8766 72.8297V81.2078C79.3689 81.2078 77.8613 81.2078 76.3776 81.2078V64.0892H77.957L86.5661 72.5152V64.1611C88.0498 64.1611 89.5335 64.1611 91.0142 64.1611V81.2318H89.4587L80.8766 72.8297Z" fill="#2C92E0"/>
<path d="M103.697 76.1186C103.697 74.9264 102.285 74.7317 100.583 74.6329C96.8861 74.3663 94.4542 73.0992 94.4063 69.3969C94.2598 62.0433 107.487 62.0433 107.392 69.3969C105.86 69.3969 104.741 69.3969 103.258 69.3969C103.258 67.1324 98.6869 67.3271 98.5403 69.349C98.4446 70.64 99.707 70.9066 101.239 71.0774C104.619 71.4428 107.924 71.8801 107.924 76.1425C107.924 83.3015 94.0623 83.4962 94.161 75.9958C95.6208 75.9958 96.8861 75.9958 98.3698 75.9958C98.3728 78.1644 103.697 78.1165 103.697 76.1186Z" fill="#2C92E0"/>
<path d="M115.549 75.6784V81.2048C114.089 81.2048 112.606 81.2048 111.125 81.2048V64.1611C114.604 64.1611 118.25 64.1611 121.729 64.1611C121.729 65.5989 121.729 66.5964 121.729 68.0581H115.552V71.7844H121.023C121.023 73.2461 121.023 74.1717 121.023 75.6814H115.549V75.6784Z" fill="#2C92E0"/>
<path d="M135.717 68.0581C133.189 68.0581 131.924 68.0581 129.417 68.0581V70.4693H135.205C135.205 71.7603 135.205 73.0513 135.205 74.3394H129.417C129.417 75.3368 129.417 76.3133 129.417 77.3347C131.921 77.3347 133.38 77.3347 135.932 77.3347C135.932 78.6018 135.932 79.9167 135.932 81.2048C131.944 81.2048 129.028 81.2048 125.088 81.2048C125.088 75.5076 125.088 69.8104 125.088 64.1581C129.028 64.1581 131.726 64.1581 135.717 64.1581C135.717 65.4281 135.717 66.7431 135.717 68.0581Z" fill="#2C92E0"/>
<path d="M154.056 80.5728V81.2048H149.192L146.276 76.1906H144.014V81.2078C142.555 81.2078 141.071 81.2078 139.662 81.2078C139.662 75.5346 139.662 69.8613 139.662 64.1611C142.118 64.1611 144.646 64.1611 147.128 64.1611C153.814 64.1851 155.032 72.2457 150.727 75.1661L154.056 80.5728ZM147.128 68.0581C146.105 68.0342 145.038 68.0581 144.014 68.0581C144.014 69.445 144.014 70.9067 144.014 72.2726H147.128C149.486 72.2726 149.608 68.0821 147.128 68.0581Z" fill="#2C92E0"/>
</svg>
